<svg xmlns="http://www.w3.org/2000/svg" fill="none" viewBox="0 0 500 390"><path fill="#ebebeb" d="M500 342.726H0v.262h500zm-50.1 16.843h-33.12v.262h33.12zm-118.682 2.847h-8.69v.262h8.69zm84.562-12.561h-19.19v.261h19.19zm-320.13 1.758H52.46v.262h43.19zm15.24 0h-6.33v.262h6.33zm114.26 4.418h-93.68v.262h93.68zm11.851-59.993H43.911a5.6 5.6 0 0 1-4.031-1.754 6.13 6.13 0 0 1-1.67-4.223V5.925a6.12 6.12 0 0 1 1.687-4.19A5.58 5.58 0 0 1 43.911 0H237c1.514 0 2.967.63 4.038 1.75a6.13 6.13 0 0 1 1.672 4.227v284.084a6.12 6.12 0 0 1-1.672 4.226 5.6 5.6 0 0 1-4.038 1.751M43.911.209a5.34 5.34 0 0 0-3.854 1.678 5.85 5.85 0 0 0-1.596 4.038v284.136c0 1.514.574 2.966 1.596 4.038a5.34 5.34 0 0 0 3.854 1.677H237a5.35 5.35 0 0 0 3.858-1.677 5.87 5.87 0 0 0 1.602-4.038V5.925a5.87 5.87 0 0 0-1.602-4.039A5.35 5.35 0 0 0 237.001.21zM453.31 296.038h-193.1a5.6 5.6 0 0 1-4.035-1.754 6.13 6.13 0 0 1-1.675-4.223V5.925a6.13 6.13 0 0 1 1.693-4.19A5.6 5.6 0 0 1 260.21 0h193.1a5.58 5.58 0 0 1 4.007 1.74A6.12 6.12 0 0 1 459 5.925v284.136a6.12 6.12 0 0 1-1.665 4.219c-1.067 1.12-2.514 1.753-4.025 1.758M260.21.209a5.35 5.35 0 0 0-3.858 1.677 5.87 5.87 0 0 0-1.602 4.039v284.136a5.87 5.87 0 0 0 1.602 4.038 5.34 5.34 0 0 0 3.858 1.677h193.1a5.34 5.34 0 0 0 3.858-1.677 5.87 5.87 0 0 0 1.602-4.038V5.925a5.87 5.87 0 0 0-1.602-4.039A5.35 5.35 0 0 0 453.31.21z"/><path fill="#e0e0e0" d="M292.441 44.667H71.501v222.94h220.94z"/><path fill="#f5f5f5" d="M292.441 48.719h-217.4v215.004h217.4z"/><path fill="#e6e6e6" d="M76.651 211.655v-64.672h6.41v-8.542l14.45-7.066v-8.752h2.4v24.36h2.41v64.672h3.21v-33.603h7.22v-17.628h2.41v51.231h5.61v-19.324h4.01v-5.036h8.83v-17.638h4.81v-11.756h5.62v-17.639h2.41v17.639h5.61v11.756h4.82v17.638h8.82v5.036h4.01v19.324h4.82v-24.36h8.82v-53.753h2.41v-5.873h19.25v5.873h4.02v38.637h16.04v4.198h5.62v2.523h-5.62v15.116h16.85v-50.394h3.21v-10.08h8.02V94.914h2.41v38.628h5.61v10.08h31.27v120.101h-217.4v-52.068z"/><path fill="#f0f0f0" d="M275.729 146.26h-2.27v2.377h2.27zm0 3.989h-2.27v2.376h2.27zm0 15.953h-2.27v2.376h2.27zm0 3.989h-2.27v2.376h2.27zm0 3.988h-2.27v2.376h2.27zm0 11.975h-2.27v2.377h2.27zm0 3.989h-2.27v2.376h2.27zm-3.607-27.929h-2.27v2.376h2.27zm0 3.988h-2.27v2.376h2.27zm0 3.989h-2.27v2.376h2.27zm0 3.988h-2.27v2.376h2.27zm0 3.988h-2.27v2.377h2.27zm0 7.987h-2.27v2.377h2.27zm0 3.989h-2.27v2.376h2.27zm-3.611-43.883h-2.27v2.377h2.27zm0 3.989h-2.27v2.376h2.27zm0 3.988h-2.27v2.376h2.27zm0 3.988h-2.27v2.377h2.27zm0 3.989h-2.27v2.376h2.27zm0 3.988h-2.27v2.376h2.27zm0 3.989h-2.27v2.376h2.27zm0 3.988h-2.27v2.376h2.27zm0 3.988h-2.27v2.377h2.27zm0 3.989h-2.27v2.376h2.27zm0 7.987h-2.27v2.376h2.27zM264.9 146.26h-2.27v2.377h2.27zm0 3.989h-2.27v2.376h2.27zm0 3.988h-2.27v2.376h2.27zm0 3.988h-2.27v2.377h2.27zm0 3.989h-2.27v2.376h2.27zm0 3.988h-2.27v2.376h2.27zm0 3.989h-2.27v2.376h2.27zm0 35.905h-2.27v2.376h2.27zm-3.61-59.836h-2.27v2.377h2.27zm0 3.989h-2.27v2.376h2.27zm0 3.988h-2.27v2.376h2.27zm0 3.988h-2.27v2.377h2.27zm0 3.989h-2.27v2.376h2.27zm0 3.988h-2.27v2.376h2.27zm0 3.989h-2.27v2.376h2.27zm0 3.988h-2.27v2.376h2.27zm0 23.94h-2.27v2.377h2.27zm0 3.989h-2.27v2.376h2.27zm0 3.988h-2.27v2.376h2.27zm0 3.989h-2.27v2.376h2.27zm0 15.953h-2.27v2.376h2.27zm-3.611-79.778h-2.27v2.377h2.27zm0 3.989h-2.27v2.376h2.27zm0 3.988h-2.27v2.376h2.27zm0 3.988h-2.27v2.377h2.27zm0 3.989h-2.27v2.376h2.27zm0 3.988h-2.27v2.376h2.27zm0 3.989h-2.27v2.376h2.27zm0 3.988h-2.27v2.376h2.27zm0 3.988h-2.27v2.377h2.27zm0 3.989h-2.27v2.376h2.27zm0 11.975h-2.27v2.376h2.27zm0 3.988h-2.27v2.377h2.27zm0 3.989h-2.27v2.376h2.27zm0 3.988h-2.27v2.376h2.27zm0 3.989h-2.27v2.376h2.27zm0 15.953h-2.27v2.376h2.27zm-3.608-79.778h-2.27v2.377h2.27zm0 3.989h-2.27v2.376h2.27zm0 3.988h-2.27v2.376h2.27zm0 3.988h-2.27v2.377h2.27zm0 3.989h-2.27v2.376h2.27zm0 3.988h-2.27v2.376h2.27zm0 3.989h-2.27v2.376h2.27zm0 3.988h-2.27v2.376h2.27zm0 3.988h-2.27v2.377h2.27zm0 3.989h-2.27v2.376h2.27zm0 3.998h-2.27v2.377h2.27zm0 3.989h-2.27v2.376h2.27zm0 3.988h-2.27v2.376h2.27zm0 3.988h-2.27v2.377h2.27zm0 3.989h-2.27v2.376h2.27zm0 3.988h-2.27v2.376h2.27zm0 3.989h-2.27v2.376h2.27zm0 3.988h-2.27v2.376h2.27zm-3.611-67.813h-2.27v2.377h2.27zm0 3.989h-2.27v2.376h2.27zm0 3.988h-2.27v2.376h2.27zm0 3.988h-2.27v2.377h2.27zm0 3.989h-2.27v2.376h2.27zm0 3.988h-2.27v2.376h2.27zm0 3.989h-2.27v2.376h2.27zm0 3.988h-2.27v2.376h2.27zm0 3.988h-2.27v2.377h2.27zm0 3.989h-2.27v2.376h2.27zm0 11.975h-2.27v2.376h2.27zm0 3.988h-2.27v2.377h2.27zm0 3.989h-2.27v2.376h2.27zm0 3.988h-2.27v2.376h2.27zm-3.61-59.836h-2.27v2.377h2.27zm0 3.989h-2.27v2.376h2.27zm0 3.988h-2.27v2.376h2.27zm0 3.988h-2.27v2.377h2.27zm0 3.989h-2.27v2.376h2.27zm0 3.988h-2.27v2.376h2.27zm0 3.989h-2.27v2.376h2.27zm0 3.988h-2.27v2.376h2.27zm0 3.988h-2.27v2.377h2.27zm0 3.989h-2.27v2.376h2.27zm0 11.975h-2.27v2.376h2.27zm0 3.988h-2.27v2.377h2.27zm0 3.989h-2.27v2.376h2.27zm-40.649-66.211h-2.27v2.376h2.27zm0 3.988h-2.27v2.377h2.27zm0 3.989h-2.27v2.376h2.27zm0 3.988h-2.27v2.376h2.27zm0 3.999h-2.27v2.376h2.27zm0 3.988h-2.27v2.376h2.27zm0 3.989h-2.27v2.376h2.27zm0 3.988h-2.27v2.376h2.27zm0 11.965h-2.27v2.376h2.27zm0 3.988h-2.27v2.377h2.27zm-3.611-43.882h-2.27v2.376h2.27zm0 3.988h-2.27v2.377h2.27zm0 3.989h-2.27v2.376h2.27zm0 3.988h-2.27v2.376h2.27zm0 3.999h-2.27v2.376h2.27zm0 3.988h-2.27v2.376h2.27zm0 3.989h-2.27v2.376h2.27zm0 3.988h-2.27v2.376h2.27zm0 15.953h-2.27v2.377h2.27zm-3.61-43.882h-2.27v2.376h2.27zm0 3.988h-2.27v2.377h2.27zm0 3.989h-2.27v2.376h2.27zm0 3.988h-2.27v2.376h2.27zm0 3.999h-2.27v2.376h2.27zm0 3.988h-2.27v2.376h2.27zm0 3.989h-2.27v2.376h2.27zm0 3.988h-2.27v2.376h2.27zm-3.611-27.929h-2.27v2.376h2.27zm0 3.988h-2.27v2.377h2.27zm0 3.989h-2.27v2.376h2.27zm0 3.988h-2.27v2.376h2.27zm0 3.999h-2.27v2.376h2.27zm0 3.988h-2.27v2.376h2.27zm0 7.977h-2.27v2.376h2.27zm0 3.988h-2.27v2.377h2.27zm0 11.965h-2.27v2.377h2.27zm0 3.989h-2.27v2.376h2.27zm0 3.988h-2.27v2.376h2.27zm0 3.988h-2.27v2.377h2.27zm0 3.999h-2.27v2.376h2.27zm0 3.989h-2.27v2.376h2.27zm0 3.988h-2.27v2.376h2.27zm-3.608-67.823h-2.27v2.376h2.27zm0 3.988h-2.27v2.377h2.27zm0 3.989h-2.27v2.376h2.27zm0 3.988h-2.27v2.376h2.27zm0 3.999h-2.27v2.376h2.27zm0 3.988h-2.27v2.376h2.27zm0 11.965h-2.27v2.377h2.27zm0 3.989h-2.27v2.376h2.27zm0 3.988h-2.27v2.376h2.27zm0 3.988h-2.27v2.377h2.27zm0 3.989h-2.27v2.376h2.27zm0 3.988h-2.27v2.376h2.27zm0 3.988h-2.27v2.377h2.27zm0 3.999h-2.27v2.376h2.27zm0 3.989h-2.27v2.376h2.27zm0 3.988h-2.27v2.376h2.27zm0 3.988h-2.27v2.377h2.27zm0 7.977h-2.27v2.376h2.27zm-3.621-79.788h-2.27v2.376h2.27zm0 3.988h-2.27v2.377h2.27zm0 3.989h-2.27v2.376h2.27zm0 3.988h-2.27v2.376h2.27zm0 3.999h-2.27v2.376h2.27zm0 3.988h-2.27v2.376h2.27zm0 11.965h-2.27v2.377h2.27zm0 3.989h-2.27v2.376h2.27zm0 3.988h-2.27v2.376h2.27zm0 3.988h-2.27v2.377h2.27zm0 11.965h-2.27v2.377h2.27zm0 3.999h-2.27v2.376h2.27zm0 3.989h-2.27v2.376h2.27zm0 3.988h-2.27v2.376h2.27zm0 3.988h-2.27v2.377h2.27zm0 7.977h-2.27v2.376h2.27zm0 3.988h-2.27v2.377h2.27zm-32.762-46.677h-2.27v2.376h2.27zm0 3.988h-2.27v2.377h2.27zm0 3.989h-2.27v2.376h2.27zm0 3.988h-2.27v2.376h2.27zm0 3.988h-2.27v2.377h2.27zm0 3.989h-2.27v2.376h2.27zm0 3.988h-2.27v2.376h2.27zm0 11.965h-2.27v2.376h2.27zm0 3.999h-2.27v2.376h2.27zm0 3.988h-2.27v2.377h2.27zm-3.607-43.882h-2.27v2.376h2.27zm0 3.988h-2.27v2.377h2.27zm0 3.989h-2.27v2.376h2.27zm0 3.988h-2.27v2.376h2.27zm0 3.988h-2.27v2.377h2.27zm0 3.989h-2.27v2.376h2.27zm0 3.988h-2.27v2.376h2.27zm-3.61-23.93h-2.27v2.376h2.27zm0 3.988h-2.27v2.377h2.27zm0 3.989h-2.27v2.376h2.27zm0 3.988h-2.27v2.376h2.27zm0 3.988h-2.27v2.377h2.27zm0 3.989h-2.27v2.376h2.27zm0 3.988h-2.27v2.376h2.27zm-3.612-23.93h-2.27v2.376h2.27zm0 3.988h-2.27v2.377h2.27zm0 3.989h-2.27v2.376h2.27zm0 3.988h-2.27v2.376h2.27zm0 3.988h-2.27v2.377h2.27zm0 3.989h-2.27v2.376h2.27zm0 3.988h-2.27v2.376h2.27zm0 3.988h-2.27v2.377h2.27zm0 3.989h-2.27v2.376h2.27zm0 3.988h-2.27v2.376h2.27zm0 3.999h-2.27v2.376h2.27zm-3.61-39.894h-2.27v2.376h2.27zm0 3.988h-2.27v2.377h2.27zm0 3.989h-2.27v2.376h2.27zm0 3.988h-2.27v2.376h2.27zm0 3.988h-2.27v2.377h2.27zm0 3.989h-2.27v2.376h2.27zm0 3.988h-2.27v2.376h2.27zm0 3.988h-2.27v2.377h2.27zm0 3.989h-2.27v2.376h2.27zm0 3.988h-2.27v2.376h2.27zm0 3.999h-2.27v2.376h2.27zm0 3.988h-2.27v2.377h2.27zm0 11.965h-2.27v2.377h2.27zm0 3.989h-2.27v2.376h2.27zm-3.607-59.836h-2.27v2.376h2.27zm0 3.988h-2.27v2.377h2.27zm0 3.989h-2.27v2.376h2.27zm0 11.965h-2.27v2.376h2.27zm0 3.988h-2.27v2.376h2.27zm0 3.988h-2.27v2.377h2.27zm0 3.989h-2.27v2.376h2.27zm0 3.988h-2.27v2.376h2.27zm0 3.999h-2.27v2.376h2.27zm0 3.988h-2.27v2.377h2.27zm0 11.965h-2.27v2.377h2.27zm0 3.989h-2.27v2.376h2.27zm0 3.988h-2.27v2.376h2.27zM99.49 149.055h-2.27v2.377h2.27zm0 3.989h-2.27v2.376h2.27zm0 3.988h-2.27v2.376h2.27zm0 3.988h-2.27v2.377h2.27zm0 3.989h-2.27v2.376h2.27zm0 3.999h-2.27v2.376h2.27zm0 3.988h-2.27v2.376h2.27zm0 3.988h-2.27v2.377h2.27zm0 3.989h-2.27v2.376h2.27zm0 3.988h-2.27v2.376h2.27zm0 3.988h-2.27v2.377h2.27zm0 3.989h-2.27v2.376h2.27zm0 3.988h-2.27v2.376h2.27zm0 3.988h-2.27v2.377h2.27zm0 3.989h-2.27v2.376h2.27zm0 3.988h-2.27v2.376h2.27zm0 3.999h-2.27v2.376h2.27zm0 3.988h-2.27v2.377h2.27zm0 3.989h-2.27v2.376h2.27zm0 3.988h-2.27v2.376h2.27zm0 3.988h-2.27v2.377h2.27zm0 3.989h-2.27v2.376h2.27zm0 3.988h-2.27v2.376h2.27zm-3.61-87.765h-2.27v2.377h2.27zm0 3.989h-2.27v2.376h2.27zm0 3.988h-2.27v2.376h2.27zm0 3.988h-2.27v2.377h2.27zm0 3.989h-2.27v2.376h2.27zm0 3.999h-2.27v2.376h2.27zm0 3.988h-2.27v2.376h2.27zm0 3.988h-2.27v2.377h2.27zm0 3.989h-2.27v2.376h2.27zm0 3.988h-2.27v2.376h2.27zm0 3.988h-2.27v2.377h2.27zm0 3.989h-2.27v2.376h2.27zm0 3.988h-2.27v2.376h2.27zm0 3.988h-2.27v2.377h2.27zm0 3.989h-2.27v2.376h2.27zm0 3.988h-2.27v2.376h2.27zm0 3.999h-2.27v2.376h2.27zm0 3.988h-2.27v2.377h2.27zm0 3.989h-2.27v2.376h2.27zm-3.609-71.812h-2.27v2.377h2.27zm0 3.989h-2.27v2.376h2.27zm0 3.988h-2.27v2.376h2.27zm0 3.988h-2.27v2.377h2.27zm0 3.989h-2.27v2.376h2.27zm0 3.999h-2.27v2.376h2.27zm0 3.988h-2.27v2.376h2.27zm0 3.988h-2.27v2.377h2.27zm0 3.989h-2.27v2.376h2.27zm0 3.988h-2.27v2.376h2.27zm0 3.988h-2.27v2.377h2.27zm0 3.989h-2.27v2.376h2.27zm0 3.988h-2.27v2.376h2.27zm0 3.988h-2.27v2.377h2.27zm0 3.989h-2.27v2.376h2.27zm0 3.988h-2.27v2.376h2.27zm0 3.999h-2.27v2.376h2.27zm0 3.988h-2.27v2.377h2.27zm0 3.989h-2.27v2.376h2.27zm-3.611-71.812h-2.27v2.377h2.27zm0 3.989h-2.27v2.376h2.27zm0 3.988h-2.27v2.376h2.27zm0 3.988h-2.27v2.377h2.27zm0 3.989h-2.27v2.376h2.27zm0 3.999h-2.27v2.376h2.27zm0 3.988h-2.27v2.376h2.27zm0 3.988h-2.27v2.377h2.27zm0 3.989h-2.27v2.376h2.27zm0 3.988h-2.27v2.376h2.27zm0 3.988h-2.27v2.377h2.27zm0 3.989h-2.27v2.376h2.27zm0 3.988h-2.27v2.376h2.27zm0 3.988h-2.27v2.377h2.27zm0 3.989h-2.27v2.376h2.27zm-3.61-55.848h-2.27v2.377h2.27zm0 3.989h-2.27v2.376h2.27zm0 3.988h-2.27v2.376h2.27zm0 3.988h-2.27v2.377h2.27zm0 3.989h-2.27v2.376h2.27zm0 3.999h-2.27v2.376h2.27zm0 3.988h-2.27v2.376h2.27zm0 3.988h-2.27v2.377h2.27zm0 3.989h-2.27v2.376h2.27zm0 3.988h-2.27v2.376h2.27zm0 3.988h-2.27v2.377h2.27zm0 3.989h-2.27v2.376h2.27zm0 3.988h-2.27v2.376h2.27zm-3.611-47.871h-2.27v2.377h2.27zm0 3.989h-2.27v2.376h2.27zm0 3.988h-2.27v2.376h2.27zm0 3.988h-2.27v2.377h2.27zm0 3.989h-2.27v2.376h2.27zm0 3.999h-2.27v2.376h2.27zm0 3.988h-2.27v2.376h2.27zm0 3.988h-2.27v2.377h2.27zm0 3.989h-2.27v2.376h2.27zm0 3.988h-2.27v2.376h2.27zm0 3.988h-2.27v2.377h2.27zm0 3.989h-2.27v2.376h2.27zm210.74-45.076h-2.27v2.376h2.27zm0 3.999h-2.27v2.376h2.27zm0 3.988h-2.27v2.376h2.27zm0 3.989h-2.27v2.376h2.27zm0 3.988h-2.27v2.376h2.27zm0 3.988h-2.27v2.377h2.27zm0 3.989h-2.27v2.376h2.27zm0 3.988h-2.27v2.376h2.27zm0 3.988h-2.27v2.377h2.27zm0 3.989h-2.27v2.376h2.27zm0 3.988h-2.27v2.376h2.27zm0 3.988h-2.27v2.377h2.27zm0 3.999h-2.27v2.376h2.27zm0 3.989h-2.27v2.376h2.27zm0 3.988h-2.27v2.376h2.27zm0 3.988h-2.27v2.377h2.27zm0 3.989h-2.27v2.376h2.27zm0 7.976h-2.27v2.377h2.27zm0 3.989h-2.27v2.376h2.27zm0 3.988h-2.27v2.376h2.27zm0 3.988h-2.27v2.377h2.27zm0 3.989h-2.27v2.376h2.27zm-3.608-87.765h-2.27v2.376h2.27zm0 3.999h-2.27v2.376h2.27zm0 3.988h-2.27v2.376h2.27zm0 3.989h-2.27v2.376h2.27zm0 3.988h-2.27v2.376h2.27zm0 3.988h-2.27v2.377h2.27zm0 3.989h-2.27v2.376h2.27zm0 3.988h-2.27v2.376h2.27zm0 3.988h-2.27v2.377h2.27zm0 3.989h-2.27v2.376h2.27zm0 3.988h-2.27v2.376h2.27zm0 3.988h-2.27v2.377h2.27zm0 3.999h-2.27v2.376h2.27zm0 3.989h-2.27v2.376h2.27zm0 3.988h-2.27v2.376h2.27zm0 3.988h-2.27v2.377h2.27zm0 23.93h-2.27v2.377h2.27zm0 3.989h-2.27v2.376h2.27zm-3.621-87.765h-2.27v2.376h2.27zm0 3.999h-2.27v2.376h2.27zm0 3.988h-2.27v2.376h2.27zm0 3.989h-2.27v2.376h2.27zm0 3.988h-2.27v2.376h2.27zm0 3.988h-2.27v2.377h2.27zm0 3.989h-2.27v2.376h2.27zm0 3.988h-2.27v2.376h2.27zm0 3.988h-2.27v2.377h2.27zm0 3.989h-2.27v2.376h2.27zm0 3.988h-2.27v2.376h2.27zm0 3.988h-2.27v2.377h2.27zm0 3.999h-2.27v2.376h2.27zm0 3.989h-2.27v2.376h2.27zm0 3.988h-2.27v2.376h2.27zm0 3.988h-2.27v2.377h2.27zm0 7.977h-2.27v2.376h2.27zm0 3.988h-2.27v2.377h2.27zm0 3.989h-2.27v2.376h2.27zm0 3.988h-2.27v2.376h2.27zm0 7.977h-2.27v2.376h2.27zm-62.981-59.836h-2.27v2.376h2.27zm0 3.988h-2.27v2.377h2.27zm0 3.989h-2.27v2.376h2.27zm0 3.988h-2.27v2.376h2.27zm0 3.988h-2.27v2.377h2.27zm0 3.999h-2.27v2.376h2.27zm0 3.989h-2.27v2.376h2.27zm0 3.988h-2.27v2.376h2.27zm0 3.988h-2.27v2.377h2.27zm0 3.989h-2.27v2.376h2.27zm0 3.988h-2.27v2.376h2.27zm0 3.988h-2.27v2.377h2.27zm0 3.989h-2.27v2.376h2.27zm0 7.976h-2.27v2.377h2.27zm0 3.989h-2.27v2.376h2.27zm0 3.999h-2.27v2.376h2.27zm0 3.988h-2.27v2.376h2.27zm0 7.977h-2.27v2.376h2.27zm0 3.988h-2.27v2.376h2.27zm0 3.988h-2.27v2.377h2.27zm-3.61-83.776h-2.27v2.376h2.27zm0 3.988h-2.27v2.377h2.27zm0 3.989h-2.27v2.376h2.27zm0 3.988h-2.27v2.376h2.27zm0 3.988h-2.27v2.377h2.27zm0 3.999h-2.27v2.376h2.27zm0 3.989h-2.27v2.376h2.27zm0 3.988h-2.27v2.376h2.27zm0 3.988h-2.27v2.377h2.27zm0 3.989h-2.27v2.376h2.27zm0 3.988h-2.27v2.376h2.27zm0 3.988h-2.27v2.377h2.27zm0 3.989h-2.27v2.376h2.27zm0 11.965h-2.27v2.376h2.27zm0 3.999h-2.27v2.376h2.27zm0 7.976h-2.27v2.376h2.27zm0 3.989h-2.27v2.376h2.27zm0 3.988h-2.27v2.376h2.27zm0 3.988h-2.27v2.377h2.27zm-3.608-83.776h-2.27v2.376h2.27zm0 3.988h-2.27v2.377h2.27zm0 3.989h-2.27v2.376h2.27zm0 3.988h-2.27v2.376h2.27zm0 3.988h-2.27v2.377h2.27zm0 3.999h-2.27v2.376h2.27zm0 3.989h-2.27v2.376h2.27zm0 3.988h-2.27v2.376h2.27zm0 3.988h-2.27v2.377h2.27zm0 3.989h-2.27v2.376h2.27zm0 3.988h-2.27v2.376h2.27zm0 3.988h-2.27v2.377h2.27zm0 3.989h-2.27v2.376h2.27zm0 3.988h-2.27v2.376h2.27zm0 7.977h-2.27v2.376h2.27zm0 7.987h-2.27v2.376h2.27zm0 3.988h-2.27v2.376h2.27zm0 3.989h-2.27v2.376h2.27zm0 3.988h-2.27v2.376h2.27zm0 3.988h-2.27v2.377h2.27zm21.929-61.029h-2.27v2.376h2.27zm0 3.989h-2.27v2.376h2.27zm0 3.988h-2.27v2.376h2.27zm0 3.988h-2.27v2.376h2.27zm0 3.989h-2.27v2.376h2.27zm0 3.988h-2.27v2.376h2.27zm0 11.975h-2.27v2.377h2.27zm0 3.989h-2.27v2.376h2.27zm0 3.988h-2.27v2.376h2.27zm0 3.989h-2.27v2.376h2.27zm0 3.988h-2.27v2.376h2.27zm0 3.988h-2.27v2.376h2.27zm0 3.989h-2.27v2.376h2.27zm-3.61-55.848h-2.27v2.376h2.27zm0 3.989h-2.27v2.376h2.27zm0 3.988h-2.27v2.376h2.27zm0 3.988h-2.27v2.376h2.27zm0 3.989h-2.27v2.376h2.27zm0 3.988h-2.27v2.376h2.27zm0 11.975h-2.27v2.377h2.27zm0 3.989h-2.27v2.376h2.27zm0 3.988h-2.27v2.376h2.27zm0 3.989h-2.27v2.376h2.27zm0 3.988h-2.27v2.376h2.27zm0 3.988h-2.27v2.376h2.27zm0 7.977h-2.27v2.376h2.27zm-119.942-77.401h-2.27v2.376h2.27zm0 3.988h-2.27v2.376h2.27zm0 3.988h-2.27v2.377h2.27zm0 3.989h-2.27v2.376h2.27zm0 3.988h-2.27v2.376h2.27zm0 3.988h-2.27v2.377h2.27zm0 3.989h-2.27v2.376h2.27zm0 3.988h-2.27v2.376h2.27zm0 3.999h-2.27v2.376h2.27zm0 3.988h-2.27v2.377h2.27zm0 3.989h-2.27v2.376h2.27zm0 7.976h-2.27v2.377h2.27zm0 3.989h-2.27v2.376h2.27zm0 3.988h-2.27v2.376h2.27zm0 3.988h-2.27v2.377h2.27zm0 3.989h-2.27v2.376h2.27zm0 3.988h-2.27v2.376h2.27zm0 3.988h-2.27v2.377h2.27zm0 3.999h-2.27v2.377h2.27zm-3.607-75.799h-2.27v2.376h2.27zm0 3.988h-2.27v2.376h2.27zm0 3.988h-2.27v2.377h2.27zm0 3.989h-2.27v2.376h2.27zm0 3.988h-2.27v2.376h2.27zm0 3.988h-2.27v2.377h2.27zm0 3.989h-2.27v2.376h2.27zm0 3.988h-2.27v2.376h2.27zm0 3.999h-2.27v2.376h2.27zm0 3.988h-2.27v2.377h2.27zm0 3.989h-2.27v2.376h2.27zm0 3.988h-2.27v2.376h2.27zm0 3.988h-2.27v2.377h2.27zm0 3.989h-2.27v2.376h2.27zm0 3.988h-2.27v2.376h2.27zm0 3.988h-2.27v2.377h2.27zm0 3.989h-2.27v2.376h2.27zm0 3.988h-2.27v2.376h2.27zm0 3.988h-2.27v2.377h2.27zm0 3.999h-2.27v2.377h2.27zm21.39-60.265h-2.27v2.377h2.27zm0 3.989h-2.27v2.376h2.27zm0 3.988h-2.27v2.376h2.27zm0 3.988h-2.27v2.377h2.27zm0 3.989h-2.27v2.376h2.27zm0 3.999h-2.27v2.376h2.27zm0 3.988h-2.27v2.376h2.27zm0 3.988h-2.27v2.377h2.27zm0 3.989h-2.27v2.376h2.27zm0 3.988h-2.27v2.376h2.27zm-3.611-35.906h-2.27v2.377h2.27zm0 3.989h-2.27v2.376h2.27zm0 3.988h-2.27v2.376h2.27zm0 3.988h-2.27v2.377h2.27zm0 3.989h-2.27v2.376h2.27zm0 3.999h-2.27v2.376h2.27zm0 3.988h-2.27v2.376h2.27zm0 3.988h-2.27v2.377h2.27zm0 3.989h-2.27v2.376h2.27z"/><path fill="#e0e0e0" d="M148.791 45.118h-3.82v222.499h3.82zm71.769 0h-3.82v222.499h3.82zm71.78 0h-3.82v222.499h3.82zm75.571 26.934c7.826 0 14.17-6.641 14.17-14.833s-6.344-14.834-14.17-14.834-14.17 6.642-14.17 14.834 6.344 14.833 14.17 14.833"/><path fill="#f0f0f0" d="M367.909 69.833c6.655 0 12.05-5.648 12.05-12.614s-5.395-12.614-12.05-12.614-12.05 5.647-12.05 12.614c0 6.966 5.395 12.614 12.05 12.614"/><path fill="#f0f0f0" d="M367.34 48.562v8.814l-5.58-3.298"/><path fill="#e0e0e0" d="M367.341 58.423a.96.96 0 0 1-.49-.137l-5.58-3.297a1.02 1.02 0 0 1-.476-.634 1.1 1.1 0 0 1 .096-.8c.132-.24.349-.415.604-.487a.96.96 0 0 1 .756.1l4.09 2.418v-7.024c0-.278.105-.544.293-.74a.98.98 0 0 1 .707-.307c.265 0 .52.11.707.306.188.197.293.463.293.74v8.815a1.1 1.1 0 0 1-.133.526c-.088.16-.214.292-.367.384a.96.96 0 0 1-.5.136m61.939 120.876V82.049H309.73v97.249z"/><path fill="#ebebeb" d="M311.391 177.56h116.24V83.776h-116.24z"/><path fill="#f5f5f5" d="M404.3 115.348h13.55V95.302H404.3zm-17.651 7.328h14.26v-21.46h-14.26zm18.698 45.392 14.138-1.946-2.672-21.276-14.138 1.946zm-37.448-1.73h14.26v-21.459h-14.26zm17.041-2.261h14.26v-21.459h-14.26zm-41.541-58.056h8.85v-9.264h-8.85zm-9.703 2.195 8.266-3.311-3.163-8.652-8.265 3.31z"/><path fill="#e0e0e0" d="M347.819 97.93c0 .144.055.282.153.384.097.102.229.16.367.16a.52.52 0 0 0 .273-.196.56.56 0 0 0 .104-.328.56.56 0 0 0-.104-.328.52.52 0 0 0-.273-.195.5.5 0 0 0-.354.144.56.56 0 0 0-.166.358m-10.189.001c0 .107.03.212.087.302.058.09.139.159.234.2a.5.5 0 0 0 .3.031.5.5 0 0 0 .267-.149.56.56 0 0 0 .112-.593.54.54 0 0 0-.191-.244.505.505 0 0 0-.657.067.56.56 0 0 0-.152.385m55.64 4.857c0 .145.054.283.152.385.097.102.23.16.368.16s.27-.058.367-.16a.555.555 0 0 0-.003-.767.52.52 0 0 0-.364-.162.5.5 0 0 0-.368.159.56.56 0 0 0-.152.385m17.811-5.485c.287 0 .52-.244.52-.544s-.233-.545-.52-.545a.53.53 0 0 0-.52.545c0 .3.232.544.52.544m4.338 49.116c0 .145.055.283.152.385a.5.5 0 0 0 .368.16.5.5 0 0 0 .368-.16.56.56 0 0 0-.003-.766.52.52 0 0 0-.365-.163.5.5 0 0 0-.368.16.56.56 0 0 0-.152.384m-23.338-2.02c.287 0 .52-.244.52-.544a.533.533 0 0 0-.52-.545.53.53 0 0 0-.52.545c0 .3.232.544.52.544m-17.561 1.476a.56.56 0 0 0 .152.385.5.5 0 0 0 .368.159.5.5 0 0 0 .238.012.52.52 0 0 0 .37-.292.57.57 0 0 0-.152-.677.5.5 0 0 0-.456-.089.5.5 0 0 0-.357.141.54.54 0 0 0-.163.361m-54.07-1.486h28.41v-18.644h-28.41zm9.73 23.071h24.8v-20.496h-24.8z"/><path fill="#ebebeb" d="M397.449 309.73c.14-1.046 3.52-25.437-3.25-33.853a7.4 7.4 0 0 0-2.495-2.108 7.05 7.05 0 0 0-3.115-.792c-13.66-.335-15.53 11.148-15.55 11.264l1.61.261c.07-.408 1.69-10.133 13.9-9.819a5.5 5.5 0 0 1 2.454.621 5.74 5.74 0 0 1 1.956 1.672c6.3 7.84 2.91 32.252 2.87 32.503z"/><path fill="#ebebeb" d="m398.271 308.61 1.63-.052c0-.22-.54-22.475 9.93-27.07 10.27-4.502 14.89 4.752 15.08 5.15l1.46-.764c-.06-.115-5.48-11.097-17.17-5.957-11.5 5.046-10.96 27.73-10.93 28.693"/><path fill="#ebebeb" d="M398.231 310.359c0-.346.09-35.592 6.65-45.84 6.29-9.882 16.45-5.234 16.87-5.025l.68-1.56c-.12 0-11.84-5.464-18.91 5.643-6.83 10.719-6.92 45.316-6.92 46.782z"/><path fill="#e0e0e0" d="M386.631 273.825s6 2.303 4.19 7.736-20.63 14.373-20.63 14.373-7.9-7.579-.64-19.89 16.92-6.113 17.08-2.219m18.54-11.159s-4.23-.482-3.89-3.141 16.46-9.651 26 1.581c0 0-6.09 10.95-14.89 11.096s-7.22-9.536-7.22-9.536m4.35 18.036s-2.92-2.47.23-3.674 18.63-.869 18.79 15.179c0 0-18 3.14-20.25-2.973s1.23-8.532 1.23-8.532"/><path fill="#ebebeb" d="M383.429 342.412h27.96l3.02-32.053h-34z"/><path fill="#e0e0e0" d="M378.909 313.907h36.99v-7.076h-36.99z"/><path fill="#f5f5f5" d="M250.002 390c107.083 0 193.89-5.305 193.89-11.85 0-6.544-86.807-11.85-193.89-11.85s-193.89 5.306-193.89 11.85c0 6.545 86.808 11.85 193.89 11.85"/><path fill="#263238" d="M163.311 151.39h20.37l.17-2.156a.52.52 0 0 0-.129-.387.47.47 0 0 0-.361-.158h-19.3a.56.56 0 0 0-.384.159.6.6 0 0 0-.186.386zm22.941 0h20.36l.17-2.156a.52.52 0 0 0-.122-.387.47.47 0 0 0-.358-.158h-19.3a.56.56 0 0 0-.384.159.62.62 0 0 0-.186.386z"/><path fill="#263238" d="M146.521 149.788h200.88a4.4 4.4 0 0 1 1.883.37 4.5 4.5 0 0 1 1.571 1.148c.44.495.774 1.083.98 1.723.207.641.28 1.321.216 1.993l-11.17 138.253a5.94 5.94 0 0 1-1.793 3.712 5.45 5.45 0 0 1-3.697 1.522h-200.87a4.4 4.4 0 0 1-1.881-.373 4.6 4.6 0 0 1-1.57-1.148 4.8 4.8 0 0 1-.98-1.722 5 5 0 0 1-.219-1.991l11.13-138.263a5.94 5.94 0 0 1 1.807-3.716 5.45 5.45 0 0 1 3.713-1.508"/><path fill="#fff" d="M134.52 298.498h197.82a5.45 5.45 0 0 0 3.695-1.525 5.95 5.95 0 0 0 1.795-3.709L349 155.012a5 5 0 0 0-.215-1.993 4.8 4.8 0 0 0-.981-1.723 4.5 4.5 0 0 0-1.571-1.149 4.4 4.4 0 0 0-1.883-.369H146.52a5.44 5.44 0 0 0-3.697 1.522 5.94 5.94 0 0 0-1.793 3.712l-11.16 138.263a5 5 0 0 0 .222 1.988c.208.639.542 1.224.982 1.718.439.493.973.884 1.567 1.145a4.4 4.4 0 0 0 1.879.372" opacity=".2"/><g fill="#000" opacity=".5"><path d="M138.911 218.993a1.6 1.6 0 0 1 .479-.996c.271-.259.624-.403.991-.407.173-.003.345.031.504.102s.303.175.421.307a1.34 1.34 0 0 1 .325.994 1.6 1.6 0 0 1-.487.994 1.47 1.47 0 0 1-.993.409 1.2 1.2 0 0 1-.504-.098 1.2 1.2 0 0 1-.421-.308 1.3 1.3 0 0 1-.315-.997m.91 5.496a.6.6 0 0 1 .255.047.62.62 0 0 1 .346.385.7.7 0 0 1 .029.269.8.8 0 0 1-.244.496.74.74 0 0 1-.496.205.6.6 0 0 1-.254-.047.6.6 0 0 1-.213-.153.65.65 0 0 1-.163-.501.8.8 0 0 1 .245-.496.74.74 0 0 1 .495-.205" opacity=".6"/></g><path fill="#000" d="M331.36 224.143a4.1 4.1 0 0 0 .177 1.638c.17.527.444 1.009.805 1.416a3.75 3.75 0 0 0 1.291.944 3.6 3.6 0 0 0 1.547.305 4.48 4.48 0 0 0 3.043-1.25 4.88 4.88 0 0 0 1.477-3.053 4.1 4.1 0 0 0-.18-1.635 4 4 0 0 0-.806-1.415 3.75 3.75 0 0 0-1.288-.944 3.6 3.6 0 0 0-1.546-.308 4.48 4.48 0 0 0-3.043 1.25 4.9 4.9 0 0 0-1.477 3.052" opacity=".5"/><path fill="#000" d="M344.082 228.467h.9a.38.38 0 0 0 .265-.109.4.4 0 0 0 .125-.268l.64-7.904a.35.35 0 0 0-.086-.261.31.31 0 0 0-.244-.105h-.9a.4.4 0 0 0-.263.104.42.42 0 0 0-.127.262l-.64 7.904a.34.34 0 0 0 .081.268q.048.054.113.083a.3.3 0 0 0 .136.026"/><path fill="#500061" d="M323.722 293.547h-185.62l11.19-139.467h185.62z"/><path fill="#fff" d="M323.722 293.547h-185.62l11.19-139.467h185.62z" opacity=".7"/><path fill="#ebebeb" d="M227.411 187.474a4.85 4.85 0 0 1 1.452-3.04 4.44 4.44 0 0 1 3.018-1.252c.396-.002.791.058 1.17.178q-.037-.66 0-1.319c.238-2.467 1.332-4.756 3.076-6.433s4.016-2.625 6.384-2.664a9 9 0 0 1 1.6.157 8.6 8.6 0 0 1 2.967-2.777 8.16 8.16 0 0 1 3.853-1.044 6.6 6.6 0 0 1 2.814.574 6.9 6.9 0 0 1 2.349 1.719 7.3 7.3 0 0 1 1.48 2.57c.317.956.438 1.97.357 2.978h.12a6.1 6.1 0 0 1 2.62.533c.827.37 1.57.919 2.18 1.612a6.7 6.7 0 0 1 1.356 2.406c.285.893.385 1.839.294 2.776-.191 1.987-1.073 3.831-2.478 5.182a7.6 7.6 0 0 1-5.142 2.146h-25.8a3.6 3.6 0 0 1-1.502-.349 3.8 3.8 0 0 1-1.24-.955 4 4 0 0 1-.766-1.397 4.1 4.1 0 0 1-.162-1.601m-67.24 14.435a2.93 2.93 0 0 1 .877-1.838 2.68 2.68 0 0 1 1.823-.758c.24-.003.48.033.71.105a5 5 0 0 1 0-.796 6.22 6.22 0 0 1 1.861-3.887 5.7 5.7 0 0 1 3.859-1.609q.505-.004 1 .095a5.2 5.2 0 0 1 1.791-1.682 4.9 4.9 0 0 1 2.329-.632 4 4 0 0 1 1.704.342 4.15 4.15 0 0 1 1.423 1.04c.399.447.704.978.894 1.557s.261 1.193.209 1.803h.08a3.7 3.7 0 0 1 1.585.321c.5.223.949.555 1.318.973.369.419.649.915.82 1.455.172.54.232 1.113.177 1.679a5 5 0 0 1-1.501 3.131 4.6 4.6 0 0 1-3.109 1.297h-15.64a2.1 2.1 0 0 1-.907-.209 2.2 2.2 0 0 1-.748-.576 2.4 2.4 0 0 1-.461-.844 2.5 2.5 0 0 1-.094-.967m128.621 11.065a2.95 2.95 0 0 1 .894-1.816 2.7 2.7 0 0 1 1.816-.749q.358.004.7.105a8 8 0 0 1 0-.796 6.2 6.2 0 0 1 1.859-3.889 5.7 5.7 0 0 1 3.861-1.606q.505-.006 1 .094a5.2 5.2 0 0 1 1.797-1.683 4.9 4.9 0 0 1 2.333-.631 4 4 0 0 1 1.701.349 4.2 4.2 0 0 1 1.419 1.04c.399.447.703.976.895 1.554.191.577.264 1.19.215 1.799h.08c.543-.01 1.082.1 1.582.324a3.9 3.9 0 0 1 1.315.974c.368.419.646.914.817 1.454.172.539.232 1.111.176 1.676a5 5 0 0 1-1.495 3.131 4.6 4.6 0 0 1-3.105 1.297h-15.65a2.15 2.15 0 0 1-.913-.214 2.3 2.3 0 0 1-.75-.584 2.4 2.4 0 0 1-.459-.854 2.5 2.5 0 0 1-.088-.975"/><path fill="#263238" d="M240.302 271.826h-2.45l1.67-20.811h2.45zm36.209 0h-2.45l1.67-20.811h2.45zm-53.92 0h-2.45l1.67-20.811h2.45zm-17.711 0h-2.45l1.67-20.811h2.45zm53.131 0h-2.45l1.67-20.811h2.45zm54.931-.22h-2.45l1.67-20.811h2.45zm-17.711 0h-2.45l1.67-20.811h2.45zm-125.77.22h-2.45l1.67-20.811h2.45zm-17.709 0h-2.45l1.67-20.811h2.45zm35.42 0h-2.45l1.67-20.811h2.45z"/><g fill="#fff" opacity=".4"><path d="M240.303 271.825h-2.45l1.67-20.811h2.45zm36.209 0h-2.45l1.67-20.811h2.45zm-53.92 0h-2.45l1.67-20.811h2.45zm-17.708 0h-2.45l1.67-20.811h2.45zm53.129 0h-2.45l1.67-20.811h2.45zm54.929-.22h-2.45l1.67-20.81h2.45zm-17.711 0h-2.45l1.67-20.81h2.45zm-125.767.22h-2.45l1.67-20.811h2.45zm-17.711 0h-2.45l1.67-20.811h2.45zm35.419 0h-2.45l1.67-20.811h2.45z"/></g><path fill="#263238" d="M212.54 264.843c-2.41 1.476-6 1.34-8.51 1.435a27 27 0 0 1-5.29-.294c-.7-.115-4.56-.617-3.08-2.093a2.38 2.38 0 0 1 1.58-.503 2.4 2.4 0 0 1-1.06-1.214c-.15-.544.22-1.308.78-1.298a.9.9 0 0 1-.521-.321 1 1 0 0 1-.219-.59c.68 0 1.62-.23 1.63-.931 0-.932-1.63-.754-1.89-1.623l2.65-1.612c.157-.078.291-.197.39-.345.19-.335-.05-.733-.34-.932s-.65-.346-.81-.67.11-.89.45-.785l-.58-.681a1.43 1.43 0 0 1 .77-.523 2.4 2.4 0 0 0-.305-1.218 2.3 2.3 0 0 0-.865-.876l2.87-1.853a2.57 2.57 0 0 1-1.57-.471 1.06 1.06 0 0 1-.316-.764c0-.143.028-.285.082-.416q.083-.2.234-.348c.35-.23.83-.136 1.16-.387l-1.68-1.277a12.5 12.5 0 0 0 3.3-2.607.75.75 0 0 0-.15-.558.69.69 0 0 0-.49-.269c.137-.132.236-.301.286-.489s.049-.386-.003-.573a1.04 1.04 0 0 0-.291-.486.97.97 0 0 0-.492-.252 5.6 5.6 0 0 0 1.8-1.309 1.1 1.1 0 0 0-.67-.492 3.8 3.8 0 0 1 1.52-1.047l-1.73-.963c.09-.617.79-.911 1.32-1.246s.92-1.245.39-1.476a46 46 0 0 0 3.45-4.113c.007.754.16 1.5.451 2.191.29.691.712 1.313 1.239 1.828l-1.03 1.372 1.56.952a.97.97 0 0 0-.532.93 1 1 0 0 0 .092.368c.253.418.623.744 1.06.932q-.764.65-1.45 1.392l.87.712-.84.586 2.09.974c-.06.743-1.5 1.047-1.26 1.706.08.241.34.325.58.387l1.5.398a1.9 1.9 0 0 1-.488.663 1.8 1.8 0 0 1-.712.384l.63.419c.086.446.068.907-.052 1.344s-.339.838-.638 1.168a5.8 5.8 0 0 1 2.45.607c-.22.618-.92.879-1.44 1.277s-.82 1.361-.25 1.581c.066.299.219.569.438.773.218.204.491.333.782.368a2.3 2.3 0 0 1-.571.796c-.244.219-.53.379-.839.471.438.34.976.507 1.52.471a2.4 2.4 0 0 1-1 1.392c.787.47 1.653.776 2.55.9-.62 1.131-2.64 1.047-2.87 2.282-.26 1.413 2.3 1.581 2.39 3.005a6 6 0 0 0-1 1.287l1.08.482-.41.617c.46.162.872.443 1.2.817q-.416.37-.9.638m-35.278.304c-2.22 1.246-6.85 1.047-8.43 1.151-1.737.087-3.477.01-5.2-.23a11.8 11.8 0 0 1-2.42-.555c-1-.397-.93-.46-1.11-1.497a4.75 4.75 0 0 0 1.84-.764l-1.28-.848a6.7 6.7 0 0 0 2.23-.513l-1.61-.68a5.9 5.9 0 0 1 1.13-1.518c-.67.063-1.63-.241-1.39-.911.13-.248.334-.446.58-.565l2.33-1.403c.26-.157.56-.376.57-.68s-.28-.482-.53-.607l-2.06-1.047a11.4 11.4 0 0 1 3-1.518l-1.54-.691a3.1 3.1 0 0 0 1.47-1.654 6.37 6.37 0 0 0-3.39-.942 25 25 0 0 0 4.95-3.203l-2.26-.67a6.1 6.1 0 0 1 2.12-1.35 2.1 2.1 0 0 1 .014-1.077c.099-.351.287-.666.546-.912a6 6 0 0 1 1.79-1.194l-4.21-.659a38 38 0 0 1 3.53-2.46 3.2 3.2 0 0 1-.395-1.215 3.2 3.2 0 0 1 .115-1.277 10.6 10.6 0 0 0 3.45-2.805 6.2 6.2 0 0 0 2.91 2.093 6.7 6.7 0 0 0-1.45 1.55l1.68.89a3.3 3.3 0 0 1-1.11.9c.707.37 1.461.631 2.24.774a5.8 5.8 0 0 0-2 1.885c.344.044.671.181.95.397a.75.75 0 0 1 .232.479.77.77 0 0 1-.142.516c.452.326.968.544 1.51.639l-1 .994a10.5 10.5 0 0 0 2.07.754c0 .722-.94 1.047-1.46 1.549a1.44 1.44 0 0 0-.327.539 1.5 1.5 0 0 0 .127 1.237c.109.183.256.338.43.454.244.078.474.198.68.356a.986.986 0 0 1-.06 1.214 3.2 3.2 0 0 1-1.08.795c.375.431.879.715 1.43.807.21.471-.35.963-.81 1.245s-1 .859-.68 1.267 1.08.419 1.63.628 1 .932.6 1.424-1.38.408-1.41 1.046c.294-.024.585.072.814.267.229.194.378.474.416.78.007.324-.087.641-.267.903a1.42 1.42 0 0 1-.733.552 1.7 1.7 0 0 0 .75.723 3.3 3.3 0 0 1-.84 1.046c.23.576.88.786 1.41 1.047.53.262 1 .88.76 1.476a2.43 2.43 0 0 1-1.11 1.068m-17.92-.105c-.65.911-4.66 1.047-5.55 1.141-4.33.461-8.82.22-12.65-1.654a2.74 2.74 0 0 1 1.35-1.046 1.8 1.8 0 0 1-1.108-.21 1.9 1.9 0 0 1-.792-.837 61 61 0 0 1 5.69-2.586 11.6 11.6 0 0 1-3.89-1.047l3.67-2.512a1.795 1.795 0 0 1-.16-2.334 5.7 5.7 0 0 1 2-1.696l-2-1.047a21.7 21.7 0 0 0 4.4-3.999 29 29 0 0 1-3.47-1.685 13 13 0 0 0 3.26-2.45l-1.29-.314c-.19-1.047 2.22-1.047 2-2.093-.13-.691-1.51-.765-1.21-1.435a3.9 3.9 0 0 0 2.47-1.528 4.05 4.05 0 0 0-1.7-1.528 16.4 16.4 0 0 1 4.07-4.083c.018.711.212 1.405.562 2.014a4 4 0 0 0 1.438 1.462 2.03 2.03 0 0 0-1 .942 1.15 1.15 0 0 1 .815.446c.1.128.174.276.218.435s.056.326.037.49a1.54 1.54 0 0 1-.481.888 1.4 1.4 0 0 1-.909.368c.561.15 1.084.429 1.53.817-.76.23-.54 1.476.07 1.926s1.49.701 1.68 1.476a2.06 2.06 0 0 0-1.051.272c-.322.183-.594.45-.789.775.25.659 1.45.199 1.79.795.49.859-1.48 1.466-1.56 2.513s2.16 1.465 1.66 2.533c-.18.387-.65.534-.9.879-.52.733.24 1.581.86 2.094s1 1.811.17 2.093c-.34.126-.72 0-1.06.105-.77.325-.36 1.518.27 1.989s1.46 1.12 1.11 1.905c-.31-.018-.62.037-.907.16a2.1 2.1 0 0 0-.753.552c.22.66 2.36 4.271 2.15 4.836z"/><path fill="#263238" d="M195.001 265.116a34.4 34.4 0 0 1-8.69 1.193 26 26 0 0 1-5.44-.325 6.2 6.2 0 0 1-2.41-.596c-.62-.597-.11-.963.8-.984a1.18 1.18 0 0 0-.6-.639c.299-.005.592-.092.85-.251a.58.58 0 0 0-.225-.3.53.53 0 0 0-.355-.087l.42-.67a2.6 2.6 0 0 1-1.095-.482 2.74 2.74 0 0 1-.785-.932c.83-1.046 2.92-.366 3.27-1.633.28-1.046-1.24-1.465-1.65-2.407l2.23-1.34a2.3 2.3 0 0 0-1-.597 3.2 3.2 0 0 1 1.44-1.141 1.8 1.8 0 0 0-.44-1.12 2.8 2.8 0 0 1-.59-.701 1.25 1.25 0 0 1 .028-.732 1.2 1.2 0 0 1 .432-.577c.396-.297.85-.501 1.33-.596a2.67 2.67 0 0 0-1.46-1.361c.39-.43 1-.608 1.38-1.047.38-.44.57-1.204.08-1.403l.52-.597a1 1 0 0 1-.657-.385 1.08 1.08 0 0 1-.213-.756c.08-.582.344-1.12.75-1.528.3-.279.519-.642.63-1.047.06-.398-.35-.816-.67-.586l2.06-1.371a7.5 7.5 0 0 0-2.44-.89 4.35 4.35 0 0 0 2.07-1.822l.2-.272a7.9 7.9 0 0 0 1.62-3.046 14 14 0 0 0 2.15-3.59c.88.418.25 2.177 1.09 2.679.45.273 1.23.084 1.4.597l-.75.775c.186.274.448.482.75.596l-.69.974c.77.251 1.71.9 1.32 1.685-.21.429-.71.607-1 1.047a1.23 1.23 0 0 0-.117.876c.071.296.249.553.497.715a3.3 3.3 0 0 0 1.7.419 4.3 4.3 0 0 1-1.95 1.759l1.75.701c-.26.639-.53 1.277-.79 1.905l.54.461a1 1 0 0 0-.233.345 1.03 1.03 0 0 0 .028.824 1 1 0 0 0 .255.328 2.83 2.83 0 0 0 1.56.46 2.07 2.07 0 0 1 1.49.597 9.6 9.6 0 0 1-2.8 2.01l2.25 1.486a.74.74 0 0 1 .37.419c.18.796-1.57.67-1.78 1.497a1.02 1.02 0 0 0 .12.639c.17.387.33.785.5 1.182.3.712.74 1.518 1.52 1.539a2.1 2.1 0 0 0-1.031.285 2.2 2.2 0 0 0-.779.762c-.32.67.3 1.602.94 1.256a3.74 3.74 0 0 1-1 1.623 10.3 10.3 0 0 0 2.42 1.047 1.2 1.2 0 0 0-.761.477 1.3 1.3 0 0 0-.239.894c.059.297.192.572.385.798s.44.395.715.489c-.4.199-.83.346-1.22.472m125.48.868a34.7 34.7 0 0 1-8.69 1.183 25.5 25.5 0 0 1-5.44-.314 6.3 6.3 0 0 1-2.41-.596c-.62-.608-.11-.974.8-.984a1.18 1.18 0 0 0-.6-.639c.3-.005.592-.092.85-.251a.6.6 0 0 0-.225-.302.55.55 0 0 0-.355-.096l.42-.659a2.6 2.6 0 0 1-1.097-.485 2.76 2.76 0 0 1-.783-.939c.83-1.047 2.93-.367 3.27-1.623.28-1.047-1.24-1.465-1.65-2.418.75-.44 1.49-.89 2.23-1.34a2.3 2.3 0 0 0-1-.596 3.16 3.16 0 0 1 1.44-1.131c-.014-.42-.17-.82-.44-1.131a2.6 2.6 0 0 1-.59-.69c-.062-.243-.051-.5.032-.736s.232-.439.428-.583a3.26 3.26 0 0 1 1.33-.587 2.7 2.7 0 0 0-1.46-1.371c.39-.419 1-.607 1.38-.994.38-.388.57-1.215.08-1.403l.52-.597a1 1 0 0 1-.66-.389 1.08 1.08 0 0 1-.21-.762 2.63 2.63 0 0 1 .75-1.518c.302-.279.52-.642.63-1.047.06-.387-.34-.806-.67-.576l2.06-1.371a7.2 7.2 0 0 0-2.44-.89 4.46 4.46 0 0 0 2.07-1.821l.21-.283a7.9 7.9 0 0 0 1.61-3.036 14 14 0 0 0 2.15-3.601c.88.429.25 2.188 1.09 2.691.46.261 1.23.073 1.41.586l-.76.785c.189.269.45.473.75.586l-.69.974c.77.251 1.71.9 1.32 1.695-.2.419-.71.608-1 .995a1.25 1.25 0 0 0-.113.883c.073.298.253.556.503.719a3.17 3.17 0 0 0 1.69.408 4.3 4.3 0 0 1-1.94 1.769l1.74.701c-.26.639-.52 1.267-.79 1.905l.54.451a1.06 1.06 0 0 0-.281.764q.007.213.093.407.087.193.238.336a2.75 2.75 0 0 0 1.57.45 2.12 2.12 0 0 1 1.48.607 9.7 9.7 0 0 1-2.79 2.01l2.24 1.487a.72.72 0 0 1 .37.418c.18.796-1.56.67-1.77 1.487a.95.95 0 0 0 .11.638c.17.398.33.796.5 1.183.31.723.74 1.529 1.52 1.55-.361.003-.716.1-1.032.283a2.2 2.2 0 0 0-.778.763c-.32.67.3 1.612.94 1.267a3.8 3.8 0 0 1-1 1.623 9.6 9.6 0 0 0 2.41 1.046 1.2 1.2 0 0 0-.76.478 1.3 1.3 0 0 0-.24.894c.054.298.184.577.375.805.192.228.439.399.715.493-.35.167-.77.345-1.2.439"/><path fill="#263238" d="M302.769 265.943a34.7 34.7 0 0 1-8.68 1.182 25.4 25.4 0 0 1-5.44-.324 6.3 6.3 0 0 1-2.42-.586c-.62-.607-.11-.974.8-.984a1.17 1.17 0 0 0-.59-.639c.297-.009.587-.099.84-.262a.58.58 0 0 0-.226-.297.54.54 0 0 0-.354-.09c.15-.22.29-.44.43-.67a2.6 2.6 0 0 1-1.099-.481 2.8 2.8 0 0 1-.791-.932c.83-1.047 2.93-.366 3.27-1.633.29-1.047-1.24-1.455-1.64-2.408l2.23-1.35a2.4 2.4 0 0 0-1-.597 3.23 3.23 0 0 1 1.43-1.141 1.73 1.73 0 0 0-.44-1.12 3 3 0 0 1-.59-.691 1.3 1.3 0 0 1 .034-.734c.082-.236.231-.44.426-.585a3.5 3.5 0 0 1 1.33-.596 2.65 2.65 0 0 0-1.45-1.361 17 17 0 0 1 1.37-.995c.42-.387.58-1.214.09-1.403l.52-.607a1 1 0 0 1-.663-.382 1.1 1.1 0 0 1-.217-.759 2.75 2.75 0 0 1 .75-1.528c.306-.275.526-.639.63-1.047.06-.398-.34-.806-.67-.576l2.06-1.381a7.6 7.6 0 0 0-2.44-.89 4.3 4.3 0 0 0 2.07-1.822l.21-.272a7.8 7.8 0 0 0 1.61-3.036 13.4 13.4 0 0 0 2.15-3.601c.88.43.25 2.188 1.09 2.68.46.272 1.23.084 1.41.597l-.76.785c.192.266.452.47.75.586l-.68.974c.77.251 1.7.9 1.32 1.696-.21.418-.71.596-1 .994a1.23 1.23 0 0 0-.121.882c.071.299.251.557.501.72a3.2 3.2 0 0 0 1.69.408 4.24 4.24 0 0 1-1.94 1.759l1.75.711c-.27.629-.53 1.267-.8 1.895l.55.461a1 1 0 0 0-.236.347 1.03 1.03 0 0 0 .027.831 1 1 0 0 0 .259.329 2.8 2.8 0 0 0 1.56.45 2.1 2.1 0 0 1 1.49.607 9.7 9.7 0 0 1-2.8 2l2.24 1.486a.8.8 0 0 1 .38.419c.17.806-1.57.68-1.78 1.497-.034.22.005.445.11.639.17.397.34.785.5 1.182.31.712.75 1.529 1.52 1.539-.36.007-.713.106-1.029.288a2.3 2.3 0 0 0-.781.759c-.32.67.31 1.612.95 1.267a3.95 3.95 0 0 1-1 1.622c.763.451 1.576.803 2.42 1.047-.303.049-.577.22-.763.475a1.3 1.3 0 0 0-.237.896c.052.3.183.579.377.806s.444.394.723.482c-.38.209-.8.345-1.23.482m-88.098-1.1c2.17 1.476 5.79 1.34 8.28 1.435a28 28 0 0 0 5.34-.294c.71-.115 4.66-.617 3.4-2.093a2.06 2.06 0 0 0-1.5-.503 2.96 2.96 0 0 0 1.26-1.214c.24-.544 0-1.308-.57-1.298.216-.045.416-.155.574-.317a1.2 1.2 0 0 0 .316-.594c-.68 0-1.59-.23-1.48-.931.14-.932 1.75-.754 2.15-1.623l-2.39-1.612a.84.84 0 0 1-.34-.345c-.13-.335.17-.733.49-.932.345-.158.658-.386.92-.67.21-.325 0-.89-.33-.785l.69-.681a1.13 1.13 0 0 0-.68-.523c.076-.449.252-.873.515-1.237.262-.364.603-.657.995-.857l-2.57-1.853a2.9 2.9 0 0 0 1.64-.471c.47-.376.66-1.203.21-1.528s-.8-.136-1.1-.387l1.89-1.277a9.8 9.8 0 0 1-2.87-2.607.9.9 0 0 1 .234-.567.82.82 0 0 1 .536-.26c-.58-.534 0-1.811.78-1.8a4.54 4.54 0 0 1-1.59-1.309c.194-.247.461-.42.76-.492a3.1 3.1 0 0 0-1.36-1.047l1.88-.963c0-.617-.64-.911-1.12-1.246s-.72-1.245-.15-1.476a36.5 36.5 0 0 1-2.79-4.113 6.77 6.77 0 0 1-2.34 4.019l.87 1.319-1.72.953c.45.167.51.848.24 1.298a3 3 0 0 1-1.22.932q.66.65 1.23 1.392l-1 .712.75.586-2.24.973c-.07.744 1.33 1.047 1 1.707a.9.9 0 0 1-.28.267.85.85 0 0 1-.36.12l-1.56.398c.066.25.193.477.368.661.176.183.393.316.632.386l-.69.418a2.69 2.69 0 0 0 .29 2.513 6.5 6.5 0 0 0-2.56.607c.13.617.78.879 1.24 1.277s.6 1.361 0 1.581c-.119.301-.31.564-.556.764-.245.201-.536.33-.844.377.078.303.231.579.443.802.213.222.477.382.767.464a2.56 2.56 0 0 1-1.6.471c.024.279.108.549.244.79.137.241.323.447.546.603a8 8 0 0 1-2.7.9c.43 1.13 2.47 1.047 2.5 2.282 0 1.413-2.55 1.581-2.87 3.004.331.382.601.816.8 1.288l-1.16.481.3.618a3.5 3.5 0 0 0-1.32.817c.23.264.492.497.78.69m35.238.304c2 1.246 6.67 1.047 8.24 1.151a28.3 28.3 0 0 0 5.24-.23 13 13 0 0 0 2.5-.555c1.09-.397 1-.46 1.36-1.497a4 4 0 0 1-1.72-.764l1.42-.848a6 6 0 0 1-2.15-.513l1.72-.68a4.7 4.7 0 0 0-.89-1.518c.67.063 1.67-.241 1.53-.911a.98.98 0 0 0-.48-.565l-2.11-1.403c-.23-.157-.49-.376-.45-.68s.35-.482.62-.607l2.23-1.047a9.3 9.3 0 0 0-2.78-1.518l1.65-.691a2.5 2.5 0 0 1-.769-.692 2.6 2.6 0 0 1-.431-.962 7.16 7.16 0 0 1 3.54-.942 20 20 0 0 1-4.44-3.203l2.37-.67a4.9 4.9 0 0 0-1.9-1.35 1.91 1.91 0 0 0-.24-1.989 4.8 4.8 0 0 0-1.59-1.194l4.31-.659a31 31 0 0 0-3.13-2.46c.528-.706.772-1.6.68-2.492a8.2 8.2 0 0 1-3-2.805 7.8 7.8 0 0 1-3.26 2.093c.493.433.904.958 1.21 1.55l-1.83.89c.254.385.599.695 1 .9a9.2 9.2 0 0 1-2.37.774 4.57 4.57 0 0 1 1.72 1.885c-.358.05-.7.186-1 .397-.28.252-.45.712-.24.995a4.25 4.25 0 0 1-1.62.639l.88.994q-1.065.485-2.2.754c-.13.722.78 1.047 1.21 1.549a1.6 1.6 0 0 1 .197 1.254 1.55 1.55 0 0 1-.287.576 1.5 1.5 0 0 1-.49.4q-.395.12-.74.356a.99.99 0 0 0-.13 1.214 2.4 2.4 0 0 0 .95.795 2.95 2.95 0 0 1-1.56.807c-.29.471.2.963.61 1.245s.84.859.48 1.267a4.9 4.9 0 0 1-1.73.628c-.58.209-1.16.932-.83 1.424s1.31.408 1.24 1.046a1.37 1.37 0 0 0-.87.274c-.253.19-.439.461-.53.773-.068.305-.022.626.129.897.15.27.394.47.681.558a2.17 2.17 0 0 1-.86.723c.131.399.355.759.65 1.046a3.1 3.1 0 0 1-1.57 1.047c-.58.283-1.18.88-1 1.476.144.45.439.83.83 1.068"/><path fill="#263238" d="M267.842 265.042c.5.911 4.49 1.047 5.37 1.141 4.371.616 8.819.046 12.92-1.654a2.26 2.26 0 0 0-1.19-1.046c.403.037.808-.04 1.173-.225.364-.184.674-.468.897-.822a53 53 0 0 0-5.27-2.586 12.9 12.9 0 0 0 4.05-1.047l-3.26-2.512a1.87 1.87 0 0 0 .672-1.066 1.94 1.94 0 0 0-.142-1.268 4.54 4.54 0 0 0-1.71-1.696l2.16-1.047a16.9 16.9 0 0 1-3.77-3.999 34 34 0 0 0 3.74-1.685 10.4 10.4 0 0 1-2.86-2.45l1.34-.314c.34-1.047-2.06-1.047-1.71-2.093.25-.691 1.64-.765 1.44-1.435a3.1 3.1 0 0 1-1.268-.512 3.3 3.3 0 0 1-.952-1.016 5 5 0 0 1 1.95-1.528 13 13 0 0 0-3.42-4.083 5.2 5.2 0 0 1-.9 2.039 4.9 4.9 0 0 1-1.65 1.437c.194.09.37.219.515.381s.26.352.335.561c-.343.036-.662.2-.901.461a1.56 1.56 0 0 0-.399.962 1.28 1.28 0 0 0 .342.891q.168.177.389.273c.145.062.301.094.459.093a4.7 4.7 0 0 0-1.66.816c.73.23.31 1.476-.38 1.926s-1.6.702-1.91 1.476c.346-.018.689.072.987.258.297.186.535.461.683.789-.35.659-1.48.199-1.92.796-.63.858 1.24 1.465 1.17 2.512s-2.41 1.465-2.08 2.533c.12.388.57.534.76.88.41.732-.49 1.58-1.19 2.093s-1.28 1.811-.52 2.094c.32.125.73 0 1 .104.72.325.12 1.518-.58 1.989s-1.65 1.12-1.41 1.906c.293-.026.587.026.856.15.269.125.504.318.684.561-.33.66-3.05 4.271-2.93 4.837zm-35.642.074a32.2 32.2 0 0 0 8.5 1.193c1.836.08 3.675-.029 5.49-.325a7 7 0 0 0 2.51-.596c.72-.597.26-.963-.65-.984.165-.284.409-.507.7-.639a1.46 1.46 0 0 1-.8-.251.7.7 0 0 1 .264-.294.64.64 0 0 1 .376-.093l-.31-.67a3.3 3.3 0 0 0 2.11-1.414c-.67-1.046-2.87-.366-3-1.633-.12-1.046 1.47-1.465 2-2.407l-2-1.34a2.74 2.74 0 0 1 1.07-.597 2.5 2.5 0 0 0-1.25-1.141c.088-.432.305-.825.62-1.12.266-.195.502-.432.7-.701.11-.215.146-.463.1-.702a1.06 1.06 0 0 0-.35-.607c-.358-.3-.78-.504-1.23-.596a3.32 3.32 0 0 1 1.67-1.361c-.32-.43-.86-.608-1.21-1.047-.35-.44-.38-1.204.14-1.403l-.43-.597a1.18 1.18 0 0 0 .725-.372c.193-.208.311-.48.335-.769a2.27 2.27 0 0 0-.5-1.528 1.73 1.73 0 0 1-.47-1.047c0-.398.47-.816.76-.586l-1.84-1.371a8.7 8.7 0 0 1 2.58-.89 3.46 3.46 0 0 1-1.77-1.822l-.16-.272a6.54 6.54 0 0 1-1.13-3.046 11.1 11.1 0 0 1-1.57-3.59c-.95.418-.6 2.177-1.53 2.679-.49.273-1.24.084-1.5.597l.63.775a1.93 1.93 0 0 1-.84.596l.53.974c-.81.251-1.85.9-1.59 1.685.14.429.61.607.81 1.047.09.302.075.627-.043.918s-.328.53-.597.673a3.7 3.7 0 0 1-1.76.419c.328.78.919 1.406 1.66 1.759l-1.86.701c.16.639.32 1.277.49 1.905l-.62.461c.42.356.18 1.151-.29 1.497a3.2 3.2 0 0 1-1.64.46 2.43 2.43 0 0 0-1.58.597 7.6 7.6 0 0 0 2.48 2.01l-2.49 1.486c-.184.09-.337.236-.44.419-.3.796 1.46.67 1.54 1.497a1.1 1.1 0 0 1-.22.639l-.69 1.182c-.42.712-1 1.518-1.76 1.539.34-.008.676.087.966.272.291.186.525.455.674.775.21.67-.56 1.602-1.15 1.256.093.606.354 1.17.75 1.623-.823.45-1.692.802-2.59 1.047a1 1 0 0 1 .399.168c.119.086.22.198.294.328a1.1 1.1 0 0 1 .087.875 2.1 2.1 0 0 1-.505.804 2 2 0 0 1-.795.483c.4.199.8.346 1.2.472"/><path fill="#500061" d="M142 271.847s5.38-2.22 7.65-2.272 17 1.958 23.87 0 21.41.052 26.47 0 13.68-1.696 18.89-.68c5.21 1.015-.8 1.046 12.37.251 13.17-.796 9.64 0 17.94 0s6.44.691 14.06.429 9.34-2.094 17.16-.304 7.57 1.445 13.74.304 7-1.895 10.47-1.047 3.9.503 7.26.764c3.36.262 10.23.869 11.88 2.576z"/><g fill="#fff" opacity=".6"><path d="M212.543 264.843c-2.41 1.476-6 1.34-8.51 1.435a27 27 0 0 1-5.29-.294c-.7-.115-4.56-.617-3.08-2.093a2.38 2.38 0 0 1 1.58-.503 2.4 2.4 0 0 1-1.06-1.214c-.15-.544.22-1.308.78-1.298a.9.9 0 0 1-.521-.321 1 1 0 0 1-.219-.59c.68 0 1.62-.23 1.63-.931 0-.932-1.63-.754-1.89-1.623l2.65-1.612c.157-.078.291-.197.39-.345.19-.335-.05-.733-.34-.932s-.65-.346-.81-.67.11-.89.45-.785l-.58-.681a1.43 1.43 0 0 1 .77-.523 2.4 2.4 0 0 0-.305-1.218 2.3 2.3 0 0 0-.865-.876l2.87-1.853a2.57 2.57 0 0 1-1.57-.471 1.06 1.06 0 0 1-.316-.764c0-.143.028-.285.082-.416q.083-.2.234-.348c.35-.23.83-.136 1.16-.387l-1.68-1.277a12.6 12.6 0 0 0 3.3-2.607.75.75 0 0 0-.15-.558.69.69 0 0 0-.49-.269c.137-.132.236-.301.286-.489s.049-.386-.003-.573a1.04 1.04 0 0 0-.291-.486.97.97 0 0 0-.492-.252 5.6 5.6 0 0 0 1.8-1.309 1.1 1.1 0 0 0-.67-.492c.419-.472.94-.831 1.52-1.047l-1.73-.963c.09-.617.79-.911 1.32-1.246s.92-1.245.39-1.476a46 46 0 0 0 3.45-4.113c.007.754.16 1.5.451 2.191.29.691.712 1.313 1.239 1.828l-1.03 1.372 1.56.952a.97.97 0 0 0-.532.93 1 1 0 0 0 .092.368c.253.418.623.744 1.06.932q-.764.65-1.45 1.392l.87.712-.84.586 2.09.974c-.06.743-1.5 1.047-1.26 1.706.08.241.34.325.58.387l1.5.398a1.9 1.9 0 0 1-.488.663 1.8 1.8 0 0 1-.712.384l.63.419c.086.446.068.907-.052 1.344s-.339.838-.638 1.168a5.8 5.8 0 0 1 2.45.607c-.22.618-.92.879-1.44 1.277s-.82 1.361-.25 1.581c.066.299.219.569.438.773.218.204.491.333.782.368a2.3 2.3 0 0 1-.571.796c-.244.219-.53.379-.839.471.438.34.976.507 1.52.471a2.4 2.4 0 0 1-1 1.392c.787.47 1.653.776 2.55.9-.62 1.131-2.64 1.047-2.87 2.282-.26 1.413 2.3 1.581 2.39 3.005a5.8 5.8 0 0 0-1 1.287l1.08.482-.41.617c.46.162.872.443 1.2.817q-.416.37-.9.638m-35.281.304c-2.22 1.246-6.85 1.047-8.43 1.151-1.737.087-3.477.01-5.2-.23a11.8 11.8 0 0 1-2.42-.555c-1-.397-.93-.46-1.11-1.497a4.75 4.75 0 0 0 1.84-.764l-1.28-.848a6.7 6.7 0 0 0 2.23-.513l-1.61-.68a5.9 5.9 0 0 1 1.13-1.518c-.67.063-1.63-.241-1.39-.911.13-.248.334-.446.58-.565l2.33-1.403c.26-.157.56-.376.57-.68s-.28-.482-.53-.607l-2.06-1.047a11.4 11.4 0 0 1 3-1.518l-1.54-.691a3.1 3.1 0 0 0 1.47-1.654 6.37 6.37 0 0 0-3.39-.942 25 25 0 0 0 4.95-3.203l-2.26-.67a6.1 6.1 0 0 1 2.12-1.35 2.1 2.1 0 0 1 .014-1.077c.099-.351.287-.666.546-.912a6 6 0 0 1 1.79-1.194l-4.21-.659a38 38 0 0 1 3.53-2.46 3.2 3.2 0 0 1-.395-1.215 3.2 3.2 0 0 1 .115-1.277 10.6 10.6 0 0 0 3.45-2.805 6.2 6.2 0 0 0 2.91 2.093 6.7 6.7 0 0 0-1.45 1.55l1.68.89a3.3 3.3 0 0 1-1.11.9c.707.37 1.461.631 2.24.774a5.8 5.8 0 0 0-2 1.885c.344.044.671.181.95.397a.75.75 0 0 1 .232.479.77.77 0 0 1-.142.516c.452.326.968.544 1.51.639l-1 .994a10.5 10.5 0 0 0 2.07.754c0 .722-.94 1.047-1.46 1.549a1.44 1.44 0 0 0-.327.539 1.5 1.5 0 0 0 .127 1.237c.109.183.256.338.43.454.244.078.474.198.68.356a.986.986 0 0 1-.06 1.214 3.2 3.2 0 0 1-1.08.795c.375.431.879.715 1.43.807.21.471-.35.963-.81 1.245s-1 .859-.68 1.267 1.08.419 1.63.628 1 .932.6 1.424-1.38.408-1.41 1.046c.294-.024.585.072.814.267.229.194.378.474.416.78.007.324-.087.641-.267.903a1.42 1.42 0 0 1-.733.552 1.7 1.7 0 0 0 .75.723 3.3 3.3 0 0 1-.84 1.046c.23.576.88.786 1.41 1.047.53.262 1 .88.76 1.476a2.43 2.43 0 0 1-1.11 1.068m-17.92-.105c-.65.911-4.66 1.047-5.55 1.141-4.33.461-8.82.22-12.65-1.654a2.74 2.74 0 0 1 1.35-1.046 1.8 1.8 0 0 1-1.108-.21 1.9 1.9 0 0 1-.792-.837 61 61 0 0 1 5.69-2.586 11.6 11.6 0 0 1-3.89-1.047l3.67-2.512a1.795 1.795 0 0 1-.16-2.334 5.7 5.7 0 0 1 2-1.696l-2-1.047a21.7 21.7 0 0 0 4.4-3.999 29 29 0 0 1-3.47-1.685 13 13 0 0 0 3.26-2.45l-1.29-.314c-.19-1.047 2.22-1.047 2-2.093-.13-.691-1.51-.765-1.21-1.435a3.9 3.9 0 0 0 2.47-1.528 4.05 4.05 0 0 0-1.7-1.528 16.4 16.4 0 0 1 4.07-4.083c.018.711.212 1.405.562 2.014a4 4 0 0 0 1.438 1.462 2.03 2.03 0 0 0-1 .942 1.15 1.15 0 0 1 .815.446c.1.128.174.276.218.435s.056.326.037.49a1.54 1.54 0 0 1-.481.888 1.4 1.4 0 0 1-.909.368c.561.15 1.084.429 1.53.817-.76.23-.54 1.476.07 1.926s1.49.701 1.68 1.476a2.06 2.06 0 0 0-1.051.272c-.322.183-.594.45-.789.775.25.659 1.45.199 1.79.795.49.859-1.48 1.466-1.56 2.513s2.16 1.465 1.66 2.533c-.18.387-.65.534-.9.879-.52.733.24 1.581.86 2.094s1 1.811.17 2.093c-.34.126-.72 0-1.06.105-.77.325-.36 1.518.27 1.989s1.46 1.12 1.11 1.905c-.31-.018-.62.037-.907.16a2.1 2.1 0 0 0-.753.552c.22.66 2.36 4.271 2.15 4.836z"/><path d="M195.004 265.116a34.4 34.4 0 0 1-8.69 1.193 26 26 0 0 1-5.44-.325 6.2 6.2 0 0 1-2.41-.596c-.62-.597-.11-.963.8-.984a1.18 1.18 0 0 0-.6-.639c.299-.005.592-.092.85-.251a.58.58 0 0 0-.225-.3.53.53 0 0 0-.355-.087l.42-.67a2.6 2.6 0 0 1-1.095-.482 2.74 2.74 0 0 1-.785-.932c.83-1.046 2.92-.366 3.27-1.633.28-1.046-1.24-1.465-1.65-2.407l2.23-1.34a2.3 2.3 0 0 0-1-.597 3.2 3.2 0 0 1 1.44-1.141 1.8 1.8 0 0 0-.44-1.12 2.8 2.8 0 0 1-.59-.701 1.25 1.25 0 0 1 .028-.732 1.2 1.2 0 0 1 .432-.577c.396-.297.85-.501 1.33-.596a2.67 2.67 0 0 0-1.46-1.361c.39-.43 1-.607 1.38-1.047s.57-1.204.08-1.403l.52-.597a1 1 0 0 1-.657-.385 1.08 1.08 0 0 1-.213-.756c.08-.582.344-1.12.75-1.528.3-.279.519-.642.63-1.047.06-.398-.35-.816-.67-.586l2.06-1.371a7.5 7.5 0 0 0-2.44-.89 4.36 4.36 0 0 0 2.07-1.821l.2-.273a7.9 7.9 0 0 0 1.62-3.046 14 14 0 0 0 2.15-3.59c.88.418.25 2.177 1.09 2.679.45.273 1.23.084 1.4.597l-.75.775c.186.274.447.482.75.596l-.69.974c.77.251 1.71.9 1.32 1.685-.21.429-.71.607-1 1.047a1.23 1.23 0 0 0-.117.876c.071.296.249.553.497.715a3.3 3.3 0 0 0 1.7.419 4.3 4.3 0 0 1-1.95 1.759l1.75.701c-.26.639-.53 1.277-.79 1.905l.54.461a1 1 0 0 0-.233.345 1.03 1.03 0 0 0 .028.824 1 1 0 0 0 .255.328 2.83 2.83 0 0 0 1.56.46 2.07 2.07 0 0 1 1.49.597 9.6 9.6 0 0 1-2.8 2.01l2.25 1.486a.75.75 0 0 1 .37.419c.18.796-1.57.67-1.78 1.497a1.02 1.02 0 0 0 .12.639c.17.387.33.785.5 1.182.3.712.74 1.518 1.52 1.539a2.1 2.1 0 0 0-1.031.285 2.2 2.2 0 0 0-.779.762c-.32.67.3 1.602.94 1.256a3.74 3.74 0 0 1-1 1.623c.762.453 1.574.804 2.42 1.047a1.2 1.2 0 0 0-.761.477 1.3 1.3 0 0 0-.239.894c.059.297.192.572.385.798s.439.395.715.49c-.4.198-.83.345-1.22.471m125.477.868a34.7 34.7 0 0 1-8.69 1.183 25.5 25.5 0 0 1-5.44-.314 6.3 6.3 0 0 1-2.41-.596c-.62-.608-.11-.974.8-.984a1.18 1.18 0 0 0-.6-.639c.3-.005.592-.092.85-.251a.6.6 0 0 0-.225-.302.55.55 0 0 0-.355-.096l.42-.659a2.6 2.6 0 0 1-1.097-.485 2.76 2.76 0 0 1-.783-.939c.83-1.047 2.93-.366 3.27-1.623.28-1.046-1.24-1.465-1.65-2.418.75-.439 1.49-.89 2.23-1.34a2.3 2.3 0 0 0-1-.596 3.16 3.16 0 0 1 1.44-1.131c-.014-.42-.17-.82-.44-1.131a2.6 2.6 0 0 1-.59-.69c-.062-.243-.051-.5.032-.736s.232-.439.428-.583a3.26 3.26 0 0 1 1.33-.587 2.7 2.7 0 0 0-1.46-1.371c.39-.419 1-.607 1.38-.994.38-.388.57-1.215.08-1.403l.52-.597a1 1 0 0 1-.66-.389 1.08 1.08 0 0 1-.21-.762 2.63 2.63 0 0 1 .75-1.518c.302-.279.52-.642.63-1.047.06-.387-.34-.806-.67-.576l2.06-1.371a7.2 7.2 0 0 0-2.44-.89 4.45 4.45 0 0 0 2.07-1.821l.21-.283a7.9 7.9 0 0 0 1.61-3.036 14 14 0 0 0 2.15-3.601c.88.429.25 2.188 1.09 2.691.46.261 1.23.073 1.41.586l-.76.785c.189.269.45.473.75.586l-.69.974c.77.251 1.71.9 1.32 1.695-.2.419-.71.608-1 .995a1.25 1.25 0 0 0-.113.883c.073.298.253.556.503.719a3.17 3.17 0 0 0 1.69.408 4.3 4.3 0 0 1-1.94 1.769l1.74.701c-.26.639-.52 1.267-.79 1.905l.54.451a1.06 1.06 0 0 0-.281.764q.007.213.093.407.087.193.238.336a2.75 2.75 0 0 0 1.57.45 2.12 2.12 0 0 1 1.48.607 9.7 9.7 0 0 1-2.79 2.01l2.24 1.487q.13.06.226.169a.7.7 0 0 1 .144.249c.18.796-1.56.67-1.77 1.487a.95.95 0 0 0 .11.638c.17.398.33.796.5 1.183.31.723.74 1.529 1.52 1.55-.361.003-.716.1-1.032.283a2.2 2.2 0 0 0-.778.763c-.32.67.3 1.612.94 1.267a3.8 3.8 0 0 1-1 1.623 9.6 9.6 0 0 0 2.41 1.046 1.2 1.2 0 0 0-.76.478 1.3 1.3 0 0 0-.24.894c.054.299.184.577.375.805.192.228.439.399.715.493-.35.167-.77.345-1.2.439"/><path d="M302.772 265.943a34.7 34.7 0 0 1-8.68 1.182 25.4 25.4 0 0 1-5.44-.324 6.3 6.3 0 0 1-2.42-.586c-.62-.607-.11-.974.8-.984a1.17 1.17 0 0 0-.59-.639c.297-.009.587-.099.84-.262a.6.6 0 0 0-.226-.297.54.54 0 0 0-.354-.09c.15-.22.29-.44.43-.67a2.6 2.6 0 0 1-1.099-.481 2.8 2.8 0 0 1-.791-.932c.83-1.047 2.93-.366 3.27-1.633.29-1.047-1.24-1.455-1.64-2.408l2.23-1.35a2.4 2.4 0 0 0-1-.597 3.23 3.23 0 0 1 1.43-1.141 1.73 1.73 0 0 0-.44-1.12 3 3 0 0 1-.59-.691 1.3 1.3 0 0 1 .034-.734c.082-.236.231-.44.426-.585a3.5 3.5 0 0 1 1.33-.596 2.65 2.65 0 0 0-1.45-1.361 17 17 0 0 1 1.37-.995c.42-.387.58-1.214.09-1.402l.52-.608a1 1 0 0 1-.663-.382 1.1 1.1 0 0 1-.217-.759 2.75 2.75 0 0 1 .75-1.528c.306-.275.526-.639.63-1.047.06-.398-.34-.806-.67-.576l2.06-1.381a7.6 7.6 0 0 0-2.44-.89 4.3 4.3 0 0 0 2.07-1.822l.21-.272a7.8 7.8 0 0 0 1.61-3.036 13.4 13.4 0 0 0 2.15-3.601c.88.43.25 2.188 1.09 2.68.46.272 1.23.084 1.41.597l-.76.785c.192.266.452.47.75.586l-.68.974c.77.251 1.7.9 1.32 1.696-.21.418-.71.596-1 .994a1.23 1.23 0 0 0-.121.882c.071.299.251.557.501.72a3.2 3.2 0 0 0 1.69.408 4.23 4.23 0 0 1-1.94 1.759l1.75.711c-.27.629-.53 1.267-.8 1.895l.55.461a1.015 1.015 0 0 0 .05 1.507 2.8 2.8 0 0 0 1.56.45 2.1 2.1 0 0 1 1.49.608 9.7 9.7 0 0 1-2.8 1.999l2.24 1.486a.8.8 0 0 1 .38.419c.17.806-1.57.681-1.78 1.497-.034.22.005.445.11.639.17.397.34.785.5 1.183.31.711.75 1.528 1.52 1.538a2.14 2.14 0 0 0-1.029.288 2.26 2.26 0 0 0-.781.759c-.32.67.31 1.612.95 1.267a3.95 3.95 0 0 1-1 1.622c.763.451 1.576.803 2.42 1.047-.303.049-.577.22-.763.475a1.3 1.3 0 0 0-.237.896c.052.3.183.579.377.807.194.227.444.393.723.481-.38.209-.8.345-1.23.482m-88.101-1.1c2.17 1.476 5.79 1.34 8.28 1.435a28 28 0 0 0 5.34-.294c.71-.115 4.66-.617 3.4-2.093a2.06 2.06 0 0 0-1.5-.503 2.96 2.96 0 0 0 1.26-1.214c.24-.544 0-1.308-.57-1.298.216-.045.416-.155.574-.317a1.2 1.2 0 0 0 .316-.594c-.68 0-1.59-.23-1.48-.931.14-.932 1.75-.754 2.15-1.623l-2.39-1.612a.84.84 0 0 1-.34-.345c-.13-.335.17-.733.49-.932.345-.158.658-.386.92-.67.21-.325 0-.89-.33-.785l.69-.681a1.13 1.13 0 0 0-.68-.523c.076-.449.252-.873.515-1.237.262-.364.603-.657.995-.857l-2.57-1.853a2.9 2.9 0 0 0 1.64-.471c.47-.376.66-1.203.21-1.528s-.8-.136-1.1-.387l1.89-1.277a9.8 9.8 0 0 1-2.87-2.607.9.9 0 0 1 .234-.567.82.82 0 0 1 .536-.26c-.58-.534 0-1.811.78-1.8a4.54 4.54 0 0 1-1.59-1.309c.194-.247.461-.42.76-.492a3.1 3.1 0 0 0-1.36-1.047l1.88-.963c0-.617-.64-.911-1.12-1.246s-.72-1.245-.15-1.476a36.5 36.5 0 0 1-2.79-4.113 6.77 6.77 0 0 1-2.34 4.019l.87 1.319-1.72.953c.45.167.51.848.24 1.298a3 3 0 0 1-1.22.932q.66.65 1.23 1.392l-1 .712.75.586-2.24.973c-.07.744 1.33 1.047 1 1.707a.9.9 0 0 1-.28.267.85.85 0 0 1-.36.12l-1.56.398c.066.25.193.477.368.661.176.183.393.316.632.386l-.69.418a2.69 2.69 0 0 0 .29 2.513 6.5 6.5 0 0 0-2.56.607c.13.617.78.879 1.24 1.277s.6 1.361 0 1.581c-.119.301-.31.564-.556.764-.245.201-.536.33-.844.377.078.303.231.579.443.802.213.222.477.382.767.464a2.56 2.56 0 0 1-1.6.471c.024.279.108.549.244.79.137.241.323.447.546.603a8 8 0 0 1-2.7.9c.43 1.13 2.47 1.047 2.5 2.282 0 1.413-2.55 1.581-2.87 3.004.331.382.601.816.8 1.288l-1.16.481.3.618a3.5 3.5 0 0 0-1.32.817c.23.264.492.497.78.69m35.241.304c2 1.246 6.67 1.047 8.24 1.151a28.3 28.3 0 0 0 5.24-.23 13 13 0 0 0 2.5-.555c1.09-.397 1-.46 1.36-1.497a4 4 0 0 1-1.72-.764l1.42-.848a6 6 0 0 1-2.15-.513l1.72-.68a4.7 4.7 0 0 0-.89-1.518c.67.063 1.67-.241 1.53-.911a.98.98 0 0 0-.48-.565l-2.11-1.403c-.23-.157-.49-.376-.45-.68s.35-.482.62-.607l2.23-1.047a9.3 9.3 0 0 0-2.78-1.518l1.65-.691a2.5 2.5 0 0 1-.769-.692 2.6 2.6 0 0 1-.431-.962 7.16 7.16 0 0 1 3.54-.942 20 20 0 0 1-4.44-3.203l2.37-.67a4.9 4.9 0 0 0-1.9-1.35 1.91 1.91 0 0 0-.24-1.989 4.8 4.8 0 0 0-1.59-1.194l4.31-.659a31 31 0 0 0-3.13-2.46c.528-.706.772-1.6.68-2.492a8.2 8.2 0 0 1-3-2.805 7.8 7.8 0 0 1-3.26 2.093c.493.433.904.958 1.21 1.55l-1.83.89c.254.385.599.695 1 .9a9.2 9.2 0 0 1-2.37.774 4.57 4.57 0 0 1 1.72 1.885c-.358.05-.7.186-1 .397-.28.252-.45.712-.24.995a4.25 4.25 0 0 1-1.62.639l.88.994q-1.065.485-2.2.754c-.13.722.78 1.047 1.21 1.549a1.6 1.6 0 0 1 .197 1.254 1.55 1.55 0 0 1-.287.576 1.5 1.5 0 0 1-.49.4q-.395.12-.74.356a.99.99 0 0 0-.13 1.214 2.4 2.4 0 0 0 .95.795 2.95 2.95 0 0 1-1.56.807c-.29.471.2.963.61 1.245s.84.859.48 1.267a4.9 4.9 0 0 1-1.73.628c-.58.209-1.16.932-.83 1.424s1.31.408 1.24 1.046a1.37 1.37 0 0 0-.87.274c-.253.19-.439.461-.53.773-.068.305-.022.626.129.897.15.27.394.47.681.558a2.2 2.2 0 0 1-.86.723c.131.399.355.759.65 1.046-.41.508-.957.873-1.57 1.047-.58.283-1.18.88-1 1.476.144.45.439.83.83 1.068"/><path d="M267.842 265.042c.5.911 4.49 1.047 5.37 1.141 4.371.616 8.819.046 12.92-1.654a2.26 2.26 0 0 0-1.19-1.046c.403.037.808-.04 1.173-.225.364-.184.674-.468.897-.822a53 53 0 0 0-5.27-2.586 12.9 12.9 0 0 0 4.05-1.047l-3.26-2.512a1.87 1.87 0 0 0 .672-1.066 1.94 1.94 0 0 0-.142-1.268 4.54 4.54 0 0 0-1.71-1.696l2.16-1.047a16.9 16.9 0 0 1-3.77-3.999 34 34 0 0 0 3.74-1.685 10.4 10.4 0 0 1-2.86-2.45l1.34-.314c.34-1.047-2.06-1.047-1.71-2.093.25-.691 1.64-.765 1.44-1.435a3.1 3.1 0 0 1-1.268-.512 3.3 3.3 0 0 1-.952-1.016 5 5 0 0 1 1.95-1.528 13 13 0 0 0-3.42-4.083 5.2 5.2 0 0 1-.9 2.039 4.9 4.9 0 0 1-1.65 1.437c.194.09.37.219.515.381s.26.352.335.561c-.343.036-.662.2-.901.461a1.56 1.56 0 0 0-.399.962 1.28 1.28 0 0 0 .342.891q.168.177.389.273c.145.062.301.094.459.093a4.7 4.7 0 0 0-1.66.816c.73.23.31 1.476-.38 1.926s-1.6.702-1.91 1.476c.346-.018.689.072.987.258.297.186.535.461.683.789-.35.659-1.48.199-1.92.796-.63.858 1.24 1.465 1.17 2.512s-2.41 1.465-2.08 2.533c.12.388.57.534.76.88.41.732-.49 1.58-1.19 2.093s-1.28 1.811-.52 2.094c.32.125.73 0 1 .104.72.325.12 1.518-.58 1.989s-1.65 1.12-1.41 1.906c.293-.026.587.026.856.15.269.125.504.318.684.561-.33.66-3.05 4.271-2.93 4.837zm-35.639.074a32.2 32.2 0 0 0 8.5 1.193c1.836.08 3.674-.029 5.49-.325a7 7 0 0 0 2.51-.596c.72-.597.26-.963-.65-.984a1.55 1.55 0 0 1 .7-.639 1.46 1.46 0 0 1-.8-.251.7.7 0 0 1 .264-.294.64.64 0 0 1 .376-.093l-.31-.67a3.3 3.3 0 0 0 2.11-1.414c-.67-1.046-2.87-.366-3-1.633-.12-1.046 1.47-1.465 2-2.407l-2-1.34a2.74 2.74 0 0 1 1.07-.597 2.5 2.5 0 0 0-1.25-1.141c.088-.432.305-.824.62-1.12.266-.195.502-.432.7-.701.11-.215.146-.463.1-.702a1.06 1.06 0 0 0-.35-.607c-.358-.3-.78-.504-1.23-.596a3.32 3.32 0 0 1 1.67-1.361c-.32-.43-.86-.607-1.21-1.047s-.38-1.204.14-1.403l-.43-.597a1.18 1.18 0 0 0 .725-.372c.193-.208.311-.48.335-.769a2.27 2.27 0 0 0-.5-1.528 1.73 1.73 0 0 1-.47-1.047c0-.398.47-.816.76-.586l-1.84-1.371a8.7 8.7 0 0 1 2.58-.89 3.46 3.46 0 0 1-1.77-1.821l-.16-.273a6.5 6.5 0 0 1-1.13-3.046 11.1 11.1 0 0 1-1.57-3.59c-.95.418-.6 2.177-1.53 2.679-.49.273-1.24.084-1.5.597l.63.775a1.94 1.94 0 0 1-.84.596l.53.974c-.81.251-1.85.9-1.59 1.685.14.429.61.607.81 1.047.09.302.074.627-.043.918s-.328.53-.597.673a3.7 3.7 0 0 1-1.76.419c.328.78.919 1.406 1.66 1.759l-1.86.701c.16.639.32 1.277.49 1.905l-.62.461c.42.356.18 1.151-.29 1.497-.5.299-1.065.458-1.64.46a2.43 2.43 0 0 0-1.58.597 7.6 7.6 0 0 0 2.48 2.01l-2.49 1.486c-.184.09-.337.236-.44.419-.3.796 1.46.67 1.54 1.497a1.1 1.1 0 0 1-.22.639l-.69 1.182c-.42.712-1 1.518-1.76 1.539.34-.008.676.087.966.272.291.186.525.455.674.775.21.67-.56 1.602-1.15 1.256.093.606.354 1.17.75 1.623-.823.45-1.692.802-2.59 1.047a1 1 0 0 1 .399.168 1.04 1.04 0 0 1 .429.756c.015.151-.001.303-.048.447a2.1 2.1 0 0 1-.505.804 2 2 0 0 1-.795.484c.4.198.8.345 1.2.471"/></g><g opacity=".5"><path fill="#fff" d="M142 271.847s5.38-2.22 7.65-2.272 17 1.958 23.87 0 21.41.052 26.47 0 13.68-1.696 18.89-.68c5.21 1.015-.8 1.046 12.37.251 13.17-.796 9.64 0 17.94 0s6.44.691 14.06.429 9.34-2.094 17.16-.304 7.57 1.445 13.74.304 7-1.895 10.47-1.047 3.9.503 7.26.764c3.36.262 10.23.869 11.88 2.576z"/></g><path fill="#500061" d="M325.462 271.847h-185.62l-1.74 21.7h185.62z"/><path fill="#fff" d="M325.462 271.847h-185.62l-1.74 21.7h185.62z" opacity=".5"/><path fill="#ffb573" d="M199.6 202.537a50 50 0 0 1 2.45 3.674c.4.639.76 1.278 1.12 1.948q.572 1.063 1 2.198c.452 1.533.692 3.127.71 4.731q.076 2.26-.12 4.512h-1.58c-.21-1.434-.4-2.879-.65-4.281a18.3 18.3 0 0 0-1-3.863 15 15 0 0 0-1-1.685l-1.15-1.759-2.4-3.517z"/><path fill="#ffb573" d="m204.851 219.14.17 1.507c.032.394-.084.785-.323 1.092a1.45 1.45 0 0 1-.957.552 1.2 1.2 0 0 1-.672-.101 1.25 1.25 0 0 1-.519-.459 1.34 1.34 0 0 1-.039-1.367q.354-.749.85-1.402zm-23.301 51.388-1.36-14.603-3.62.68 2.19 14.299zm30.061-1.141-5.23-13.305-3.39 1.685 5.98 12.782z"/><path fill="#ffb573" d="M211.262 269.25h-2.45a.2.2 0 0 0-.12.045.2.2 0 0 0-.07.112l-.58 2.021a.3.3 0 0 0 .036.279.28.28 0 0 0 .244.119c.86 0 1.28-.074 2.36-.084.66 0 3 .052 3.9.052s1.11-.952.74-1.047a9.6 9.6 0 0 1-3.71-1.392.5.5 0 0 0-.35-.105"/><path fill="#500061" d="M192.21 189.316a6.9 6.9 0 0 0-3.332 1.925 7.4 7.4 0 0 0-1.878 3.466l.86.555s1-4.02 4.09-5.454z"/><path fill="#000" d="M192.21 189.316a6.9 6.9 0 0 0-3.332 1.925 7.4 7.4 0 0 0-1.878 3.466l.86.555s1-4.02 4.09-5.454z" opacity=".2"/><path fill="#500061" d="M191.67 189.567a7.04 7.04 0 0 0-2.008 3.306 7.3 7.3 0 0 0 .008 3.917h1.05s-1.11-3.8 1-6.637z"/><path fill="#000" d="M191.67 189.567a7.04 7.04 0 0 0-2.008 3.306 7.3 7.3 0 0 0 .008 3.917h1.05s-1.11-3.8 1-6.637z" opacity=".2"/><path fill="#ffb573" d="M199 201.124s1.4.523 2.16 3.664-2.57 2.847-3.62 1.141-.54-5.276 1.46-4.805"/><path fill="#500061" d="M200.06 205.416a5.3 5.3 0 0 1 .87-2.198 2.7 2.7 0 0 1-.722-1.367 2.76 2.76 0 0 1 .142-1.554 2.08 2.08 0 0 1-1.484.294 2.14 2.14 0 0 1-1.306-.796s-.92 2.533-2 2.931a3.3 3.3 0 0 1 .17 1.633 2.36 2.36 0 0 1-.79 1.402 1.64 1.64 0 0 1 1.059.56c.275.317.429.729.431 1.157a3.8 3.8 0 0 1 1.514-1.612 3.55 3.55 0 0 1 2.116-.45"/><path fill="#500061" d="M199 201.124s1.19 7.139-3.7 19.513l-11.46-1.466c.28-1.863 3.16-10.751 3.19-19.69 1.308-.09 2.621-.09 3.93 0q2.451.164 4.87.617a20.3 20.3 0 0 1 3.17 1.026"/><path fill="#ffb573" d="M192.61 193.744c0 1.696-.31 4.753-1.62 5.716a13.6 13.6 0 0 1 3.6 3.37 6.5 6.5 0 0 0 1.27-2.753c-1.66-.659-1.35-2.02-.79-3.255z"/><path fill="#000" d="m193.612 195 1.46 1.811a7 7 0 0 0-.33.9 2 2 0 0 1-.93-.701 2.16 2.16 0 0 1-.41-1.12c.022-.307.093-.608.21-.89" opacity=".2"/><path fill="#263238" d="M198.762 188.656c1.47.932.06 4.701-.74 4.983-1.49.545-1.08-6.124.74-4.983"/><path fill="#ffb573" d="M192.912 191.242c-.31 2.251-.6 3.559.25 4.847 1.27 1.926 4.09 1.235 5-.921.85-1.958 1.21-5.308-.69-6.459a3.1 3.1 0 0 0-1.455-.345c-.505.008-1 .141-1.445.389a3.2 3.2 0 0 0-1.117 1.035 3.4 3.4 0 0 0-.543 1.454"/><path fill="#263238" d="M191.542 189.264c-.31 1.308.41 4.993 1.31 5.014s1.57-1.968 1.49-3.873c.87-.147 6.1.565 5.61-1.78-.44-2.156-3.61-1.141-5.6-2.565-.23.859.62 1.623.18 1.487-1.83-.576-2.71.649-4 0 .025.35.129.688.305.987s.418.549.705.73"/><path fill="#ffb573" d="M191.472 193.577c.093.253.237.484.421.675.185.191.406.339.649.434.66.241 1.1-.377 1-1.047s-.53-1.507-1.24-1.455a1 1 0 0 0-.421.155 1 1 0 0 0-.315.331c-.08.134-.13.285-.146.442a1.1 1.1 0 0 0 .052.465"/><path fill="#263238" d="M196.001 192.278c0 .178 0 .335.14.356s.23-.125.27-.303 0-.346-.14-.356-.27.115-.27.303m1.999.252c0 .178 0 .335.14.356s.23-.126.27-.304 0-.345-.14-.356c-.14-.01-.27.115-.27.304"/><path fill="#ed893e" d="M197.32 192.54c.097.575.272 1.132.52 1.654a.97.97 0 0 1-.86.063z"/><path fill="#263238" d="M195.912 191.451a.1.1 0 0 0 .035.008.1.1 0 0 0 .035-.008c.126 0 .25.034.361.098s.203.157.269.269a.1.1 0 0 0 .07.03.1.1 0 0 0 .07-.03.12.12 0 0 0 .052-.063.12.12 0 0 0-.002-.084 1 1 0 0 0-.339-.34 1 1 0 0 0-.451-.141.12.12 0 0 0-.072.032.13.13 0 0 0-.038.072.1.1 0 0 0-.036.034.09.09 0 0 0 .006.096q.015.02.04.027m2.939.021a.1.1 0 0 0-.003-.041.1.1 0 0 0-.019-.036.1.1 0 0 0-.03-.026.1.1 0 0 0-.038-.012 1.15 1.15 0 0 0-.489.094 1.2 1.2 0 0 0-.411.294.13.13 0 0 0 0 .157.1.1 0 0 0 .075.031.1.1 0 0 0 .075-.031.9.9 0 0 1 .71-.294.1.1 0 0 0 .054-.002.1.1 0 0 0 .046-.029.1.1 0 0 0 .028-.048.1.1 0 0 0 .002-.057"/><path fill="#ffb573" d="m196.832 205.385-.39-1.445a1.57 1.57 0 0 1 .151-1.117c.186-.337.49-.586.849-.694.222-.084.463-.099.694-.043s.441.181.605.359c.165.177.277.401.323.644s.025.495-.062.725a7.6 7.6 0 0 1-.64 1.497z"/><path fill="#500061" d="M189.871 203.082a5.1 5.1 0 0 1 .19-2.314 2.5 2.5 0 0 1-1.098-1.018 2.65 2.65 0 0 1-.342-1.494 2.28 2.28 0 0 1-1.365.754 2.23 2.23 0 0 1-1.515-.315s-.14 2.638-1.05 3.35c.343.413.572.916.66 1.455a2.33 2.33 0 0 1-.35 1.55 1.67 1.67 0 0 1 1.194.163c.367.202.652.533.806.936a3.93 3.93 0 0 1 .991-1.99 3.64 3.64 0 0 1 1.879-1.077"/><path fill="#000" d="M189.871 203.082a5.1 5.1 0 0 1 .19-2.314 2.5 2.5 0 0 1-1.098-1.018 2.65 2.65 0 0 1-.342-1.494 2.28 2.28 0 0 1-1.365.754 2.23 2.23 0 0 1-1.515-.315s-.14 2.638-1.05 3.35c.343.413.572.916.66 1.455a2.33 2.33 0 0 1-.35 1.55 1.67 1.67 0 0 1 1.194.163c.367.202.652.533.806.936a3.93 3.93 0 0 1 .991-1.99 3.64 3.64 0 0 1 1.879-1.077" opacity=".2"/><path fill="#ffb573" d="M188.72 201.197c.65 1.204 1.32 2.45 2 3.633a25.5 25.5 0 0 0 2.13 3.287l.25.272.06.052h-.12c-.21 0-.19 0 0 0a4.1 4.1 0 0 0 1.28-.942 32 32 0 0 0 2.68-3.057l1.35.848a18 18 0 0 1-2.23 3.915 7 7 0 0 1-1.89 1.77c-.299.181-.63.298-.974.345a2.5 2.5 0 0 1-1.026-.073 2.3 2.3 0 0 1-.58-.272.7.7 0 0 1-.19-.147l-.14-.115a5 5 0 0 1-.51-.461 21.7 21.7 0 0 1-2.73-3.664 42 42 0 0 1-2.13-3.831z"/><path fill="#ffb573" d="M190.001 203.731s-.39-4.125-2.91-4.25c-1.61-.084-2.81 4.051.72 6.699z"/><path fill="#500061" d="M191.37 189.473s4.75-1.172 8.45 0l-.52 1.612c-2.6-.536-5.26-.68-7.9-.429zm-6.808 26.777-2 7.663s-8.87 16.623-8.55 23.899a106.5 106.5 0 0 0 3.59 21.438l.92-1.978 1.6 1.978.71-1.978.64 1.11s-1.3-20.34-.68-22.601 7.8-14.655 7.8-14.655l18.95 38.104.2-2.45 1.86 2.45.21-2.67 1.85 1.351-15.06-40.062-.39-9.589z"/><path fill="#263238" d="m184.561 216.25 12.03 1.393-.28 3.559-12.75-1.141z"/><path fill="#ffb573" d="M178.85 269.25h2.45c.042 0 .083.016.114.045a.2.2 0 0 1 .056.112l.25 2.021a.37.37 0 0 1-.087.283.3.3 0 0 1-.119.087.3.3 0 0 1-.144.028c-.85 0-1.26-.074-2.34-.084-.66 0-3 .052-3.91.052s-1-.952-.57-1.047a11.2 11.2 0 0 0 3.93-1.392.63.63 0 0 1 .37-.105"/><path fill="#000" d="m291.86 269.345-4.4-13.693-3.46 1.476 5.17 13.211z"/><path fill="#000" d="M289.281 269.25h2.45a.2.2 0 0 1 .062.009q.03.01.054.033a.2.2 0 0 1 .038.052q.015.03.016.063l.26 2.021a.37.37 0 0 1-.087.283.3.3 0 0 1-.12.087.3.3 0 0 1-.143.028c-.86 0-1.27-.074-2.34-.084-.67 0-3 .052-3.91.052s-1-.952-.58-1.047a11.1 11.1 0 0 0 3.94-1.392.58.58 0 0 1 .36-.105"/><path fill="#e4897b" d="M275.481 204.38a33.4 33.4 0 0 1-2.8 4.187 19 19 0 0 1-1.72 1.947q-.476.485-1 .911l-.62.418a2.44 2.44 0 0 1-1.26.419 1.83 1.83 0 0 1-1.1-.356 2 2 0 0 1-.63-.764 3 3 0 0 1-.27-1.047 7.4 7.4 0 0 1 0-1.518q.158-1.3.48-2.564c.413-1.62.924-3.211 1.53-4.763l1.51.481c-.26 1.581-.54 3.193-.73 4.763a23 23 0 0 0-.19 2.282 4.5 4.5 0 0 0 .06.953c0 .104.07.188 0 .084a.7.7 0 0 0-.25-.304 1 1 0 0 0-.49-.147h-.17l.34-.272q.374-.346.71-.733c.47-.533.92-1.141 1.37-1.748.88-1.235 1.73-2.585 2.52-3.873z"/><path fill="#e4897b" d="m269.142 202.809 1.2-1.046c.148-.114.273-.259.366-.425a1.47 1.47 0 0 0-.126-1.617 1.4 1.4 0 0 0-.608-.352 1.33 1.33 0 0 0-.695.001 1.4 1.4 0 0 0-.608.352c-.171.17-.298.382-.369.617a7 7 0 0 0-.38 1.581z"/><path fill="#000" d="m265.632 270.842.32-14.813-3.65.241.55 14.613z"/><path fill="#e4897b" d="M273.78 201.124s-1.47.523-2.74 3.664 2.11 2.847 3.44 1.141 1.52-5.276-.7-4.805"/><path fill="#500061" d="M273.78 201.124s-2.33 7.139.58 19.513l11.7-1.466c0-1.863-1.45-10.751 0-19.691a29 29 0 0 0-3.94 0 45 45 0 0 0-5 .618c-1.134.261-2.25.603-3.34 1.026"/><path fill="#e4897b" d="M281.39 193.744c-.25 1.696-.45 4.753.7 5.716.57.827-1.38 2.899-4.1 2.91-1.75 0-1.58-1.57-.87-2.293 1.77-.659 1.68-2.02 1.32-3.255z"/><path fill="#000" d="m280.191 195-1.75 1.801q.131.442.19.9c.283-.051.552-.166.788-.335.237-.17.436-.391.584-.648a2.16 2.16 0 0 0 .188-1.728z" opacity=".2"/><path fill="#263238" d="M276.061 188.656c-1.62.932-.81 4.701-.06 4.983 1.4.545 2.07-6.124.06-4.983"/><path fill="#e4897b" d="M281.491 191.242c-.05 2.251 0 3.559-1 4.847a2.83 2.83 0 0 1-1.21.944 2.7 2.7 0 0 1-1.503.149 2.75 2.75 0 0 1-1.358-.688 2.95 2.95 0 0 1-.819-1.326c-.54-1.958-.36-5.308 1.72-6.459a2.63 2.63 0 0 1 2.806-.035c.427.259.78.635 1.02 1.087s.359.964.344 1.481"/><path fill="#263238" d="M280.17 190.583c-.33 1.852 0 3.726.89 3.695.69 0 1.6-2.094 2-3.695z"/><path fill="#e4897b" d="M282.562 193.577c-.276.514-.72.908-1.25 1.109-.7.241-1-.377-.83-1.047s.77-1.507 1.47-1.455a.84.84 0 0 1 .402.167.9.9 0 0 1 .274.351.94.94 0 0 1-.066.875"/><path fill="#263238" d="M278.23 192.278a.33.33 0 0 1-.039.216.3.3 0 0 1-.161.14c-.11 0-.21-.125-.22-.303s.08-.346.2-.356.21.115.22.303m-1.988.252c0 .178-.08.335-.2.356s-.21-.126-.22-.304.08-.345.2-.356c.12-.01.21.115.22.304"/><path fill="#de5753" d="M276.87 192.54a7.2 7.2 0 0 1-.78 1.654.97.97 0 0 0 .85.063z"/><path fill="#263238" d="M278.6 193.807q.007.015.007.031a.1.1 0 0 1-.007.032 1.6 1.6 0 0 0-.617.276 1.65 1.65 0 0 0-.453.519.05.05 0 0 1-.07 0 .07.07 0 0 1 0-.073c.119-.222.283-.413.48-.562.196-.148.422-.249.66-.296zm-.139-2.356a.1.1 0 0 1-.04.01.1.1 0 0 1-.04-.01.9.9 0 0 0-.69.367.1.1 0 0 1-.07.03.1.1 0 0 1-.07-.03.1.1 0 0 1-.029-.073.1.1 0 0 1 .029-.074c.104-.14.235-.256.385-.339s.316-.132.485-.142q.04.004.068.033t.032.071q.01.022.011.046a.2.2 0 0 1-.008.047.1.1 0 0 1-.025.039.1.1 0 0 1-.038.025m-2.939.021a.14.14 0 0 1 .11-.115.97.97 0 0 1 .84.388q.026.034.026.078a.13.13 0 0 1-.026.079.096.096 0 0 1-.14 0 .75.75 0 0 0-.67-.294.1.1 0 0 1-.067.032.1.1 0 0 1-.068-.026.1.1 0 0 1-.005-.142"/><path fill="#e4897b" d="m277.212 204.809-.4-1.434a1.3 1.3 0 0 0-.264-.485 1.2 1.2 0 0 0-.435-.324 1.18 1.18 0 0 0-1.041.034c-.22.086-.416.23-.566.419a1.47 1.47 0 0 0-.236 1.38c.078.232.214.438.392.598.394.316.824.58 1.28.785z"/><path fill="#e4897b" d="M286.891 202.453a32 32 0 0 1-1.53 4.313q-.43 1.084-1 2.094a9.8 9.8 0 0 1-1.56 2.094 5 5 0 0 1-.64.512c-.362.224-.77.35-1.19.367a2.73 2.73 0 0 1-1.82-.66 7.6 7.6 0 0 1-1.65-2.01 20 20 0 0 1-1.84-4.187l1.44-.68a34 34 0 0 0 2.36 3.402c.343.461.759.858 1.23 1.172.17.116.29.074.13.053a.4.4 0 0 0-.2 0l.17-.178c.362-.446.668-.938.91-1.466.28-.586.56-1.204.81-1.853.5-1.277 1-2.638 1.37-3.946z"/><path fill="#e4897b" d="M283.002 204.442s.53-4.836 3.08-4.961c1.61-.084 2.15 4.051-1.8 6.699z"/><path fill="#000" d="M263.001 269.25h2.45a.2.2 0 0 1 .062.009q.03.01.054.033a.2.2 0 0 1 .038.052q.013.03.016.063l.26 2.021a.375.375 0 0 1-.216.37.34.34 0 0 1-.144.028c-.85 0-1.26-.074-2.34-.084-.66 0-3 .052-3.91.052s-1-.952-.57-1.047a11.2 11.2 0 0 0 3.93-1.392.63.63 0 0 1 .37-.105"/><path fill="#263238" d="M280.171 190.583c0-1.047-1.87.513-1.87.513l.09-1.047-1.39 1.225-.11-1.236-1.27 1.047s-1-1.696 1-3.475 8.12-1.131 6.41 2.962zm-6.321 27.677 12-1.905s1.65 6.375 1.39 8.856-2.92 14.582-3.13 15.482c-.21.901 5.32 18.539 5.33 19.785s-2.58 2.366-4 2.356-7.78-15.127-8.47-17.733c-.69-2.607.49-13.672.49-13.672s-9.65 10.845-9.94 11.871-1 18.843-1.33 20.12-3.22 1.57-4 .785-1.79-19.628-1.25-23.71 12.65-16.634 12.65-16.634zm-119.157 63.563h59.89l1.97 4.333h-62.21z"/><path fill="#500061" d="m155.292 285.246.2-2.513h58.5l1.14 2.513z"/><path fill="#000" d="m207.9 285.246-1.55-2.513h7.64l1.14 2.513z" opacity=".3"/><path fill="#263238" d="M156.301 281.1h32.65l-1.96-4.333h-30.34z"/><path fill="#500061" d="m157.25 280.19.2-2.513h28.95l1.14 2.513z"/><path fill="#263238" d="m176.531 280.828-1.59-3.496h-1l1.58 3.496zm-3.558 0-1.58-3.496h-1.01l1.59 3.496zm-3.562 0-1.58-3.496h-1l1.58 3.496z"/><path fill="#500061" d="m166.98 277.677 1.14 2.513h-10.87l.2-2.513zm3.56 0 1.14 2.513h-2.55l-1.14-2.513zm4.691 2.513h-2.55l-1.14-2.513h2.55z"/><path fill="#fff" d="m166.98 277.677 1.14 2.513h-10.87l.2-2.513zm3.56 0 1.14 2.513h-2.55l-1.14-2.513zm4.691 2.513h-2.55l-1.14-2.513h2.55z" opacity=".6"/><path fill="#263238" d="M163.87 281.823c-.232 2.417-1.305 4.661-3.014 6.305s-3.935 2.574-6.256 2.613a7.4 7.4 0 0 1-3.187-.649 7.7 7.7 0 0 1-2.651-1.962 8.2 8.2 0 0 1-1.648-2.928 8.5 8.5 0 0 1-.354-3.379c.23-2.413 1.298-4.654 3.001-6.298s3.923-2.577 6.239-2.621a7.4 7.4 0 0 1 3.197.639 7.7 7.7 0 0 1 2.662 1.96 8.2 8.2 0 0 1 1.656 2.933 8.4 8.4 0 0 1 .355 3.387"/><path fill="#500061" d="M161.841 281.823a7.7 7.7 0 0 1-2.298 4.807 7.03 7.03 0 0 1-4.772 1.986 5.7 5.7 0 0 1-2.436-.485 5.9 5.9 0 0 1-2.03-1.493 6.2 6.2 0 0 1-1.262-2.235 6.4 6.4 0 0 1-.272-2.58c.177-1.844.995-3.555 2.298-4.807a7.04 7.04 0 0 1 4.772-1.987 5.7 5.7 0 0 1 2.436.486 5.9 5.9 0 0 1 2.03 1.492 6.2 6.2 0 0 1 1.262 2.235c.265.83.357 1.71.272 2.581"/><path fill="#263238" d="m169.151 285.832-1.58-3.496h-1.01l1.59 3.496zm3.561 0-1.58-3.496h-1.01l1.58 3.496zm3.559 0-1.58-3.496h-1.01l1.58 3.496zm3.559 0-1.58-3.496h-1.01l1.58 3.496zm3.562 0-1.58-3.496h-1.01l1.58 3.496zm3.558 0-1.58-3.496h-1.01l1.58 3.496zm3.56 0-1.58-3.496h-1.01l1.58 3.496zm3.561 0-1.58-3.496h-1.01l1.58 3.496zm3.56 0-1.58-3.496h-1.01l1.58 3.496zm3.562 0-1.58-3.496h-1.01l1.58 3.496zm3.558 0-1.58-3.496h-1.01l1.58 3.496zm3.56 0-1.58-3.496h-1.01l1.58 3.496z"/><path fill="#fff" d="M161.841 281.823a7.7 7.7 0 0 1-2.298 4.807 7.03 7.03 0 0 1-4.772 1.986 5.7 5.7 0 0 1-2.436-.485 5.9 5.9 0 0 1-2.03-1.493 6.2 6.2 0 0 1-1.262-2.235 6.4 6.4 0 0 1-.272-2.58c.177-1.844.995-3.555 2.298-4.807a7.04 7.04 0 0 1 4.772-1.987 5.7 5.7 0 0 1 2.436.486 5.9 5.9 0 0 1 2.03 1.492 6.2 6.2 0 0 1 1.262 2.235c.265.83.357 1.71.272 2.581" opacity=".7"/><path fill="#263238" d="M224.222 170.85h-59.64a2.9 2.9 0 0 1-1.26-.258 3.05 3.05 0 0 1-1.048-.776 3.2 3.2 0 0 1-.652-1.158 3.4 3.4 0 0 1-.14-1.336 4 4 0 0 1 1.193-2.484 3.66 3.66 0 0 1 2.467-1.033h59.64c.431-.008.86.08 1.257.257.397.178.754.442 1.046.774s.516.725.653 1.154.186.883.144 1.332a4 4 0 0 1-1.191 2.491 3.66 3.66 0 0 1-2.469 1.037"/><path fill="#500061" d="M164.651 169.929a2.2 2.2 0 0 1-.933-.187 2.25 2.25 0 0 1-.776-.573 2.43 2.43 0 0 1-.581-1.847 2.95 2.95 0 0 1 .881-1.842c.5-.48 1.15-.752 1.829-.764h59.64a2.2 2.2 0 0 1 .93.19c.294.132.558.327.775.574a2.4 2.4 0 0 1 .481.855c.101.318.136.654.104.987a2.96 2.96 0 0 1-.882 1.843c-.5.48-1.15.752-1.828.764z"/><path fill="#fff" d="M227.002 167.322a2.96 2.96 0 0 1-.878 1.85c-.5.482-1.152.755-1.832.768h-59.64a2.2 2.2 0 0 1-.931-.195 2.3 2.3 0 0 1-.774-.576 2.4 2.4 0 0 1-.481-.858 2.5 2.5 0 0 1-.104-.989 2.96 2.96 0 0 1 .882-1.842c.5-.48 1.15-.752 1.828-.764h59.63c.321-.008.639.056.934.187s.561.326.778.573c.218.246.383.539.484.857s.137.656.104.989" opacity=".5"/><path fill="#500061" d="M206.002 167.322a2.96 2.96 0 0 1-.884 1.85 2.72 2.72 0 0 1-1.836.768h-38.63a2.2 2.2 0 0 1-.931-.195 2.3 2.3 0 0 1-.774-.576 2.4 2.4 0 0 1-.481-.858 2.5 2.5 0 0 1-.104-.989 2.96 2.96 0 0 1 .882-1.842c.5-.48 1.15-.752 1.828-.764h38.59c.324-.012.646.048.945.177s.569.324.79.57c.222.247.391.541.495.861.104.321.142.661.11.998"/><path fill="#263238" d="M167.342 175.215h-9.29a2.4 2.4 0 0 1-1.016-.204 2.5 2.5 0 0 1-.845-.624 2.6 2.6 0 0 1-.526-.932 2.7 2.7 0 0 1-.113-1.076l.78-9.683a3.2 3.2 0 0 1 .959-2.003 2.93 2.93 0 0 1 1.991-.824h9.29a2.4 2.4 0 0 1 1.012.204c.319.142.606.354.842.622.235.267.414.583.523.928s.148.711.113 1.073l-.77 9.683a3.2 3.2 0 0 1-.957 2.009 2.93 2.93 0 0 1-1.993.827"/><path fill="#fff" d="m170.192 162.706-.78 9.673a2.18 2.18 0 0 1-.652 1.359 2 2 0 0 1-1.348.567h-9.29q-.166.016-.33 0a1.7 1.7 0 0 1-.74-.367 1.6 1.6 0 0 1-.43-.544 1.9 1.9 0 0 1-.19-.984l.78-9.673a2.18 2.18 0 0 1 .648-1.366c.368-.357.849-.56 1.352-.57h9.28c.234-.004.467.044.683.14s.41.238.57.418c.16.179.283.392.36.624.076.232.106.478.087.723"/><path fill="#500061" d="M161.001 163.805a6.9 6.9 0 0 0-3.353 1.938 7.43 7.43 0 0 0-1.877 3.495l.87.544s1-4.009 4.08-5.453z"/><path fill="#000" d="M161.001 163.805a6.9 6.9 0 0 0-3.353 1.938 7.43 7.43 0 0 0-1.877 3.495l.87.544s1-4.009 4.08-5.453z" opacity=".2"/><path fill="#500061" d="M160.471 164.067a7.04 7.04 0 0 0-2.007 3.306 7.3 7.3 0 0 0 .007 3.917h1.05s-1.11-3.79 1-6.626z"/><path fill="#000" d="M160.471 164.067a7.04 7.04 0 0 0-2.007 3.306 7.3 7.3 0 0 0 .007 3.917h1.05s-1.11-3.79 1-6.626z" opacity=".2"/><path fill="#500061" d="M163.082 174.305h-5q-.166.016-.33 0a1.7 1.7 0 0 1-.74-.367h.57c.66 0 1.43 0 2.18.053 1 .042 2.24.157 3.32.314"/><path fill="#ffb573" d="M164.67 174.577a24 24 0 0 0-1.59-.272h-2.76l-.52-.346c1.09-.806 1.48-3.067 1.58-4.773v-.869a.2.2 0 0 1 0-.084l.41.513.24.304.35.439 1.46 1.811a.9.9 0 0 0-.12.304.13.13 0 0 0 0 .073.3.3 0 0 0 0 .105 1 1 0 0 0-.06.188v.063c-.191.382-.24.824-.138 1.241s.346.78.688 1.02q.215.167.46.283"/><path fill="#000" d="m162.422 169.489 1.45 1.822q-.2.428-.32.89a2 2 0 0 1-.93-.701 2.15 2.15 0 0 1-.41-1.121c.018-.307.089-.609.21-.89" opacity=".2"/><path fill="#263238" d="M167.562 163.156c1.47.921.06 4.69-.73 4.983-1.49.544-1.09-6.124.73-4.983"/><path fill="#ffb573" d="M161.721 165.731c-.31 2.251-.6 3.57.24 4.847 1.28 1.937 4.1 1.246 5-.921.85-1.947 1.22-5.297-.69-6.459a3.06 3.06 0 0 0-2.894.05 3.2 3.2 0 0 0-1.113 1.033 3.4 3.4 0 0 0-.543 1.45"/><path fill="#263238" d="M160.341 163.763c-.31 1.309.41 4.983 1.32 5.015.91.031 1.57-1.979 1.48-3.874.88-.157 6.1.566 5.62-1.779-.45-2.167-3.62-1.152-5.61-2.575-.23.858.62 1.633.18 1.497-1.83-.587-2.7.649-4 0 .025.349.13.688.306.986s.417.549.704.73"/><path fill="#ffb573" d="M160.271 168.076c.096.253.241.482.427.671s.409.336.653.428c.66.252 1.1-.377 1-1.046-.1-.67-.53-1.508-1.24-1.456a1 1 0 0 0-.428.152q-.197.13-.32.334a1.09 1.09 0 0 0-.092.917"/><path fill="#263238" d="M164.811 166.768c0 .188 0 .345.14.356.14.01.24-.116.27-.304s0-.335-.14-.356-.23.126-.27.304m1.96.251c0 .188 0 .345.14.356.14.01.23-.115.26-.304.03-.188 0-.335-.13-.356s-.24.126-.27.304"/><path fill="#ed893e" d="M166.13 167.029c.093.579.268 1.14.52 1.665a.96.96 0 0 1-.86 0z"/><path fill="#263238" d="M164.721 165.951h.07a.74.74 0 0 1 .359.1c.11.064.203.156.271.267a.1.1 0 0 0 .03.021.1.1 0 0 0 .035.008.1.1 0 0 0 .035-.008.1.1 0 0 0 .03-.021.12.12 0 0 0 0-.147.93.93 0 0 0-.328-.351.87.87 0 0 0-.452-.131.12.12 0 0 0-.079.03.13.13 0 0 0-.041.075.1.1 0 0 0-.014.048.1.1 0 0 0 .039.089.1.1 0 0 0 .045.02m2.931.011a.1.1 0 0 0 0-.043.1.1 0 0 0-.018-.038.1.1 0 0 0-.032-.026.1.1 0 0 0-.04-.009 1.08 1.08 0 0 0-.89.388v.146a.1.1 0 0 0 .07.035.1.1 0 0 0 .039-.009.1.1 0 0 0 .031-.026.9.9 0 0 1 .72-.293.12.12 0 0 0 .085-.037.13.13 0 0 0 .035-.088"/><path fill="#500061" d="M157.791 174.273a1.7 1.7 0 0 1-.74-.366 1.6 1.6 0 0 1-.43-.544 2.7 2.7 0 0 0 .8-.587c0 .387.068.77.2 1.131q.07.19.17.366"/><path fill="#000" d="M157.791 174.273a1.7 1.7 0 0 1-.74-.366 1.6 1.6 0 0 1-.43-.544 2.7 2.7 0 0 0 .8-.587c0 .387.068.77.2 1.131q.07.19.17.366" opacity=".2"/><path fill="#500061" d="M160.172 163.983s4.75-1.183 8.46 0l-.52 1.612a26.2 26.2 0 0 0-7.9-.429z"/><path fill="#263238" d="M307.221 281.823h-59.9l-2.66 4.333h62.21z"/><path fill="#500061" d="m306.061 285.246.21-2.513h-58.51l-1.54 2.513z"/><path fill="#000" d="m267.931 285.246 1.95-2.513h-22.12l-1.54 2.513z" opacity=".3"/><path fill="#263238" d="M305.72 281.1h-32.66l2.67-4.333h30.34z"/><path fill="#500061" d="m304.921 280.19.2-2.513h-28.95l-1.54 2.513z"/><path fill="#263238" d="m285.541 280.828 2.14-3.496h1l-2.14 3.496zm3.551 0 2.15-3.496h1l-2.14 3.496zm3.558 0 2.14-3.496h1l-2.14 3.496z"/><path fill="#500061" d="m295.591 277.677-1.54 2.513h10.87l.2-2.513zm-3.56 0-1.54 2.513h2.55l1.54-2.513zm-5.101 2.513h2.56l1.54-2.513h-2.55z"/><path fill="#fff" d="m295.591 277.677-1.54 2.513h10.87l.2-2.513zm-3.56 0-1.54 2.513h2.55l1.54-2.513zm-5.101 2.513h2.56l1.54-2.513h-2.55z" opacity=".6"/><path fill="#263238" d="M298.001 281.823a8.5 8.5 0 0 0 .357 3.377 8.2 8.2 0 0 0 1.648 2.927 7.75 7.75 0 0 0 2.65 1.962 7.4 7.4 0 0 0 3.185.652c2.322-.038 4.55-.968 6.26-2.612 1.711-1.644 2.786-3.888 3.02-6.306a8.5 8.5 0 0 0-.357-3.38 8.2 8.2 0 0 0-1.651-2.928 7.75 7.75 0 0 0-2.653-1.962 7.4 7.4 0 0 0-3.189-.649c-2.32.039-4.547.969-6.256 2.613-1.708 1.644-2.781 3.888-3.014 6.306"/><path fill="#500061" d="M300.072 281.823a6.4 6.4 0 0 0 .268 2.582 6.2 6.2 0 0 0 1.262 2.237 5.9 5.9 0 0 0 2.032 1.492c.77.341 1.602.505 2.438.482a7.02 7.02 0 0 0 4.774-1.984 7.67 7.67 0 0 0 2.296-4.809 6.4 6.4 0 0 0-.272-2.581 6.2 6.2 0 0 0-1.262-2.235 5.9 5.9 0 0 0-2.03-1.492 5.7 5.7 0 0 0-2.436-.486 7.03 7.03 0 0 0-4.774 1.984 7.67 7.67 0 0 0-2.296 4.81"/><path fill="#263238" d="m292.111 285.832 2.14-3.496h1.01l-2.14 3.496zm-3.559 0 2.14-3.496h1.01l-2.14 3.496zm-3.562 0 2.14-3.496h1.01l-2.14 3.496zm-3.559 0 2.14-3.496h1.01l-2.14 3.496zm-3.559 0 2.14-3.496h1.01l-2.14 3.496zm-3.561 0 2.14-3.496h1.01l-2.14 3.496zm-3.56 0 2.14-3.496h1.01l-2.14 3.496zm-3.559 0 2.14-3.496h1.01l-2.14 3.496z"/><path fill="#fff" d="M300.072 281.823a6.4 6.4 0 0 0 .268 2.582 6.2 6.2 0 0 0 1.262 2.237 5.9 5.9 0 0 0 2.032 1.492c.77.341 1.602.505 2.438.482a7.02 7.02 0 0 0 4.774-1.984 7.67 7.67 0 0 0 2.296-4.809 6.4 6.4 0 0 0-.272-2.581 6.2 6.2 0 0 0-1.262-2.235 5.9 5.9 0 0 0-2.03-1.492 5.7 5.7 0 0 0-2.436-.486 7.03 7.03 0 0 0-4.774 1.984 7.67 7.67 0 0 0-2.296 4.81" opacity=".7"/><path fill="#263238" d="M255.503 170.85h59.63a3.66 3.66 0 0 0 2.475-1.033 4 4 0 0 0 1.195-2.495 3.4 3.4 0 0 0-.144-1.332 3.2 3.2 0 0 0-.653-1.154 3.1 3.1 0 0 0-1.046-.774 2.95 2.95 0 0 0-1.257-.257h-59.64a3.66 3.66 0 0 0-2.467 1.033 4 4 0 0 0-1.193 2.484c-.044.451.004.906.14 1.336.137.43.359.825.652 1.158.293.334.65.598 1.048.776.397.179.827.266 1.26.258"/><path fill="#500061" d="M315.212 169.929a2.7 2.7 0 0 0 1.829-.764c.499-.48.813-1.136.881-1.843a2.5 2.5 0 0 0-.103-.987 2.4 2.4 0 0 0-.482-.855 2.3 2.3 0 0 0-.774-.574 2.2 2.2 0 0 0-.931-.19h-59.63a2.7 2.7 0 0 0-1.828.764 2.95 2.95 0 0 0-.882 1.842c-.034.334 0 .671.1.989.1.319.264.611.481.858.217.246.482.442.776.573s.613.195.933.187z"/><path fill="#fff" d="M253.281 167.322c-.034.335.001.674.101.993.101.32.266.613.483.861.218.248.484.444.78.576s.615.195.936.187h59.63a2.7 2.7 0 0 0 1.829-.77c.5-.482.813-1.139.881-1.847a2.5 2.5 0 0 0-.106-.985 2.4 2.4 0 0 0-.482-.854 2.3 2.3 0 0 0-.773-.573 2.2 2.2 0 0 0-.929-.194h-59.63a2.7 2.7 0 0 0-1.834.761 2.95 2.95 0 0 0-.886 1.845" opacity=".5"/><path fill="#500061" d="M259.41 167.322c-.032.335.003.673.104.991.102.319.267.612.484.859.217.248.482.444.777.576.296.133.614.198.935.191h53.5a2.7 2.7 0 0 0 1.829-.77c.5-.482.813-1.139.881-1.847a2.5 2.5 0 0 0-.107-.985 2.4 2.4 0 0 0-.481-.854 2.3 2.3 0 0 0-.773-.573 2.2 2.2 0 0 0-.929-.194h-53.5a2.7 2.7 0 0 0-1.832.763 2.96 2.96 0 0 0-.888 1.843"/><path fill="#263238" d="M311.682 175.215h9.32a2.93 2.93 0 0 0 1.994-.827 3.2 3.2 0 0 0 .956-2.009l.77-9.683a2.7 2.7 0 0 0-.112-1.073 2.6 2.6 0 0 0-.524-.928 2.4 2.4 0 0 0-.842-.622 2.4 2.4 0 0 0-1.012-.204h-9.29a2.93 2.93 0 0 0-2.022.806 3.2 3.2 0 0 0-.978 2.021l-.78 9.683a2.7 2.7 0 0 0 .115 1.081c.111.348.292.666.531.935s.529.481.852.622c.324.142.672.209 1.022.198"/><path fill="#fff" d="m323.81 162.706-.77 9.673a2.16 2.16 0 0 1-.35.984 2.15 2.15 0 0 1-1.29.91 2 2 0 0 1-.34 0h-9.29a1.6 1.6 0 0 1-.687-.141 1.7 1.7 0 0 1-.572-.424 1.8 1.8 0 0 1-.355-.632 1.8 1.8 0 0 1-.076-.729l.78-9.672a2.13 2.13 0 0 1 .636-1.38c.371-.36.859-.558 1.364-.557h9.29c.237 0 .472.052.688.154.217.102.41.251.567.437s.275.405.344.643c.07.237.091.488.061.734"/><path fill="#500061" d="M321.381 174.273a2 2 0 0 1-.34 0h-.65z"/><path fill="#e4897b" d="M316.14 174.305c.204-.23.353-.508.435-.81s.094-.62.035-.928a1.7 1.7 0 0 0-.06-.356 1 1 0 0 0 0-.146c0-.126-.06-.262-.1-.388l1.75-1.811.42-.439.28-.304.5-.513c0 .115 0 .241-.05.356a.2.2 0 0 1 0 .084q0 .23-.06.502c-.16 1.696-.15 3.936.8 4.753z"/><path fill="#000" d="m318.18 169.866-1.75 1.811q.126.438.18.89a2.4 2.4 0 0 0 1.042-.688c.285-.319.488-.709.588-1.133a2.5 2.5 0 0 0-.06-.88" opacity=".2"/><path fill="#263238" d="M314.051 163.523c-1.62.921-.82 4.689-.07 4.982 1.41.545 2.07-6.123.07-4.982"/><path fill="#e4897b" d="M319.481 166.108c-.05 2.24 0 3.559-1 4.836-.311.429-.73.758-1.209.953s-1 .248-1.506.153a2.74 2.74 0 0 1-1.36-.693 2.93 2.93 0 0 1-.815-1.334c-.54-1.947-.37-5.297 1.72-6.459.422-.267.906-.41 1.4-.414s.979.132 1.405.392.779.636 1.019 1.087c.24.452.359.963.346 1.479"/><path fill="#263238" d="M318.16 165.449c-.34 1.842 0 3.726.89 3.695.69 0 1.6-2.094 2-3.695z"/><path fill="#e4897b" d="M320.55 168.443a2.36 2.36 0 0 1-1.25 1.141c-.7.251-1-.377-.83-1.047s.77-1.508 1.47-1.455a.83.83 0 0 1 .389.168.9.9 0 0 1 .266.34.94.94 0 0 1-.045.853"/><path fill="#263238" d="M316.222 167.134c0 .188-.08.345-.2.356-.12.01-.21-.115-.22-.304a.33.33 0 0 1 .2-.356c.11-.01.21.126.22.304m-2.001.251c0 .189-.08.346-.19.356s-.22-.115-.22-.303a.33.33 0 0 1 .035-.213.3.3 0 0 1 .155-.143c.12-.011.22.125.22.303"/><path fill="#de5753" d="M314.861 167.396a7.4 7.4 0 0 1-.78 1.664.97.97 0 0 0 .84.063z"/><path fill="#263238" d="M316.441 166.318h-.07a.9.9 0 0 0-.383.103.9.9 0 0 0-.307.263.1.1 0 0 1-.07.03.1.1 0 0 1-.07-.03.11.11 0 0 1 0-.147c.1-.143.229-.26.378-.344s.314-.13.482-.137c.06 0 .11 0 .1.105a.1.1 0 0 1 .022.046.1.1 0 0 1-.005.052.1.1 0 0 1-.03.041.1.1 0 0 1-.047.018m-2.93.01q0-.048.032-.081a.1.1 0 0 1 .078-.034.96.96 0 0 1 .465.087c.146.067.274.17.375.3a.12.12 0 0 1 0 .147.1.1 0 0 1-.032.026.1.1 0 0 1-.077 0 .1.1 0 0 1-.031-.026.75.75 0 0 0-.299-.237.7.7 0 0 0-.371-.056.1.1 0 0 1-.057.01.1.1 0 0 1-.053-.024.11.11 0 0 1-.03-.112m4.649-.879c0-1.047-1.87.513-1.87.513l.08-1.047-1.37 1.225-.11-1.246-1.27 1.047s-1-1.696 1-3.476c2-1.779 8.13-1.13 6.41 2.963zm-84.838-2.063.47 12.395 8.56-13.86-2.69.178-4.29 7.537-.24-6.574zm15.59.419s.68-1.57-.14-1.884-6.57 3.14-8 5.401c-1.43 2.262 3.6 1.152 4.09 1.56s-2.94 3.141-4 3.34-1.62-1.372-1.62-1.372l-1.45 2.272s1.46 1.769 2.43 1.633 7.52-4.564 7.71-6.867-4-.723-4.54-1.267 3.37-2.533 3.58-2.439 0 .858 0 .858z"/><path fill="#500061" d="M398.818 161.492h-7.13V298.09h7.13z"/><path fill="#000" d="M398.818 161.492h-7.13V298.09h7.13z" opacity=".2"/><path fill="#263238" d="M410.667 191.828h-7.13V298.09h7.13z"/><path fill="#fff" d="M410.667 191.828h-7.13V298.09h7.13z" opacity=".4"/><path fill="#500061" d="M375.129 242.389h-7.13V298.1h7.13zm11.849-20.224h-7.13v75.925h7.13z"/><path fill="#263238" d="M422.519 181.716h-7.13V298.09h7.13z"/><path fill="#fff" d="M410.667 205.52h-7.13v92.57h7.13zm11.852-5.684h-7.13V298.1h7.13z" opacity=".4"/><path fill="#500061" d="M398.818 173.54h-7.13v124.55h7.13z"/><path fill="#fff" d="M386.978 249.099h-7.13v48.991h7.13z" opacity=".4"/><path fill="#fff" d="M375.129 242.389h-7.13V298.1h7.13z" opacity=".2"/><path fill="#fff" d="M375.129 255.056h-7.13v43.034h7.13z" opacity=".4"/><path fill="#263238" d="M426.297 298.551h-62.07a.43.43 0 0 1-.353-.106.47.47 0 0 1-.153-.35.47.47 0 0 1 .153-.349.43.43 0 0 1 .353-.106h62.07a.43.43 0 0 1 .267.155.47.47 0 0 1 0 .6.43.43 0 0 1-.267.156"/><path fill="#500061" d="M426.899 311.636h-4.16v-.524h4.16a10.4 10.4 0 0 0 5.44-1.559l.25.45a10.8 10.8 0 0 1-5.69 1.633m-9.16 0h-20v-.524h20zm-25 0h-2v-.524h2zm-22 0h-7.11a11 11 0 0 1-2-.199l.09-.513c.643.125 1.296.188 1.95.188h7.11zm-17.79-16.749h-.5v-10.468h.5zm85.13-4.03h-.5v-2.094h.5zm0-7.328h-.5v-20.936h.5zm-85.08-4.355h-.5v-20.936h.5zm85.13-21.826h-.5V246.88h.5zm-85.13-4.344h-.5v-2.094h.5zm0-23.03h-.5v-10.468h.5zm85.13-4.03h-.5v-2.094h.5zm0-7.328h-.5V197.68h.5zm-85.13-4.344h-.5v-20.936h.5zm85.13-21.826h-.5v-10.468h.5zm-85.13-4.344h-.5v-2.094h.5zm0-23.03h-.5v-5.36a12.2 12.2 0 0 1 1.09-5.056l.45.23a11.6 11.6 0 0 0-1 4.826zm85.13-4.031h-.5v-2.072h.5zm-1.94-6.919a11 11 0 0 0-3.909-4.083 10.37 10.37 0 0 0-5.331-1.507h-8.56v-.523h8.56c1.96.005 3.884.548 5.581 1.575a11.5 11.5 0 0 1 4.089 4.276zm-79.11-3.14-.31-.409c1.962-1.638 4.401-2.524 6.91-2.512h12.71v.523h-12.76c-2.4-.026-4.737.801-6.63 2.345zm56.31-2.398h-10v-.523h10zm-30 0h-2v-.523h2z"/><path fill="#500061" d="M426.897 308.809h-63.27c-2.235-.002-4.377-.933-5.958-2.587-1.58-1.655-2.469-3.898-2.472-6.237V159.712c.003-2.34.892-4.583 2.472-6.237s3.723-2.585 5.958-2.588h63.27c2.235.003 4.378.934 5.958 2.588s2.47 3.897 2.472 6.237v140.273c-.002 2.339-.891 4.582-2.472 6.237-1.58 1.654-3.723 2.585-5.958 2.587m-63.27-156.875c-1.969.003-3.858.823-5.251 2.281-1.392 1.458-2.176 3.435-2.179 5.497v140.273c.003 2.062.787 4.038 2.179 5.496 1.393 1.458 3.282 2.279 5.251 2.282h63.27c1.969-.006 3.856-.827 5.248-2.285 1.392-1.457 2.177-3.432 2.182-5.493V159.712c-.005-2.061-.79-4.036-2.182-5.494-1.392-1.457-3.279-2.278-5.248-2.284zm-45.339 133.249a2.33 2.33 0 0 1-1.68-.733 2.5 2.5 0 0 1-.666-1.5 2.55 2.55 0 0 1 .392-1.603 2.36 2.36 0 0 1 1.273-.981 2.25 2.25 0 0 1 1.578.086c.501.219.915.612 1.17 1.113a2.57 2.57 0 0 1 .232 1.637 2.5 2.5 0 0 1-.812 1.42 2.3 2.3 0 0 1-1.487.561m-1-1.466c.193.203.439.34.707.396s.545.028.797-.081c.253-.11.468-.295.62-.533.152-.237.233-.517.233-.802a1.5 1.5 0 0 0-.233-.803 1.4 1.4 0 0 0-.62-.532 1.32 1.32 0 0 0-.797-.082 1.37 1.37 0 0 0-.707.396 1.48 1.48 0 0 0-.403 1.021c0 .382.145.749.403 1.02"/><path fill="#500061" d="M355.687 282.21h-35.54v1.047h35.54zm-86.144-176.022s15.95-27.217 21-27.709 10.84 15.368 15 13.86c4.16-1.507 28.45-46.541 34-45.327s14.34 25.48 16.42 25.124 4.85-4.858 10.87 7.547a276 276 0 0 1 10.87 26.547z"/><path fill="#fff" d="M269.543 106.188s15.95-27.217 21-27.709 10.84 15.368 15 13.86c4.16-1.507 28.45-46.541 34-45.327s14.34 25.48 16.42 25.124 4.85-4.858 10.87 7.547a276 276 0 0 1 10.87 26.547z" opacity=".4"/><path fill="#500061" d="M259.303 106.188s20.34-46.719 26.82-48.833c6.48-2.115 15.27 18.602 19.67 22.286s11.51-13.504 14.39-13.744 16.13 26.871 20.53 26.63 5.08-3.768 9.71-5.757 16.42 19.418 16.42 19.418z"/><path fill="#263238" d="M262.522 106.188s10-17.534 13.9-21.658 9.48 10.28 13.41 10.834 18.5-28.745 22.66-30.922c4.16-2.178 12.72 23.72 16.77 24.212s12.37-15.702 16.76-16.56c4.39-.859 24.52 34.094 24.52 34.094z"/><path fill="#fff" d="M262.522 106.188s10-17.534 13.9-21.658 9.48 10.28 13.41 10.834 18.5-28.745 22.66-30.922c4.16-2.178 12.72 23.72 16.77 24.212s12.37-15.702 16.76-16.56c4.39-.859 24.52 34.094 24.52 34.094z" opacity=".4"/><path fill="#263238" d="M379.102 105.728H256.521v.921h122.581z"/><path fill="#263238" d="M262.522 106.188s4.88-12.854 9-12.656c4.12.2 5.78 9.642 9.71 9.16s8.56-15.493 14.46-14.77c5.9.722 7 9.683 10.75 11.378s10.95-9.83 15.61-11.4 10.29 13.819 15.38 14.792c5.09.974 7.17-6.28 10.17-5.705s11.5 9.201 11.5 9.201zm-4.251 7.401v6.532h6.07v-6.532zm32.162 0v6.532h6.07v-6.532z"/><path fill="#500061" d="M323.463 113.589v6.532h6.07v-6.532zm32.158 0v6.532h6.07v-6.532z"/><path fill="#fff" d="M290.433 113.589v6.532h6.07v-6.532zm65.188 0v6.532h6.07v-6.532z" opacity=".4"/><path fill="#263238" d="M278.863 117.306h-11.79a.42.42 0 0 1-.353-.107.47.47 0 0 1 .165-.792.4.4 0 0 1 .188-.012h11.79a.42.42 0 0 1 .352.106.46.46 0 0 1 .154.349.5.5 0 0 1-.04.192.45.45 0 0 1-.466.264m32.449 0h-11.79a.42.42 0 0 1-.353-.107.47.47 0 0 1-.113-.541.45.45 0 0 1 .278-.251.4.4 0 0 1 .188-.012h11.79a.42.42 0 0 1 .353.106.47.47 0 0 1 .153.349.46.46 0 0 1-.319.443.44.44 0 0 1-.187.013m33.32 0h-11.79a.44.44 0 0 1-.466-.264.5.5 0 0 1 0-.384.45.45 0 0 1 .279-.251.4.4 0 0 1 .187-.012h11.79a.43.43 0 0 1 .466.263.47.47 0 0 1 0 .384.445.445 0 0 1-.466.264m32.45 0h-11.799a.42.42 0 0 1-.353-.107.46.46 0 0 1-.154-.349q0-.1.04-.192a.45.45 0 0 1 .279-.251.4.4 0 0 1 .188-.012h11.799a.43.43 0 0 1 .268.155.47.47 0 0 1 .106.3.47.47 0 0 1-.106.3.44.44 0 0 1-.268.156"/><path fill="#500061" d="M380.743 133.28h-20v-.524h20zm-25 0h-12v-.524h12zm-17 0h-2v-.524h2zm-12 0h-20v-.524h20zm-25 0h-12v-.524h12zm-17 0h-2v-.524h2zm-12 0h-20v-.524h20zm-23.17 0c-2.088-.006-4.096-.839-5.619-2.333-1.524-1.494-2.45-3.537-2.591-5.717h.5c.131 2.048 1 3.967 2.432 5.37 1.431 1.402 3.317 2.185 5.278 2.188zm141.2-.492-.17-.492a7.4 7.4 0 0 0 1.73-.9l.28.429a7.6 7.6 0 0 1-1.84.963m5-5.119-.47-.188a8.4 8.4 0 0 0 .48-2.816v-9.589h.5v9.589a9 9 0 0 1-.52 3.046zm-153.92-7.684h-.5v-2.093h.5zm154.43-10.143h-.5V88.906h.5zm-154.43-2.418h-.5V86.487h.5zm0-26.17h-.5V68.691h.5zm154.43-2.817h-.5v-2.093h.5zm0-7.327h-.5V58.548h.5zm-154.43-7.652h-.5v-2.094h.5zm154.43-10.144h-.5V42.438a8.4 8.4 0 0 0-1.385-4.584 7.84 7.84 0 0 0-3.615-2.964l.18-.492a8.34 8.34 0 0 1 3.824 3.167 8.95 8.95 0 0 1 1.456 4.873zm-154.43-2.418h-.5v-8.458c.008-2.17.795-4.256 2.205-5.846s3.339-2.568 5.405-2.738v.523c-1.94.16-3.751 1.078-5.073 2.572a8.32 8.32 0 0 0-2.067 5.489zm139.15-16.54h-2v-.523h2zm-7 0h-12v-.523h12zm-17 0h-20v-.523h20zm-30 0h-2v-.523h2zm-7 0h-12v-.523h12zm-17 0h-20v-.523h20zm-30 0h-2v-.523h2zm-7 0h-12v-.523h12z"/><path fill="#500061" d="M388.053 130.401h-138.48a5.37 5.37 0 0 1-3.872-1.683 5.88 5.88 0 0 1-1.608-4.053V42.438a5.87 5.87 0 0 1 1.608-4.05 5.36 5.36 0 0 1 3.872-1.676h138.48c.718 0 1.429.148 2.093.435s1.267.71 1.775 1.242a5.8 5.8 0 0 1 1.185 1.857c.275.695.417 1.44.417 2.192v82.227a5.87 5.87 0 0 1-1.602 4.052 5.36 5.36 0 0 1-3.868 1.684m-138.48-92.643a4.38 4.38 0 0 0-3.165 1.37 4.8 4.8 0 0 0-1.315 3.31v82.227a4.8 4.8 0 0 0 1.315 3.313 4.4 4.4 0 0 0 3.165 1.376h138.48a4.38 4.38 0 0 0 3.161-1.377 4.8 4.8 0 0 0 1.309-3.312V42.438a4.8 4.8 0 0 0-1.309-3.31 4.37 4.37 0 0 0-3.161-1.37z"/><path fill="#500061" d="M278.014 129.878h-1v27.887h1z"/><path fill="#500061" d="M277.444 162.402c-.469 0-.927-.145-1.316-.418a2.46 2.46 0 0 1-.873-1.113 2.6 2.6 0 0 1-.135-1.434c.091-.481.317-.923.648-1.27a2.34 2.34 0 0 1 1.214-.679c.46-.096.936-.047 1.369.141s.803.506 1.064.914a2.566 2.566 0 0 1-.298 3.129 2.33 2.33 0 0 1-1.673.73m0-3.915c-.271 0-.536.084-.761.242a1.4 1.4 0 0 0-.504.643 1.5 1.5 0 0 0-.078.829c.052.278.183.534.374.734.192.201.436.337.702.393s.541.027.791-.082c.251-.108.465-.292.615-.528a1.48 1.48 0 0 0-.173-1.808 1.35 1.35 0 0 0-.966-.423"/><path fill="#263238" d="M136.281 110.169c8.303-11.053 6.474-27.058-4.084-35.75-10.558-8.69-25.848-6.776-34.15 4.276-8.303 11.053-6.474 27.058 4.084 35.749s25.848 6.777 34.15-4.275"/><path fill="#500061" d="m117.169 94.423.34-25.459a23.5 23.5 0 0 1 11.473 3.182c3.514 2.036 6.493 4.952 8.668 8.487a26.26 26.26 0 0 1 3.799 11.77 26.5 26.5 0 0 1-1.975 12.252c-1.615 3.85-4.115 7.222-7.279 9.813s-6.89 4.323-10.849 5.039a23.3 23.3 0 0 1-11.835-.936c-3.81-1.33-7.247-3.628-10.002-6.688z"/><path fill="#fff" d="m117.169 94.423.34-25.459a23.46 23.46 0 0 1 10.396 2.616 24.6 24.6 0 0 1 8.324 7.025z" opacity=".5"/><path fill="#fff" d="m117.167 94.423-6.3-24.59a23 23 0 0 1 6.3-.869c6.441.033 12.608 2.726 17.162 7.493s7.127 11.224 7.158 17.966c0 1.325-.1 2.648-.3 3.956z" opacity=".4"/><path fill="#fff" d="M117.168 107.947c7.136 0 12.92-6.055 12.92-13.524 0-7.47-5.784-13.525-12.92-13.525-7.135 0-12.92 6.055-12.92 13.525 0 7.469 5.785 13.524 12.92 13.524"/><path fill="#263238" d="M194.428 73.445h-31a.43.43 0 0 1-.311-.135.474.474 0 0 1 0-.652.43.43 0 0 1 .311-.135h31a.43.43 0 0 1 .311.135.47.47 0 0 1 .129.326.47.47 0 0 1-.129.326.43.43 0 0 1-.311.135m-5.259 10.719h-25.73a.43.43 0 0 1-.311-.135.47.47 0 0 1-.129-.326.47.47 0 0 1 .129-.325.43.43 0 0 1 .311-.135h25.73a.42.42 0 0 1 .311.135.48.48 0 0 1 .096.501.5.5 0 0 1-.096.15.44.44 0 0 1-.311.135m10.52 10.719h-36.25a.43.43 0 0 1-.311-.135.47.47 0 0 1-.129-.325.47.47 0 0 1 .129-.326.43.43 0 0 1 .311-.135h36.25c.117 0 .229.048.311.135a.47.47 0 0 1 .129.326.47.47 0 0 1-.129.325.43.43 0 0 1-.311.135m-5.261 10.72h-31a.43.43 0 0 1-.311-.135.476.476 0 0 1 0-.652.43.43 0 0 1 .311-.135h31a.43.43 0 0 1 .311.135.47.47 0 0 1 .129.326.47.47 0 0 1-.129.326.43.43 0 0 1-.311.135m1.761 10.719h-32.75a.43.43 0 0 1-.311-.135.48.48 0 0 1-.129-.326.47.47 0 0 1 .126-.329.42.42 0 0 1 .314-.131h32.75a.42.42 0 0 1 .308.135.45.45 0 0 1 .122.325.47.47 0 0 1-.125.322.44.44 0 0 1-.305.139m-40.161-46.51h-6.24v6.354h6.24zm0 10.719h-6.24v6.355h6.24z"/><path fill="#500061" d="M156.028 91.25h-6.24v6.355h6.24zm0 10.71h-6.24v6.354h6.24zm0 10.719h-6.24v6.354h6.24z"/><path fill="#fff" d="M156.028 80.531h-6.24v6.355h6.24zm0 21.429h-6.24v6.354h6.24z" opacity=".4"/><path fill="#fff" d="M156.028 112.679h-6.24v6.354h6.24z" opacity=".6"/><path fill="#500061" d="M202.878 135.196h-20v-.524h20zm-25 0h-12v-.524h12zm-17 0h-2v-.524h2zm-12 0h-20v-.524h20zm-25 0h-12v-.524h12zm-17 0h-2v-.524h2zm-12 0h-6.95a11.2 11.2 0 0 1-5.849-1.673 11.9 11.9 0 0 1-4.241-4.535l.44-.251a11.4 11.4 0 0 0 4.058 4.334 10.7 10.7 0 0 0 5.592 1.601h6.95zm117.45-3.141-.34-.387q.727-.687 1.33-1.497l.4.325q-.631.856-1.39 1.591zm3.55-6.354-.48-.115c.171-.829.259-1.674.26-2.523v-9.965h.5v9.965c.005.898-.089 1.794-.28 2.67zm-139.48-1.79v-2.114h.5v2.072zm.48-12.561h-.5V90.413h.5zm139.28-3.434h-.5V86.98h.5zM76.878 85.158h-.5V72.597h.5zm139.28-8.667h-.5v-2.094h.5zm0-7.328h-.5v-3.412c.004-3.018-1.124-5.916-3.14-8.072l.36-.366c2.107 2.254 3.285 5.284 3.28 8.438zm-139.28-1.8h-.5v-2.105h.5v2.104m4.4-10.835-.3-.419a11.14 11.14 0 0 1 7-2.439h12.7v.524h-12.75a10.62 10.62 0 0 0-6.65 2.334m127.18-1.602a10.6 10.6 0 0 0-3.85-.732h-16v-.524h16a11 11 0 0 1 4 .764zm-29.83-.732h-2v-.524h2zm-7 0h-12v-.524h12zm-17 0h-20v-.524h20zm-30 0h-2v-.524h2zm-7 0h-12v-.524h12z"/><path fill="#500061" d="M204.609 132.317H87.929c-2.334-.005-4.57-.979-6.22-2.708-1.65-1.728-2.578-4.071-2.58-6.514V65.751c.002-2.444.93-4.786 2.58-6.515s3.886-2.702 6.22-2.708h116.68c2.334.006 4.571.98 6.22 2.708s2.577 4.071 2.58 6.515v57.344c-.003 2.443-.93 4.786-2.58 6.514s-3.886 2.703-6.22 2.708M87.929 57.575c-2.07.003-4.054.865-5.516 2.398-1.463 1.533-2.284 3.611-2.284 5.778v57.344c0 2.166.821 4.244 2.284 5.777s3.446 2.396 5.516 2.398h116.68c2.07-.002 4.053-.865 5.516-2.398 1.462-1.533 2.284-3.611 2.284-5.777V65.751c0-2.167-.822-4.245-2.284-5.778-1.463-1.533-3.446-2.395-5.516-2.398z"/><path fill="#500061" d="m176.479 214.785-50.31-52.665v-30.326h1v29.897l50.02 52.351z"/><path fill="#500061" d="M178.157 218.281a2.2 2.2 0 0 1-.909-.183 2.3 2.3 0 0 1-.771-.539 2.56 2.56 0 0 1-.69-1.759c0-.658.248-1.29.69-1.758a2.38 2.38 0 0 1 1.675-.697 2.38 2.38 0 0 1 1.675.697c.222.23.397.504.517.806a2.58 2.58 0 0 1 0 1.905c-.12.301-.295.575-.517.806a2.3 2.3 0 0 1-.765.538 2.2 2.2 0 0 1-.905.184m0-3.915a1.33 1.33 0 0 0-.774.228c-.23.155-.411.379-.519.642a1.5 1.5 0 0 0-.085.837c.053.282.184.54.378.743.261.262.609.409.97.409.362 0 .709-.147.97-.409.255-.271.399-.635.399-1.016 0-.38-.144-.745-.399-1.015a1.34 1.34 0 0 0-.94-.419"/><path fill="#9f5b53" d="m81.6 227.159 4.67 4.888c.72.754.24 5.234 0 6.783s-6 4.271-6.36 4.02-1.44-5.485-1.44-5.485l4.8-2.586-3.36-4.103z"/><path fill="#500061" d="M82.07 191.912c-2.75 1.162-13.43 23.323-13.48 27.333S82.07 233.9 82.07 233.9l3-2.983s-9.87-12.133-10.19-13.735c-.32-1.601 10.79-16.749 10.79-16.749z"/><path fill="#fff" d="M68.59 219.245c0 4.009 13.49 14.655 13.49 14.655l3-2.983s-9.88-12.133-10.2-13.735c-.16-.816 2.84-5.422 5.71-9.599 2.59-3.747 5.07-7.15 5.07-7.15l-1-2.491-2.53-6.04c-2.81 1.172-13.49 23.333-13.54 27.343" opacity=".6"/><path fill="#263238" d="m84.491 229.001-4.12 4.868 1.7 1.329 3.6-4.208z"/><path fill="#000" d="M80.588 207.583c2.59-3.747 5.07-7.15 5.07-7.15l-1-2.491c-.19-.115-.38-.23-.59-.335-.07 0-3.75 4.428-3.48 9.976" opacity=".2"/><path fill="#a24e3f" d="M104.999 173.478a15.4 15.4 0 0 0 2.14 2.847 1.9 1.9 0 0 1-.752.714 1.8 1.8 0 0 1-.998.197z"/><path fill="#2e353a" d="M105.689 172.368c0 .587-.22 1.047-.6 1.11s-.71-.419-.75-1.047.22-1.047.59-1.109.71.46.76 1.046"/><path fill="#9f5b53" d="M105.051 179.424q-.1.437-.25.858a8.4 8.4 0 0 1-2.87 4.01q-.504.375-1.05.68a7 7 0 0 1-4.578.81 7.17 7.17 0 0 1-4.112-2.255c-2.91-3.077-2.83-6.626-3.16-12.635a8.6 8.6 0 0 1 .72-4.078 8.2 8.2 0 0 1 2.523-3.197 7.7 7.7 0 0 1 3.692-1.506 7.56 7.56 0 0 1 3.925.564c5.63 2.397 6.41 11.337 5.16 16.749"/><path fill="#000" d="M101.931 184.292q-.505.375-1.05.68a7.1 7.1 0 0 1-3.114.89 7.06 7.06 0 0 1-3.176-.597 9 9 0 0 1 1-2.041c2.167-.291 4.369.08 6.34 1.068" opacity=".2"/><path fill="#9f5b53" d="M90.38 192.08c2.82 2.69 9.751 1.696 9.751 1.696s4.33-1.236 3.42-2.649c-2.55-.439-3.78-1.685-4.29-3.276a8 8 0 0 1-.26-3.046c0-.566.12-1.142.21-1.696l-8.56-6.648c1.12 4.387 2.49 12.447-.27 15.619"/><path fill="#263238" d="M98.26 160.079s1.52-.974 4.11 1.591c2.18 2.146 0 3.884 1.3 6.647.361.883.508 1.846.428 2.803a6 6 0 0 1-.888 2.683s-1.26 2.836-3.45 2.658c0 0-1.79 2.272-1.5 4.617s-2.93 4.187-7.31 4.187-2.63-2.921-2.63-2.921a19.2 19.2 0 0 1-3-5.139 18.4 18.4 0 0 1-1.32-7.244c-.04-1.277.163-2.549.597-3.742a9.7 9.7 0 0 1 1.933-3.209c2.96-3.444 9.93-5.171 11.73-2.931"/><path fill="#9f5b53" d="M98.672 175.153a3.95 3.95 0 0 0 .666 1.561c.33.462.755.84 1.244 1.108 1.17.524 1.93-1.204 1.76-3.004-.16-1.602-1-3.863-2.2-3.559s-1.88 2.282-1.47 3.894"/><path fill="#2e353a" d="M104.289 170.924a.32.32 0 0 1-.18-.063.32.32 0 0 1 0-.429c.122-.188.284-.342.473-.451.19-.109.401-.17.617-.177a.3.3 0 0 1 .191.115c.048.062.073.14.069.22a.3.3 0 0 1-.096.201.27.27 0 0 1-.204.071.8.8 0 0 0-.337.129.85.85 0 0 0-.253.269.29.29 0 0 1-.28.115"/><path fill="#263238" d="M103.149 167.49s2.55-2.899 1.85-5.412a2.5 2.5 0 0 0-.434-.903 2.4 2.4 0 0 0-.748-.641 2.23 2.23 0 0 0-1.888-.11s-.77-3.527-3.67-3.768-3.67 1.696-3.67 1.696-3.77-2.188-6.57-.723a3.6 3.6 0 0 0-1.721 1.85 3.85 3.85 0 0 0-.139 2.578s-5.06 1.413-5.79 5.433a3.87 3.87 0 0 0 .355 2.92c.246.435.575.813.967 1.111.39.297.836.507 1.308.617 0 0-2.21 2.628-1.63 4.323s4.28 3.068 4.28 3.068a2.77 2.77 0 0 0 0 2.25c.5 1.382 5.51 1.497 5.51 1.497s.13-15.587 11.99-15.786M89.68 191.567l1.26-3.413s8.54-1.716 11.431 2.733-12.69.68-12.69.68"/><path fill="#9f5b53" d="m112.451 373.796 5.99.659.3-3.632.82-9.893-5.99-.659-.9 10.918zM82.56 373h5.81l.05-1.382.01-.167.29-8.804.01-.178.12-3.381h-5.81z"/><path fill="#000" d="m113.571 360.271-.9 10.918 6.07-.366.82-9.893zM82.6 372.226h.01l5.81-.775h.01l.3-8.5h-.01l-5.82.492-.29 8.521z" opacity=".2"/><path fill="#263238" d="M89.169 372.665h-7a.5.5 0 0 0-.317.118.53.53 0 0 0-.174.301l-1.15 5.412c-.044.23 0 .47.124.666a.85.85 0 0 0 .537.381q.094.015.19 0c2.28 0 3.94-.189 6.81-.189 1.76 0 7.09.199 9.52.199s2.759-2.523 1.76-2.753c-4.47-1.047-7.84-2.439-9.27-3.779a1.4 1.4 0 0 0-1.03-.356m29.901-.22h-7a.5.5 0 0 0-.314.114.53.53 0 0 0-.176.295l-1.15 5.412a.94.94 0 0 0 .134.664.87.87 0 0 0 .536.383h.18c2.29 0 4-.189 6.81-.189 1.77 0 7.09.189 9.53.189s2.75-2.513 1.75-2.754c-4.47-1.046-7.84-2.428-9.27-3.779a1.38 1.38 0 0 0-1.03-.335"/><path fill="#500061" d="M120.109 369.912h-8.51s.69-76.721-8.51-102.587c-.65 8.563-1.38 17.45-2.1 24.861-.45 4.575-.89 8.521-1.32 11.515-2.68 19.324-9.44 66.996-9.44 66.996h-8.41s1-45.704 2-64.693c1.1-20.611 1.57-65.949 1.61-69.791h30.81c2.93 16.215 10.44 81.139 3.87 133.699"/><path fill="#000" d="M103.089 267.251c-.65 8.563-1.38 17.472-2.1 24.873-1-10.688-2.33-18.309-2.33-18.309s-1.21-1.047-4.52-6.564c-3.31-5.516 0-15.848 0-15.848-.14 9.588 8.95 15.848 8.95 15.848" opacity=".2"/><path fill="#263238" d="m121.07 367.4-.42 2.512h-10.06v-2.324zm-29.87.963-.97 2.313H81.8l-.56-2.313z"/><path fill="#500061" d="M84.67 238.349s1.19-7.328-.58-28.641a304 304 0 0 0-2-17.796s16.75-3.873 28.441 0c0 0 .48 2.596 1.13 7.004.41 2.658.87 5.987 1.34 9.798 0 .136 0 .282.05.429 1.16 9.285 3.37 16.173 3.59 28.641z"/><path fill="#fff" d="M84.089 209.708c1.77 21.324.58 28.63.58 28.63l32-.544c-.2-11.044-1.95-17.712-3.16-25.553-.15-1.046-.3-2.03-.43-3.088 0-.146 0-.293-.05-.429-.38-3.14-.77-5.977-1.13-8.374-.06-.492-.13-.974-.21-1.424-.65-4.418-1.13-7.024-1.13-7.024-11.69-3.873-28.43 0-28.43 0a331 331 0 0 1 1.96 17.806" opacity=".6"/><path fill="#000" d="M109.939 200.737s.29 7.411 3.53 11.515c-.15-1.047-.3-2.031-.43-3.088 0-.147 0-.293-.05-.429a298 298 0 0 0-1.13-8.375 10 10 0 0 0-1.92.377" opacity=".2"/><path fill="#9f5b53" d="m116.269 186.406-2.36-3.14a9.2 9.2 0 0 0-1-1.989c-.35-.314-4.64-2.554-4.93-2.377a40 40 0 0 0-2.15 4.313c-.22.482 3.2 2.178 4.12 2.418a2.87 2.87 0 0 0 1.74-.115l1.86 3.141"/><path fill="#500061" d="M110.4 191.944c2.43 1.047 5.06 3.821 8.83 7.83l-6.55-12.394 3.38-2.094s13.54 19.889 13.54 22.611-3.55 4.899-17.13-2.554c0 0-3.61-5.402-3.61-8.584a7.35 7.35 0 0 1 1.54-4.815"/><path fill="#fff" d="M110.4 191.944c2.43 1.047 5.06 3.821 8.83 7.83l-6.55-12.394 3.38-2.094s13.54 19.889 13.54 22.611-3.55 4.899-17.13-2.554c0 0-3.61-5.402-3.61-8.584a7.35 7.35 0 0 1 1.54-4.815" opacity=".6"/><path fill="#263238" d="m115.691 184.595-3.94 2.314.82 2.428 5.21-3.036z"/></svg>