<svg xmlns="http://www.w3.org/2000/svg" fill="none" viewBox="0 0 500 352"><path fill="#fafafa" d="M250 351.677c138.071 0 250-47.557 250-106.223S388.071 139.231 250 139.231 0 186.789 0 245.454s111.929 106.223 250 106.223"/><path fill="#ebebeb" d="m353.749 315.54-16.793-6.926a9 9 0 0 0-3.049-.518 9 9 0 0 0-3.048.518L316 314.74a3.1 3.1 0 0 0-.854-.515l-16.813-6.889a9 9 0 0 0-3.048-.518 9 9 0 0 0-3.049.518l-16.792 6.926c-1.687.698-1.687 1.822 0 2.519l10.118 4.172-.679.28c-1.686.697-1.686 1.821 0 2.519l16.792 6.926c.946.341 1.99.518 3.049.518a9 9 0 0 0 3.049-.518l16.792-6.926c.498-.184.897-.481 1.131-.845l5.142 2.116c.946.34 1.99.517 3.049.517a9.1 9.1 0 0 0 3.049-.517l16.792-6.927c1.707-.734 1.707-1.858.021-2.556m-213.754-9.056c54.207 0 98.151-18.123 98.151-40.479s-43.944-40.478-98.151-40.478c-54.208 0-98.151 18.123-98.151 40.478 0 22.356 43.943 40.479 98.151 40.479m221.319-7.177c40.765 0 73.812-13.627 73.812-30.437s-33.047-30.438-73.812-30.438-73.811 13.628-73.811 30.438 33.046 30.437 73.811 30.437m-53.604-80.89c32.176-13.265 32.176-34.771 0-48.036-32.175-13.265-84.32-13.265-116.486 0-32.165 13.265-32.175 34.771 0 48.036 32.176 13.265 84.321 13.265 116.486 0"/><path fill="#fff" d="M160.045 84.092 35.354 135.55V62.064l124.691-51.466z"/><path fill="#fafafa" d="M35.354 135.551v2.74l127.951-52.81-3.26-1.389z"/><path fill="#f0f0f0" d="M169.462 1.637 29.264 59.494v86.392l140.198-57.864zm-6.17 83.843-127.94 52.811V62.065l127.95-52.811z"/><path fill="#e0e0e0" d="m163.305 85.48-3.26-1.388V10.598l3.26-1.344z"/><path fill="#fafafa" d="M169.463 1.637 166.152.286 25.943 58.142l3.322 1.359z"/><path fill="#e0e0e0" d="m25.943 58.142 3.322 1.359v86.384l-3.322-1.358zM92.968 38.26l3.321-1.367v76.241l-3.321-1.359z"/><path fill="#f0f0f0" d="m102.437 34.367-6.149 2.526v76.241l6.149-2.549z"/><path fill="#ebebeb" d="m322.057 166.776 31.363-12.928 133.185 54.926v2.453l-31.353 12.935-133.195-54.926z"/><path fill="#f5f5f5" d="m455.252 221.701-133.195-54.925 31.363-12.928 133.185 54.926z"/><path fill="#e0e0e0" d="M455.251 221.701v2.461l31.353-12.935v-2.453z"/><path fill="#ebebeb" d="m322.057 76.85 31.363-12.926 2.972 1.226v89.925l-31.353 12.927-2.982-1.226z"/><path fill="#e0e0e0" d="m356.391 155.075-31.353 12.927V78.077l31.353-12.927z"/><path fill="#e0e0e0" d="m350.416 122.235-23.908 9.865v33.676l23.908-9.864z"/><path fill="#fff" d="m327.281 132.643 23.137-9.489c1.413 1.073 3.268 1.796 5.296 2.064l-22.952 9.453s-1.512-.25-5.481-2.028"/><path fill="#fafafa" d="M334.992 134.612c-.69.25-1.453.38-2.226.38-.774 0-1.537-.13-2.227-.38l-3.897-1.601a1.4 1.4 0 0 1-.661-.351.8.8 0 0 1-.252-.56c0-.201.088-.397.252-.56s.395-.286.661-.351l22.808-9.35.966.397-22.427 9.254a.85.85 0 0 0-.408.208.47.47 0 0 0-.156.339c0 .123.054.242.156.34a.86.86 0 0 0 .408.208l3.62 1.469c.414.15.872.228 1.337.228s.922-.078 1.336-.228l22.428-9.233 1.09.448z"/><path fill="#e0e0e0" d="M357.799 125.262v33.706l-22.807 9.35a6.7 6.7 0 0 1-2.227.375 6.7 6.7 0 0 1-2.226-.375l-3.897-1.601a1.6 1.6 0 0 1-.631-.367.94.94 0 0 1-.284-.544V132.1a.94.94 0 0 0 .284.544c.161.16.379.287.631.367l3.897 1.601c.69.25 1.453.38 2.226.38.774 0 1.537-.13 2.227-.38z"/><path fill="#f0f0f0" d="M332.76 134.994a6 6 0 0 1-2.221-.382l-3.897-1.601a1.6 1.6 0 0 1-.631-.367.94.94 0 0 1-.284-.544v33.677a.94.94 0 0 0 .284.544c.161.16.379.286.631.366l3.897 1.602a6.2 6.2 0 0 0 2.221.374z"/><path fill="#ebebeb" d="m360.205 126.246-23.918 9.864v33.677l23.918-9.865z"/><path fill="#fff" d="m337.061 136.654 23.147-9.49c1.408 1.073 3.26 1.796 5.285 2.064l-22.931 9.453s-1.501-.279-5.501-2.027"/><path fill="#fafafa" d="M344.772 138.622c-.691.25-1.453.38-2.227.38s-1.536-.13-2.226-.38l-3.928-1.594a1.4 1.4 0 0 1-.672-.35.8.8 0 0 1-.256-.564c0-.203.09-.401.256-.565.167-.164.402-.287.672-.35l22.818-9.35.966.397-22.437 9.254a.85.85 0 0 0-.408.208.47.47 0 0 0-.157.34c0 .122.055.241.157.339a.84.84 0 0 0 .408.208l3.62 1.469c.414.15.872.228 1.336.228s.923-.078 1.337-.228l22.458-9.211 1.09.448z"/><path fill="#e0e0e0" d="M367.58 129.272v33.677l-22.808 9.35a6.7 6.7 0 0 1-2.226.374 6.7 6.7 0 0 1-2.226-.374l-3.928-1.579a1.6 1.6 0 0 1-.631-.367.94.94 0 0 1-.284-.544V136.11a.94.94 0 0 0 .284.544c.161.16.379.287.631.367l3.897 1.601c.69.25 1.453.38 2.226.38.774 0 1.537-.13 2.227-.38z"/><path fill="#f0f0f0" d="M342.562 139.004a6 6 0 0 1-2.232-.382l-3.938-1.601a1.6 1.6 0 0 1-.631-.367.94.94 0 0 1-.284-.544v33.677c.02.2.116.392.277.557.161.164.381.294.638.376l3.897 1.601a6.2 6.2 0 0 0 2.231.375z"/><path fill="#e0e0e0" d="m379.517 134.942-23.908 9.865v32.501l23.908-9.864z"/><path fill="#fff" d="m356.372 145.35 23.147-9.49c1.413 1.073 3.268 1.797 5.296 2.064l-22.952 9.453s-1.481-.249-5.491-2.027"/><path fill="#fafafa" d="M364.082 147.318c-.688.25-1.449.38-2.221.38s-1.533-.13-2.221-.38l-3.897-1.571c-1.234-.5-1.234-1.315 0-1.822l22.808-9.38.966.397-22.437 9.255a.84.84 0 0 0-.393.212.48.48 0 0 0-.149.335c0 .12.052.237.149.335a.84.84 0 0 0 .393.212l3.63 1.469c.413.149.869.226 1.331.226.463 0 .919-.077 1.332-.226l22.427-9.233 1.1.449z"/><path fill="#e0e0e0" d="M386.9 137.968v32.495l-22.818 9.35a6.6 6.6 0 0 1-2.221.379c-.772 0-1.533-.13-2.221-.379l-3.897-1.594a1.6 1.6 0 0 1-.637-.365.96.96 0 0 1-.289-.546v-32.502a.96.96 0 0 0 .289.546c.163.16.383.286.637.365l3.897 1.601c.688.25 1.449.38 2.221.38s1.533-.13 2.221-.38z"/><path fill="#f0f0f0" d="M361.861 147.7a6.2 6.2 0 0 1-2.221-.381l-3.897-1.572a1.6 1.6 0 0 1-.637-.366.95.95 0 0 1-.289-.545v32.494a.96.96 0 0 0 .289.546c.163.16.383.286.637.365l3.897 1.594a6 6 0 0 0 2.221.382z"/><path fill="#ebebeb" d="m389.297 138.953-23.908 9.864v32.502l23.908-9.865z"/><path fill="#fff" d="m366.151 149.361 23.147-9.49c1.413 1.073 3.268 1.796 5.296 2.064l-22.952 9.453s-1.48-.25-5.491-2.027"/><path fill="#fafafa" d="M373.863 151.329c-.688.25-1.449.38-2.221.38s-1.533-.13-2.221-.38l-3.897-1.601a1.4 1.4 0 0 1-.661-.351.8.8 0 0 1-.252-.56c0-.201.088-.397.252-.56s.395-.286.661-.351l22.808-9.35.966.397-22.427 9.254a.84.84 0 0 0-.408.208.47.47 0 0 0-.156.339c0 .123.054.242.156.34a.85.85 0 0 0 .408.208l3.62 1.469c.412.15.868.228 1.331.228s.92-.078 1.332-.228l22.427-9.233 1.1.448z"/><path fill="#e0e0e0" d="M396.68 141.979v32.494l-22.808 9.35c-.69.25-1.453.38-2.226.38-.774 0-1.537-.13-2.227-.38l-3.897-1.594a1.56 1.56 0 0 1-.636-.365.94.94 0 0 1-.289-.545v-32.502a.94.94 0 0 0 .289.545c.162.161.382.287.636.366l3.897 1.601c.69.25 1.453.38 2.227.38s1.536-.13 2.226-.38z"/><path fill="#f0f0f0" d="M371.641 151.711a6.2 6.2 0 0 1-2.222-.382l-3.897-1.601a1.55 1.55 0 0 1-.636-.366.94.94 0 0 1-.289-.545v32.501a.94.94 0 0 0 .289.546c.162.16.382.286.636.365l3.897 1.594a6 6 0 0 0 2.222.382z"/><path fill="#ebebeb" d="m405.627 147.59-23.908 9.865 7.424 33.478 23.918-9.864z"/><path fill="#fff" d="m382.666 157.925 23.157-9.497c1.808.951 3.937 1.542 6.17 1.711l-22.952 9.446a38 38 0 0 1-6.375-1.66"/><path fill="#fafafa" d="M391.425 159.46a8.47 8.47 0 0 1-4.823.154l-4.556-1.329c-1.429-.419-1.593-1.168-.37-1.668l22.829-9.357 1.12.33-22.427 9.255c-.74.301-.637.734.216.999l4.226 1.219c.469.122.966.177 1.464.16a5 5 0 0 0 1.436-.255l22.427-9.24 1.276.374z"/><path fill="#e0e0e0" d="m414.244 150.102 7.434 33.479-22.828 9.357a8.2 8.2 0 0 1-2.389.428 8.4 8.4 0 0 1-2.434-.273l-4.545-1.33c-.719-.206-1.12-.499-1.182-.801l-7.435-33.463c.072.301.473.587 1.183.8l4.555 1.33a8.47 8.47 0 0 0 4.823-.154z"/><path fill="#f0f0f0" d="M389.092 159.886a8.2 8.2 0 0 1-2.489-.272l-4.555-1.329c-.71-.213-1.111-.5-1.183-.801l7.435 33.479c.062.301.463.595 1.182.8l4.545 1.33a8.5 8.5 0 0 0 2.489.271z"/><path fill="#e0e0e0" d="m422.698 153.598-23.919 9.865v31.715l23.919-9.864z"/><path fill="#fff" d="m399.55 164.006 23.147-9.489c1.408 1.073 3.26 1.796 5.285 2.064l-22.951 9.453s-1.481-.25-5.481-2.028"/><path fill="#fafafa" d="M407.26 165.975c-.69.25-1.452.38-2.226.38-.773 0-1.536-.13-2.226-.38l-3.897-1.601a1.4 1.4 0 0 1-.661-.351.8.8 0 0 1-.252-.56c0-.201.088-.397.252-.56.163-.163.394-.286.661-.351l22.828-9.35.966.397-22.437 9.254a.84.84 0 0 0-.408.208.47.47 0 0 0-.156.339c0 .123.054.242.156.34a.85.85 0 0 0 .408.208l3.62 1.469c.414.15.872.228 1.336.228s.923-.078 1.337-.228l22.376-9.24 1.09.448z"/><path fill="#e0e0e0" d="M430.068 156.625v31.723l-22.808 9.35c-.69.25-1.453.38-2.226.38-.774 0-1.536-.13-2.226-.38l-3.898-1.594a1.56 1.56 0 0 1-.63-.367.94.94 0 0 1-.285-.544v-31.73a.95.95 0 0 0 .285.544c.161.16.378.287.63.367l3.898 1.601c.69.25 1.452.38 2.226.38.773 0 1.536-.13 2.226-.38z"/><path fill="#f0f0f0" d="M405.039 166.357a6.2 6.2 0 0 1-2.231-.382l-3.898-1.601a1.56 1.56 0 0 1-.63-.367.95.95 0 0 1-.285-.544v31.716a.95.95 0 0 0 .285.544c.161.16.378.286.63.366l3.898 1.594a6 6 0 0 0 2.231.382z"/><path fill="#ebebeb" d="m432.477 157.609-23.918 9.864v31.716l23.918-9.864z"/><path fill="#fff" d="m409.329 168.017 23.147-9.49c1.41 1.072 3.261 1.795 5.286 2.064l-22.942 9.453s-1.491-.25-5.491-2.027"/><path fill="#fafafa" d="M417.04 169.985c-.69.25-1.453.38-2.226.38-.774 0-1.537-.13-2.227-.38l-3.897-1.601a1.4 1.4 0 0 1-.661-.351.8.8 0 0 1-.252-.56c0-.2.088-.396.252-.56.164-.163.395-.286.661-.35l22.818-9.351.967.397-22.438 9.255a.85.85 0 0 0-.408.207.47.47 0 0 0-.156.34c0 .122.054.241.156.34a.85.85 0 0 0 .408.207l3.62 1.469c.414.15.872.229 1.336.229s.923-.079 1.337-.229l22.427-9.233 1.09.449z"/><path fill="#e0e0e0" d="M439.848 160.635v31.708l-22.808 9.35c-.69.25-1.452.38-2.226.38-.773 0-1.536-.13-2.226-.38l-3.897-1.594a1.56 1.56 0 0 1-.631-.366.95.95 0 0 1-.285-.544v-31.716a.95.95 0 0 0 .285.544c.161.16.378.287.631.367l3.897 1.601c.69.25 1.453.38 2.226.38.774 0 1.536-.13 2.226-.38z"/><path fill="#f0f0f0" d="M414.819 170.367a6.1 6.1 0 0 1-2.231-.382l-3.897-1.601a1.56 1.56 0 0 1-.631-.367.95.95 0 0 1-.285-.544v31.716a.95.95 0 0 0 .285.544c.161.16.378.287.631.367l3.897 1.593a6 6 0 0 0 2.231.382z"/><path fill="#e0e0e0" d="m453.03 165.071-23.919 9.865v32.501l23.919-9.871z"/><path fill="#fff" d="m429.882 175.479 23.147-9.489c1.412 1.069 3.263 1.791 5.285 2.063l-22.941 9.446s-1.491-.242-5.491-2.02"/><path fill="#fafafa" d="M437.596 177.448a6.7 6.7 0 0 1-2.226.374 6.7 6.7 0 0 1-2.226-.374l-3.897-1.587a1.4 1.4 0 0 1-.661-.351.8.8 0 0 1-.252-.56c0-.2.088-.396.252-.56.163-.163.394-.286.661-.35l22.818-9.351.966.397-22.437 9.255c-.741.301-.741.786 0 1.087l3.619 1.469c.415.148.873.226 1.337.226s.922-.078 1.337-.226l22.427-9.233 1.09.448z"/><path fill="#e0e0e0" d="M460.403 168.09v32.502l-22.808 9.35c-.69.25-1.453.38-2.226.38-.774 0-1.536-.13-2.226-.38l-3.898-1.594a1.55 1.55 0 0 1-.631-.371.95.95 0 0 1-.284-.547v-32.494a.95.95 0 0 0 .285.544c.161.16.378.286.63.366l3.898 1.602a6.7 6.7 0 0 0 2.226.374 6.7 6.7 0 0 0 2.226-.374z"/><path fill="#f0f0f0" d="M435.374 177.822a6.2 6.2 0 0 1-2.231-.374l-3.898-1.587a1.56 1.56 0 0 1-.63-.366.95.95 0 0 1-.285-.545v32.495a.95.95 0 0 0 .284.547c.16.162.378.29.631.371l3.898 1.594a6.2 6.2 0 0 0 2.231.374z"/><path fill="#ebebeb" d="m462.81 169.074-23.918 9.872v32.502l23.918-9.872z"/><path fill="#fff" d="m439.662 179.49 23.147-9.505c1.415 1.071 3.269 1.793 5.296 2.064l-22.952 9.446s-1.481-.228-5.491-2.005"/><path fill="#fafafa" d="M447.375 181.458a6.7 6.7 0 0 1-2.221.375 6.7 6.7 0 0 1-2.221-.375l-3.897-1.601c-1.234-.5-1.234-1.315 0-1.822l22.807-9.35.967.397-22.437 9.254c-.741.302-.741.786 0 1.087l3.619 1.469a4 4 0 0 0 1.337.226 4 4 0 0 0 1.337-.226l22.427-9.232 1.09.448z"/><path fill="#e0e0e0" d="M470.183 172.101v32.501l-22.808 9.35c-.688.25-1.449.38-2.221.38s-1.533-.13-2.221-.38l-3.907-1.594a1.6 1.6 0 0 1-.632-.37.95.95 0 0 1-.284-.548v-32.494a.95.95 0 0 0 .285.544c.161.16.378.287.631.367l3.907 1.601c.69.246 1.45.375 2.221.375s1.532-.129 2.221-.375z"/><path fill="#f0f0f0" d="M445.154 181.833a6.1 6.1 0 0 1-2.221-.375l-3.907-1.601a1.56 1.56 0 0 1-.631-.367.95.95 0 0 1-.285-.544v32.495a.95.95 0 0 0 .284.547c.161.161.379.289.632.371l3.907 1.594a6.1 6.1 0 0 0 2.221.374z"/><path fill="#ebebeb" d="m328.113 125.967 31.353-12.942 127.139 52.428v2.461l-31.353 12.935-127.139-52.429z"/><path fill="#f5f5f5" d="m455.252 178.395-127.139-52.428 31.353-12.942 127.139 52.428z"/><path fill="#e0e0e0" d="M455.251 178.395v2.453l31.353-12.934v-2.461z"/><path fill="#ebebeb" d="m352.876 81.64-23.918 9.864 7.435 33.478 23.908-9.864z"/><path fill="#fff" d="m329.901 91.974 23.158-9.497c1.807.952 3.937 1.542 6.169 1.711l-22.951 9.446a38.5 38.5 0 0 1-6.376-1.66"/><path fill="#fafafa" d="M338.664 93.51a8.3 8.3 0 0 1-2.389.423 8.6 8.6 0 0 1-2.434-.27l-4.545-1.33c-1.439-.418-1.604-1.167-.37-1.666l22.818-9.358 1.131.33-22.437 9.255c-.741.301-.638.735.226 1l4.226 1.218a5.1 5.1 0 0 0 2.89-.095l22.437-9.24 1.275.375z"/><path fill="#e0e0e0" d="m361.493 84.152 7.425 33.478-22.818 9.358a8.47 8.47 0 0 1-4.823.154l-4.556-1.33c-.709-.205-1.11-.499-1.182-.8l-7.373-33.479c.062.302.463.588 1.183.8l4.545 1.33c.777.208 1.604.3 2.433.274a8.2 8.2 0 0 0 2.389-.428z"/><path fill="#f0f0f0" d="M336.329 93.935a8.5 8.5 0 0 1-2.488-.272l-4.545-1.329c-.72-.213-1.121-.5-1.183-.8l7.425 33.478c.072.301.473.595 1.182.801l4.555 1.329c.796.21 1.642.302 2.489.272z"/><path fill="#ebebeb" d="m382.14 91.063-23.918 9.865v32.501l23.918-9.864z"/><path fill="#fff" d="m359.014 101.471 23.147-9.49c1.407 1.075 3.259 1.799 5.285 2.064l-22.952 9.453s-1.501-.249-5.48-2.027"/><path fill="#fafafa" d="M366.706 103.439c-.69.25-1.453.38-2.227.38s-1.536-.13-2.226-.38l-3.897-1.593a1.4 1.4 0 0 1-.672-.35.8.8 0 0 1-.256-.565c0-.203.089-.4.256-.565s.402-.286.672-.349l22.807-9.358.977.397-22.437 9.255a.84.84 0 0 0-.408.207.47.47 0 0 0-.157.34c0 .122.055.241.157.34a.85.85 0 0 0 .408.207l3.619 1.469c.415.15.873.229 1.337.229.465 0 .923-.079 1.337-.229l22.427-9.233 1.09.448z"/><path fill="#e0e0e0" d="M389.513 94.09v32.494l-22.808 9.35c-.69.25-1.452.38-2.226.38-.773 0-1.536-.13-2.226-.38l-3.897-1.594a1.6 1.6 0 0 1-.631-.367.95.95 0 0 1-.285-.544v-32.487a.95.95 0 0 0 .285.544c.161.16.379.287.631.367l3.897 1.601c.69.25 1.453.38 2.226.38.774 0 1.536-.13 2.226-.38z"/><path fill="#f0f0f0" d="M364.474 103.821a6.1 6.1 0 0 1-2.221-.382l-3.897-1.601a1.56 1.56 0 0 1-.631-.366.95.95 0 0 1-.285-.545v32.502a.95.95 0 0 0 .285.544c.161.16.379.287.631.367l3.897 1.594a6 6 0 0 0 2.221.382z"/><path fill="#e0e0e0" d="m394.325 90.292-23.918 9.864v38.246l23.918-9.865z"/><path fill="#fff" d="m371.178 100.7 23.147-9.49c1.408 1.073 3.26 1.796 5.285 2.064l-22.951 9.453s-1.481-.25-5.481-2.027"/><path fill="#fafafa" d="M378.89 102.668a6.7 6.7 0 0 1-2.226.375 6.7 6.7 0 0 1-2.226-.375l-3.897-1.601a1.4 1.4 0 0 1-.661-.351.8.8 0 0 1-.252-.56c0-.2.088-.397.252-.56.163-.163.394-.286.661-.35l22.818-9.321.966.396-22.437 9.255a.85.85 0 0 0-.408.207.47.47 0 0 0-.157.34c0 .122.055.241.157.34a.85.85 0 0 0 .408.207l3.619 1.469a4 4 0 0 0 1.337.226 4 4 0 0 0 1.337-.226l22.427-9.276 1.09.448z"/><path fill="#e0e0e0" d="M401.699 93.318v38.245l-22.808 9.351a6.7 6.7 0 0 1-2.226.374 6.7 6.7 0 0 1-2.227-.374l-3.897-1.602a1.55 1.55 0 0 1-.63-.366.95.95 0 0 1-.285-.544v-38.246a.95.95 0 0 0 .285.544c.16.16.378.287.63.367l3.897 1.601c.69.25 1.453.38 2.227.38s1.536-.13 2.226-.38z"/><path fill="#f0f0f0" d="M376.66 103.043a6.2 6.2 0 0 1-2.222-.375l-3.897-1.601a1.55 1.55 0 0 1-.63-.367.95.95 0 0 1-.285-.544v38.246a.95.95 0 0 0 .285.544c.16.16.378.286.63.366l3.897 1.602a6.2 6.2 0 0 0 2.222.374z"/><path fill="#ebebeb" d="m404.104 94.302-23.918 9.865v38.245l23.918-9.864z"/><path fill="#fff" d="m380.956 104.71 23.147-9.49c1.416 1.068 3.271 1.786 5.296 2.05l-22.942 9.453s-1.501-.235-5.501-2.013"/><path fill="#fafafa" d="M388.671 106.679a6.7 6.7 0 0 1-2.227.374 6.7 6.7 0 0 1-2.226-.374l-3.897-1.601a1.4 1.4 0 0 1-.661-.351.8.8 0 0 1-.252-.56c0-.201.088-.397.252-.56s.395-.286.661-.351l22.818-9.35.966.396-22.468 9.255a.85.85 0 0 0-.408.207.47.47 0 0 0-.156.34c0 .123.054.242.156.34a.84.84 0 0 0 .408.207l3.62 1.469c.415.149.872.226 1.336.226s.922-.077 1.337-.226l22.499-9.24 1.09.449z"/><path fill="#e0e0e0" d="M411.455 97.329v38.245l-22.807 9.35a6.7 6.7 0 0 1-2.226.375 6.7 6.7 0 0 1-2.227-.375l-3.897-1.601a1.6 1.6 0 0 1-.631-.367.95.95 0 0 1-.284-.544v-38.245a.95.95 0 0 0 .284.544c.161.16.379.287.631.367l3.897 1.601c.69.25 1.453.38 2.227.38s1.536-.13 2.226-.38z"/><path fill="#f0f0f0" d="M386.448 107.053a6.2 6.2 0 0 1-2.231-.374l-3.898-1.601a1.6 1.6 0 0 1-.63-.367.95.95 0 0 1-.285-.544v38.245a.95.95 0 0 0 .285.544c.161.16.378.287.63.367l3.898 1.601a6.2 6.2 0 0 0 2.231.375z"/><path fill="#ebebeb" d="m433.062 108.632-26.654 10.996 8.278 37.327 26.664-10.995z"/><path fill="#fff" d="m407.457 120.149 25.821-10.584c2.013 1.059 4.383 1.718 6.869 1.91l-25.605 10.533s-1.83-.199-7.085-1.859"/><path fill="#fafafa" d="M417.224 121.861a9.2 9.2 0 0 1-2.659.476 9.5 9.5 0 0 1-2.709-.3l-5.079-1.469c-1.594-.463-1.779-1.3-.412-1.858l25.44-10.423 1.265.368-25.018 10.283c-.823.337-.71.837.257 1.116l4.709 1.359a5.7 5.7 0 0 0 1.629.181 5.5 5.5 0 0 0 1.6-.284l24.998-10.283 1.43.411z"/><path fill="#e0e0e0" d="m442.668 111.431 8.288 37.327-25.44 10.43a9.3 9.3 0 0 1-2.665.472 9.5 9.5 0 0 1-2.713-.303l-5.08-1.469c-.792-.235-1.244-.558-1.316-.896l-8.278-37.327c.072.338.524.661 1.316.896l5.08 1.469a9.5 9.5 0 0 0 2.708.303 9.2 9.2 0 0 0 2.66-.472z"/><path fill="#f0f0f0" d="M414.626 122.338a9.2 9.2 0 0 1-2.766-.301l-5.08-1.469c-.792-.235-1.244-.558-1.316-.896l8.278 37.327c.072.338.524.661 1.316.896l5.08 1.469a9.3 9.3 0 0 0 2.776.302z"/><path fill="#e0e0e0" d="m450.809 114.641-23.918 9.872v37.364l23.918-9.865z"/><path fill="#fff" d="m427.664 125.049 23.147-9.483c1.415 1.071 3.269 1.793 5.296 2.064l-22.952 9.446s-1.481-.243-5.491-2.027"/><path fill="#fafafa" d="M435.376 127.024a6.7 6.7 0 0 1-2.221.375 6.7 6.7 0 0 1-2.221-.375l-3.897-1.601a1.4 1.4 0 0 1-.677-.346.8.8 0 0 1-.258-.565c0-.203.09-.401.258-.565.169-.163.406-.285.677-.346l22.808-9.35.966.39-22.437 9.262a.84.84 0 0 0-.397.208.47.47 0 0 0-.152.335c0 .12.053.238.152.335a.83.83 0 0 0 .397.209l3.63 1.469a4 4 0 0 0 1.331.226c.463 0 .919-.078 1.332-.226l22.427-9.24 1.1.455z"/><path fill="#e0e0e0" d="M458.192 117.667v37.364l-22.818 9.35c-.688.25-1.449.38-2.221.38s-1.533-.13-2.221-.38l-3.897-1.594a1.6 1.6 0 0 1-.637-.365.96.96 0 0 1-.289-.545v-37.364a.95.95 0 0 0 .289.545c.163.16.383.286.637.365l3.897 1.602c.69.246 1.45.374 2.221.374s1.532-.128 2.221-.374z"/><path fill="#f0f0f0" d="M433.153 127.384a6.1 6.1 0 0 1-2.221-.374l-3.897-1.601a1.6 1.6 0 0 1-.637-.366.95.95 0 0 1-.289-.545v37.408a.95.95 0 0 0 .289.545c.163.16.383.287.637.366l3.897 1.593a6 6 0 0 0 2.221.382z"/><path fill="#ebebeb" d="m460.59 118.658-23.908 9.865v37.364l23.908-9.865z"/><path fill="#fff" d="m437.443 129.059 23.147-9.483c1.416 1.071 3.27 1.794 5.296 2.064l-22.952 9.417s-1.48-.213-5.491-1.998"/><path fill="#fafafa" d="M445.154 131.057a6.7 6.7 0 0 1-2.221.374 6.7 6.7 0 0 1-2.221-.374l-3.897-1.602a1.4 1.4 0 0 1-.661-.35.8.8 0 0 1-.252-.56c0-.201.088-.397.252-.56s.395-.286.661-.351l22.808-9.35.966.389-22.396 9.24c-.74.301-.74.786 0 1.087l3.619 1.469c.414.149.87.226 1.332.226s.919-.077 1.332-.226l22.427-9.24 1.1.455z"/><path fill="#e0e0e0" d="M468.013 121.677v37.364l-22.808 9.35c-.69.25-1.453.38-2.226.38-.774 0-1.537-.13-2.227-.38l-3.897-1.593a1.6 1.6 0 0 1-.636-.366.94.94 0 0 1-.289-.545v-37.364a.94.94 0 0 0 .289.545c.162.16.382.287.636.366l3.897 1.601a6.7 6.7 0 0 0 2.227.374 6.7 6.7 0 0 0 2.226-.374z"/><path fill="#f0f0f0" d="M442.932 131.409a6.2 6.2 0 0 1-2.221-.374l-3.897-1.602a1.56 1.56 0 0 1-.636-.365.94.94 0 0 1-.289-.545v37.364a.94.94 0 0 0 .289.545c.162.16.382.286.636.365l3.897 1.594a6 6 0 0 0 2.221.382z"/><path fill="#ebebeb" d="m452.271 130.55 31.352-12.927 2.982 1.226v92.378l-31.352 12.935-2.982-1.227z"/><path fill="#e6e6e6" d="m486.604 211.227-31.353 12.935v-92.385l31.353-12.928z"/><path fill="#ebebeb" d="m322.057 74.397 31.363-12.934 133.185 54.926v2.46l-31.353 12.928-133.195-54.926z"/><path fill="#fafafa" d="M455.252 129.323 322.057 74.397l31.363-12.934 133.185 54.926z"/><path fill="#e6e6e6" d="M455.251 129.323v2.453l31.353-12.927v-2.46z"/><path fill="#fafafa" d="m408.329 90.983-1.44.5-26.684-11.003 1.44-.493z"/><path fill="#fff" d="m381.646 79.988 25.378 10.459 3.692-27.11-25.379-10.46z"/><path fill="#f0f0f0" d="m377.522 81.383 31.59 13.023 4.35-31.973-31.61-13.03zm6.551-29.05 26.674 11.018-3.836 28.146-26.674-11.017z"/><path fill="#e0e0e0" d="m380.205 80.48 1.44-.492 3.691-27.11-1.295-.544z"/><path fill="#fafafa" d="m381.853 49.403 1.46-.477 31.579 13.022-1.46.485z"/><path fill="#e0e0e0" d="m414.892 61.948-1.46.485-4.35 31.973 1.46-.478z"/><path fill="#f0f0f0" d="m382.761 79.466 23.394 9.652.617-4.569-4.35-13.42-4.144 4.584.853 3.856-6.91-14.234-8.843 9.57zm20.021-13.985c.488.218.889.523 1.161.885s.407.768.392 1.18c-.103.734-.967 1.035-1.923.638-.486-.218-.884-.523-1.155-.885a1.84 1.84 0 0 1-.387-1.179c.102-.749.956-1.035 1.912-.639"/><path fill="#000" d="M353.485 71.115c-4.329 1.785-4.329 4.68 0 6.464 2.428.88 5.113 1.339 7.836 1.339s5.407-.459 7.835-1.34c4.33-1.784 4.33-4.678 0-6.463-2.428-.88-5.112-1.338-7.835-1.338s-5.408.458-7.836 1.338" opacity=".05"/><path fill="#f5f5f5" d="M368.365 75.618c3.774-2.747 5.985-9.608 2.304-11.752h-18.705c-3.671 2.203-1.46 9.034 2.303 11.752l.103.08.134.089q.159.114.339.213l.093.051.288.154q.228.125.483.22c1.738.635 3.662.966 5.614.966s3.877-.33 5.615-.965a5 5 0 0 0 .493-.22q.136-.069.257-.148L367.8 76c.123-.067.226-.14.329-.206l.154-.11z"/><path fill="#fff" d="M353.588 62.786c-4.267 1.755-4.267 4.613 0 6.376 2.392.861 5.034 1.31 7.713 1.31 2.678 0 5.32-.449 7.712-1.31 4.267-1.763 4.267-4.62 0-6.376-2.391-.865-5.033-1.316-7.712-1.316-2.68 0-5.322.45-7.713 1.316"/><path fill="#ebebeb" d="M356.623 64.035c-2.602 1.065-2.602 2.805 0 3.878a14 14 0 0 0 4.699.798c1.633 0 3.242-.273 4.7-.798 2.601-1.073 2.601-2.813 0-3.878a13.9 13.9 0 0 0-4.7-.805c-1.633 0-3.243.276-4.699.805"/><path fill="#e0e0e0" d="M366.02 65.87a13.9 13.9 0 0 0-4.699-.804 13.8 13.8 0 0 0-4.699.805c-.633.24-1.171.592-1.563 1.02.392.43.93.78 1.563 1.022 1.457.525 3.067.798 4.699.798s3.242-.273 4.699-.798c.628-.244 1.162-.594 1.553-1.021-.391-.427-.925-.778-1.553-1.021"/><path fill="#ebebeb" d="M357.188 66.892c-1.327-.965-2.468-2.052-3.393-3.232-1.573-1.983-1.861-4.642-1.028-4.965s4.113 2.32 4.113 2.32a10.5 10.5 0 0 1-.35-3.385c.144-1.77.741-3.372 1.45-3.673.71-.3 2.293 1.903 2.972 3.519a36 36 0 0 1 1.09 2.938 19.4 19.4 0 0 1 1.213-3.724c.833-1.675 1.574-2.05 2.16-1.888s.956.947 1.131 3.18c.058 1.069.01 2.14-.144 3.203 0 0 1.162-.918 2.458-1.807 1.295-.889 2.056-1.11 2.437-.926s.524 1.705-1.677 4.547c-1.08 1.446-2.467 2.765-4.113 3.907 0 0-3.115 1.389-8.319-.014m93.104 55.226c3.6-1.175 6.078-4.135 6.849-6.824.185-.631.288-1.285.524-1.909.172-.553.525-1.069 1.029-1.506a9.3 9.3 0 0 1 1.902-.889 21 21 0 0 0 3.959-2.145 7 7 0 0 0 1.213-1.043l-21.409-8.843a33 33 0 0 0-4.771 1.902c-1.707.86-3.27 1.851-4.977 2.711-3.499 1.772-7.3 3.219-11.311 4.304-1.748.463-8.977 1.55-6.458 3.452 1.544 1.119 3.529 1.874 5.691 2.164s4.395.101 6.402-.541c1.635-.551 3.085-1.373 4.72-1.932a8.6 8.6 0 0 1 2.478-.528 5.1 5.1 0 0 1 2.437.418c.32.26.512.588.545.933q.35 2.112.36 4.238c.005 1.421.392 2.827 1.141 4.143q.39.43.885.8c.266.258.581.488.935.683a7.8 7.8 0 0 0 2.509.779c1.792.283 3.664.155 5.347-.367"/><path fill="#f0f0f0" d="M445.224 70.828a3.3 3.3 0 0 1-1.002-.487 2.3 2.3 0 0 1-.663-.725c-1.862-3.592-7.846-6.31-10.664-8.66-2.056-1.682-2.149-3.327.905-4.253 5.789-1.755 18.797 7.735 17.851 14.793-2.187.27-4.437.035-6.427-.668"/><path fill="#e6e6e6" d="M446.417 71.166c.995.246 2.033.392 3.085.433-.082-3.562-5.357-9.886-9.923-11.45-2.663-.904-4.627-.17-3.198 1.211 1.296 1.256 2.057 1.205 4.833 3.43 2.199 1.913 3.956 4.066 5.203 6.376"/><path fill="#f5f5f5" d="M438.777 105.834c-.967 1.469-8.422 5.002-10.396 5.707-1.423.52-2.973.839-4.566.94-3.558 0-5.583-1.381-7.198-4.407-1.028-1.998-1.913-6.985 2.232-8.116 4.658-1.263 8.031 2.049 8.031 2.049s4.915-1.41 8.277-1.021c3.363.39 4.566 3.372 3.62 4.848"/><path fill="#ebebeb" d="M424.391 104.181c-.418-.711-1.033-1.355-1.806-1.894s-1.691-.961-2.698-1.242a4.37 4.37 0 0 0-2.376.215c-.724.287-1.265.763-1.511 1.328-.481 1.837-.271 3.733.607 5.494 1.512 2.813 3.373 4.179 6.489 4.407 4.072-.368 3.187-5.568 1.295-8.308"/><path fill="#e0e0e0" d="M423.63 109.33c0 1.469-1.224 2.101-2.736 1.469-.831-.426-1.512-.986-1.987-1.634s-.731-1.366-.748-2.097c0-1.469 1.224-2.101 2.735-1.469.832.426 1.513.986 1.988 1.633.475.648.731 1.367.748 2.098m-2.993-5.369c0 .543-.463.793-1.029.558a2.1 2.1 0 0 1-.749-.618 1.4 1.4 0 0 1-.279-.792c0-.544.463-.793 1.028-.558.314.161.571.372.75.617.178.245.274.517.279.793m3.25 1.586c0 .551-.463.801-1.029.566a2.1 2.1 0 0 1-.748-.622 1.4 1.4 0 0 1-.28-.796c0-.543.463-.793 1.028-.558.313.162.569.374.748.619a1.4 1.4 0 0 1 .281.791m-5.664-.573c0 .544-.463.794-1.029.559a2.1 2.1 0 0 1-.751-.621 1.4 1.4 0 0 1-.277-.797c0-.543.463-.793 1.028-.558.313.163.569.376.748.622.178.246.274.519.281.795"/><path fill="#f0f0f0" d="M429.153 105.121c.166-1.19-.144-2.39-.895-3.459-.843.198-1.388.352-1.388.352.965.953 1.734 1.999 2.283 3.107m13.47-17.774c-3.763-.735-12.833 5.141-13.686 6.221-.854 1.08.195 4.569 4.175 4.554 2.375 0 10.488-5.876 11.691-7.345 1.203-1.47-2.18-3.43-2.18-3.43"/><path fill="#f5f5f5" d="M465.255 101.89c-1.152 5.648-6.571 7.734-11.537 8.388-2.168.282-4.38.344-6.571.183-4.7-.33-13.163-1.601-15.25-7.778a11 11 0 0 1-.298-1.168c-1.347-7.19 7.691-9.482 7.691-9.482.772-5.083 6.633-8.08 10.561-7.764 8.802.668 17.132 9.137 15.404 17.621"/><path fill="#f0f0f0" d="M449.852 84.27c-3.712-.28-9.142 2.364-10.386 6.94a16.7 16.7 0 0 0 4.956-1.057c.214.333.556.616.985.818a3.55 3.55 0 0 0 1.442.32c.453.066.921.06 1.369-.02.449-.08.867-.232 1.222-.443 0 0 2.715 2.498 4.576 3.18a8.06 8.06 0 0 0 3.877.265l1.542 5.142c.535 1.746.115 3.573-1.173 5.106s-3.348 2.657-5.757 3.142l-.504.088c-8.309 1.403-16.741.191-19.641-3.996 2.664 5.23 10.376 6.368 14.787 6.677 2.192.161 4.404.099 6.571-.184 4.967-.653 10.386-2.739 11.538-8.388 1.727-8.454-6.602-16.922-15.404-17.59"/><path fill="#f5f5f5" d="M460.392 88.228c-2.252.668-1.862 3.055-.597 6.75 1.471 4.297 6.077 13.728 6.077 13.728s1.625 1.939 6.438-.294 3.136-4.29 3.136-4.29-10.396-17.26-15.054-15.894m-21.171-8.498a6.83 6.83 0 0 1-.155-3.555 8 8 0 0 1 1.286-2.798c1.493-2.049 3.875-3.697 6.789-4.696 2.914-1 6.204-1.298 9.376-.85 3.257.42 6.24 1.572 8.512 3.29 2.273 1.719 3.715 3.912 4.115 6.259.823 5.876-4.874 9.857-13.563 10.422-3.289.216-6.593-.28-9.481-1.425-1.742-.695-3.256-1.648-4.443-2.794s-2.016-2.46-2.436-3.853"/><path fill="#f0f0f0" d="M454.212 87.81q.669 0 1.326-.045c8.69-.566 14.397-4.517 13.564-10.422-.253-1.736-1.12-3.396-2.52-4.826.288.308-.689 1.403-.689 1.403 1.368 1.717 1.782 3.738 1.162 5.663-1.295 3.195-4.812 6.573-12.843 8.226"/><path fill="#fafafa" d="M445.932 89.036s1.748-1.241 1.152-2.086c-2.777-1.748-7.692-3.489-8.905-3.225-2.17.478-2.869 5.752-.7 6.31s8.453-1 8.453-1"/><path fill="#ebebeb" d="M445.523 87.721c-.905-.352-4.617-2.034-4.936-1.469-.39.735 4.114 1.682 4.114 1.682s-4.546-.08-4.35.735c.134.536 4.833-.309 4.833-.309z"/><path fill="#f5f5f5" d="m445.923 87.236-.082.052c-.365.283-.607.635-.699 1.013a1.32 1.32 0 0 0 0 .89c.493 1.211 3.084 1.417 4.37.837.392-.185.698-.448.881-.756.183-.309.234-.649.147-.978-.094-.35-.348-.668-.722-.905a2.8 2.8 0 0 0-1.345-.402c-.452 0-.894 0-1.337-.044-.22-.017-.442 0-.652.05a1.7 1.7 0 0 0-.561.243"/><path fill="#e6e6e6" d="M448.556 79.194c-4.114-.984-7.198-.661-8.391 1.469s1.419 5.318 6.725 5.876c1.204.15 2.436.15 3.64 0a5.4 5.4 0 0 0 1.723-.496 3.8 3.8 0 0 0 1.274-.966c.322-.384.523-.814.59-1.259a2.27 2.27 0 0 0-.204-1.32c-.482-.805-1.215-1.521-2.144-2.094-.928-.573-2.027-.987-3.213-1.21"/><path fill="#e0e0e0" d="M448.476 80.611c-.329-.837-3.949-1.8-5.43-.786-1.316.89.257 2.402 1.409 2.703h.062l-.247 1.227a.22.22 0 0 0 .069.204c.06.06.149.1.25.112h.061a.5.5 0 0 0 .254-.071.27.27 0 0 0 .127-.172l.247-1.219c1.768.052 3.599-1.058 3.198-1.998"/><path fill="#000" d="M448.476 80.611c-.329-.837-3.949-1.8-5.43-.786-1.316.89.257 2.402 1.409 2.703h.062l-.247 1.227a.22.22 0 0 0 .069.204c.06.06.149.1.25.112h.061a.5.5 0 0 0 .254-.071.27.27 0 0 0 .127-.172l.247-1.219c1.768.052 3.599-1.058 3.198-1.998" opacity=".05"/><path fill="#fafafa" d="M449.503 88.074s8.041-2.887 10.931-1.249c1.542.881-.175 5.685-2.108 6.096-2.808.603-7.024-1.469-9.06-3.224a1.45 1.45 0 0 1-.126-.83c.041-.28.164-.55.363-.793"/><path fill="#f0f0f0" d="M462.243 72.164a1.7 1.7 0 0 1-.238-.848c0-.291.081-.58.238-.848 2.169-3.504.534-8.432.812-11.517.195-2.204 1.707-3.46 4.802-2.6 5.872 1.63 5.923 14.91-1.645 19.5-1.835-.898-3.225-2.189-3.969-3.687"/><path fill="#e6e6e6" d="M462.767 73.031a8.4 8.4 0 0 0 1.768 1.83c3.414-2.594 5.82-9.748 4.062-13.141-1.028-1.983-3.136-2.431-3.465-.734-.298 1.55.318 1.91.103 4.87-.28 2.47-1.113 4.893-2.468 7.175m-17.459 20.816c-6.304-1.22-12.021 1.652-12.484 5.876-.463 4.223 7.908 7.741 15.27 5.766 7.363-1.976 4.689-10.203-2.786-11.642"/><path fill="#f5f5f5" d="M456.095 111.365c-.453 1.968-2.735 7.389-5.954 9.357-.631.378-1.39.631-2.201.735a10.2 10.2 0 0 1-3.869-.312c-1.228-.349-2.303-.926-3.113-1.671-.774-.697-1.391-1.475-1.83-2.307-.597-1.035-2.509-6.904.432-8.432.983-.58 2.213-.904 3.488-.917s2.519.284 3.525.844a26.6 26.6 0 0 1 3.28-1.932c2.17-.94 4.288-.132 5.501 1.102.868 1.067 1.133 2.331.741 3.533"/><path fill="#ebebeb" d="M440.824 109.44c-.701.005-1.375.194-1.893.532-.518.337-.844.799-.915 1.297-.144 1.991.233 3.984 1.111 5.876.439.832 1.056 1.61 1.83 2.307.846.707 1.899 1.274 3.085 1.66 1.172.293 3.651.213 4.494-1.286.915-1.638.051-6.089-2.55-8.564-.597-.574-1.376-1.039-2.274-1.356a8.5 8.5 0 0 0-2.888-.466"/><path fill="#e0e0e0" d="M445.172 119.641c1.301-.395 1.562-2.047.584-3.69s-2.826-2.653-4.128-2.257c-1.301.395-1.562 2.047-.584 3.689.978 1.643 2.826 2.654 4.128 2.258m-2.054-7.542c0 .588-.504.859-1.121.602a2.3 2.3 0 0 1-.807-.666 1.5 1.5 0 0 1-.303-.854c0-.588.504-.859 1.11-.602.34.173.619.401.814.665s.3.557.307.855m3.505 1.712c0 .587-.504.859-1.121.602a2.3 2.3 0 0 1-.81-.665 1.5 1.5 0 0 1-.3-.856c0-.587.493-.859 1.11-.602.341.173.621.4.816.664.194.265.299.558.305.857m-6.108-.617c0 .58-.494.852-1.111.602a2.3 2.3 0 0 1-.813-.669 1.5 1.5 0 0 1-.308-.859c0-.587.504-.852 1.121-.602.339.175.616.405.809.67s.296.559.302.858"/><path fill="#f0f0f0" d="m447.179 108.287-.607.397c1.019.712 1.809 1.574 2.314 2.526a3.07 3.07 0 0 0-.435-1.586c-.293-.502-.726-.957-1.272-1.337"/><path fill="#ebebeb" d="M449.277 88.522a1.6 1.6 0 0 0-.103.389c.339.294 4.668 1.836 4.843 1.3s-3.938-1.469-3.938-1.469 4.946-.264 4.75-.903c-.123-.441-4.966.389-5.552.683"/><path fill="#e0e0e0" d="M443.785 76.33c0 .207-.087.41-.248.583a1.5 1.5 0 0 1-.66.386c-.269.08-.564.1-.85.06a1.7 1.7 0 0 1-.753-.287 1 1 0 0 1-.402-.538.77.77 0 0 1 .084-.607c.111-.192.299-.356.541-.471.242-.116.526-.177.817-.177.39 0 .764.11 1.04.307s.431.465.431.743m12.659 1.726a.85.85 0 0 1-.243.586 1.46 1.46 0 0 1-.658.39 2 2 0 0 1-.85.063 1.7 1.7 0 0 1-.756-.286 1 1 0 0 1-.405-.538.77.77 0 0 1 .082-.608 1.2 1.2 0 0 1 .541-.472 1.9 1.9 0 0 1 .818-.178c.389 0 .761.11 1.037.305.275.196.431.46.434.738"/><path fill="#000" d="M443.785 76.33c0 .207-.087.41-.248.583a1.5 1.5 0 0 1-.66.386c-.269.08-.564.1-.85.06a1.7 1.7 0 0 1-.753-.287 1 1 0 0 1-.402-.538.77.77 0 0 1 .084-.607c.111-.192.299-.356.541-.471.242-.116.526-.177.817-.177.39 0 .764.11 1.04.307s.431.465.431.743m12.659 1.726a.85.85 0 0 1-.243.586 1.46 1.46 0 0 1-.658.39 2 2 0 0 1-.85.063 1.7 1.7 0 0 1-.756-.286 1 1 0 0 1-.405-.538.77.77 0 0 1 .082-.608 1.2 1.2 0 0 1 .541-.472 1.9 1.9 0 0 1 .818-.178c.389 0 .761.11 1.037.305.275.196.431.46.434.738" opacity=".05"/><path fill="#37474f" d="M190.936 172.322a12.8 12.8 0 0 0-4.791 0c-.659.154-1.029.352-1.029.543l-2.447 30.908c0 .132.236.272.699.375a9 9 0 0 0 3.383 0c.453-.103.689-.243.7-.375l4.473-30.922c0-.184-.329-.375-.988-.529m122.882.543c0-.191-.329-.389-1.028-.543a12.8 12.8 0 0 0-4.782 0c-.668.154-1.028.345-1.028.543l4.483 30.923c0 .132.237.272.7.374a9 9 0 0 0 3.383 0c.452-.102.689-.242.699-.374zm-61.749 5.024a14.1 14.1 0 0 0-5.255 0c-.72.169-1.09.382-1.09.603l1.09 39.508c0 .147.257.294.761.412a9.9 9.9 0 0 0 3.712 0c.504-.118.761-.265.772-.412l1.09-39.508c.01-.221-.35-.426-1.08-.603"/><path fill="#455a64" d="M193.176 137.832c31.117-12.832 81.575-12.832 112.692 0 15.568 6.448 23.332 14.829 23.332 23.239v1.631c0 8.41-7.754 16.82-23.322 23.239-31.116 12.832-81.575 12.839-112.691 0-15.579-6.405-23.374-14.829-23.374-23.239v-1.631c0-8.41 7.795-16.791 23.363-23.239"/><path fill="#500061" d="M193.104 133.564c31.117-12.832 81.575-12.832 112.692 0 15.568 6.419 23.332 14.83 23.332 23.24v2.805c0 8.41-7.764 16.82-23.332 23.24-31.096 12.846-81.575 12.846-112.692 0-15.558-6.42-23.291-15.998-23.291-24.408v-1.637c0-8.41 7.733-16.821 23.291-23.24"/><g opacity=".4"><path fill="#fff" d="M193.107 133.564c31.117-12.832 81.575-12.832 112.692 0 15.568 6.419 23.332 14.829 23.332 23.239v2.806c0 8.41-7.764 16.82-23.332 23.24-31.096 12.846-81.575 12.846-112.692 0-15.558-6.42-23.291-15.998-23.291-24.408v-1.638c0-8.41 7.733-16.82 23.291-23.239"/></g><g opacity=".1"><path fill="#000" d="M193.107 133.564c31.117-12.832 81.575-12.832 112.692 0 15.568 6.419 23.332 14.829 23.332 23.239v2.806c0 8.41-7.764 16.82-23.332 23.24-31.096 12.846-81.575 12.846-112.692 0-15.558-6.42-23.291-15.998-23.291-24.408v-1.638c0-8.41 7.733-16.82 23.291-23.239"/></g><path fill="#500061" d="M305.797 180.043c31.127-12.832 31.127-33.64 0-46.479s-81.575-12.832-112.691 0c-31.117 12.832-31.127 33.647 0 46.479s81.595 12.832 112.691 0"/><g opacity=".85"><path fill="#fff" d="M249.517 189.665c44.014 0 79.694-14.712 79.694-32.861s-35.68-32.862-79.694-32.862c-44.013 0-79.693 14.713-79.693 32.862s35.68 32.861 79.693 32.861"/></g><path fill="#500061" d="m289.085 141.105-49.924 20.566a2.9 2.9 0 0 1-.972.165c-.337 0-.67-.057-.971-.165l-27.662-11.37c-.534-.221-.534-.573 0-.801l49.924-20.566a2.9 2.9 0 0 1 .972-.165c.337 0 .67.057.972.165l27.661 11.37c.115.03.214.084.284.156a.35.35 0 0 1 .108.244.35.35 0 0 1-.108.245.6.6 0 0 1-.284.156" opacity=".35"/><path fill="#37474f" d="m214.454 150.63 22.623 9.343a3.2 3.2 0 0 0 1.162.215c.406 0 .806-.074 1.162-.215l44.721-18.443c.333-.133.62-.317.841-.54.22-.222.369-.477.434-.746v-1.314a1.57 1.57 0 0 0-.39-.845 2.44 2.44 0 0 0-.885-.624l-22.541-9.27a3.8 3.8 0 0 0-1.275-.215c-.442 0-.879.074-1.275.215l-44.577 18.363a2.5 2.5 0 0 0-.89.624 1.57 1.57 0 0 0-.395.845v1.344c.068.266.219.517.442.736.222.219.51.399.843.527"/><path fill="#263238" d="m237.098 159.973-22.622-9.343a2.5 2.5 0 0 1-.842-.524 1.6 1.6 0 0 1-.444-.732v-1.344c.037-.3.172-.59.395-.845s.529-.469.891-.624l23.856-9.894v23.504a3.3 3.3 0 0 1-1.234-.198" opacity=".4"/><path fill="#455a64" d="M237.673 157.189c.349.127.735.193 1.126.193s.777-.066 1.126-.193l44.279-18.252c.227-.037.43-.128.575-.258a.62.62 0 0 0 .224-.458.62.62 0 0 0-.224-.458 1.14 1.14 0 0 0-.575-.258l-22.623-9.314a3.8 3.8 0 0 0-1.275-.215c-.443 0-.879.074-1.275.215l-44.577 18.363a.8.8 0 0 0-.374.204.46.46 0 0 0-.142.321c0 .115.049.227.142.321a.8.8 0 0 0 .374.204z"/><path fill="#37474f" d="M239.781 155.353c.373.138.788.21 1.208.21.421 0 .835-.072 1.208-.21l38.047-15.711a.76.76 0 0 0 .361-.193.43.43 0 0 0 .137-.306.44.44 0 0 0-.137-.307.77.77 0 0 0-.361-.193l-20.771-8.586a3.6 3.6 0 0 0-1.214-.209c-.421 0-.837.072-1.213.209l-38.047 15.711a.8.8 0 0 0-.36.193.44.44 0 0 0-.137.306c0 .11.048.217.137.307a.8.8 0 0 0 .36.193z"/><path fill="#37474f" d="M258.332 129.851c.398 0 .791.071 1.141.206l20.824 8.586a.8.8 0 0 1 .36.193c.089.09.137.197.137.307s-.048.217-.137.306a.76.76 0 0 1-.36.193l-4.114 1.704-17.841-8.138z"/><path fill="#263238" d="M257.038 130.703a3.6 3.6 0 0 1 1.213-.203c.421 0 .836.069 1.213.203l20.823 8.587q.179.074.319.183a1.5 1.5 0 0 1-.308.169l-38.047 15.711c-.374.138-.788.21-1.209.21a3.5 3.5 0 0 1-1.208-.21l-20.833-8.586a1.3 1.3 0 0 1-.309-.176q.126-.109.299-.177zm15.648 3.923-3.692-1.521c-.216-.088-.237-.235 0-.323.12-.042.252-.063.386-.063.133 0 .265.021.385.063l3.692 1.52c.216.089.226.235 0 .324a1.2 1.2 0 0 1-.771 0m-6.334-2.608c-.216-.088-.216-.228 0-.308.114-.044.241-.067.371-.067.129 0 .256.023.37.067.205.08.205.22 0 .308-.116.04-.242.06-.37.06a1.1 1.1 0 0 1-.371-.06m-1.501-.617c-.206-.088-.206-.228 0-.309.115-.043.244-.065.375-.065s.259.022.375.065c.206.081.206.221 0 .309-.117.04-.245.06-.375.06s-.258-.02-.375-.06m11.97 4.936c-.205-.088-.205-.228 0-.308.116-.044.245-.066.376-.066.13 0 .259.022.375.066.206.08.206.22 0 .308a1.17 1.17 0 0 1-.751 0m-1.492-.617c-.206-.088-.206-.228 0-.308.114-.044.241-.067.37-.067s.257.023.37.067c.206.08.206.22 0 .308-.115.04-.242.06-.37.06s-.254-.02-.37-.06"/><path fill="#455a64" d="M269.335 146.01a.9.9 0 0 0-.32.238.6.6 0 0 0-.142.313.15.15 0 0 0 .025.108.23.23 0 0 0 .098.083l.329.14a.45.45 0 0 0 .329 0l6.047-2.49a.9.9 0 0 0 .32-.237.6.6 0 0 0 .142-.314.16.16 0 0 0-.022-.106.24.24 0 0 0-.091-.085l-.339-.139a.43.43 0 0 0-.329 0z"/><path fill="#37474f" d="m269.654 146.143 6.047-2.49c.257-.103.462 0 .462.169a.6.6 0 0 1-.142.313.9.9 0 0 1-.32.237l-6.047 2.49c-.247.111-.463 0-.463-.169a.6.6 0 0 1 .143-.313.9.9 0 0 1 .32-.237"/><path fill="#455a64" d="M277.415 142.676a.9.9 0 0 0-.32.237.6.6 0 0 0-.142.314.15.15 0 0 0 .027.109.25.25 0 0 0 .106.082l.319.139a.5.5 0 0 0 .339 0l2.849-1.175a.9.9 0 0 0 .32-.237.6.6 0 0 0 .143-.314.17.17 0 0 0-.024-.105.23.23 0 0 0-.09-.086l-.339-.139a.47.47 0 0 0-.329 0z"/><path fill="#37474f" d="m277.779 142.808 2.849-1.175c.257-.103.462 0 .462.169a.6.6 0 0 1-.142.313.9.9 0 0 1-.32.237l-2.849 1.19c-.257.103-.463 0-.463-.169a.6.6 0 0 1 .139-.321.9.9 0 0 1 .324-.244"/><path fill="#500061" d="m319.419 316.951 12.258 5.075c.69.25 1.452.38 2.226.38s1.536-.13 2.226-.38l12.258-5.053c.646-.303 1.184-.71 1.569-1.189.386-.478.609-1.014.652-1.566V304.09c-.041-.552-.264-1.089-.65-1.567-.385-.479-.924-.886-1.571-1.188l-12.258-5.06a6.6 6.6 0 0 0-2.226-.38c-.774 0-1.536.13-2.226.38l-12.258 5.06c-.649.301-1.189.707-1.575 1.186s-.607 1.017-.646 1.569v10.106c.04.552.262 1.089.648 1.568.386.478.925.885 1.573 1.187"/><path fill="#000" d="m319.419 316.951 12.258 5.075c.69.25 1.452.38 2.226.38s1.536-.13 2.226-.38l12.258-5.053c.646-.303 1.184-.71 1.569-1.189.386-.478.609-1.014.652-1.566V304.09c-.041-.552-.264-1.089-.65-1.567-.385-.479-.924-.886-1.571-1.188l-12.258-5.06a6.6 6.6 0 0 0-2.226-.38c-.774 0-1.536.13-2.226.38l-12.258 5.06c-.649.301-1.189.707-1.575 1.186s-.607 1.017-.646 1.569v10.106c.04.552.262 1.089.648 1.568.386.478.925.885 1.573 1.187" opacity=".4"/><path fill="#500061" d="m348.386 303.171-12.257 5.054c-.649.301-1.19.707-1.578 1.186s-.612 1.016-.654 1.568v10.107c0 1.013 1.029 1.425 2.232.918l12.257-5.053c.646-.303 1.184-.71 1.57-1.189.386-.478.609-1.014.651-1.566V304.09c0-1.021-.997-1.425-2.221-.919"/><path fill="#fff" d="M335.44 311.008c.042-.358.195-.705.448-1.016a3 3 0 0 1 1.013-.783l12.164-5.024v10.041a2 2 0 0 1-.446 1.014c-.25.311-.593.579-1.004.785l-12.175 5.017z" opacity=".5"/><path fill="#500061" d="m319.419 303.171 12.258 5.054c.69.25 1.452.38 2.226.38.773 0 1.536-.13 2.226-.38l12.257-5.054c.269-.065.502-.188.668-.353a.8.8 0 0 0 .254-.565c0-.202-.089-.4-.254-.564a1.4 1.4 0 0 0-.668-.354l-12.257-5.06a6.6 6.6 0 0 0-2.226-.38c-.774 0-1.536.13-2.226.38l-12.258 5.06a1.4 1.4 0 0 0-.667.354.8.8 0 0 0-.254.564.8.8 0 0 0 .254.565c.165.165.399.288.667.353"/><path fill="#fff" d="m319.419 303.171 12.258 5.054c.69.25 1.452.38 2.226.38.773 0 1.536-.13 2.226-.38l12.257-5.054c.269-.065.502-.188.668-.353a.8.8 0 0 0 .254-.565c0-.202-.089-.4-.254-.564a1.4 1.4 0 0 0-.668-.354l-12.257-5.06a6.6 6.6 0 0 0-2.226-.38c-.774 0-1.536.13-2.226.38l-12.258 5.06a1.4 1.4 0 0 0-.667.354.8.8 0 0 0-.254.564.8.8 0 0 0 .254.565c.165.165.399.288.667.353" opacity=".5"/><path fill="#fff" d="M333.897 307.498a4.1 4.1 0 0 1-1.45-.228l-12.165-5.017 12.165-5.024a4.2 4.2 0 0 1 1.45-.227 4.3 4.3 0 0 1 1.46.227l12.165 5.024-12.175 5.017c-.45.159-.948.237-1.45.228" opacity=".5"/><path fill="#500061" d="m319.419 303.171 12.258 5.054c.646.303 1.184.71 1.569 1.188.386.479.609 1.015.652 1.566v10.107c0 1.014-1.028 1.425-2.221.918l-12.258-5.053c-.648-.302-1.187-.709-1.573-1.187s-.608-1.016-.648-1.568V304.09c0-1.021.987-1.433 2.221-.919"/><path fill="#000" d="m319.419 303.171 12.257 5.054c.647.303 1.184.71 1.57 1.188s.609 1.015.651 1.566v10.107c0 1.013-1.028 1.425-2.221.918l-12.257-5.053c-.649-.301-1.19-.708-1.578-1.187-.388-.478-.612-1.016-.653-1.568V304.09c0-1.021.997-1.425 2.231-.919" opacity=".15"/><path fill="#500061" d="M320.189 315.996a3 3 0 0 1-1.006-.784 2 2 0 0 1-.444-1.016v-10.04l12.165 5.024c.413.204.758.472 1.008.783.251.311.402.658.442 1.016v10.033z"/><path fill="#455a64" d="M332.96 304.501c-.133-.059-.205-.096-.195-.118q.207-.116.432-.213l.123-.044.124-.051a37 37 0 0 1-1.728-.654 58 58 0 0 1-2.427-1.116l-.123.073q-.188.074-.401.088a3 3 0 0 1-1.275-.272q-.37-.154-.401-.264a6.7 6.7 0 0 1 2.056-1.102q1.05-.428 2.345-.866.9-.33 1.861-.551.54.127 1.029.338c.38.171.726.378 1.028.617a2 2 0 0 1-.422.227 5.1 5.1 0 0 1-1.491.323l-.319-.161a3.7 3.7 0 0 0-.956.279c-.432.184-.637.294-.596.33q.633.432 1.347.794.494-.199.462-.221a3 3 0 0 1-.349-.139.53.53 0 0 1-.237-.191s.062-.052.165-.088q.367-.143.761-.243.349-.108.72-.169c.259.037.504.112.719.221q1.193.5 1.173.734c0 .037-.206.132-.586.294a2.6 2.6 0 0 1-.659.22 2 2 0 0 1-.647-.161l-.504.227 1.604.617q.12-.083.267-.139.168-.077.36-.11c.289.045.564.127.813.242.308.132.462.198.442.206s-.113.227-.401.404a8 8 0 0 1-1.029.529 5.9 5.9 0 0 1-1.83.492 4.4 4.4 0 0 1-1.255-.382"/><path fill="#37474f" d="M339.461 313.66a6.25 6.25 0 0 1 .709-2.975c.302-.724.94-1.354 1.81-1.785a2.6 2.6 0 0 1 1.337-.176s0-.073.062-.198a.42.42 0 0 1 .133-.257q.319-.2.679-.36.385-.163.586-.074.066.303.062.61.005.72-.196 1.425c0 .081-.236.198-.617.36-.38.161-.565.198-.668.176s-.093-.081-.093-.161q.015-.123.052-.243a2.3 2.3 0 0 0-.71.154c-.51.253-.875.628-1.028 1.058a4 4 0 0 0-.36 1.689c-.066.403.053.811.339 1.161a.7.7 0 0 0 .403.156.8.8 0 0 0 .441-.09q.332-.149.565-.375.122-.239.144-.492a.54.54 0 0 0-.144-.367q-.822.338-.833.22c-.051 0-.082-.146-.082-.367a1.1 1.1 0 0 1 .113-.624c.214-.322.577-.582 1.028-.735q.446-.192.946-.293c.299-.067.474-.052.515.036q.124.403.154.816c0 .426.072.881.072 1.38 0 .5 0 1.132-.082 1.572a1.4 1.4 0 0 1-.587.412 4 4 0 0 1-.688.205c-.134 0-.196-.11-.196-.323-.299.392-.726.727-1.244.977a2 2 0 0 1-.936.169 1.65 1.65 0 0 1-.843-.294 1.84 1.84 0 0 1-.607-.874 4.2 4.2 0 0 1-.236-1.513"/><path fill="#263238" d="M322.401 313.858a1.3 1.3 0 0 1 0-.528q.285.016.545.102a19 19 0 0 1-.113-2.1c0-.691 0-1.293.113-1.91l-.216-.117a2 2 0 0 1-.329-.228 1.8 1.8 0 0 1 0-.573 1.6 1.6 0 0 1 0-.58c.144-.118.648 0 1.501.345.378.135.725.311 1.029.521q.082.28.123.566.066.326.082.654a.26.26 0 0 1 0 .169.8.8 0 0 1-.421-.066l-.154-.074c.071.5.102.962.113 1.403.092-.051.39 0 .863.22.345.11.64.285.854.507 0-.507.051-.933.103-1.293a1 1 0 0 1-.206-.117 1.6 1.6 0 0 1-.329-.22 1.5 1.5 0 0 1 0-.573 1.4 1.4 0 0 1 0-.581c.144-.124.638 0 1.481.338.378.135.725.311 1.028.522q.099.279.134.565.062.33.072.661a.3.3 0 0 1 0 .162.8.8 0 0 1-.442-.066l-.155-.074c.072.573.113 1.183.113 1.822s0 1.285-.113 2.27a.6.6 0 0 1 .155.051 1.3 1.3 0 0 1 .442.294.4.4 0 0 1 0 .183q-.007.3-.072.595a1.5 1.5 0 0 1-.134.456 3.5 3.5 0 0 1-1.028-.331c-.606-.195-1.125-.505-1.502-.896a1.7 1.7 0 0 1 0-.617 1.1 1.1 0 0 1 0-.529.8.8 0 0 1 .329.044l.206.052a16 16 0 0 1-.103-1.469 2.6 2.6 0 0 1-.822-.257 4.2 4.2 0 0 1-.926-.463c0 .206 0 .683-.082 1.469l.154.051c.167.074.311.171.422.287a.4.4 0 0 1 0 .183 3 3 0 0 1-.082.595 2 2 0 0 1-.124.463 3.4 3.4 0 0 1-1.028-.33c-.615-.192-1.142-.502-1.522-.896a2.1 2.1 0 0 1 .041-.662"/><path fill="#500061" d="m290.261 322.988 12.257 5.053c.69.25 1.453.38 2.226.38.774 0 1.536-.13 2.226-.38l12.258-5.053c.646-.303 1.184-.71 1.57-1.188.385-.479.609-1.015.651-1.567v-10.106c-.042-.552-.266-1.088-.651-1.566-.386-.479-.924-.886-1.57-1.189l-12.258-5.053a6.6 6.6 0 0 0-2.226-.38c-.773 0-1.536.13-2.226.38l-12.257 5.053c-.645.304-1.18.711-1.564 1.19-.384.478-.606 1.014-.647 1.565v10.106c.041.551.263 1.087.647 1.565.384.479.919.886 1.564 1.19"/><path fill="#000" d="m290.261 322.988 12.257 5.053c.69.25 1.453.38 2.226.38.774 0 1.536-.13 2.226-.38l12.258-5.053c.646-.303 1.184-.71 1.57-1.188.385-.479.609-1.015.651-1.567v-10.106c-.042-.552-.266-1.088-.651-1.566-.386-.479-.924-.886-1.57-1.189l-12.258-5.053a6.6 6.6 0 0 0-2.226-.38c-.773 0-1.536.13-2.226.38l-12.257 5.053c-.645.304-1.18.711-1.564 1.19-.384.478-.606 1.014-.647 1.565v10.106c.041.551.263 1.087.647 1.565.384.479.919.886 1.564 1.19" opacity=".4"/><path fill="#500061" d="m319.227 309.209-12.257 5.053c-.65.301-1.19.708-1.578 1.186-.388.479-.612 1.016-.654 1.568v10.107c0 1.021 1.029 1.425 2.232.918l12.257-5.053c.646-.303 1.184-.71 1.57-1.188.386-.479.609-1.015.651-1.567v-10.106c0-1.014-.997-1.425-2.221-.918"/><path fill="#000" d="m319.227 309.209-12.257 5.053c-.65.301-1.19.708-1.578 1.186-.388.479-.612 1.016-.654 1.568v10.107c0 1.021 1.029 1.425 2.232.918l12.257-5.053c.646-.303 1.184-.71 1.57-1.188.386-.479.609-1.015.651-1.567v-10.106c0-1.014-.997-1.425-2.221-.918" opacity=".15"/><path fill="#fff" d="M306.282 317.016c.044-.358.197-.705.449-1.016a3 3 0 0 1 1.011-.783l12.186-5.017v10.033a2 2 0 0 1-.444 1.016 3 3 0 0 1-1.006.784l-12.175 5.024z" opacity=".5"/><path fill="#500061" d="m290.259 309.209 12.257 5.053c.69.25 1.453.38 2.227.38s1.536-.13 2.226-.38l12.257-5.053c.269-.066.502-.189.667-.354a.8.8 0 0 0 .254-.565c0-.202-.088-.4-.254-.564a1.4 1.4 0 0 0-.667-.354l-12.257-5.053a6.6 6.6 0 0 0-2.226-.38c-.774 0-1.537.13-2.227.38l-12.257 5.053a1.4 1.4 0 0 0-.667.354.8.8 0 0 0-.254.564c0 .203.089.401.254.565.165.165.398.288.667.354"/><path fill="#fff" d="M304.739 313.542a4.1 4.1 0 0 1-1.45-.235l-12.154-5.017 12.165-5.016a4.5 4.5 0 0 1 1.455-.235c.503 0 1 .08 1.455.235l12.164 5.016-12.164 5.017a4.1 4.1 0 0 1-1.471.235" opacity=".6"/><path fill="#500061" d="m290.26 309.209 12.258 5.053c.648.301 1.187.708 1.573 1.187s.608 1.016.648 1.567v10.107c0 1.021-1.029 1.425-2.221.918l-12.258-5.053c-.646-.303-1.184-.71-1.57-1.188-.385-.479-.608-1.015-.651-1.567v-10.106c.01-1.014 1.039-1.425 2.221-.918"/><path fill="#000" d="m290.26 309.209 12.258 5.053c.648.301 1.187.708 1.573 1.187s.608 1.016.648 1.567v10.107c0 1.021-1.029 1.425-2.221.918l-12.258-5.053c-.646-.303-1.184-.71-1.57-1.188-.385-.479-.608-1.015-.651-1.567v-10.106c.01-1.014 1.039-1.425 2.221-.918" opacity=".3"/><path fill="#500061" d="M291.033 322.026a3 3 0 0 1-1.007-.784 2 2 0 0 1-.443-1.016V310.2l12.165 5.017a3 3 0 0 1 1.006.784c.251.311.402.658.444 1.015v10.041z"/><path fill="#455a64" d="M303.135 311.273c-.504-.206-.71-.346-.617-.397s0-.081.247-.169a.9.9 0 0 1 .411-.103 26 26 0 0 1-2.18-1.755 10.2 10.2 0 0 1-1.686-1.579 24 24 0 0 1 2.642-1.088q1.935.273 3.815.698 3.702.73 4.257.896 0-.067.247-.169c.165-.066.36-.124.422-.102s.452.044.956.257c.329.132.473.22.422.264a6.3 6.3 0 0 1-1.543.735c-.432.183-.863.345-1.285.499-.21.095-.439.167-.679.213a2.44 2.44 0 0 1-1.09-.25 1.2 1.2 0 0 1-.267-.139s-.052-.044 0-.081a.2.2 0 0 1 .056-.063.3.3 0 0 1 .088-.04c.206-.088.319-.125.349-.11.031.015 0-.037-.082-.073a14 14 0 0 0-.956-.302 7 7 0 0 1-.874.404q-.499.209-1.028.375.35.217.74.397c.082 0 .144.044.164 0s.062-.059.268-.147a1 1 0 0 1 .257-.059.5.5 0 0 1 .195 0l.329.11c.473.198.679.345.628.448s-.155.11-.525.287c-.37.176-.781.352-1.213.528a9 9 0 0 1-1.79.632c-.133.074-.339.015-.678-.117m.72-2.659q.281-.153.586-.279c.267-.103.524-.199.771-.272a52 52 0 0 0-2.89-.632q.704.633 1.533 1.183"/><path fill="#37474f" d="M310.508 322.503q0-.284.062-.565a.7.7 0 0 1 .39-.316l.144-.044c0-.61-.061-1.205-.061-1.771 0-1.02 0-1.887.102-2.6a4 4 0 0 1-.514.169 1.6 1.6 0 0 1 0-.587 3.3 3.3 0 0 1 0-.632.9.9 0 0 1 .309-.294q.305-.204.668-.352.377-.168.782-.302.022.206 0 .412.304-.322.678-.602a3.6 3.6 0 0 1 .751-.441 1 1 0 0 1 .306-.105 1.14 1.14 0 0 1 .657.08.8.8 0 0 1 .24.172c.352.366.522.805.483 1.248-.011.659-.244 1.307-.678 1.888.627.132.935.566.935 1.3a2.87 2.87 0 0 1-.483 1.535c-.245.453-.689.837-1.265 1.095a1.3 1.3 0 0 1-.528.152 1.4 1.4 0 0 1-.562-.072.54.54 0 0 1-.072.316q-.602.325-1.254.595a8 8 0 0 1-1.028.331 3 3 0 0 1-.062-.61m2.211-2.622a.6.6 0 0 0 .054.317.8.8 0 0 0 .223.278.5.5 0 0 0 .281.114.6.6 0 0 0 .316-.048.7.7 0 0 0 .37-.331.94.94 0 0 0 .134-.492.8.8 0 0 0-.247-.609.34.34 0 0 0-.11-.091.56.56 0 0 0-.476-.012.9.9 0 0 0-.391.338.96.96 0 0 0-.144.536zm0-2.938c-.012.099.005.2.049.294a.7.7 0 0 0 .208.257c.063.06.157.099.261.11a.53.53 0 0 0 .294-.051.83.83 0 0 0 .38-.316.85.85 0 0 0 .155-.485.71.71 0 0 0-.35-.631.56.56 0 0 0-.307-.04.5.5 0 0 0-.145.047.86.86 0 0 0-.391.33.86.86 0 0 0-.144.485z"/><path fill="#263238" d="M293.614 317.42c-.076-.808.17-1.615.709-2.328a1.1 1.1 0 0 1 .365-.298c.151-.079.324-.134.508-.16.183-.026.373-.023.554.01.182.032.351.092.496.176.564.221 1.017.563 1.296.977 0-.198.082-.294.195-.294.202.001.399.045.566.125.281.114.515.279.679.478q.105.618.113 1.241c.041.436-.072.873-.329 1.271a2.1 2.1 0 0 1-.864-.147 2.5 2.5 0 0 1-.751-.514v-.096a.24.24 0 0 1 0-.154 1.18 1.18 0 0 0-.298-.735 1.45 1.45 0 0 0-.555-.455c-.247-.11-.463 0-.648.374a2.9 2.9 0 0 0-.267 1.308c-.011.431.076.86.257 1.271.097.274.326.516.648.683.298.125.575.058.843-.206a1.3 1.3 0 0 1 0-.213v-.073a1.5 1.5 0 0 1 .74.132c.349.152.656.348.905.58a3.5 3.5 0 0 1 .319 1.535 6.5 6.5 0 0 1-.113 1.153.94.94 0 0 1-.741-.051 1.23 1.23 0 0 1-.504-.375.55.55 0 0 1-.195-.47 1.78 1.78 0 0 1-1.244-.059 3.7 3.7 0 0 1-.957-.624 5.04 5.04 0 0 1-1.491-2.394 5.6 5.6 0 0 1-.236-1.668"/><path fill="#500061" d="m284.475 305.91 12.257 5.054c.69.249 1.453.38 2.227.38a6.6 6.6 0 0 0 2.226-.38l12.257-5.054c.647-.303 1.184-.71 1.57-1.188s.609-1.015.651-1.566v-10.107c-.042-.551-.265-1.088-.651-1.566s-.923-.885-1.57-1.188l-12.257-5.054a6.5 6.5 0 0 0-2.226-.385c-.775 0-1.538.132-2.227.385l-12.257 5.054c-.646.303-1.184.71-1.57 1.188s-.609 1.015-.651 1.566v10.107c.042.551.265 1.088.651 1.566s.924.885 1.57 1.188"/><path fill="#000" d="m284.475 305.91 12.257 5.054c.69.249 1.453.38 2.227.38a6.6 6.6 0 0 0 2.226-.38l12.257-5.054c.647-.303 1.184-.71 1.57-1.188s.609-1.015.651-1.566v-10.107c-.042-.551-.265-1.088-.651-1.566s-.923-.885-1.57-1.188l-12.257-5.054a6.5 6.5 0 0 0-2.226-.385c-.775 0-1.538.132-2.227.385l-12.257 5.054c-.646.303-1.184.71-1.57 1.188s-.609 1.015-.651 1.566v10.107c.042.551.265 1.088.651 1.566s.924.885 1.57 1.188" opacity=".4"/><path fill="#500061" d="m313.442 292.131-12.257 5.053c-.65.302-1.19.708-1.578 1.187-.388.478-.612 1.016-.654 1.568v10.106c0 1.014 1.028 1.425 2.232.919l12.257-5.054c.646-.303 1.184-.71 1.57-1.188.385-.478.609-1.015.651-1.566v-10.107c0-1.013-.997-1.425-2.221-.918"/><path fill="#000" d="m313.442 292.131-12.257 5.053c-.65.302-1.19.708-1.578 1.187-.388.478-.612 1.016-.654 1.568v10.106c0 1.014 1.028 1.425 2.232.919l12.257-5.054c.646-.303 1.184-.71 1.57-1.188.385-.478.609-1.015.651-1.566v-10.107c0-1.013-.997-1.425-2.221-.918" opacity=".15"/><path fill="#500061" d="M300.497 299.939c.043-.358.197-.705.449-1.016a3 3 0 0 1 1.011-.784l12.165-5.024v10.041a2 2 0 0 1-.443 1.015 3 3 0 0 1-1.007.784l-12.175 5.017zm-16.023-7.808 12.257 5.053c.69.25 1.453.38 2.227.38s1.536-.13 2.226-.38l12.257-5.053c.269-.065.502-.189.667-.353a.8.8 0 0 0 .254-.565.8.8 0 0 0-.254-.565 1.4 1.4 0 0 0-.667-.353l-12.257-5.054a6.5 6.5 0 0 0-2.226-.385c-.775 0-1.538.132-2.227.385l-12.257 5.054a1.4 1.4 0 0 0-.667.353.8.8 0 0 0-.254.565.8.8 0 0 0 .254.565c.165.164.398.288.667.353"/><path fill="#fff" d="M298.954 296.457a4.1 4.1 0 0 1-1.45-.227l-12.165-5.017 12.165-5.024c.456-.15.952-.228 1.455-.228.502 0 .998.078 1.455.228l12.164 5.024-12.195 5.017a4.2 4.2 0 0 1-1.429.227" opacity=".5"/><path fill="#500061" d="m284.475 292.131 12.257 5.053c.648.302 1.187.709 1.573 1.187s.608 1.016.648 1.568v10.106c0 1.014-1.028 1.425-2.221.919l-12.257-5.054c-.646-.303-1.184-.71-1.57-1.188s-.609-1.015-.651-1.566v-10.107c0-1.013.997-1.425 2.221-.918"/><path fill="#000" d="m284.475 292.131 12.257 5.053c.648.302 1.187.709 1.573 1.187s.608 1.016.648 1.568v10.106c0 1.014-1.028 1.425-2.221.919l-12.257-5.054c-.646-.303-1.184-.71-1.57-1.188s-.609-1.015-.651-1.566v-10.107c0-1.013.997-1.425 2.221-.918" opacity=".3"/><path fill="#500061" d="M285.248 304.955a3 3 0 0 1-1.007-.784 2 2 0 0 1-.443-1.015v-10.041l12.165 5.024a3 3 0 0 1 1.006.784c.251.311.402.658.444 1.016v10.033z"/><path fill="#000" d="M285.248 304.955a3 3 0 0 1-1.007-.784 2 2 0 0 1-.443-1.015v-10.041l12.165 5.024a3 3 0 0 1 1.006.784c.251.311.402.658.444 1.016v10.033z" opacity=".15"/><path fill="#455a64" d="M292.435 291.47c-.35-.147-.535-.264-.545-.36s.072-.213.308-.367q.417-.263.905-.455a4.8 4.8 0 0 1 1.028-.324q.224.055.432.133l.082.044a3 3 0 0 0 .36-.412c.131-.192.334-.355.586-.47a4.9 4.9 0 0 1 2.129-.213 7.5 7.5 0 0 1 2.334.492c.371.144.685.351.915.603a.54.54 0 0 1 .153.317.5.5 0 0 1-.091.329 22 22 0 0 1 2.057-.037q.65-.003 1.285.096a.4.4 0 0 1 .154-.096q.167-.06.35-.088c.24.002.474.05.679.14.236.103.36.191.36.264a4.2 4.2 0 0 1-1.306.691 7.5 7.5 0 0 1-1.409.433q-.196.03-.391 0a2.3 2.3 0 0 1-.463-.132c-.174-.074-.267-.14-.267-.206s0-.073.113-.103l.237-.058a6.2 6.2 0 0 0-1.317-.074l-.555.052a6 6 0 0 0-.483.08l-.35.081-.247.074h-.102q.316.086.606.213.261.1.504.22a.35.35 0 0 1 .144-.081 2.1 2.1 0 0 1 .782-.169q.29.069.545.191.252.082.452.22.154.113-1.635.852c-1.193.493-1.779.676-1.964.632a4 4 0 0 1-.535-.183 3 3 0 0 1-.462-.228c0-.037 0-.088.082-.147q.121-.093.277-.154l.165-.066-.679-.272-1.028-.411a26 26 0 0 1-2.386-1.073.7.7 0 0 1-.257.147 1.3 1.3 0 0 1-.514.118 2.45 2.45 0 0 1-1.038-.243m4.75-.441c.195.091.417.146.648.162.18.018.364-.005.525-.066a.8.8 0 0 0 .294-.188.47.47 0 0 0 .127-.267.43.43 0 0 0-.123-.286.74.74 0 0 0-.319-.192 2 2 0 0 0-.71-.139 1.7 1.7 0 0 0-.699.11.48.48 0 0 0-.248.168.27.27 0 0 0-.04.243q.057.152.2.272a1 1 0 0 0 .345.183"/><path fill="#37474f" d="M304.856 301.312c-.005-.731.231-1.453.688-2.108.338-.561.899-1.039 1.615-1.373.182-.088.388-.146.605-.172s.438-.017.649.025c.016-.178.079-.353.186-.514q.186-.175.452-.287c.278-.11.473-.132.586-.058q.081.346.062.697c0 .904-.134 1.469-.381 1.602a1.1 1.1 0 0 1-.308.176.7.7 0 0 1-.255.084.8.8 0 0 1-.28-.011.7.7 0 0 1-.062-.308.8.8 0 0 0-.349-.078.8.8 0 0 0-.35.078 1.75 1.75 0 0 0-.699.587 1.45 1.45 0 0 0-.298.794q0 .604.802.272l.452-.199.453-.198c.149-.078.329-.12.514-.12s.365.042.514.12c.267.147.401.507.401 1.102.004.764-.242 1.519-.72 2.203-.391.623-1.031 1.15-1.84 1.513-.16.085-.348.137-.545.151a1.5 1.5 0 0 1-.576-.07.86.86 0 0 1-.093.419 1.7 1.7 0 0 1-.545.323q-.416.167-.555.081a4 4 0 0 1-.051-.735 4.7 4.7 0 0 1 .39-1.873 1.2 1.2 0 0 1 .35-.213c.226-.095.391-.11.504 0q.058.178.061.36c.186.154.432.169.751.037.317-.131.588-.312.792-.529.175-.193.272-.417.278-.646a.3.3 0 0 0-.083-.257.3.3 0 0 0-.121-.06.34.34 0 0 0-.146.001q-.157.015-.309.051l-.349.118-.37.132-.391.095a2 2 0 0 1-.422.052 2 2 0 0 1-.37-.059.6.6 0 0 1-.319-.184 1.1 1.1 0 0 1-.205-.382 2 2 0 0 1-.113-.639"/><path fill="#263238" d="M287.263 298.117a5.5 5.5 0 0 1 .123-1.469l.771.272c.412.147.813.287 1.204.441.39.154.802.308 1.203.477s.802.331 1.203.514l1.265.573c.432.199.699.324.791.375q.15.776.124 1.557.01.351-.062.698a4 4 0 0 1-.751-.206 2 2 0 0 1-.678-.455l-.165-.676a3 3 0 0 0-.812-.448c0 .874.051 1.653.051 2.343q.018.821-.092 1.638l.205.118q.184.1.329.227.073.288.052.581.026.296-.052.587c-.123.132-.565.044-1.357-.279-.569-.178-1.049-.475-1.378-.852a2.1 2.1 0 0 1-.051-.632 1.3 1.3 0 0 1 .051-.529.9.9 0 0 1 .329.037l.206.059a12 12 0 0 1-.103-1.719c0-.69 0-1.469.062-2.299-.453-.176-.73-.249-.813-.227l-.164.55c-.123.017-.25.015-.372-.005a1.1 1.1 0 0 1-.338-.112 6 6 0 0 1-.75-.411 4 4 0 0 1-.031-.728"/><path fill="#455a64" d="M428.051 267.292c1.254-.992-2.736-5.017-8.977-5.935-4.916-.735-7.27-.221-10.818-.096s-8.689-.734-11.64-1.065c-7.25-.881-9.451 2.336-9.091 2.938.844 1.33 2.962 1.881 6.983 3.217s23.949 2.351 33.543.941"/><path fill="#c8856a" d="M428.052 267.291s-.658-2.835-8.782-1.983c-5.316.559-14.9.404-17.8-.044-3.804-.587-8.72-3.415-12.864-2.526-1.902 1.557-1.47 3.239-1.244 5.663-9.069 2.203-28.299 5.876-28.299 5.876l-23.774 12.817c9.018 2.269 25.193 1.748 38.366-2.13 7.805-2.299 14.54-5.546 21.471-8.433 3.753-1.557 6.643-2.629 8.226-2.938 3.949-.683 9.604-1.836 14.787-3.048 4.031-.771 7.99-2.034 9.913-3.254"/><path fill="#c8856a" d="M306.322 263.736c1.543-4.575 8.515-10.121 15.106-13.889 8.802-5.039 26.88-13.001 26.88-13.001l.185 1.117 47.425-3.79c2.458 4.605 4.864 13.904 4.062 20.316-.751 5.979-2.941 13.082-18.51 19.898-9.481 4.135-13.573 7.264-20.566 9.335-7.588 2.24-17.985 6.052-28.01 2.674-5.78-1.947-9.379-4.826-8.823-9.6-1.255.441-8.638.889-13.307-1.418-4.37-2.13-6.056-6.897-4.442-11.642"/><path fill="#af6152" d="M320.966 277.134a14 14 0 0 0 3.085-.345c2.828-7.94 15.085-13.155 32.597-21.558-6.602-1.432-12.34-7.088-12.34-7.088.545 4.282 3.188 6.434 5.46 7.595-3.928 2.093-11.239 4.546-17.666 8.953-4.298 2.938-9.861 6.655-11.136 12.443"/><path fill="#af6152" d="M313.892 254.908a53 53 0 0 0-3.085 2.629c8.401-.095 20.71 1.536 37.018 11.797 10.345 6.493 12.032 12.332 12.032 12.332l4.03-.874c-3.845-9.615-20.987-24.136-49.995-25.884"/><path fill="#af6152" d="M355.042 282.099c5.779.771 17.532-1.286 24.782-5.046 2.303-1.198 8.226-4.099 11.496-7.926.946-1.087-21.594 8.954-21.594 8.954s-7.949 3.122-14.684 4.018"/><path fill="#37474f" d="M385.459 270.413c4.689 1.719 7.198 5.597 5.841 7.727l-1.162.499s-.74 1.058 3.537-.734 6.633-2.938 8.309-3.496a100 100 0 0 1 12.165-2.733c6.303-1.131 13.368-2.739 14.118-4.737-2.807-2.395-4.678-2.204-9.254-1.991s-9.738 1.051-13.944.213c-4.206-.837-9.872-3.459-12.823-3.474-1.666 0-3.65 0-4.782 1.469-1.131 1.469-.473 4.906-.473 4.906s-4.226.977-4.791 1.08-.823.625-.823.625l1.234-.272c.994.23 1.949.538 2.848.918"/><path fill="#c8856a" d="M356.773 227.886c-2.057 5.355-3.568 8.322-9.255 12.171-5.686 3.849-12.411 7.088-24 11.554-6.17 2.372-10.623 3.341-14.52 3.033-9.378-.734-15.424-7.396-8.483-8.542 5.532-.904 8.339-1.469 9.625-2.307 0 0-6.006-2.166-5.666-3.723.318-1.433 4.699-.808 8.874-.236 2.673.36 4.946 1.198 6.334.662 8.288-3.57 18.119-9.975 18.119-9.975s4.576-16.893 8.278-22.703c4.843-7.58 18.324-6.611 18.324-6.611l-3.723 15.307z"/><path fill="#500061" d="M340.88 239.403c1.337-2.56 3.061-5.008 5.141-7.301.33-6.412.484-9.416 1.214-15.696.637-5.399 3.085-13.052 13.615-14.69 10.529-1.638 14.858-.536 21.851.668 8.051 1.396 11.774 2.307 11.774 2.307 2.229 1.213 4.098 2.731 5.5 4.465s2.307 3.648 2.665 5.634c1.491 9.189 2.622 29.468.617 37.753s-2.941 14.918-22.52 22.527c-12.998 5.054-20.936 6.347-20.936 6.347s4.113-7.727-22.973-19.7c-7.445-3.33-16.029-5.134-24.812-5.215 3.699-3.577 8.149-6.726 13.193-9.335 9.337-4.738 13.861-6.089 15.671-7.764"/><path fill="#000" d="M340.88 239.403c1.337-2.56 3.061-5.008 5.141-7.301.33-6.412.484-9.416 1.214-15.696.637-5.399 3.085-13.052 13.615-14.69 10.529-1.638 14.858-.536 21.851.668 8.051 1.396 11.774 2.307 11.774 2.307 2.229 1.213 4.098 2.731 5.5 4.465s2.307 3.648 2.665 5.634c1.491 9.189 2.622 29.468.617 37.753s-2.941 14.918-22.52 22.527c-12.998 5.054-20.936 6.347-20.936 6.347s4.113-7.727-22.973-19.7c-7.445-3.33-16.029-5.134-24.812-5.215 3.699-3.577 8.149-6.726 13.193-9.335 9.337-4.738 13.861-6.089 15.671-7.764" opacity=".2"/><path fill="#263238" d="M385.749 198.286c3.805-4.679 8.771-5.876 12.34-11.451 4.637-7.242 1.881-13.17-2.335-15.123 0 0 .525-5.142-7.897-8.594-3.799-1.606-8.029-2.621-12.415-2.977a43.3 43.3 0 0 0-13.035.906c-4.175.911-9.317 3.268-11.702 5.927-3.085 3.489-4.689 8.204.257 12.384 2.2 1.829 33.964 18.884 34.787 18.928"/><path fill="#263238" d="M349.492 156.265a.6.6 0 0 1-.125.306.9.9 0 0 1-.286.245c-1.326.734-2.725-.22-2.478-1.241-1.193 1.079-.597 2.813 1.326 2.849-.593.043-1.144.24-1.548.554-.403.314-.63.723-.638 1.149-.007.426.205.839.597 1.161.392.321.936.528 1.528.581-.458.277-.759.663-.847 1.086s.042.856.367 1.215.822.623 1.398.74a3.4 3.4 0 0 0 1.735-.103c-.124 2.204 4.73 1.792 6.601 1.895a6.06 6.06 0 0 0 2.715-.279c1.08-.492 1.501-1.638 2.746-1.88.853-.162 1.809.176 2.612-.088 1.305-.434.956-1.976 2.056-2.6.62-.219 1.272-.389 1.944-.507.517-.18.926-.487 1.152-.865.227-.377.256-.8.082-1.192-.206-.426-.669-.808-.679-1.263-.01-.456.648-1.058.483-1.594-.164-.536-.956-.735-1.676-.874-.737-.034-1.438-.241-1.995-.588-.514-.433-.432-1.079-.709-1.616-.228-.363-.622-.66-1.117-.841a3.34 3.34 0 0 0-1.608-.158c-.73.133-1.399.529-2.16.478s-1.439-.676-2.2-.984a3.46 3.46 0 0 0-1.884-.115c-.625.137-1.151.441-1.469.849-.349.5-.452 1.19-1.192 1.388-.741.199-1.276-.154-1.923-.264a3.2 3.2 0 0 0-.929.008 2.9 2.9 0 0 0-.85.267 2.1 2.1 0 0 0-.636.483c-.165.19-.274.402-.321.623-.102.367.011.808-.072 1.175m58.181 8.616a.63.63 0 0 0-.036.338.7.7 0 0 0 .149.323c.926 1.094 2.828.543 3.137-.544.596 1.403-.936 2.938-2.859 2.461.561.209.995.559 1.221.982.225.422.226.889.001 1.313-.224.423-.657.773-1.217.983a3.53 3.53 0 0 1-1.825.159c.347.404.468.886.338 1.35-.129.465-.498.877-1.035 1.155-.536.279-1.199.402-1.858.346-.658-.056-1.262-.287-1.692-.647-1.028 2.203-5.666.47-7.579.044-.981-.137-1.874-.495-2.55-1.021-.802-.793-.596-2.049-1.697-2.63-.761-.396-1.902-.33-2.55-.815-1.028-.793.134-2.203-.668-3.158-.381-.456-1.142-.669-1.656-1.051-.414-.322-.652-.739-.671-1.176s.183-.864.568-1.203c.443-.368 1.101-.617 1.358-1.065.257-.449-.062-1.227.391-1.719.269-.202.611-.347.989-.419a2.9 2.9 0 0 1 1.149.015 5 5 0 0 0 2.294 0c.76-.294 1.028-.962 1.593-1.41.427-.319.998-.52 1.612-.565a3.44 3.44 0 0 1 1.741.315c.658.338 1.11.911 1.892 1.072s1.789-.264 2.714-.36c.692-.05 1.384.093 1.931.4s.905.754 1 1.246c.082.595-.195 1.307.432 1.711s1.347.198 2.057.264c.328.044.641.134.919.267.278.132.516.303.699.503s.306.424.364.659.048.476-.029.709c-.154.396-.504.778-.627 1.168"/><path fill="#c8856a" d="M351.034 177.815c.144-.933.227-2.13 1.183-2.828a13.7 13.7 0 0 1 3.198-1.373 15.6 15.6 0 0 0 3.712-1.961c.141.744-.096 1.5-.668 2.13a10.6 10.6 0 0 1-1.995 1.704c1.419.437 2.949.659 4.493.654 2.081.048 4.16-.123 6.17-.507 2.354-.407 4.459-1.351 5.995-2.688-.082.987-.689 1.914-1.696 2.592a17.7 17.7 0 0 1-3.322 1.704c1.393.313 2.86.426 4.314.331a14.5 14.5 0 0 0 4.159-.882c4-1.469 4.72-3.54 4.72-3.54 0 .456-.092 2.204 0 2.637.106.757.366 1.5.771 2.204 1.173 1.858.803 2.614 3.085 3.841a4.4 4.4 0 0 0-.185 2.879c.06.305.222.595.473.845q.108.095.247.169c1.357.734 1.501-1.043 3.003-2.145.403-.281.89-.493 1.424-.62a5.2 5.2 0 0 1 1.661-.114c.923.025 1.815.243 2.566.626.751.384 1.329.917 1.66 1.533 1.213 2.204-2.386 6.566-6.17 6.985-3.085.345-4.267-.933-4.267-.933l.534 11.907s-4.802 10.106-23.28 11.267c-2.057-1.653-2.18-6.949 2.529-11.216l-.411-3.592a32 32 0 0 1-7.198-1.109c-2.28-.719-4.229-1.884-5.621-3.36-1.392-1.477-2.171-3.204-2.246-4.984-.236-3.026.813-4.833 1.029-7.404.216-1.513-.021-3.767.133-4.752"/><path fill="#af6152" d="M365 199.439c4.771 0 8.226 0 13.841-2.255 2.356-1.039 4.239-2.544 5.419-4.334 0 0-1.357 3.746-3.609 5.274-5.892 4.003-15.425 3.202-15.425 3.202z"/><path fill="#263238" d="m371.908 179.674 4.895 1.836c.334-.479.395-1.032.171-1.543-.225-.511-.717-.94-1.374-1.197a3.74 3.74 0 0 0-2.116-.11 3.1 3.1 0 0 0-.933.392 2.1 2.1 0 0 0-.643.622m3.323 3.892c-.051.319-.234.62-.524.864a2.5 2.5 0 0 1-1.108.511 3.15 3.15 0 0 1-1.318-.015 2.44 2.44 0 0 1-1.085-.535c-.28-.251-.449-.556-.487-.875-.037-.32.059-.64.276-.921s.546-.509.945-.657c.399-.147.85-.207 1.296-.171.599.05 1.147.267 1.522.604.376.337.55.767.483 1.195m-16.852-1.593c-.052.318-.235.619-.526.864a2.5 2.5 0 0 1-1.11.51 3.1 3.1 0 0 1-1.319-.017 2.4 2.4 0 0 1-1.084-.537c-.279-.252-.448-.557-.484-.877s.061-.64.28-.921c.219-.28.549-.508.949-.654s.852-.205 1.299-.168c.598.05 1.145.267 1.519.605s.545.767.476 1.195m-5.133-2.762 5.45-.874a1.66 1.66 0 0 0-.398-.718 2.5 2.5 0 0 0-.76-.548 3.4 3.4 0 0 0-1.001-.29 3.8 3.8 0 0 0-1.08.013c-.731.125-1.368.445-1.779.894-.411.45-.566.994-.432 1.523"/><path fill="#af6152" d="m370.489 190.155-6.694.991c.067.315.224.617.46.887s.548.503.915.683.782.307 1.219.369.888.06 1.324-.007c.899-.14 1.689-.521 2.205-1.065.517-.544.721-1.21.571-1.858"/><path fill="#f28f8f" d="M369.236 191.147c-.599-.05-1.2.072-1.673.339-.472.268-.777.658-.846 1.086-.025.181-.007.365.051.543.316.021.635.008.946-.037a4.2 4.2 0 0 0 1.598-.573c.456-.285.801-.649 1.004-1.057a2.8 2.8 0 0 0-1.08-.301"/><path fill="#af6152" d="m364.743 180.584-2.242 7.536-4.833-1.865z"/><path fill="#c8856a" d="M411.457 234.621s-2.057-12.075-3.085-17.738-3.908-10.474-13.893-12.207c0 0-6.385 4.803-6.365 11.179.021 6.375 4.432 24.393 4.432 24.393s-8.699 9.974-15.897 14.594c-1.214.735-3.939 1.396-6.962 1.844-4.113.617-9.028 1.344-8.956 2.805s5.696 1.264 7.311 1.286c2.591 0-1.728 1.616-10.16 3.43-6.828 1.469 2.55 7.176 11.959 6.61 3.908-.22 8.052-1.777 13.461-4.935 9.505-5.47 17.71-12 24.299-19.34 4.144-4.745 4.123-7.242 3.856-11.921m-249.642 47.384c-2.128 2.644-6.642 1.741-8.884 4.561-1.576 1.944-2.012 4.254-1.214 6.427.329 1.072 1.029 2.255.864 3.342-.205 1.381-.421 2.776-.596 4.164a35 35 0 0 1-1.646 6.538c-1.696 5.288 1.461 10.855 5.985 14.998 2.178 2.105 4.931 3.871 8.093 5.193 2.283.94 5.748 1.733 8.113.573s3.085-3.416 3.157-5.325c.134-2.336-1.172-4.606-1.83-6.853-.658-2.248-1.543-5.487-.35-7.602a44 44 0 0 0 2.345-5.509c1.336-3.386 2.591-6.787 3.825-10.195l.37-1.035c1.347-3.218 5.481-8.748 5.481-8.748l-21.44-4.466a16 16 0 0 1-2.273 3.937"/><path fill="#263238" d="M151.543 286.529c-1.689.559-3.051 1.523-3.846 2.725-.121 2.308.4 4.609 1.532 6.772 1.491 3.034 2.057 4.275.895 6.611s-2.736 5.141-2.314 9.409c.421 4.267 3.013 9.761 11.692 14.462 7.126 3.849 13.368 3.673 15.753 3.408 2.386-.264 2.941-2.651 2.941-2.651z"/><path fill="#37474f" d="M163.041 280.213a15.5 15.5 0 0 0-1.563 3.892c-.606 3.379 4.309 7.786 5.687 8.939a5.4 5.4 0 0 1 1.74-.76 6.7 6.7 0 0 1 2.024-.18c3.084 0 8.462.389 8.987 1.366.524.977-4.165 7.911-4.946 13.074-.641 4.125.35 8.296 2.858 12.039 1.82 2.666 4.947 6.302-.349 9.512-3.085.617-15.764-.639-23.137-8.352-6.54-6.845-3.476-13.845-1.758-17.437 1.717-3.591.277-5.758-1.142-10.195-.627-1.931-1.295-3.386.103-5.582 2.499-2.203 6.17-3.165 8.34-4.488 1.737-1.072 1.933-2.262 3.156-1.828"/><path fill="#fafafa" d="M154.373 319.743c1.028-2.042 5.635-4.87 11.527-5.677 7.198-.999 9.759.073 11.312 1.821 1.316 1.469 8.452 9.769.586 12.347-2.561 1.138-14.9 1.014-23.425-8.491"/><path fill="#263238" d="M167.163 293.044c.477.286.792.685.885 1.124.013.441-.078.881-.268 1.3-.329.823-.606 1.624-.894 2.446-.607 1.623-1.173 3.247-1.646 4.885a33.4 33.4 0 0 0-1.028 4.95 16.1 16.1 0 0 0 .103 5.017c-.704-1.633-1.024-3.338-.946-5.046.052-1.706.317-3.404.792-5.076a34 34 0 0 1 3.064-7.308c.239-.369.405-.759.494-1.16-.011-.41-.206-.807-.556-1.132"/><path fill="#fafafa" d="M162.905 311.466c2.849-.83 10.612-1.043 12.186.697l.133.595a1.95 1.95 0 0 0-.051-1.807c-.494-1.079-5.759-2.277-12.34-.771-.699.463-.802 1.476.072 1.286m.341-4.334c2.777-.948 9.893-1.278 11.61.397v.484a1.33 1.33 0 0 0 .414-.805 1.2 1.2 0 0 0-.239-.84c-.586-1.058-5.471-2.292-11.918-.521-.71.499-.73 1.491.133 1.285m.893-4.385c2.859-.735 10.078-.904 11.579.889l-.185.573c.244-.215.423-.464.526-.731.102-.266.126-.546.07-.819-.339-1.153-5.45-2.564-12.031-1.212-.709.455-.833 1.483.041 1.3m1.031-3.724c2.859-.771 10.551-.962 12.042.83l-.206.573c.494-.469.715-1.056.617-1.638-.339-1.153-5.892-2.424-12.473-1.065-.72.455-.854 1.469.02 1.3"/><path fill="#455a64" d="M134.64 225.279c2.427 2.373 6.581 1.22 18.51 0 23.455-2.387 33.543-3.613 44.165-2.203 5.985.793 11.496 1.924 15.25 6.052 2.797 3.078 4.843 8.08 2.303 15.146-5.615 15.556-16.977 27.977-25.707 40.985 0 0-16.258-6.045-27.703-5.759l7.383-20.61-37.995 7.955z"/><path fill="#37474f" d="M188.893 274.417c3.876-1.601 17.326-16.599 24.267-25.92-5.984 13.625-16.072 24.973-24.01 36.769 0 0-16.258-6.045-27.703-5.759l1.131-3.173c7.106-.073 22.644-.396 26.315-1.917m-58.059-7.565 3.085-4.407s11.106-2.203 21.347-5.075c8.679-2.439 12.289-7.764 14.612-11.804 2.324-4.039 6.067-7.55 10.345-8.748-5.141 3.217-7.949 13.78-11.311 22.035z"/><path fill="#c8856a" d="M199.492 277.385c3.97-1.131 3.363-4.451 7.589-5.634 2.918-.84 6.184-.819 9.08.059 1.44.382 2.972 1.043 4.514 1.087 1.934.051 3.898.088 5.851.169a94 94 0 0 0 9.255-.235c7.558-.448 14.828 2.578 19.918 6.368 2.611 1.838 4.669 4.037 6.047 6.464 1.028 1.748 1.594 4.311-.36 5.817s-5.142 1.675-7.826 1.469c-3.259-.242-6.221-1.469-9.254-2.27-3.034-.8-7.373-1.873-10.479-1.329-2.633.389-5.293.678-7.969.867a995 995 0 0 1-14.674 1.256l-1.491.11c-4.648.499-12.905 2.629-12.905 2.629l-3.085-15.792a35 35 0 0 0 5.789-1.035"/><path fill="#263238" d="M207.227 270.76c1.018-1.114 2.55-1.937 4.329-2.329 3.216.251 6.33.955 9.162 2.071 3.99 1.469 5.625 2.035 8.997 1.572 3.373-.462 7.548-1.204 13.368-.294 5.821.911 13.091 3.511 18.366 10.328 4.329 5.574 3.239 9.974 2.488 11.619-.75 1.646-4.113 1.697-4.113 1.697z"/><path fill="#37474f" d="M196.84 277.994a38.5 38.5 0 0 1 5.605-.558c4.781.059 10.18 4.157 11.578 5.303-.538.303-.98.684-1.296 1.119a2.7 2.7 0 0 0-.534 1.401c-.422 2.203-.668 6.037.607 6.551s11.558-1.814 18.828-1.638c5.822.132 11.476 1.427 16.319 3.739 3.434 1.66 8.021 4.407 13.224 1.109 1.295-2.086 1.367-11.238-8.227-17.547-8.555-5.604-18.694-4.407-23.908-3.731-5.213.675-8.02-.625-13.964-2.263-2.591-.734-4.514-1.388-7.753-.734-3.404 1.469-5.265 3.937-7.404 5.259-1.83 1.087-3.496 1.058-3.075 1.99"/><path fill="#fafafa" d="M252.852 277.473c-2.971.419-7.547 3.29-9.511 7.345-2.407 4.987-1.276 6.912.915 8.285 1.82 1.131 12.339 7.345 17.028 2.167 1.892-1.66 3.517-10.401-8.432-17.797"/><path fill="#263238" d="M214.013 282.739c.338.372.847.647 1.439.779.61.073 1.232.073 1.841 0 1.183-.118 2.334-.206 3.517-.287 2.334-.198 4.668-.367 7.002-.462a89 89 0 0 1 7.003-.037c2.348.078 4.676.344 6.941.793a28 28 0 0 0-6.859-1.388 54 54 0 0 0-7.146-.162 84 84 0 0 0-7.075.595 89 89 0 0 0-3.486.529 8.3 8.3 0 0 1-1.676.184c-.566-.067-1.09-.257-1.501-.544"/><path fill="#fafafa" d="M240.163 282.365c-1.553 1.902-2.951 7.345-.761 8.718l.802.184a5.1 5.1 0 0 1-2.499-.294c-1.429-.507-2.334-4.407.689-8.814.74-.477 2.159-.404 1.769.206m-6.047-.397c-1.718 1.836-3.188 6.816-1.111 8.263l.679.044a3 3 0 0 1-2.304-.11c-1.378-.566-2.396-4.194 1.029-8.506.73-.396 2.169-.264 1.707.309m-6.213.015c-1.47 1.91-2.694 6.992-.422 8.307l.823-.051a3.6 3.6 0 0 1-1.086.268c-.385.034-.775.01-1.145-.07-1.553-.397-2.777-4.216 0-8.674.771-.434 2.19-.375 1.83.22m-5.304.191c-1.471 1.917-2.838 7.345-.566 8.637l.833-.073a4.37 4.37 0 0 1-2.365.206c-1.553-.404-2.519-4.51.298-8.976.73-.433 2.16-.389 1.8.206"/><path fill="#455a64" d="m130.835 266.852 15.168 11.62a73 73 0 0 1 16.391-1.616c8.72.198 27.764 1.307 33.43.734 6.704 2.248 12.052 9.461 6.848 15.579-12.339 2.754-33.234 7.345-46.273 9.365-15.784 2.409-26.088 3.518-39.075-2.123s-38.017-19.354-45.503-25.737-9.892-18.017-10.406-25.854c18.952 2.314 62.14-3.32 69.924-22.769 11.343 9.041 5.121 25.347-.504 40.801"/><path fill="#37474f" d="M126.288 262.886s11.774-4.841 11.712-14.007c3.281 8.983-2.951 13.801-7.198 17.973zM63.646 249.04h.175c.75.059 1.532.111 2.345.147 1.11 8.814 2.642 16.894 14.622 26.964 16.453 13.852 38.212 24.767 39.847 25.575a60 60 0 0 1-3.311-1.315c-12.957-5.633-37.975-19.369-45.503-25.751a21 21 0 0 1-2.58-2.578c-1.614-1.99-2.914-4.101-3.877-6.295-2.33-5.501-3.657-11.194-3.949-16.938.71.059 1.44.125 2.231.191"/><path fill="#ebebeb" d="M115.749 165.279c15.712.404 20.216 1.271 31.877 18.686 7.867 11.788 22.129 33.926 22.129 33.926l-23.291 8.138c-7.887-10.158-13.481-18.09-23.651-32.979z"/><path fill="#fafafa" d="M93.52 168.196c-10.673 2.13-16.247 3.048-30.91 7.029-3.085 2.13-9.389 9.717-9.502 19.207-.164 14.36.843 18.95 3.157 35.763a152 152 0 0 0 5.234 22.96c36.844 6.963 76.845-14.242 79.066-26.442-3.64-3.709-3.383-9.423-5.255-35.461-1.1-15.322-7.198-26.398-19.537-25.965-3.476.61-11.579.771-22.253 2.909"/><path fill="#500061" d="M109.026 196.134c0 4.958-2.242 30.702-1.954 33.75.288 3.049 8.124 11.701 10.006 11.18s7.27-10.673 7.414-14.602-10.221-31.092-10.221-31.092-2.057-3.577-5.245.764m-28.444-27.015-4.545 2.777c4.138 4.552 9.008 8.742 14.51 12.486 5.513 3.467 11.76 6.288 18.509 8.359l-.514-1.535c-3.157-1.227-22.829-12.479-27.96-22.087m33.225 2.578-5.142-2.115c4.113 4.561 6.334 13.654 4.648 20.133l1.193.734c1.923-2.952 3.239-10.804-.699-18.752"/><path fill="#000" d="M115.35 188.694a2.25 2.25 0 0 0-.676-.656 3.2 3.2 0 0 0-.98-.416 16 16 0 0 1-.39 2.093l1.193.734c.354-.566.64-1.154.853-1.755m-1.544-16.997-5.141-2.115c2.653 2.938 4.524 7.83 5.049 12.656.979.129 1.891.444 2.643.91.113-3.895-.75-7.773-2.551-11.451m-33.224-2.578-3.805 2.336 1.296 2.6c3.657 3.735 7.837 7.196 12.473 10.327a62 62 0 0 0 7.198 3.989l2.222-1.947c-7.013-4.444-16.124-11.201-19.384-17.305" opacity=".2"/><path fill="#500061" d="M105.447 189.663c-.669.566-.669 1.638 0 2.688a25.5 25.5 0 0 0 3.578 3.783c1.213-.83 4.648-1.865 5.265-.734.925-1.139 1.203-5.318.617-6.368-1.008-1.851-7.054-1.367-9.46.631"/><path fill="#000" d="M110.835 194.305c-1.337.235-2.355.177-3.322-1.571-.966-1.749-1.285-3.269.587-4.363-1.011.28-1.919.723-2.653 1.292-.669.566-.669 1.638 0 2.689a25.6 25.6 0 0 0 3.578 3.782c1.213-.83 4.648-1.865 5.265-.734.463-1.403-1.542-1.425-3.455-1.095" opacity=".2"/><path fill="#263238" d="M124.095 140.829c2.097-1.008 3.695-2.463 4.565-4.158.975-1.875 1.351-3.883 1.101-5.876a5.2 5.2 0 0 0-.772-2.027 4.3 4.3 0 0 0-1.414-.796 5.6 5.6 0 0 0-1.753-.298c-.75-.074-1.522-.147-2.283-.206 1.467-.985 2.638-2.172 3.445-3.489.509-1.024.592-2.131.237-3.188a1.54 1.54 0 0 0-.504-.778 3.2 3.2 0 0 0-1.247-.367 3.5 3.5 0 0 0-1.334.139 69.7 69.7 0 0 1-16.288.955c-4.33-.154-6.499-.522-12.443-.896-5.943-.375-16.535 1.594-18.324 9.607-7.949.962-8.916 10.144-6.612 14.007 4.236 7.117 8.226 11.818 10.427 16.945.411-.213 27.023-11.326 33.121-14.44l6.849-3.511c1.1-.558 2.2-1.073 3.229-1.623"/><path fill="#c8856a" d="M73.142 155.159c4.75 2.519 7.825.088 7.825.088l-.082 16.284c10.663 8.49 26.283 8.696 27.764 12.435 1.172-2.534.791-9.02-2.818-14.029v-3.114c2.425.085 4.856.006 7.26-.236a15.7 15.7 0 0 0 4.226-1.123c2.856-1.25 4.927-3.239 5.779-5.553 1.535-4.038 2.279-8.208 2.211-12.391 0-5.024-.699-11.51-3.023-14.881-4.206-2.652-16.73-2.938-27.27-.735-.186 1.881.082 3.526-2.057 5.59-1.08.967-2.46 1.741-4.031 2.262-.278 3.673-.483 4.635-1.43 6.243-.524.933-1.573 2.321-4.174 1.646-1.224-.316-2.129-2.255-3.404-3.548-1.707-1.733-7.064-2.541-9.666 1.212s-.38 8.109 2.89 9.85"/><path fill="#af6152" d="M105.842 166.815c-5.317-.374-14.797-1.814-17.543-4.135s-4.874-7.676-4.874-7.676 1.028 6.016 3.085 8.631 6.684 3.672 10.036 4.407c3.04.538 6.134.901 9.255 1.087z"/><path fill="#263238" d="m102.254 141.188-5.142 1.579a1.54 1.54 0 0 1-.003-1.549c.277-.498.812-.901 1.494-1.124a3.7 3.7 0 0 1 2.16-.024c.344.103.653.256.909.448.257.192.455.421.582.67m14.742-.205 4.905 1.851c.335-.481.396-1.035.172-1.547s-.717-.942-1.375-1.2a3.6 3.6 0 0 0-1.043-.214c-.364-.02-.73.013-1.076.097a3.1 3.1 0 0 0-.937.391 2.1 2.1 0 0 0-.646.622"/><path fill="#af6152" d="m100.596 154.262 9.255 2.52c-.501.889-1.468 1.604-2.696 1.991a7.06 7.06 0 0 1-3.875.08 5.3 5.3 0 0 1-1.624-.746 3.7 3.7 0 0 1-1.085-1.141 2.6 2.6 0 0 1-.374-1.354c.005-.464.14-.923.399-1.35"/><path fill="#f28f8f" d="M100.905 155.636c1.267.002 2.483.359 3.385.995.903.637 1.419 1.5 1.438 2.406a6.7 6.7 0 0 1-2.448-.184c-.902-.242-1.68-.675-2.231-1.24s-.849-1.237-.854-1.926q.353-.043.71-.051"/><path fill="#af6152" d="m108.164 141.578 1.666 11.884 8.607-2.586z"/><path fill="#263238" d="M99.137 145.529c-.006.321.121.637.366.906s.595.481 1.008.607c.413.127.869.164 1.311.106s.85-.209 1.172-.433.544-.511.638-.825a1.2 1.2 0 0 0-.112-.939c-.166-.299-.452-.555-.823-.737a2.95 2.95 0 0 0-1.257-.286 3.1 3.1 0 0 0-.873.113 2.5 2.5 0 0 0-.746.345 1.7 1.7 0 0 0-.502.523 1.2 1.2 0 0 0-.182.62m16.843-.345c-.006.321.121.636.366.905.244.27.595.481 1.008.608s.869.163 1.311.105.85-.209 1.172-.433.544-.511.638-.825a1.2 1.2 0 0 0-.112-.939c-.166-.298-.452-.554-.823-.736a2.9 2.9 0 0 0-1.257-.286 3 3 0 0 0-.874.113 2.5 2.5 0 0 0-.745.344 1.7 1.7 0 0 0-.502.523c-.118.197-.18.408-.182.621"/><path fill="#ebebeb" d="M108.658 183.944c-1.892-2.204-3.887-2.608-7.98 0a67 67 0 0 0-7.65 5.802s-9.018-4.407-13.913-10.165c-4.113-4.877-4.71-7.411-4.71-7.411a42 42 0 0 0 3.311-3.511c1.697-2.16 1.378-3.71 3.188-3.783v2.203c1.742 2.503 4.072 4.774 6.89 6.714 3.743 2.644 6.848 4.142 13.769 6.199 3.959 1.212 6.396 2.152 7.095 3.952m.001 0c0-2.057-.144-3.408 0-4.613s-1.203-7.433-2.817-9.416v-3.122c1.692.08 3.39.065 5.08-.044 3.113 2.707 5.47 5.817 6.941 9.159a29.1 29.1 0 0 1 1.799 8.447c-1.078-1.317-2.653-2.391-4.545-3.1-2.9-.932-5.306.39-6.458 2.689"/><path fill="#500061" d="M173.11 206.836s-.246-1.667 2.756-3.379c3.003-1.711 6.952-3.129 8.042-7.212l4.339 1.63-6.684 8.814z"/><path fill="#fff" d="M173.11 206.836s-.246-1.667 2.756-3.379c3.003-1.711 6.952-3.129 8.042-7.212l4.339 1.63-6.684 8.814z" opacity=".75"/><path fill="#500061" d="M173.108 206.836s-4.73-1.528-14.818.25c-10.087 1.777-18.314 3.959-37.852 4.194l5.142 1.954 50.603-3.519z"/><path fill="#fff" d="M173.108 206.836s-4.73-1.528-14.818.25c-10.087 1.777-18.314 3.959-37.852 4.194l5.142 1.954 50.603-3.519z" opacity=".75"/><path fill="#500061" d="m120.45 211.28-15.856 42.197 5.182 1.946 15.857-42.189z"/><path fill="#fff" d="m120.45 211.28-15.856 42.197 5.182 1.946 15.857-42.189z" opacity=".8"/><path fill="#000" d="m120.45 211.28-15.856 42.197 5.182 1.946 15.857-42.189z" opacity=".1"/><g fill="#000" opacity=".1"><path d="M184.018 198.485c-.427.885-1.095 1.701-1.964 2.401a27 27 0 0 1-2.807 1.962c-1 .579-1.919 1.226-2.746 1.931a5 5 0 0 0-.946 1.161c-.238.39-.341.816-.298 1.241l-.617.081c-.036-.507.106-1.011.411-1.469a5.1 5.1 0 0 1 1.029-1.212 19 19 0 0 1 2.92-1.895 29 29 0 0 0 2.89-1.866c.918-.67 1.641-1.464 2.128-2.335m-.688 2.35a7.6 7.6 0 0 1-1.48 1.469c-.556.455-1.132.903-1.677 1.359q-.824.684-1.45 1.469c-.409.497-.655 1.055-.719 1.63l-.617-.036c.112-.633.433-1.237.935-1.763a11 11 0 0 1 1.615-1.425c.596-.441 1.203-.859 1.799-1.285a7.8 7.8 0 0 0 1.594-1.418m-43.354 10.209c2.768-.26 5.514-.628 8.226-1.101 2.715-.47 5.388-1.029 8.082-1.558a53.5 53.5 0 0 1 8.278-1.006c1.407-.07 2.819-.07 4.227 0q1.065.05 2.108.221c.744.106 1.447.33 2.056.653l-.411.331a5.6 5.6 0 0 0-1.759-.573 16 16 0 0 0-2.056-.242 39 39 0 0 0-4.113-.059c-2.78.075-5.54.373-8.227.889-2.704.492-5.398 1.013-8.134 1.469-2.732.432-5.495.758-8.277.976"/><path d="M153.396 210.486c1.573-.191 3.084-.47 4.658-.734 1.573-.265 3.085-.5 4.668-.698a45 45 0 0 1 4.761-.36 18 18 0 0 1 4.792.5l-.226.411a17.6 17.6 0 0 0-4.566-.573 42 42 0 0 0-4.709.242 138 138 0 0 0-4.689.588c-1.605.22-3.116.47-4.689.624"/></g><path fill="#500061" d="m188.142 195.789-7.805 10.423-17.008 45.238 2.581.977 7.671-12.715 17.142-42.946z"/><path fill="#000" d="m182.929 207.181 7.795-10.415-17.142 42.946-7.671 12.714z" opacity=".2"/><path fill="#500061" d="m172.183 209.877-49.893 3.687-17.019 45.246 2.592.969 49.903-3.68 17.018-45.245z"/><path fill="#000" d="m124.881 214.541-17.019 45.238 49.904-3.68 17.018-45.245z" opacity=".2"/><path fill="#000" d="m122.29 213.564 2.591.977-17.018 45.238-2.592-.969z" opacity=".35"/><path fill="#500061" d="m174.785 210.854 8.144-3.673-17.018 45.246c-1.162 2.445-3.959 3.606-8.144 3.672z"/><g opacity=".35"><path fill="#000" d="m174.79 210.854 8.144-3.672-17.018 45.245c-1.306 2.593-4.196 3.672-8.145 3.672z"/></g><path fill="#455a64" d="M180.081 206.102c-1.584-.603-4.69-.279-6.942.734-2.251 1.014-2.786 2.321-1.203 2.938l2.88 1.087 8.144-3.672-2.592-.97z"/><path fill="#500061" d="M180.338 206.212c-.401 1.726-3.403 2.886-8.144 3.672l2.592.977c4.113-.448 6.735-1.711 8.144-3.672z"/><path fill="#c8856a" d="M62.609 175.576c-11.044 2.314-18.931 5.876-20.433 16.71-1.604 11.524-2.16 20.845-1.779 39.355.155 7.513-.267 10.892 10.787 13.742 18.91 4.87 43.26 5.59 49.677 5.971 4.113.243 13.152.816 16.34.544 9.995-.859 15.322-5.142 18.509-7.345 1.728-1.227 3.425-2.725 3.383-4.473a4.6 4.6 0 0 1 0-1.667 7.7 7.7 0 0 1 1.132-1.469c.392-.556.532-1.185.401-1.8a7.4 7.4 0 0 1-.453-1.631c0-1.123 1.481-1.939 2.118-2.938a.72.72 0 0 0 .144-.484c-.061-.375-.606-.595-1.12-.676-2.057-.345-4.957.294-6.756 1.087-6.314 2.762-9.923 6.177-18.798 6.361-2.118.044-4.668-.566-4.113-2.027l1.09-2.887c-5.069.734-7.794 4.297-11.969 4.914-3.702.551-33.729-6.611-33.729-6.611l.844-25.347s5.347-20.441-5.275-29.329"/><path fill="#ebebeb" d="M62.608 175.223c-6.17 1.374-14.88 2.843-19.291 10.68s-3.66 15.226-4.113 26.905-.083 25.648.565 28.278 4.638 3.907 11.466 5.538 23.013 3.952 30.345 4.01l5.224-15.96-19.137-4.723s1.183-20.111 1.491-24.643c.309-4.531 4.422-23.048-6.55-30.085"/><path fill="#e0e0e0" d="m82.135 233.528 10.972 2.387c-2.687 2.26-4.351 5.049-4.771 7.999-.792 5.274.092 7.932.092 7.932l-13.152-1.579s-3.948-9.769 6.859-16.739"/><path fill="#fafafa" d="M87.442 237.502a.9.9 0 0 1-.258.622c-.17.184-.414.329-.7.414-.285.086-.6.109-.903.067a1.8 1.8 0 0 1-.803-.304 1.08 1.08 0 0 1-.43-.571.83.83 0 0 1 .086-.647 1.3 1.3 0 0 1 .576-.502c.257-.123.56-.188.87-.188.412 0 .808.116 1.101.324s.459.49.461.785"/><path fill="#c8856a" d="M180.759 221.747a23.6 23.6 0 0 1-3.301 4.598c-.936 1.182-.802 2.556.308 2.894l-2.982 7.484s1.471.118 4.514-2.424 5.142-7.286 5.718-9.849 1.028-7.154-2.057-8.249z"/><path fill="#500061" d="m245.05 108.221-4.998-6.706 4.021-8.285v-5.076l-12.34 5.076v5.068l5.286 6.544a.73.73 0 0 0 .36.228z"/><path fill="#000" d="m245.05 108.221-4.998-6.706 4.021-8.285v-5.076l-12.34 5.076v5.068l5.286 6.544a.73.73 0 0 0 .36.228z" opacity=".1"/><path fill="#500061" d="M270.769 51.268c-.069-.914-.44-1.804-1.081-2.596-.642-.793-1.536-1.466-2.61-1.965l-.751-.316a10.9 10.9 0 0 0-3.686-.628c-1.281 0-2.544.215-3.687.628l-43.106 17.723c-1.07.503-1.961 1.177-2.602 1.969s-1.014 1.68-1.09 2.593v34.293c.071.917.442 1.809 1.083 2.605.642.796 1.535 1.474 2.609 1.979l.75.315c1.143.413 2.406.629 3.687.629s2.544-.216 3.686-.629l15.528-6.36 5.275 6.529a.74.74 0 0 0 .322.218c.134.049.285.07.435.06a1 1 0 0 0 .412-.117.6.6 0 0 0 .26-.256l5.574-11.502 15.301-6.302c1.074-.5 1.968-1.173 2.61-1.966s1.012-1.682 1.081-2.596z"/><path fill="#fff" d="M270.769 51.268c-.069-.914-.44-1.804-1.081-2.596-.642-.793-1.536-1.466-2.61-1.965l-.751-.316a10.9 10.9 0 0 0-3.686-.628c-1.281 0-2.544.215-3.687.628l-43.106 17.723c-1.07.503-1.961 1.177-2.602 1.969s-1.014 1.68-1.09 2.593v34.293c.071.917.442 1.809 1.083 2.605.642.796 1.535 1.474 2.609 1.979l.75.315c1.143.413 2.406.629 3.687.629s2.544-.216 3.686-.629l15.528-6.36 5.275 6.529a.74.74 0 0 0 .322.218c.134.049.285.07.435.06a1 1 0 0 0 .412-.117.6.6 0 0 0 .26-.256l5.574-11.502 15.301-6.302c1.074-.5 1.968-1.173 2.61-1.966s1.012-1.682 1.081-2.596z" opacity=".2"/><path fill="#500061" d="M212.155 102.969c.071.917.442 1.809 1.084 2.605.641.796 1.534 1.474 2.608 1.978l.751.316a11 11 0 0 0 3.342.62 11.2 11.2 0 0 0 3.403-.414c-1.738.47-3.085-.228-3.085-1.734V72.032c.028-.913.382-1.805 1.029-2.593l-8.124-3.356c-.646.787-1 1.68-1.028 2.592z"/><path fill="#000" d="M212.155 102.969c.071.917.442 1.809 1.084 2.605.641.796 1.534 1.474 2.608 1.978l.751.316a11 11 0 0 0 3.342.62 11.2 11.2 0 0 0 3.403-.414c-1.738.47-3.085-.228-3.085-1.734V72.032c.028-.913.382-1.805 1.029-2.593l-8.124-3.356c-.646.787-1 1.68-1.028 2.592z" opacity=".1"/><path fill="#fff" d="M270.644 50.519c-.432-1.117-1.861-1.47-3.558-.735l-43.117 17.694c-1.093.48-1.991 1.156-2.601 1.961l-8.124-3.349c.617-.805 1.513-1.483 2.602-1.968l43.096-17.731a11 11 0 0 1 3.691-.625 11 11 0 0 1 3.692.625l.761.323c.923.428 1.715.987 2.327 1.64.611.655 1.03 1.391 1.231 2.165" opacity=".5"/><path fill="#fafafa" d="M248.386 66.964v3.672c3.702-.352 6.365 1.859 6.365 5.766 0 4.877-4.113 10.562-9.254 12.67-5.142 2.108-9.255-.124-9.255-5.009.166-4.103 2.426-8.022 6.355-11.017v-3.673c-5.779 3.673-10.098 10.371-10.098 16.247 0 6.846 5.841 10.004 13.039 7.037 7.198-2.968 13.018-10.937 13.018-17.782-.062-5.876-4.38-9.05-10.17-7.911m-2.92 11.612c.571-.291 1.037-.674 1.362-1.118s.5-.937.509-1.438V65.737c0-.984-.833-1.432-1.871-1.006-.569.293-1.035.676-1.359 1.12a2.53 2.53 0 0 0-.513 1.436V77.57c0 .984.844 1.432 1.872 1.006"/></svg>