<svg xmlns="http://www.w3.org/2000/svg" fill="none" viewBox="0 0 400 391"><path fill="#e0e0e0" d="M389.737 21.64h-62.083v64.717h62.083z"/><path fill="#fafafa" d="M385.531 21.64h-62.083v64.717h62.083z"/><path fill="#e0e0e0" d="M385.547 86.375h-62.118V21.658h62.118zm-62.082 0h62.019V21.658h-62.019z"/><path fill="#fff" d="M377.189 30.332h-45.391v47.315h45.391z"/><path fill="#e0e0e0" d="M331.799 77.97a7.2 7.2 0 0 1-1.124 1.304c-.728.764-1.743 1.797-2.885 2.921a126 126 0 0 1-2.966 2.84c-.388.418-.83.784-1.312 1.088a8 8 0 0 1 1.114-1.294 134 134 0 0 1 2.895-2.93 124 124 0 0 1 2.966-2.84 7.2 7.2 0 0 1 1.312-1.088m45.39-.117q.717.48 1.304 1.114c.764.728 1.797 1.744 2.921 2.885a126 126 0 0 1 2.84 2.967q.618.599 1.097 1.312a6.5 6.5 0 0 1-1.303-1.115 132 132 0 0 1-2.931-2.885 110 110 0 0 1-2.84-2.975 7 7 0 0 1-1.088-1.303m-.117-47.387a7.2 7.2 0 0 1 1.115-1.286c.719-.764 1.744-1.797 2.885-2.93a112 112 0 0 1 2.966-2.84c.389-.418.83-.784 1.313-1.088q-.476.695-1.088 1.277c-.728.764-1.798 1.797-2.894 2.93-1.097 1.132-2.202 2.13-2.975 2.85a7.6 7.6 0 0 1-1.322 1.087m-45.4.108a7 7 0 0 1-1.339-1.115 133 133 0 0 1-2.921-2.885 126 126 0 0 1-2.841-2.966 7.7 7.7 0 0 1-1.096-1.313q.715.479 1.294 1.115c.773.728 1.798 1.743 2.939 2.894 1.142 1.15 2.13 2.193 2.84 2.966a7 7 0 0 1 1.124 1.303"/><path fill="#e0e0e0" d="M377.073 77.656v-3.443c0-2.247 0-5.51-.053-9.644 0-8.288-.045-20.098-.081-34.237l.17.18h-45.265l.198-.207v47.324l-.171-.17 32.772.08h12.278a.8.8 0 0 1 .215 0h-12.377l-32.888.09h-.171V29.936h45.652v.171c0 14.184-.063 26.067-.081 34.345 0 4.126 0 7.37-.054 9.609v3.155a2 2 0 0 1-.144.44"/><path fill="#ebebeb" d="M362.061 46.421h-15.145v15.146h15.145z"/><path fill="#e0e0e0" d="M389.737 111.237h-62.083v64.716h62.083z"/><path fill="#fafafa" d="M385.531 111.237h-62.083v64.716h62.083z"/><path fill="#e0e0e0" d="M385.547 175.971h-62.118v-64.716h62.118zm-62.082 0h62.019v-64.716h-62.019z"/><path fill="#fff" d="M377.189 119.937h-45.391v47.315h45.391z"/><path fill="#e0e0e0" d="M331.799 167.603a7.2 7.2 0 0 1-1.124 1.303 134 134 0 0 1-2.885 2.922 127 127 0 0 1-2.966 2.84 7.4 7.4 0 0 1-1.312 1.096 7.8 7.8 0 0 1 1.114-1.303c.728-.764 1.744-1.798 2.895-2.93a124 124 0 0 1 2.966-2.84 7.2 7.2 0 0 1 1.312-1.088m45.39-.153a7.2 7.2 0 0 1 1.304 1.124c.764.719 1.797 1.743 2.921 2.885a127 127 0 0 1 2.84 2.966c.416.393.784.834 1.097 1.313a7.3 7.3 0 0 1-1.303-1.115 162 162 0 0 1-2.931-2.894 99 99 0 0 1-2.84-2.975 7 7 0 0 1-1.088-1.304m-.117-47.387a7.2 7.2 0 0 1 1.124-1.303 131 131 0 0 1 2.885-2.93 97 97 0 0 1 2.966-2.832 7.4 7.4 0 0 1 1.313-1.096 7.6 7.6 0 0 1-1.115 1.294c-.728.773-1.798 1.798-2.894 2.93s-2.202 2.14-2.975 2.85a7 7 0 0 1-1.304 1.087m-45.4.117c-.49-.316-.94-.69-1.339-1.114a132 132 0 0 1-2.921-2.886 125 125 0 0 1-2.841-2.966 7.4 7.4 0 0 1-1.096-1.312c.475.317.909.692 1.294 1.114.773.728 1.798 1.744 2.939 2.895 1.142 1.15 2.13 2.193 2.84 2.966.425.388.803.826 1.124 1.303"/><path fill="#e0e0e0" d="M377.071 167.252v-3.442c0-2.247 0-5.501-.054-9.645 0-8.287-.045-20.098-.081-34.228l.171.171h-45.265l.198-.198v47.315l-.171-.17 32.771.09h11.649-11.568l-32.888.089h-.171v-47.692h45.652v.18c0 14.183-.063 26.021-.081 34.335 0 4.126 0 7.38-.054 9.609v3.164a1.6 1.6 0 0 1-.108.422"/><path fill="#ebebeb" d="M362.061 136.018h-15.145v15.145h15.145z"/><path fill="#e0e0e0" d="M65.753 178.533H16.784v51.054h48.969z"/><path fill="#fafafa" d="M62.435 178.533H13.467v51.054h48.968z"/><path fill="#e0e0e0" d="M62.48 229.623H13.448v-51.108H62.48zm-48.978 0h48.915v-51.081H13.475z"/><path fill="#fff" d="M55.856 185.391h-35.81v37.329h35.81z"/><path fill="#e0e0e0" d="M20.047 222.963c-.258.378-.56.725-.9 1.033a99 99 0 0 1-2.273 2.301c-.9.881-1.735 1.681-2.346 2.247a5.2 5.2 0 0 1-1.034.854q.393-.558.899-1.015c.575-.612 1.348-1.456 2.247-2.355a83 83 0 0 1 2.337-2.238 6 6 0 0 1 1.07-.827m35.809-.09q.56.394 1.024.899c.602.566 1.42 1.375 2.31 2.274s1.672 1.726 2.238 2.337q.505.47.9 1.033a5 5 0 0 1-1.026-.898c-.602-.567-1.42-1.376-2.31-2.274s-1.68-1.735-2.247-2.346a5.5 5.5 0 0 1-.89-1.025m-.097-37.383q.395-.56.899-1.025c.575-.602 1.375-1.42 2.274-2.31a97 97 0 0 1 2.346-2.238 6 6 0 0 1 1.033-.899 5.5 5.5 0 0 1-.899 1.025 121 121 0 0 1-4.629 4.557 5.4 5.4 0 0 1-1.024.89m-35.812.09a6 6 0 0 1-1.024-.899 98 98 0 0 1-2.31-2.274 100 100 0 0 1-2.239-2.337 6.5 6.5 0 0 1-.898-1.034c.379.254.723.556 1.024.899.602.575 1.42 1.384 2.31 2.283s1.681 1.735 2.247 2.346q.512.45.89 1.016"/><path fill="#e0e0e0" d="M55.758 222.72a1.4 1.4 0 0 1 0-.18v-10.148c0-6.534 0-15.846-.072-26.965l.144.144-35.774.009.162-.162v37.329l-.135-.135 25.86.063h9.177-9.087l-25.941.072h-.135V185.13h36.007v.135c0 11.191-.053 20.53-.072 27.091v10.067c0 .117-.134.297-.134.297"/><path fill="#ebebeb" d="M43.92 198.083H31.973v11.945h11.945z"/><path fill="#e0e0e0" d="M383.364 202.316c-9.626 4.989-17.006 13.573-22.309 23.02s-8.728 19.774-12.116 30.12l-2.966 53.104c11.199-19.056 20.188-41.455 22.614-63.423l-7.451-.656c4.998-.764 9.195-4.386 11.865-8.683s4.035-9.24 5.393-14.112l-9.088 1.349a33.72 33.72 0 0 0 14.058-20.719"/><path fill="#ebebeb" d="M344.274 320.999s-24.314-29.095-24.026-56.869h9.815s-10.669-7.011-9.824-10.939 1.106-18.804 1.106-18.804l8.988 2.247s-6.732-3.362-7.577-8.692 1.968-30.021 1.968-30.021 10.939 11.505 14.31 23.28c3.37 11.775 12.206 25.5 9.617 61.454s-4.377 38.344-4.377 38.344m12.322 2.742s26.327-17.545 32.179-39.936l-7.892-2.148s10.112-3.299 10.292-6.642 3.209-15.362 3.209-15.362l-7.712-.161s6.148-1.232 7.999-5.33c1.852-4.099 4.989-24.539 4.989-24.539s-11.317 6.858-16.602 15.595-15.397 17.851-21.167 47.288-5.295 31.235-5.295 31.235"/><path fill="#e0e0e0" d="M331.377 223.331q.058.148.081.306l.216.899c.179.818.44 1.977.773 3.451.332 1.474.728 3.335 1.159 5.483s.899 4.566 1.429 7.272c1.043 5.393 2.139 11.847 3.272 19.019 1.133 7.173 2.184 15.092 3.164 23.37s1.69 16.287 2.256 23.532.989 13.743 1.159 19.253c.135 2.742.198 5.231.261 7.407.063 2.175.117 4.062.126 5.599s0 2.697 0 3.533v.899q.021.157 0 .314a1.4 1.4 0 0 1 0-.314c0-.234 0-.54-.045-.899 0-.845-.072-2.023-.126-3.542s-.108-3.406-.207-5.59c-.098-2.185-.17-4.656-.332-7.398-.261-5.483-.692-12.008-1.25-19.244-.557-7.236-1.348-15.19-2.301-23.514-.952-8.323-2.058-16.224-3.127-23.37a548 548 0 0 0-3.173-19.019c-.468-2.697-.953-5.142-1.358-7.29a300 300 0 0 0-1.078-5.492c-.315-1.51-.522-2.642-.683-3.469-.072-.378-.126-.674-.171-.899a1.2 1.2 0 0 1-.045-.297"/><path fill="#ebebeb" d="M340.903 338.814s-22.255-25.239-29.158-40.501l5.213-2.22c-3.775.62-7.649-1.007-10.579-3.47s-5.078-5.717-7.191-8.908l6.867-1.159a25.57 25.57 0 0 1-15.01-11.586c8.089 1.339 15.442 5.788 21.482 11.352a106 106 0 0 1 13.015 15.083 51.6 51.6 0 0 1 5.061 8.314c3.739 7.676 10.309 23.828 10.3 33.095"/><path fill="#e0e0e0" d="M389.126 244.283a1 1 0 0 1-.099.261l-.341.737-1.358 2.795a639 639 0 0 0-4.916 10.328 604 604 0 0 0-6.948 15.469 542 542 0 0 0-7.856 19.226c-2.661 6.867-5.034 13.483-7.119 19.505a517 517 0 0 0-5.276 16.125c-1.429 4.612-2.553 8.351-3.299 10.948-.377 1.268-.674 2.274-.899 2.985l-.242.773q-.033.136-.099.26.007-.143.054-.278c.054-.198.117-.459.198-.782.188-.72.458-1.726.799-3.003.693-2.615 1.798-6.372 3.155-11.001 1.358-4.629 3.137-10.112 5.178-16.18a425 425 0 0 1 7.127-19.522 681 681 0 0 1 7.901-19.227c2.508-5.86 4.953-11.082 7.038-15.442s3.82-7.865 5.061-10.265l1.438-2.759c.152-.297.278-.53.377-.71s.126-.243.126-.243m-46.344 105.345a3 3 0 0 1-.108-.459 73 73 0 0 0-.216-1.339 79 79 0 0 0-.898-4.917c-.441-2.067-.98-4.494-1.708-7.19s-1.672-5.591-2.796-8.602-2.381-5.798-3.595-8.306a95 95 0 0 0-3.469-6.516c-1.061-1.816-1.951-3.272-2.598-4.252-.288-.467-.521-.845-.719-1.15a2 2 0 0 1-.225-.423s.117.117.306.369l.791 1.096c.692.962 1.627 2.391 2.696 4.189a119 119 0 0 1 3.596 6.499c1.276 2.489 2.489 5.321 3.64 8.332 1.15 3.011 2.04 5.95 2.777 8.647a77 77 0 0 1 1.609 7.244c.36 2.086.602 3.767.719 4.944l.135 1.348c.048.157.069.322.063.486"/><path fill="#e0e0e0" d="M372.139 343.695h-48.681v9.933h48.681z"/><path fill="#e0e0e0" d="m328.096 353.618 4.988 28.476h29.419l5.186-28.476z"/><path fill="#ebebeb" d="M369.154 353.664c0 .134-9.213.242-20.574.242s-20.565-.108-20.565-.242c0-.135 9.204-.234 20.565-.234s20.574.063 20.574.234"/><path fill="#e0e0e0" d="M83.235 16.427H4.174v128.408h79.061z"/><path fill="#ebebeb" d="M80.6 16.427H1.54v128.408H80.6z"/><path fill="#fff" d="M77.239 19.024H4.909V142.23h72.33z"/><path fill="#ebebeb" d="M63.153 35.042H18.68v91.187h44.474z"/><path fill="#e0e0e0" d="M18.68 93.952c-.108-8.512 7.703-16.826 16.296-17.977 4.098-.566 8.458.234 12.287-1.303 6.831-2.75 8.988-11.685 15.891-14.31l.315 65.894h-44.79z"/><path fill="#263238" d="M400 382.5c0 .126-89.551.234-199.991.234S0 382.626 0 382.5s89.533-.234 200.009-.234S400 382.374 400 382.5m-109.435-77.857H109.432a9.034 9.034 0 0 1-8.872-9.186V18.614a8.993 8.993 0 0 1 8.872-9.204h181.133a8.986 8.986 0 0 1 8.872 9.177V295.43a9.03 9.03 0 0 1-8.872 9.213"/><path fill="#455a64" d="M203.467 291.215a8.443 8.443 0 0 1-9.991 8.449 8.445 8.445 0 0 1-6.714-6.593 8.43 8.43 0 0 1 3.56-8.71 8.44 8.44 0 0 1 4.705-1.434 8.36 8.36 0 0 1 8.44 8.288m16.908-266.21h-40.619a2.886 2.886 0 0 1-2.831-2.93 2.884 2.884 0 0 1 2.831-2.931h40.619a2.884 2.884 0 0 1 2.831 2.93 2.884 2.884 0 0 1-2.831 2.93"/><path fill="#fff" d="M292.992 30.47H106.654v246.56h186.338z"/><path fill="#ebebeb" d="M293.163 30.47H106.825v246.56h186.338z"/><path fill="#fff" d="M268.67 50.568H131.328a8.863 8.863 0 0 0-8.862 8.862v188.487a8.863 8.863 0 0 0 8.862 8.863H268.67a8.863 8.863 0 0 0 8.863-8.863V59.43a8.863 8.863 0 0 0-8.863-8.862"/><path fill="#500061" d="m172.729 77.173.898-1.96a5.93 5.93 0 0 0 3.101.9c1.106 0 1.537-.306 1.537-.764 0-1.493-5.393-.405-5.393-3.901 0-1.69 1.376-3.056 4.171-3.056a7.05 7.05 0 0 1 3.424.818l-.826 1.977a5.55 5.55 0 0 0-2.607-.728c-1.115 0-1.519.377-1.519.899 0 1.438 5.339.36 5.339 3.829 0 1.645-1.375 3.047-4.171 3.047a7.4 7.4 0 0 1-3.954-1.06m8.97-8.612a1.42 1.42 0 0 1 .483-1.016 1.4 1.4 0 0 1 1.072-.341 1.38 1.38 0 0 1 1.425.766c.085.174.132.363.139.555a1.572 1.572 0 0 1-3.119 0zm.279 2.166h2.553v7.299h-2.508zm12.052.001v5.959c0 2.76-1.555 4.063-4.279 4.063a6.34 6.34 0 0 1-3.595-.953l.899-1.798c.718.513 1.58.786 2.463.782 1.375 0 1.95-.62 1.95-1.797v-.162a2.74 2.74 0 0 1-2.166.899 3.523 3.523 0 1 1 0-7.038 2.65 2.65 0 0 1 2.283 1.006v-.898zm-2.526 3.397a1.598 1.598 0 0 0-2.683-1.053 1.6 1.6 0 0 0-.508 1.053 1.6 1.6 0 0 0 3.191 0m11.936-.269v4.17h-2.543V74.27c0-1.052-.45-1.492-1.196-1.492s-1.447.512-1.447 1.717v3.532h-2.562v-7.299h2.436v.8a3.12 3.12 0 0 1 2.319-.898c1.69-.018 2.993.961 2.993 3.227m13.186-3.128v7.298h-2.436v-.782a2.88 2.88 0 0 1-2.166.9c-1.798 0-3.092-1.026-3.092-3.336v-4.08h2.552v3.658c0 1.132.45 1.582 1.214 1.582s1.375-.503 1.375-1.726V70.73zm9.815 3.649a3.52 3.52 0 0 1-.969 2.674 3.53 3.53 0 0 1-2.626 1.092 2.7 2.7 0 0 1-2.04-.764v3.254h-2.553v-9.888h2.418v.684a2.64 2.64 0 0 1 2.157-.845 3.533 3.533 0 0 1 3.613 3.793m-2.588 0a1.55 1.55 0 0 0-1.078-1.288 1.548 1.548 0 0 0-1.986 1.249 1.542 1.542 0 0 0 2.169 1.635 1.54 1.54 0 0 0 .837-.95 1.55 1.55 0 0 0 .058-.646"/><path fill="#263238" d="M140.181 130.654v.998h1.798v.701h-1.798v1.375h-.899v-3.775h2.85v.701zm5.367.171v2.903h-.8v-.35a1.2 1.2 0 0 1-.899.386 1.14 1.14 0 0 1-.934-.353 1.15 1.15 0 0 1-.307-.95v-1.636h.836v1.51c0 .486.216.701.594.701.377 0 .665-.242.665-.782v-1.429zm.78-1.096h.836v3.999h-.836zm1.62 0h.818v3.999h-.845zm6.668.224v3.775h-.719l-1.879-2.292v2.292h-.899v-3.775h.728l1.87 2.292v-2.292zm3.407 2.112v1.663h-.791v-.368a.89.89 0 0 1-.899.404c-.683 0-1.088-.377-1.088-.899 0-.521.369-.898 1.249-.898h.666c0-.36-.216-.576-.666-.576-.3 0-.592.095-.835.27l-.306-.584c.376-.238.814-.36 1.258-.351.899.027 1.412.468 1.412 1.339m-.845.747v-.261h-.576c-.395 0-.512.144-.512.332s.171.351.467.351a.61.61 0 0 0 .621-.422m6.508-.746v1.662h-.845v-1.537c0-.467-.207-.683-.548-.683s-.639.243-.639.764v1.456h-.845v-1.537c0-.467-.197-.683-.548-.683-.35 0-.638.243-.638.764v1.456h-.836v-2.903h.764v.333a1.16 1.16 0 0 1 .899-.378 1.07 1.07 0 0 1 .953.477 1.31 1.31 0 0 1 1.051-.477 1.13 1.13 0 0 1 .932.34 1.12 1.12 0 0 1 .3.946m3.612.485h-2.193a.766.766 0 0 0 .827.575.98.98 0 0 0 .728-.278l.45.485a1.53 1.53 0 0 1-1.196.467 1.5 1.5 0 0 1-1.158-.378 1.5 1.5 0 0 1-.496-1.114 1.47 1.47 0 0 1 .439-1.136 1.47 1.47 0 0 1 1.143-.419 1.43 1.43 0 0 1 1.087.417 1.42 1.42 0 0 1 .423 1.084.8.8 0 0 0-.054.297m-2.202-.494h1.429a.69.69 0 0 0-.719-.603.686.686 0 0 0-.71.567zm-22.864 25.922v.701h-2.921v-3.775h2.849v.701h-1.978v.818h1.798v.683h-1.798v.899zm5.535-.962v1.663h-.8v-1.528c0-.467-.216-.683-.557-.683s-.638.243-.638.755v1.456h-.836v-1.528c0-.467-.207-.683-.558-.683-.35 0-.629.243-.629.755v1.456h-.845v-2.903h.8v.342a1.17 1.17 0 0 1 .899-.378 1.09 1.09 0 0 1 .953.467 1.31 1.31 0 0 1 1.043-.467 1.113 1.113 0 0 1 1.168 1.276m3.326.009v1.654h-.791v-.359a.95.95 0 0 1-.899.404c-.683 0-1.088-.377-1.088-.899 0-.521.369-.898 1.25-.898h.665c0-.369-.216-.576-.665-.576a1.37 1.37 0 0 0-.836.27l-.306-.584a2.2 2.2 0 0 1 1.259-.351c.881.054 1.411.459 1.411 1.339m-.845.737v-.296h-.584c-.396 0-.513.144-.513.341s.171.351.468.351a.615.615 0 0 0 .629-.396m1.5-2.858a.53.53 0 0 1 .282-.533.531.531 0 1 1 .239 1.001.49.49 0 0 1-.478-.277.5.5 0 0 1-.043-.191m.108.899h.836v2.903h-.836zm1.619-1.124h.845v4h-.845zm5.698 3.191h-1.798l-.333.809h-.898l1.68-3.775h.899l1.69 3.775h-.899zm-.279-.665-.593-1.438-.602 1.438zm4.791-2.526v4h-.8v-.332a1.13 1.13 0 0 1-.899.377 1.491 1.491 0 1 1 0-2.984 1.08 1.08 0 0 1 .899.351v-1.412zm-.827 2.553a.74.74 0 0 0-.498-.65.75.75 0 0 0-.795.199.75.75 0 0 0-.133.808.74.74 0 0 0 .689.443.7.7 0 0 0 .299-.059.72.72 0 0 0 .404-.438.7.7 0 0 0 .034-.303m4.557-2.553v4h-.799v-.332a1.14 1.14 0 0 1-.899.377 1.49 1.49 0 0 1-1.492-1.492 1.49 1.49 0 0 1 1.492-1.492 1.1 1.1 0 0 1 .899.351v-1.412zm-.826 2.553a.75.75 0 0 0-.926-.67.75.75 0 0 0-.5 1.027.75.75 0 0 0 .689.443.72.72 0 0 0 .548-.235.74.74 0 0 0 .189-.565m3.407-1.492v.773h-.189a.71.71 0 0 0-.773.809v1.366h-.836v-2.903h.8v.386a1.19 1.19 0 0 1 .998-.431m3.298 1.726h-2.193a.774.774 0 0 0 .827.584.96.96 0 0 0 .728-.279l.449.486a1.52 1.52 0 0 1-1.195.467 1.5 1.5 0 0 1-1.158-.378 1.5 1.5 0 0 1-.496-1.114 1.48 1.48 0 0 1 .45-1.08c.145-.14.317-.249.506-.319.188-.071.389-.103.59-.093a1.42 1.42 0 0 1 1.416.912c.073.188.104.389.094.589q-.003.112-.018.225m-2.202-.485h1.429a.69.69 0 0 0-.71-.612.684.684 0 0 0-.719.612m2.5 1.429.278-.603c.309.18.659.276 1.016.279.387 0 .53-.099.53-.261 0-.476-1.797 0-1.797-1.15 0-.548.494-.899 1.339-.899.389-.008.775.078 1.124.252l-.288.593a1.64 1.64 0 0 0-.836-.216c-.377 0-.539.126-.539.27 0 .503 1.752 0 1.752 1.159 0 .54-.503.899-1.366.899a2.47 2.47 0 0 1-1.213-.323m2.867 0 .279-.603c.305.179.652.275 1.006.279.387 0 .54-.099.54-.261 0-.476-1.798 0-1.798-1.15 0-.548.494-.899 1.339-.899a2.4 2.4 0 0 1 1.115.252l-.279.593a1.7 1.7 0 0 0-.836-.216c-.377 0-.539.126-.539.27 0 .503 1.753 0 1.753 1.159 0 .54-.504.899-1.367.899a2.47 2.47 0 0 1-1.213-.323m-33.303 21.949c0 .845-.638 1.367-1.645 1.367h-.755v1.042h-.899v-3.775h1.627c1.034 0 1.672.521 1.672 1.366m-.899 0c0-.413-.269-.656-.8-.656h-.71v1.312h.71c.54 0 .809-.242.809-.656zm3.999.728v1.654h-.791v-.359a.95.95 0 0 1-.899.404c-.683 0-1.087-.377-1.087-.899 0-.521.359-.898 1.249-.898h.665c0-.36-.216-.567-.665-.567a1.35 1.35 0 0 0-.836.27l-.306-.593a2.27 2.27 0 0 1 1.25-.351c.908.072 1.42.486 1.42 1.339m-.845.738v-.297h-.575c-.396 0-.522.144-.522.341s.18.351.477.351a.625.625 0 0 0 .62-.369zm1.322.674.279-.603a2.04 2.04 0 0 0 1.007.279c.395 0 .539-.099.539-.261 0-.476-1.798 0-1.798-1.15 0-.548.495-.899 1.34-.899.387-.006.77.083 1.114.261l-.278.593a1.66 1.66 0 0 0-.836-.216c-.378 0-.54.117-.54.27 0 .494 1.753 0 1.753 1.159 0 .54-.503.899-1.366.899a2.5 2.5 0 0 1-1.214-.332m2.868 0 .278-.603c.306.18.653.276 1.007.279.386 0 .53-.099.53-.261 0-.476-1.744 0-1.744-1.15 0-.549.495-.899 1.34-.899.387-.004.769.085 1.114.261l-.278.593a1.7 1.7 0 0 0-.836-.216c-.378 0-.54.117-.54.27 0 .494 1.753 0 1.753 1.159 0 .54-.503.899-1.375.899a2.45 2.45 0 0 1-1.249-.332m7.748-2.634-1.052 2.903h-.808l-.657-1.797-.674 1.797h-.809l-1.042-2.903h.791l.683 1.968.71-1.968h.719l.683 1.968.71-1.968zm.097 1.456a1.594 1.594 0 0 1 2.677-1.259 1.6 1.6 0 0 1 .391 1.744 1.59 1.59 0 0 1-1.477 1.007 1.48 1.48 0 0 1-1.119-.4 1.5 1.5 0 0 1-.472-1.092m2.328 0a.75.75 0 0 0-.498-.65.75.75 0 0 0-.794.199.744.744 0 0 0 .555 1.251.72.72 0 0 0 .545-.238.74.74 0 0 0 .192-.562m3.22-1.501v.782h-.189a.71.71 0 0 0-.773.809v1.366h-.836v-2.903h.8v.386a1.18 1.18 0 0 1 .998-.44m3.433-1.052v4h-.809v-.332a1.12 1.12 0 0 1-.899.377 1.5 1.5 0 0 1-1.385-1.496 1.503 1.503 0 0 1 1.385-1.497 1.12 1.12 0 0 1 .899.35v-1.402zm-.827 2.553a.75.75 0 0 0-.498-.65.75.75 0 0 0-.795.198.744.744 0 0 0 .556 1.252.74.74 0 0 0 .7-.499.7.7 0 0 0 .037-.301"/><path fill="#500061" d="M239.072 226.795h-71.826a4.296 4.296 0 0 0-4.297 4.296v7.865a4.296 4.296 0 0 0 4.297 4.296h71.826a4.296 4.296 0 0 0 4.296-4.296v-7.865a4.296 4.296 0 0 0-4.296-4.296"/><path fill="#fff" d="M177.365 234.65a2.28 2.28 0 0 1 2.418-2.292 2.31 2.31 0 0 1 1.897.836l-.791.71a1.31 1.31 0 0 0-1.043-.512 1.259 1.259 0 0 0 0 2.517 1.31 1.31 0 0 0 1.043-.513l.791.72a2.33 2.33 0 0 1-1.897.826 2.28 2.28 0 0 1-1.708-.619 2.27 2.27 0 0 1-.71-1.673m7.092-1.267v1.079h-.27a.74.74 0 0 0-.788.51.8.8 0 0 0-.03.335v1.51h-1.195v-3.407h1.141v.404a1.4 1.4 0 0 1 1.142-.431m3.928 2.067h-2.481a.8.8 0 0 0 .845.549c.29.008.571-.099.782-.297l.63.656a1.87 1.87 0 0 1-1.457.557 1.8 1.8 0 0 1-1.401-.451 1.8 1.8 0 0 1-.594-1.346 1.79 1.79 0 0 1 .552-1.297 1.8 1.8 0 0 1 1.318-.501 1.705 1.705 0 0 1 1.687 1.095c.086.224.123.463.11.703.027.126.018.243.009.332m-2.499-.629h1.403a.71.71 0 0 0-.701-.597.71.71 0 0 0-.702.597m6.176.135v1.861h-1.114v-.441a1.03 1.03 0 0 1-1.007.504c-.818 0-1.267-.468-1.267-1.052s.458-1.025 1.51-1.025h.683c0-.341-.252-.539-.719-.539a1.52 1.52 0 0 0-.899.297l-.404-.818a2.9 2.9 0 0 1 1.501-.396c1.078.036 1.716.53 1.716 1.609m-1.195.8v-.297h-.512c-.387 0-.522.144-.522.351s.162.342.441.342a.59.59 0 0 0 .593-.396m4.304.962a1.6 1.6 0 0 1-.836.198 1.21 1.21 0 0 1-1.011-.314 1.2 1.2 0 0 1-.374-.99v-1.15h-.494v-.899h.494v-.899h1.196v.899h.782v.899h-.782v1.132a.36.36 0 0 0 .359.396.7.7 0 0 0 .369-.108zM199 235.45h-2.481a.78.78 0 0 0 .836.549 1.1 1.1 0 0 0 .782-.297l.629.656a1.85 1.85 0 0 1-1.447.557 1.79 1.79 0 0 1-1.851-1.058 1.8 1.8 0 0 1-.009-1.446 1.8 1.8 0 0 1 1.734-1.091 1.7 1.7 0 0 1 1.3.498 1.7 1.7 0 0 1 .498 1.3c.027.126.009.243.009.332m-2.508-.629h1.402a.68.68 0 0 0-.236-.429.68.68 0 0 0-.465-.155.68.68 0 0 0-.701.584m7.912 1.178h-1.861l-.341.899h-1.304l1.951-4.405h1.222l1.951 4.405h-1.295zm-.36-.899-.566-1.411-.566 1.411zm2.059.045a1.8 1.8 0 0 1 .579-1.329 1.8 1.8 0 0 1 1.371-.469 1.61 1.61 0 0 1 1.6.944l-.899.467a.77.77 0 0 0-.661-.359.77.77 0 0 0-.649.383.77.77 0 0 0-.006.752.77.77 0 0 0 .642.393.75.75 0 0 0 .674-.459l.899.468a1.61 1.61 0 0 1-1.6.944 1.795 1.795 0 0 1-1.95-1.735m3.782 0a1.8 1.8 0 0 1 1.215-1.707 1.8 1.8 0 0 1 .735-.091 1.61 1.61 0 0 1 1.6.944l-.899.467a.77.77 0 0 0-.661-.359.767.767 0 0 0-.655 1.135.77.77 0 0 0 .642.393.75.75 0 0 0 .674-.459l.899.468a1.61 1.61 0 0 1-1.6.944 1.795 1.795 0 0 1-1.95-1.735m3.722 0a1.935 1.935 0 0 1 1.095-1.879 1.93 1.93 0 0 1 2.149.329 1.932 1.932 0 0 1-1.311 3.347 1.79 1.79 0 0 1-1.784-1.077 1.8 1.8 0 0 1-.149-.72m2.652 0a.732.732 0 0 0-.719-.842.72.72 0 0 0-.701.53.7.7 0 0 0-.018.312.74.74 0 0 0 .414.775.725.725 0 0 0 1.005-.464.7.7 0 0 0 .019-.311m5.313-1.699v3.371h-1.142v-.36a1.455 1.455 0 0 1-1.629.287 1.45 1.45 0 0 1-.834-1.428v-1.906h1.196v1.708c0 .53.207.737.566.737.36 0 .647-.234.647-.809v-1.636zm4.428 1.456v1.915h-1.195v-1.798c0-.494-.216-.701-.557-.701s-.683.243-.683.809v1.69h-1.196v-3.407h1.142v.369a1.44 1.44 0 0 1 1.078-.432c.202-.013.404.019.591.094a1.34 1.34 0 0 1 .82 1.461m3.103 1.816c-.255.142-.544.21-.836.198a1.21 1.21 0 0 1-1.312-.766 1.2 1.2 0 0 1-.072-.538v-1.15h-.494v-.899h.494v-.899h1.195v.899h.782v.899h-.782v1.132a.36.36 0 0 0 .214.365.35.35 0 0 0 .146.031.7.7 0 0 0 .369-.108z"/><path fill="#263238" d="M203.37 132.065v-2.112h.899v2.077c0 .719.315 1.015.845 1.015s.836-.296.836-1.015v-2.077h.899v2.112a1.706 1.706 0 0 1-1.708 1.708 1.71 1.71 0 0 1-1.708-1.708zm3.945 1.385.279-.602c.303.184.652.28 1.007.278.386 0 .53-.099.53-.26 0-.477-1.798 0-1.798-1.151 0-.548.504-.899 1.349-.899.386-.007.768.079 1.114.252l-.278.602a1.7 1.7 0 0 0-.836-.216c-.378 0-.54.117-.54.27 0 .494 1.753 0 1.753 1.16 0 .539-.503.898-1.375.898a2.45 2.45 0 0 1-1.205-.332m5.968-.899h-2.193a.766.766 0 0 0 .827.575.98.98 0 0 0 .728-.278l.45.485a1.54 1.54 0 0 1-1.205.467 1.507 1.507 0 0 1-1.538-2.077 1.49 1.49 0 0 1 1.43-.907 1.45 1.45 0 0 1 1.414.914c.072.187.105.387.096.587 0 .036-.009.126-.009.234m-2.211-.494h1.429a.68.68 0 0 0-.71-.603.69.69 0 0 0-.719.567zm4.584-1.304v.773h-.189a.72.72 0 0 0-.577.22.7.7 0 0 0-.187.589v1.366h-.845v-2.894h.8v.378a1.18 1.18 0 0 1 .998-.432m3.47 1.313v1.653h-.845v-1.528c0-.467-.216-.683-.584-.683-.369 0-.692.252-.692.782v1.429h-.827v-2.894h.8v.342a1.28 1.28 0 0 1 .961-.387 1.15 1.15 0 0 1 .893.366 1.14 1.14 0 0 1 .294.92m3.342 0v1.654h-.782v-.36a.94.94 0 0 1-.393.327.94.94 0 0 1-.505.077c-.675 0-1.079-.377-1.079-.898 0-.522.36-.899 1.24-.899h.675c0-.36-.216-.575-.675-.575a1.45 1.45 0 0 0-.836.269l-.296-.584a2.2 2.2 0 0 1 1.249-.351c.872.027 1.402.468 1.402 1.34m-.835.737v-.252h-.585c-.386 0-.512.144-.512.333 0 .188.18.35.476.35a.62.62 0 0 0 .603-.431zm6.482-.737v1.653h-.844v-1.528c0-.467-.207-.683-.549-.683-.341 0-.638.243-.638.764v1.447h-.845v-1.528c0-.467-.198-.683-.548-.683s-.638.243-.638.764v1.447h-.836v-2.894h.8v.333a1.17 1.17 0 0 1 .899-.378 1.07 1.07 0 0 1 .952.477 1.32 1.32 0 0 1 1.097-.504 1.13 1.13 0 0 1 .888.382 1.12 1.12 0 0 1 .262.931m3.613.485h-2.194a.76.76 0 0 0 .827.575.97.97 0 0 0 .728-.278l.45.485a1.53 1.53 0 0 1-1.196.467 1.507 1.507 0 0 1-1.538-2.077 1.49 1.49 0 0 1 1.43-.907 1.44 1.44 0 0 1 1.511 1.501 2 2 0 0 1-.018.234m-2.203-.494h1.43a.73.73 0 0 0-.715-.589.73.73 0 0 0-.715.589m-89.649-11.703h52.573a.12.12 0 0 0 .061-.042.12.12 0 0 0 0-.141.12.12 0 0 0-.061-.042h-52.573a.1.1 0 0 0-.061.042.115.115 0 0 0 0 .141q.023.03.061.042m68.158 0h52.573a.12.12 0 0 0 .085-.113.12.12 0 0 0-.085-.112h-52.573a.12.12 0 0 0-.085.112q0 .04.024.071t.061.042m-11.227-.567a1.88 1.88 0 0 1 3.176-1.438 1.88 1.88 0 0 1 .445 2.056 1.88 1.88 0 0 1-1.742 1.18 1.8 1.8 0 0 1-1.324-.497 1.8 1.8 0 0 1-.555-1.301m3.254 0a1.374 1.374 0 1 0-1.375 1.358 1.33 1.33 0 0 0 .98-.383 1.34 1.34 0 0 0 .395-.975m2.633-.934v.467h-.117a.798.798 0 0 0-.836.899v1.33h-.485v-2.696h.458v.449a1.04 1.04 0 0 1 .98-.449"/><path fill="#ebebeb" d="M194.221 137.899h-52.537a2.823 2.823 0 0 0-2.823 2.822v5.753a2.82 2.82 0 0 0 2.823 2.822h52.537a2.82 2.82 0 0 0 2.822-2.822v-5.753a2.823 2.823 0 0 0-2.822-2.822m63.026 24.197H141.684a2.823 2.823 0 0 0-2.823 2.822v5.753a2.82 2.82 0 0 0 2.823 2.822h115.563a2.82 2.82 0 0 0 2.822-2.822v-5.753a2.82 2.82 0 0 0-2.822-2.822m0 24.269H141.684a2.82 2.82 0 0 0-2.823 2.822v5.753a2.823 2.823 0 0 0 2.823 2.822h115.563a2.82 2.82 0 0 0 2.822-2.822v-5.753a2.82 2.82 0 0 0-2.822-2.822m-.002-48.466h-51.468a2.823 2.823 0 0 0-2.822 2.822v5.753a2.82 2.82 0 0 0 2.822 2.822h51.468a2.82 2.82 0 0 0 2.822-2.822v-5.753a2.82 2.82 0 0 0-2.822-2.822"/><path fill="#500061" d="M144.154 204.297h-2.966a.89.89 0 0 0-.89.889v2.967a.89.89 0 0 0 .89.889h2.966a.89.89 0 0 0 .89-.889v-2.967a.89.89 0 0 0-.89-.889"/><path fill="#e0e0e0" d="M254.648 208.719H150.194a1.796 1.796 0 0 1-1.798-1.753 1.8 1.8 0 0 1 1.798-1.753h104.454c.461.012.9.2 1.227.526.326.327.514.766.526 1.227a1.76 1.76 0 0 1-.511 1.242 1.75 1.75 0 0 1-1.242.511m-87.269 6.525h-16.647a1.795 1.795 0 0 1-1.753-1.752 1.75 1.75 0 0 1 1.083-1.614 1.8 1.8 0 0 1 .67-.13h16.647c.459.011.897.198 1.223.523.326.324.516.761.529 1.221a1.8 1.8 0 0 1-.526 1.226 1.8 1.8 0 0 1-1.226.526"/><path fill="#ebebeb" d="M256.671 94.242H143.336a3.937 3.937 0 0 0-3.937 3.937v7.074a3.937 3.937 0 0 0 3.937 3.937h113.335a3.937 3.937 0 0 0 3.936-3.937v-7.074a3.936 3.936 0 0 0-3.936-3.937"/><path fill="#263238" d="m177.07 102.889.198-.422c.351.29.794.447 1.249.44.648 0 .899-.252.899-.584 0-.899-2.283-.342-2.283-1.744 0-.575.459-1.07 1.447-1.07.428-.008.85.108 1.214.333l-.18.431a1.9 1.9 0 0 0-1.034-.305c-.647 0-.898.269-.898.593 0 .899 2.283.342 2.283 1.735 0 .575-.459 1.069-1.457 1.069a2.27 2.27 0 0 1-1.438-.476m3.522-3.326a.34.34 0 0 1 .103-.244.34.34 0 0 1 .247-.097.33.33 0 0 1 .351.332.35.35 0 0 1-.351.35.35.35 0 0 1-.35-.35zm.099.899h.512v2.859h-.512zm4.233-.018v2.445a1.29 1.29 0 0 1-.884 1.419 1.3 1.3 0 0 1-.599.046 2.14 2.14 0 0 1-1.366-.422l.252-.405a1.73 1.73 0 0 0 1.096.378c.674 0 .98-.315.98-.962v-.225c-.127.145-.285.26-.462.337-.178.076-.37.111-.563.104a1.38 1.38 0 0 1-.978-.406 1.38 1.38 0 0 1 0-1.957 1.38 1.38 0 0 1 .978-.406 1.33 1.33 0 0 1 1.052.468v-.441zm-.503 1.358a.99.99 0 0 0-1.65-.822.99.99 0 0 0 .104 1.545 1 1 0 0 0 .557.175.9.9 0 0 0 .695-.229.9.9 0 0 0 .294-.669m4.207-.144v1.645h-.521v-1.582c0-.567-.279-.836-.773-.836a.85.85 0 0 0-.847.545.85.85 0 0 0-.052.354v1.474h-.512v-2.859h.494v.432a1.23 1.23 0 0 1 1.034-.459 1.13 1.13 0 0 1 .898.359 1.12 1.12 0 0 1 .279.927m5.078-1.214v2.859h-.485v-.414a1.17 1.17 0 0 1-.971.467 1.12 1.12 0 0 1-1.232-1.249v-1.645h.513v1.591c0 .557.287.836.773.836a.85.85 0 0 0 .653-.246.8.8 0 0 0 .193-.3.8.8 0 0 0 .053-.353v-1.483zm3.939 1.429a1.39 1.39 0 0 1-.873 1.369 1.4 1.4 0 0 1-.565.097 1.23 1.23 0 0 1-.998-.468v1.474h-.521v-3.901h.494v.459a1.2 1.2 0 0 1 1.025-.486 1.39 1.39 0 0 1 1.349.892c.069.18.099.372.089.564m-.522 0a.957.957 0 0 0-1.175-.892.96.96 0 0 0 .214 1.899.905.905 0 0 0 .923-.614.9.9 0 0 0 .038-.393m7.019-1.429-1.069 2.859h-.495l-.827-2.167-.836 2.167h-.494l-1.061-2.859h.486l.836 2.274.898-2.274h.432l.845 2.292.899-2.292zm.433-.88a.34.34 0 0 1 .103-.245.35.35 0 0 1 .248-.097.341.341 0 1 1-.351.342m.09.898h.521v2.859h-.521zm3.107 2.679a.97.97 0 0 1-.62.197.81.81 0 0 1-.664-.235.82.82 0 0 1-.235-.663v-1.564h-.485v-.432h.521v-.62h.512v.62h.827v.432h-.827v1.546a.43.43 0 0 0 .112.345.4.4 0 0 0 .154.103.4.4 0 0 0 .184.028.62.62 0 0 0 .404-.135zm3.337-1.483v1.645h-.513v-1.582c0-.567-.278-.836-.773-.836a.85.85 0 0 0-.653.245.85.85 0 0 0-.246.654v1.474h-.512v-3.964h.512v1.546a1.27 1.27 0 0 1 1.016-.432c.163-.01.327.015.479.075a1.11 1.11 0 0 1 .69 1.175m5.068-.261h.521v1.492a2.27 2.27 0 0 1-1.429.476 1.927 1.927 0 0 1-1.855-1.796 1.94 1.94 0 0 1 .735-1.655 1.93 1.93 0 0 1 1.782-.32c.301.096.573.265.794.491l-.333.341a1.48 1.48 0 0 0-1.096-.44 1.454 1.454 0 0 0-1.571 1.451 1.47 1.47 0 0 0 .468 1.07 1.46 1.46 0 0 0 1.103.382 1.6 1.6 0 0 0 .898-.243zm1.25.476a1.49 1.49 0 0 1 .912-1.386 1.483 1.483 0 1 1 .536 2.852 1.43 1.43 0 0 1-1.038-.422 1.4 1.4 0 0 1-.41-1.044m2.445 0a.962.962 0 1 0-.997 1.016.894.894 0 0 0 .96-.61.9.9 0 0 0 .037-.406m.979 0a1.49 1.49 0 0 1 .903-1.383 1.49 1.49 0 0 1 1.623.31 1.49 1.49 0 0 1 .329 1.619 1.48 1.48 0 0 1-1.372.919 1.4 1.4 0 0 1-1.061-.408 1.42 1.42 0 0 1-.422-1.057m2.445 0a.96.96 0 0 0-1.656-.619.963.963 0 0 0 .694 1.626.898.898 0 0 0 .962-1.007m3.972-1.429v2.445a1.3 1.3 0 0 1-.371 1.108 1.3 1.3 0 0 1-1.112.357 2.14 2.14 0 0 1-1.366-.422l.251-.405c.314.244.7.377 1.097.378.674 0 .989-.315.989-.962v-.225a1.33 1.33 0 0 1-1.034.441 1.384 1.384 0 0 1 0-2.769 1.3 1.3 0 0 1 1.052.468v-.441zm-.503 1.357a.99.99 0 0 0-.984-.894.99.99 0 0 0-.985.894.99.99 0 0 0 .985.895.99.99 0 0 0 .984-.895m1.493-2.507h.504v4h-.522zm4.099 2.75h-2.337a.964.964 0 0 0 1.034.836 1.04 1.04 0 0 0 .818-.341l.287.332a1.55 1.55 0 0 1-1.682.404 1.55 1.55 0 0 1-1.014-1.401 1.4 1.4 0 0 1 .4-1.037 1.4 1.4 0 0 1 1.029-.42 1.4 1.4 0 0 1 1.036.424 1.37 1.37 0 0 1 .384 1.051q.03.074.045.152m-2.31-.368h1.798a.9.9 0 0 0-.899-.818.896.896 0 0 0-.926.818zm-60.106.054v.844h2.077a1.65 1.65 0 0 1-1.735 1.187 1.915 1.915 0 0 1-1.996-1.96 1.98 1.98 0 0 1 .899-1.626 1.904 1.904 0 0 1 2.472.269.44.44 0 0 0 .697-.016.42.42 0 0 0-.023-.523 2.7 2.7 0 0 0-2.049-.899 2.82 2.82 0 0 0-2.091.764 2.81 2.81 0 0 0-.652 3.158 2.81 2.81 0 0 0 2.743 1.696 2.46 2.46 0 0 0 2.642-2.445v-.431z"/><path fill="#500061" d="M276.584 62.698c4.807-1.976 7.101-7.476 5.125-12.282a9.412 9.412 0 1 0-5.125 12.282"/><path fill="#fff" d="m276.808 51.589-1.392-1.392-6.222 6.222 1.392 1.392z"/><path fill="#fff" d="m270.589 50.185-1.392 1.392 6.223 6.223 1.391-1.392zM66.585 302.474l-5.833-.701a22.398 22.398 0 1 1 5.77-5.581z"/><path fill="#263238" d="M66.586 302.474v-1.644c0-1.07-.054-2.634-.09-4.647l.135.062a.08.08 0 0 1-.058.025.08.08 0 0 1-.058-.025.08.08 0 0 1 0-.098 22.3 22.3 0 0 0 3.927-9.969 22.6 22.6 0 0 0-.189-7.055 22.4 22.4 0 0 0-2.885-7.479 22.8 22.8 0 0 0-6.04-6.463 21.7 21.7 0 0 0-8.773-3.784 22.7 22.7 0 0 0-10.138.432 21.8 21.8 0 0 0-9.24 5.258 22.6 22.6 0 0 0-3.497 4.216c-.45.782-.899 1.555-1.294 2.364l-.53 1.231-.261.611-.198.638a22.6 22.6 0 0 0-.899 10.211 21.6 21.6 0 0 0 3.452 8.989 22.8 22.8 0 0 0 6.292 6.292 22.3 22.3 0 0 0 7.36 3.217l1.853.324c.61.09 1.213.108 1.797.162 1.142.074 2.287.053 3.425-.063a22.4 22.4 0 0 0 10.067-3.596h.054l4.296.567 1.133.153.395.062h-.368l-1.115-.116-4.36-.486h.055a22.25 22.25 0 0 1-10.13 3.694 21 21 0 0 1-3.47.09c-.593-.054-1.213-.063-1.797-.152l-1.942-.369a22.3 22.3 0 0 1-7.532-3.191 23.1 23.1 0 0 1-6.4-6.4 22.1 22.1 0 0 1-3.532-9.15 23 23 0 0 1 .899-10.39l.197-.648.27-.629.53-1.249c.396-.827.9-1.618 1.33-2.409a22.8 22.8 0 0 1 3.56-4.27 22.1 22.1 0 0 1 9.41-5.393 23.2 23.2 0 0 1 10.364-.395 22.1 22.1 0 0 1 8.908 3.874 23.1 23.1 0 0 1 6.112 6.579 22.5 22.5 0 0 1 2.894 7.596c.429 2.374.48 4.8.153 7.19a22.35 22.35 0 0 1-4.054 10.031l-.117-.116a.08.08 0 0 1 .059-.025q.016 0 .031.006.016.007.027.019a.1.1 0 0 1 0 .054v5.896c0 .297-.018.368-.018.368"/><path fill="#500061" d="m38.46 284.525 2.805-3.003 5.762 4.782 10.624-10.939 2.795 2.814-13.644 13.743z"/><path fill="#263238" d="M102.36 233.884a5.99 5.99 0 0 1 3.721-3.82c.719-.243 1.546-.405 1.951-1.034a4.7 4.7 0 0 0 .413-1.546 3.05 3.05 0 0 1 2.678-2.174c.407-.033.817.015 1.205.143.354.196.741.327 1.141.386 1.645 0 1.888-3.11 3.533-3.047a3.4 3.4 0 0 0-.899 1.861 1.56 1.56 0 0 0 1.007 1.644c1.744.477 2.579-2.903 4.368-2.696.971.117 1.681 1.321 2.634 1.105.355-.128.684-.32.97-.566a2.51 2.51 0 0 1 3.335.764c.566.899.656 2.346 1.699 2.634a2.35 2.35 0 0 0 1.852-.593c.424.898.636 1.882.62 2.876a3.92 3.92 0 0 1 3.496 4.162 8.2 8.2 0 0 1 3.047 1.087 2.91 2.91 0 0 1 1.375 2.76 2.5 2.5 0 0 0-.107.728c.051.263.172.508.35.71a13.5 13.5 0 0 1 1.879 2.436c.422.943.233 2.292-.728 2.696-.225.09-.495.135-.621.342a.72.72 0 0 0 0 .53c.264.693.638 1.34 1.106 1.915.466.583.694 1.322.638 2.067-.126.737-.899 1.366-1.609 1.043.764.898 1.537 1.797 2.301 2.696.459.539.899 1.214.719 1.888-.296.898-1.582.898-2.364.44s-1.33-1.294-2.13-1.798a5.5 5.5 0 0 1-.971-.566c-.224-.207-.404-.485-.692-.548-.584-.144-.898.746-.62 1.258a3.2 3.2 0 0 0 1.483.953c.549.261 1.106.719 1.061 1.312 0 .288-.189.549-.207.836-.054 1.007 1.465 1.205 2.04 2.023a2.43 2.43 0 0 1 0 2.139c-.287.845-1.177 1.851-1.887 1.303-.252-.189-.36-.521-.584-.737a2.2 2.2 0 0 0-.998-.422 4.75 4.75 0 0 1-2.256-1.465c1.096.512 2.355 1.276 2.346 2.48a5 5 0 0 1-.396 1.456c-.305.899-.278 1.96-.575 2.913a2.32 2.32 0 0 1-2.067 1.797 2.225 2.225 0 0 1 .219 2.733 2.22 2.22 0 0 1-2.601.863 2 2 0 0 0-.782-.216c-.291.059-.559.2-.773.405a4.81 4.81 0 0 1-5.007.359l.657-.665a11.3 11.3 0 0 1-5.133.899c-1.735-.252-3.442-1.618-3.46-3.371 0-.755.242-1.663-.324-2.175a1.89 1.89 0 0 0-1.501-.252l-6.535.764a5.8 5.8 0 0 1-3.136-.215 2.02 2.02 0 0 1-1.091-1.081 2 2 0 0 1-.006-1.535 5.7 5.7 0 0 0-2.957-1.142c-1.196-.108-2.4.171-3.596.126a3.27 3.27 0 0 1-2.975-1.663c-.458-1.114.62-2.696 1.744-2.256-.944-1.546-3.883-.233-4.917-1.726-.844-1.213.495-2.696.9-4.134-.396-.369-1.007-.441-1.42-.791-.855-.755-.334-2.175.368-3.065.7-.89 1.618-1.888 1.357-2.993-.26-1.106-1.708-1.861-1.6-3.02a1.275 1.275 0 0 1 1.33-1.124c-.17-2.238 4.045-2.553 4.225-4.782a.77.77 0 0 0-.171-.485.9.9 0 0 0-.36-.279 9 9 0 0 0-2.13-.431c-.719-.153-1.474-.612-1.546-1.331s1.106-1.276 1.411-.611a1.6 1.6 0 0 1 2.472-.521 1.735 1.735 0 0 1 1.861-1.133 5.1 5.1 0 0 1 2.166.899"/><path fill="#500061" d="M121.332 250.225c-1.95-2.355-5.024-3.497-8.035-4.018a7.8 7.8 0 0 0-3.811.054 3.3 3.3 0 0 0-2.355 2.75l1.141 1.798c1.322 3.137 4.971 4.494 7.542 6.714 1.114.971 2.274 2.238 3.757 2.14a3.2 3.2 0 0 0 2.013-1.07c2.103-2.193 1.699-6.004-.252-8.368"/><path fill="#263238" d="M128.84 264.049a6.84 6.84 0 0 0-4.674-7.425c.36-1.977-1.186-3.892-3.038-4.665s-3.937-.656-5.941-.539a9.204 9.204 0 0 0-12.638-.845c-3.757-1.959-8.494-.045-11.514 2.921-.68.782-1.47 1.461-2.346 2.014q-1.04.464-2.13.791c-3.91 1.465-6.148 5.977-5.753 10.13a7.4 7.4 0 0 1 .081 1.995 10.3 10.3 0 0 1-1.034 2.409 6.64 6.64 0 0 0 .081 5.501c.701 1.447 1.96 2.697 2.059 4.306.045.808-.216 1.617-.09 2.417.368 2.301 3.595 3.128 4.278 5.393.144.459.162.899.26 1.403.219.961.778 1.81 1.574 2.391.602.449 1.366.746 1.797 1.384.234.519.4 1.066.495 1.627.395 1.339 5.492 4.593 6.885 4.683l31.27-16.431a6.6 6.6 0 0 0 1.798-7.425 2.5 2.5 0 0 1-.323-1.294c.111-.374.301-.72.557-1.016 1.42-2.148.189-5.024-1.241-7.19a3.2 3.2 0 0 1-.494-.953 4 4 0 0 1 .081-1.582"/><path fill="#ae7461" d="M119.948 268.885a18.88 18.88 0 0 0-16.637-9.789 23.2 23.2 0 0 0-8.988 2.355 14.3 14.3 0 0 0-6.508 5.474c-1.501 1.33-4.7 10.454-1.672 16.88 3.37 7.128 7.793 15.703 11.388 20.422 7.335 9.438 15.991 6.391 15.991 6.391l3.856 7.982 10.786 9.15 9.626-15.694 2.095-3.389z"/><path fill="#6f4439" d="M111.366 294.484a2.37 2.37 0 0 0-4 .152c-.521.899-.18 1.888.458 2.85.738.395 1.349.836 2.122.539l.359-.153a2.6 2.6 0 0 0 1.268-1.384 2.31 2.31 0 0 0-.207-2.004"/><path fill="#263238" d="M94 290.888a1.515 1.515 0 0 0 2.022.629 1.45 1.45 0 0 0 .85-1.393 1.5 1.5 0 0 0-.14-.557 1.515 1.515 0 0 0-2.022-.629 1.45 1.45 0 0 0-.85 1.394c.01.193.057.382.14.556m-3.282-4.422c.261.081.9-1.213 2.283-1.995 1.385-.782 2.868-.648 2.922-.899 0-.117-.306-.342-.944-.423a4.15 4.15 0 0 0-2.454.513 4 4 0 0 0-1.708 1.797c-.251.576-.224.971-.099 1.007m14.563 6.669c-.884.174-1.742.461-2.553.854-.386.171-.773.288-.971.072a2.2 2.2 0 0 1-.35-1.213c-.144-1.07-.288-2.193-.45-3.371-.683-4.782-1.384-8.62-1.582-8.593-.197.027.207 3.919.899 8.701.171 1.168.342 2.292.504 3.362a2.35 2.35 0 0 0 .602 1.528 1.03 1.03 0 0 0 .899.206q.347-.092.665-.26a11 11 0 0 0 2.337-1.286"/><path fill="#6f4439" d="M113.55 310.591a30.15 30.15 0 0 0 11.846-11.352s.324 9.321-10.561 14.057z"/><path fill="#263238" d="M88.787 283.464c.431.216 1.402-.62 2.696-1.214 1.295-.593 2.58-.845 2.697-1.312 0-.225-.288-.485-.899-.593a4.4 4.4 0 0 0-2.472.404c-.78.347-1.44.916-1.896 1.636-.315.549-.324.971-.126 1.079m21.059-.719a1.51 1.51 0 0 1-.62 2.022 1.445 1.445 0 0 1-2.005-.512 1.52 1.52 0 0 1 .611-2.023 1.45 1.45 0 0 1 2.014.513m.711-6.481c-.081.261-1.492 0-2.939.755s-2.157 2.005-2.409 1.906c-.117-.045-.099-.45.189-1.016a4.1 4.1 0 0 1 1.798-1.744 3.97 3.97 0 0 1 2.453-.377c.639.117.944.359.908.476m-3.03-5.627c-.117.477-1.411.692-2.769 1.358-1.357.665-2.381 1.474-2.822 1.267-.198-.108-.189-.53.153-1.097a4.7 4.7 0 0 1 1.977-1.671 4.55 4.55 0 0 1 2.535-.441c.647.099.98.36.926.584"/><path fill="#ae7461" d="M123.689 279.599c-.422-.773-.539-3.074.162-3.596 1.852-1.438 5.609-3.289 8.485 1.852 3.928 7.02-3.937 9.519-4.063 9.33s-3.128-4.926-4.584-7.586"/><path fill="#6f4439" d="M128.777 283.554h.431c.351-.047.672-.223.899-.495.585-.683.549-2.211-.126-3.496a4.5 4.5 0 0 0-1.321-1.564 1.6 1.6 0 0 0-1.447-.423.71.71 0 0 0-.53.737c0 .252.135.369.108.396s-.216 0-.324-.351a.9.9 0 0 1 0-.602c.12-.251.328-.449.584-.557a1.99 1.99 0 0 1 1.888.377 4.85 4.85 0 0 1 1.519 1.726c.746 1.438.764 3.164-.09 4.027a1.5 1.5 0 0 1-1.222.44c-.261-.089-.387-.215-.369-.215"/><path fill="#263238" d="M84.644 284.758a4.69 4.69 0 0 0 .171-5.015c1.097-.234 1.384-1.978 1.492-3.101.108-1.124.548-1.906 0-2.868a1.2 1.2 0 0 1-.243-.611c0-.35.279-.62.522-.899a5.39 5.39 0 0 0 1.303-4.997 11.5 11.5 0 0 0 5.276-1.861 4.367 4.367 0 0 0 5.717-1.743 4.36 4.36 0 0 0 .575-2.095 3.92 3.92 0 0 0 3.218.431 11.5 11.5 0 0 0 3.011-1.456 4.624 4.624 0 0 0 5.186 3.119 1.12 1.12 0 0 1 .899 0c.252.18.279.54.324.845a3.58 3.58 0 0 0 1.557 2.382 3.6 3.6 0 0 0 2.802.504 2.7 2.7 0 0 0 1.117 3.204c.348.216.741.35 1.148.391.342 0 .773 0 .899.332a.8.8 0 0 1 0 .387 5.33 5.33 0 0 0 .171 2.939 1.95 1.95 0 0 0 2.436 1.124 2.56 2.56 0 0 0-.045 2.031 1.13 1.13 0 0 0 1.743.369c.189-.225 3.317-2.85 3.362-3.146.503-3.802-3.649-5.393-5.699-8.665a25 25 0 0 0-8.287-7.856 18.6 18.6 0 0 0-4.377-2.022 24.6 24.6 0 0 0-5.447-.72 21.9 21.9 0 0 0-7.146.414c-4.296 1.195-7.496 4.755-10.139 8.35a18.8 18.8 0 0 0-2.588 4.36 17.1 17.1 0 0 0-.9 5.995 21.45 21.45 0 0 0 1.349 8.674"/><path fill="#455a64" d="M81.902 283.059a3.1 3.1 0 0 1 0-.97c0-.315.08-.701.09-1.169a3.6 3.6 0 0 0-.324-1.528 12 12 0 0 0-.989-1.735 8.7 8.7 0 0 1-1.096-2.121 6.82 6.82 0 0 1 0-4.215q.274-.747.665-1.439c.266-.47.454-.98.557-1.51a6.4 6.4 0 0 0-.054-1.699c-.288-2.56.35-5.14 1.798-7.271a9.3 9.3 0 0 1 1.348-1.573 8.6 8.6 0 0 1 1.744-1.223q.482-.252.989-.449c.341-.126.692-.225 1.033-.342a5.2 5.2 0 0 0 1.888-1.033c.566-.468 1.06-1.043 1.618-1.555a15 15 0 0 1 1.797-1.456q.982-.66 2.059-1.151c.734-.325 1.5-.578 2.283-.755a7.9 7.9 0 0 1 4.836.396l.458.206h-.135a9 9 0 0 1 6.75-2.103 8.9 8.9 0 0 1 6.05 2.966l-.09-.045a25 25 0 0 1 3.191-.045 8.6 8.6 0 0 1 3.011.692 5.6 5.6 0 0 1 2.22 1.96c.557.801.783 1.787.629 2.75l-.072-.116a6.68 6.68 0 0 1 3.595 2.741 6.8 6.8 0 0 1 1.187 3.91 7 7 0 0 1-.081.953 8 8 0 0 0-.144.899 1.7 1.7 0 0 0 .126.827q.177.379.422.719a13.3 13.3 0 0 1 1.394 2.696c.293.772.436 1.593.422 2.418a4 4 0 0 1-.467 1.753c-.234.44-.504.71-.611.899a1.5 1.5 0 0 0-.144.359.9.9 0 0 1 .117-.368c.098-.243.359-.522.584-.953.273-.535.42-1.125.431-1.726a6.3 6.3 0 0 0-.44-2.373 13.2 13.2 0 0 0-1.402-2.696 6 6 0 0 1-.441-.737 1.9 1.9 0 0 1-.144-.899c0-.315.09-.612.135-.899q.072-.447.081-.899a6.7 6.7 0 0 0-1.177-3.802 6.5 6.5 0 0 0-3.515-2.643h-.09v-.09a3.6 3.6 0 0 0-.611-2.606 5.4 5.4 0 0 0-2.166-1.852 8.4 8.4 0 0 0-2.939-.665 23.5 23.5 0 0 0-3.164.054h-.054v-.045a9.107 9.107 0 0 0-12.467-.827l-.063.054h-.081l-.431-.198a7.7 7.7 0 0 0-4.692-.386 13 13 0 0 0-2.238.737 15 15 0 0 0-2.023 1.132q-.956.643-1.797 1.43c-.549.503-1.052 1.078-1.627 1.564q-.42.36-.9.638a6.4 6.4 0 0 1-1.033.431c-.35.117-.692.216-1.024.342a8 8 0 0 0-2.66 1.618 9.2 9.2 0 0 0-1.331 1.528 10.5 10.5 0 0 0-1.555 3.532 10.3 10.3 0 0 0-.225 3.595 6.7 6.7 0 0 1 0 1.744 5.3 5.3 0 0 1-.584 1.564 9 9 0 0 0-.665 1.411 6.4 6.4 0 0 0-.315 1.439 6.6 6.6 0 0 0 .26 2.696 8.5 8.5 0 0 0 1.07 2.103q.559.837.971 1.753c.216.499.323 1.038.315 1.582 0 .467-.081.854-.108 1.169q-.03.354 0 .71c.036.108.054.188.045.197"/><path fill="#455a64" d="M98.378 250.836a6 6 0 0 1-.674 0 5.2 5.2 0 0 0-1.798.395 4.95 4.95 0 0 0-2.139 1.609 5.25 5.25 0 0 0-1.06 3.065q-.016.5.08.989a1.01 1.01 0 0 0 .459.719l.305.144-.323.081a3.33 3.33 0 0 0-2.05 1.447 3.2 3.2 0 0 0-.476 1.968c.033.457.155.903.36 1.313.143.287.251.431.233.44l-.09-.09a2 2 0 0 1-.215-.314 3.2 3.2 0 0 1-.44-1.34 3.33 3.33 0 0 1 .458-2.085 3.53 3.53 0 0 1 2.166-1.573v.225a1.24 1.24 0 0 1-.593-.899q-.106-.516-.09-1.043a5.4 5.4 0 0 1 1.132-3.208 5.1 5.1 0 0 1 2.247-1.627 4.9 4.9 0 0 1 1.843-.333q.258.001.512.045c.1.054.153.063.153.072m15.901 1.834a1.3 1.3 0 0 1-.108.386q-.202.522-.494.998a4 4 0 0 1-1.177 1.195 2.9 2.9 0 0 1-2.05.423l.144-.108c0 .135 0 .27-.045.404-.045.135-.063.27-.09.414a4.8 4.8 0 0 1-1.168 2.058 4.9 4.9 0 0 1-1.564 1.133 4.4 4.4 0 0 1-1.25.359 1.3 1.3 0 0 1-.476 0 6.4 6.4 0 0 0 1.654-.512 5 5 0 0 0 1.474-1.133 4.85 4.85 0 0 0 1.097-1.968c0-.135.062-.261.08-.387.018-.125 0-.26 0-.386v-.135h.126a2.7 2.7 0 0 0 1.888-.377 3.9 3.9 0 0 0 1.159-1.097c.585-.737.755-1.285.8-1.267m7.315 4.512.054.135q.033.215 0 .431a2.13 2.13 0 0 1-.719 1.375 4.1 4.1 0 0 1-2.139.899c-.431.063-.899.144-1.357.171a2.2 2.2 0 0 1-1.465-.36l-.099-.09h.189a9.3 9.3 0 0 1-1.403 2.4 4.16 4.16 0 0 1-1.869 1.295 3 3 0 0 1-1.528.107 2.3 2.3 0 0 1-.405-.116c-.081 0-.125-.063-.125-.072s.197.054.539.099c.493.057.992-.005 1.456-.18a4.07 4.07 0 0 0 1.798-1.277 9.2 9.2 0 0 0 1.348-2.354l.072-.153.126.117.09.071c.386.25.846.358 1.303.306q.67-.04 1.33-.153a4.04 4.04 0 0 0 2.058-.791 2.2 2.2 0 0 0 .746-1.258 3.6 3.6 0 0 0 0-.602m-6.246-29.356s-.117.071-.296.242a1.8 1.8 0 0 0-.513.899 2.5 2.5 0 0 0 .207 1.645 7.5 7.5 0 0 0 1.321 1.798l.09.099-.126.062a4.58 4.58 0 0 0-2.031 2.086 3.52 3.52 0 0 0 0 3.2 3.28 3.28 0 0 0 2.31 1.797l.342.063-.306.162a4.16 4.16 0 0 0-2.031 2.643 3.97 3.97 0 0 0 .287 2.696 4.4 4.4 0 0 0 1.088 1.429c.323.27.53.387.521.405l-.153-.072a4 4 0 0 1-.413-.27 4.15 4.15 0 0 1-1.519-4.206 4.3 4.3 0 0 1 2.112-2.796v.216a3.49 3.49 0 0 1-2.49-1.906 3.6 3.6 0 0 1-.413-1.752 4 4 0 0 1 .404-1.672 4.77 4.77 0 0 1 2.149-2.166v.161a7.2 7.2 0 0 1-1.322-1.851 2.6 2.6 0 0 1-.171-1.735 1.85 1.85 0 0 1 .585-.953q.115-.098.251-.162zm20.979 8.395s0 .054-.072.135a5.7 5.7 0 0 1-1.51 1.456c-.716.47-1.52.791-2.364.944a6 6 0 0 1-3.235-.252l.152-.099a5.15 5.15 0 0 1-1.986 3.919 3.88 3.88 0 0 1-4.494.054l.18-.108a3.2 3.2 0 0 1-.198 1.663 4.3 4.3 0 0 1-.791 1.294 6 6 0 0 1-2.032 1.402 10 10 0 0 1-1.51.531 2 2 0 0 1-.557.135q.263-.117.539-.198c.342-.126.854-.306 1.475-.593a6.1 6.1 0 0 0 1.941-1.403 3.49 3.49 0 0 0 .899-2.795l-.045-.279.225.171a3.65 3.65 0 0 0 2.141.648 3.65 3.65 0 0 0 2.119-.72 4.93 4.93 0 0 0 1.906-3.73v-.162l.143.063a5.93 5.93 0 0 0 3.119.27 6.4 6.4 0 0 0 2.328-.899 7.3 7.3 0 0 0 1.627-1.447m-1.745 14.39v.171a.9.9 0 0 1-.306.396 3.6 3.6 0 0 1-1.699.593 4.37 4.37 0 0 1-2.624-.513 4.5 4.5 0 0 1-2.059-2.525h.216a5.15 5.15 0 0 1-2.615 1.941 5.8 5.8 0 0 1-2.697.252 6.3 6.3 0 0 1-1.726-.477 2 2 0 0 1-.575-.314 9.3 9.3 0 0 0 2.328.62 5.8 5.8 0 0 0 2.553-.297 5.03 5.03 0 0 0 2.49-1.86l.134-.198.081.234a4.246 4.246 0 0 0 4.432 2.939 3.9 3.9 0 0 0 1.662-.494.9.9 0 0 0 .405-.468m-34.523-14.076c.148.832.453 1.628.898 2.346a5.74 5.74 0 0 0 1.924 1.87 5.6 5.6 0 0 0 3.173.701 5.3 5.3 0 0 0 1.842-.467l.135-.063v.143c.173.865.509 1.688.989 2.427a7.4 7.4 0 0 0 1.384 1.573q.299.256.629.468a.6.6 0 0 0 .531.081.4.4 0 0 0 .242-.243v-.117.126a.42.42 0 0 1-.242.314.7.7 0 0 1-.62-.053 5 5 0 0 1-.675-.459 7 7 0 0 1-1.456-1.582 6.9 6.9 0 0 1-1.051-2.481l.161.081a5.6 5.6 0 0 1-1.923.495 5.52 5.52 0 0 1-5.258-2.697 5.6 5.6 0 0 1-.665-1.744c0-.224-.054-.386-.063-.503q0-.112.045-.216"/><path fill="#263238" d="M110.279 292.542c-.234.063.225 1.537-.71 2.984s-2.571 1.798-2.517 1.987.441.18 1.106 0a3.87 3.87 0 0 0 2.13-1.573 3.38 3.38 0 0 0 .503-2.472c-.135-.683-.413-.998-.512-.926"/><path fill="#500061" d="M117.227 317.961s6.372 41.994 13.994 49.302c8.198 7.865 22.93 11.739 22.93 11.739s19.603 7.757 26.417 6.067l12.314-42.246a3.44 3.44 0 0 0-3.344-2.534c-1.222-.045-4.737 1.6-6.337 1.213-6.382-1.537-21.338-24.421-21.338-24.421s-14.211-19.595-26.327-17.825c-8.305 1.214-11.748 4.908-14.876 13.285a15.4 15.4 0 0 1-3.433 5.393z"/><path fill="#500061" d="m117.226 317.961-5.528 27.981-25.545-7.262-4.404 14.92 43.216 19.514 8.503-35.378z"/><path fill="#263238" d="M175.011 367.317c-.117-.045 1.798-5.285 4.198-11.685 2.399-6.4 4.494-11.577 4.637-11.532.144.045-1.797 5.285-4.197 11.685-2.4 6.399-4.521 11.577-4.638 11.532m-.475-5.87a116 116 0 0 1 5.141-13.95 61 61 0 0 1-2.354 7.056 61 61 0 0 1-2.787 6.894m-57.974-35.396c.245 2.176.371 4.363.378 6.553.072 1.797.143 3.433.215 4.62.087.634.112 1.275.072 1.914a6.5 6.5 0 0 1-.395-1.887c-.162-1.178-.288-2.823-.36-4.629a78 78 0 0 1-.054-4.647 8 8 0 0 1 .144-1.924"/><g opacity=".3"><path fill="#000" d="m102.496 362.963 9.519-4.135 5.213-18.462-3.541 22.741-7.02 1.744z"/></g><g opacity=".3"><path fill="#000" d="M181.951 347.704a1.63 1.63 0 0 0-1.95.44 5.9 5.9 0 0 0-1.106 1.987q-2.813 7.128-5.644 14.318a4.7 4.7 0 0 0-.468 2.14c.081.737.656 1.465 1.321 1.366.666-.099.989-.782 1.268-1.393a149 149 0 0 0 6.84-18.678"/></g><path fill="#ae7461" d="M46.587 342.428s3.442-4.602 5.465-5.582c1.609-.782 11.181-2.472 12.35-2.247 1.168.225 21.752 4.737 21.752 4.737l-2.697 8.988-1.321-.611s-4.153 2.085-7.326 1.088a34.6 34.6 0 0 1-7.19-3.793l-2.832 1.06s3.11.98 3.344 2.265-1.537 1.43-1.537 1.43l-.126.566a1.87 1.87 0 0 1-2.193 1.42c-1.798-.36-4.494-.989-5.051-1.636-.243-.27-1.492-2.571-1.492-2.571-1.933-1.357-1.897-2.696-1.798-3.523.215-1.654 1.968-3.497 1.968-3.497l-3.478-.188s-5.591 5.734-7.838 2.094"/><path fill="#ae7461" d="M75.511 340.918c-4.18 0-8.152-.557-11.262.216a4.6 4.6 0 0 0-2.238 1.105 2 2 0 0 0-.44 2.319 2.24 2.24 0 0 0 1.851.953c.72 0 1.438-.108 2.166-.126a10.3 10.3 0 0 1 4.944 1.492c1.492.9 3.097 1.598 4.773 2.076 1.698.369 5.698.045 6.867-1.24"/><path fill="#6f4439" d="M82.172 347.713s-.072.117-.26.297a3.7 3.7 0 0 1-.99.557c-1.302.47-2.678.704-4.062.692a7.8 7.8 0 0 1-2.84-.476 23 23 0 0 1-2.976-1.393 18 18 0 0 0-3.236-1.439 7.2 7.2 0 0 0-1.797-.332q-.97 0-1.933.117a3.43 3.43 0 0 1-2.031-.387 1.8 1.8 0 0 1-.9-1.842 2.6 2.6 0 0 1 .99-1.69 4.8 4.8 0 0 1 1.663-.782 20 20 0 0 1 6.103-.45l4.098.216q.76.003 1.51.117a1.4 1.4 0 0 1-.395.045H74c-.97 0-2.373 0-4.107-.081a21.2 21.2 0 0 0-5.978.539 4.6 4.6 0 0 0-1.5.719 2.12 2.12 0 0 0-.81 1.402 1.34 1.34 0 0 0 .675 1.376c.55.294 1.179.407 1.797.323a18 18 0 0 1 1.978-.117 8 8 0 0 1 1.923.36c1.149.391 2.257.894 3.308 1.501 1.995 1.106 3.874 1.987 5.608 1.915a12.6 12.6 0 0 0 4-.531c.459-.148.89-.369 1.277-.656m-20.025-7.766c0 .054-.396.252-1.097.378q-1.338.23-2.697.251a13.4 13.4 0 0 1-3.873-.242 20.4 20.4 0 0 1 3.864-.225c1.061 0 2.023-.063 2.697-.108a4.6 4.6 0 0 1 1.106-.054m4.593 9.825a11.8 11.8 0 0 1-9.195-2.4 38 38 0 0 0 4.494 1.725q2.331.474 4.701.675"/><path fill="#6f4439" d="M60.994 345.08a3.77 3.77 0 0 1 2.059.17 3.87 3.87 0 0 1 1.905.818 5.8 5.8 0 0 1-2.013-.368 6 6 0 0 1-1.95-.62"/><path fill="#263238" d="M18.713 352.135 41.39 341.08a1.12 1.12 0 0 1 1.15.09l24.934 15.846a1.22 1.22 0 0 1 .52.847 1.22 1.22 0 0 1-.287.951l-13.176 17.563z"/><path fill="#fff" d="m21.545 352.944 30.524 20.099 13.86-15.461-24.025-14.92z"/><path fill="#e0e0e0" d="m33.41 346.958 26.2 17.68-7.54 8.404-30.525-20.098zm13.393.521-4.009 3.254a.6.6 0 0 1-.219.123q-.121.04-.25.026a.62.62 0 0 1-.43-.239.62.62 0 0 1 .09-.899l4.01-3.253a.62.62 0 0 1 .709-.074.6.6 0 0 1 .189.164.63.63 0 0 1-.09.898m1.805 1.475-4 3.253a.62.62 0 0 1-.899-.089.625.625 0 0 1-.074-.709.6.6 0 0 1 .164-.19l4.009-3.254a.61.61 0 0 1 .899.09.615.615 0 0 1 .067.71.6.6 0 0 1-.166.189m1.943 1.725-4.009 3.254a.6.6 0 0 1-.711.08.6.6 0 0 1-.188-.17.6.6 0 0 1-.08-.711.6.6 0 0 1 .17-.188l4-3.262a.62.62 0 0 1 .709-.075.6.6 0 0 1 .19.164.63.63 0 0 1 .158.472.62.62 0 0 1-.239.436m.799 2.346-2.273 1.852a.6.6 0 0 1-.22.12q-.122.038-.249.025a.62.62 0 0 1-.43-.235.62.62 0 0 1 .09-.899l2.274-1.851a.62.62 0 0 1 .468-.146.64.64 0 0 1 .43.236.6.6 0 0 1 .15.468.62.62 0 0 1-.24.43"/><path fill="#500061" d="m43.432 346.931-2.643 1.852a.61.61 0 0 1-.899-.153.62.62 0 0 1-.014-.682.6.6 0 0 1 .167-.172l2.66-1.861a.63.63 0 0 1 .719-.024.622.622 0 0 1 .01 1.04m13.653 8.863-2.283 2.283a.614.614 0 0 1-.899 0 .61.61 0 0 1 0-.899l2.283-2.256a.615.615 0 0 1 .695-.146.6.6 0 0 1 .204.146.62.62 0 0 1 .183.436.6.6 0 0 1-.183.436"/><path fill="#263238" d="M54.532 376.377a2.01 2.01 0 0 1-2.04.896 2 2 0 0 1-.728-.285l-33.329-21.329a2.01 2.01 0 0 1-.611-2.769 2.007 2.007 0 0 1 2.768-.602l33.33 21.321a2 2 0 0 1 .878 1.257 2 2 0 0 1-.268 1.511"/><path fill="#455a64" d="m310.556 311.004.971-23.747s24.314-5.267 24.916-9.636l-45.841-5.267-3.029 36.951z"/><g opacity=".6"><path fill="#fff" d="M297.146 288.154a1.886 1.886 0 0 1-1.133-2.247 1.8 1.8 0 0 1 2.211-1.142 2 2 0 0 1 1.196 2.382 1.89 1.89 0 0 1-2.436.899"/></g><path fill="#263238" d="m290.612 272.354-.305 3.73 44.429 3.533a3.19 3.19 0 0 0 1.969-2.31zm21.635 15.191c0-.225-1.106-.414-2.148-1.214s-1.573-1.798-1.798-1.726 0 1.393 1.303 2.346c1.304.953 2.679.809 2.643.594m4.98-1.618c.063-.216-.899-.674-1.564-1.681s-.836-2.031-1.061-2.04-.467 1.249.423 2.489c.889 1.241 2.175 1.439 2.202 1.232m3.217-5.564c-.198-.063-.602 1.034-.117 2.31.486 1.276 1.492 1.843 1.6 1.663s-.485-.899-.899-1.942c-.413-1.042-.395-1.995-.584-2.031m-8.989 12.575c-.081-.216-1.133 0-2.4-.171s-2.22-.656-2.346-.477.755 1.061 2.247 1.259 2.571-.432 2.499-.611"/><g opacity=".3"><path fill="#000" d="m310.557 311.007.971-23.748s24.314-5.267 24.916-9.635l-45.841-5.267-3.029 36.951z"/></g><path fill="#263238" d="M314.403 293.585c-.368.746-3.128 69.696-3.128 69.696l-23.738-9.366a37.25 37.25 0 0 1-3.461-18.57c.738-10.732 7.029-43.666 7.029-43.666z"/><path fill="#455a64" d="m308.066 312.514-11.469-20.817s18.057-17.078 16.314-21.15l-41.904 19.245 16.556 33.167z"/><g opacity=".6"><path fill="#fff" d="M284.769 299.913a1.87 1.87 0 0 1-2.13-1.331 1.797 1.797 0 0 1 1.294-2.121 1.99 1.99 0 0 1 2.257 1.42 1.88 1.88 0 0 1-1.6 2.059"/></g><path fill="#263238" d="m271.007 289.792 1.672 3.343 39.827-19.999a3.18 3.18 0 0 0 .494-2.993zm26.364 1.78c-.108-.198-1.16.215-2.481.071-1.321-.143-2.265-.728-2.409-.548s.737 1.178 2.337 1.33 2.688-.692 2.553-.853m3.415-3.965c-.054-.224-1.097-.125-2.211-.629-1.115-.503-1.798-1.303-1.96-1.195s.252 1.312 1.645 1.914c1.393.603 2.616.099 2.526-.09m-.115-6.408c-.207.045 0 1.195 1.097 2.031s2.229.809 2.229.593c0-.215-.899-.503-1.744-1.204s-1.42-1.501-1.582-1.42m-1.215 15.406c-.18-.144-.962.602-2.13 1.097-1.169.494-2.247.593-2.265.818s1.195.512 2.57-.099c1.376-.612 2.005-1.708 1.825-1.816"/><g opacity=".3"><path fill="#000" d="m305.794 308.396-2.04-3.712-20.134 10.409 1.69 3.415z"/></g><path fill="#263238" d="m192.881 342.823 6.643-2.112s12.206-9.806 25.904-8.512a67.8 67.8 0 0 1 24.79 7.739l14.247 7.802 36.627 9.807-21.095-49.724 20.826-8.638s20.817 33.527 27.109 42.964c6.291 9.438 11.073 18.966 11.819 26.741s-5.105 18.651-21.203 20.503c-16.098 1.851-84.994-2.751-84.994-2.751l-53.032-1.528z"/><path fill="#455a64" d="M192.88 342.823s-.063.252-.197.728c-.135.477-.333 1.205-.603 2.14-.539 1.887-1.339 4.665-2.382 8.278a19871 19871 0 0 0-8.988 31.136l-.126-.171 37.958 1.088c14.292.162 30.066 1.474 47.072 2.256 8.503.413 17.312.809 26.381 1.078 4.494.117 9.15.225 13.815.234 2.328 0 4.683 0 7.038-.09a36 36 0 0 0 3.541-.179 31 31 0 0 0 3.542-.378 26.15 26.15 0 0 0 13.096-5.573 17.73 17.73 0 0 0 6.534-12.629q.054-.92 0-1.842c-.081-.62-.134-1.241-.251-1.852a30 30 0 0 0-.836-3.64 51 51 0 0 0-2.697-7.074 101.6 101.6 0 0 0-7.532-13.348c-4.899-7.415-9.546-14.858-14.139-22.156l-13.482-21.572.287.089-20.835 8.629.126-.296 21.069 49.787.162.368-.396-.099-36.618-9.824-10.984-6.031c-1.798-.953-3.461-1.951-5.177-2.805a70 70 0 0 0-5.151-2.301 61.6 61.6 0 0 0-19.316-4.494 31.2 31.2 0 0 0-8.233.899 42 42 0 0 0-6.768 2.31 46 46 0 0 0-9.195 5.33l-5.016 1.564-1.645.494 1.609-.539 5.016-1.627a46 46 0 0 1 9.195-5.393 43 43 0 0 1 6.786-2.355 32 32 0 0 1 8.296-.899 61.8 61.8 0 0 1 19.415 4.494 78 78 0 0 1 5.177 2.293c1.735.898 3.434 1.86 5.196 2.804l10.992 6.013 36.637 9.78-.234.269-21.113-49.76-.09-.206.206-.09 20.827-8.638.179-.072.108.162 13.483 21.572c4.602 7.299 9.249 14.741 14.138 22.147a100 100 0 0 1 7.569 13.402 52 52 0 0 1 2.696 7.137q.537 1.826.845 3.703c.126.62.18 1.25.261 1.879s.09 1.267 0 1.905a18.15 18.15 0 0 1-6.697 12.962 26.6 26.6 0 0 1-13.32 5.635q-1.788.291-3.596.378c-1.186.117-2.382.144-3.595.18-2.373.09-4.719.081-7.056.09-4.674 0-9.285-.126-13.824-.252-9.078-.27-17.896-.674-26.399-1.097-17.006-.809-32.771-2.139-47.063-2.319l-37.967-1.132h-.171v-.171l9.16-31.145 2.435-8.242c.279-.899.486-1.627.639-2.113.152-.485.206-.809.206-.809"/><path fill="#455a64" d="M298.574 356.747q.43-.01.845.107c.548.099 1.321.27 2.283.504a37.6 37.6 0 0 1 7.299 2.507 17.36 17.36 0 0 1 6.13 4.692q.428.516.791 1.079.302.427.53.899.238.366.369.782c-.081.045-.666-1.043-1.942-2.508a18.6 18.6 0 0 0-6.076-4.494 47.5 47.5 0 0 0-7.191-2.616 27 27 0 0 1-3.038-.952"/><path fill="#ae7461" d="M69.803 372.413s-9.393-5.339-11.218-5.447c-2.616-.161-14.13.234-15.54.144a1.39 1.39 0 0 0-1.471 1.425c.007.258.087.509.23.723.53.899 1.797 2.355 5.393 2.265a16.4 16.4 0 0 1 6.498.899c.9.36.639 1.447.639 1.447s-5.169.279-6.67-.071c-2.067-.486-8.89-5.124-8.89-5.124l-2.696-1.735s-1.141 1.385.638 3.964a46 46 0 0 0 4.01 4.899s-2.517 1.528-.342 3.928c0 0-1.573 2.966 2.004 4.692a8.9 8.9 0 0 0 2.337 3.317c1.088.898 3.838.701 5.528.809a43.7 43.7 0 0 0 7.532-.594 62 62 0 0 0 6.625-1.797l8.511.485.773-14.498z"/><path fill="#6f4439" d="M46.12 378.831a9.5 9.5 0 0 1-3.272-1.285 9.6 9.6 0 0 1-2.876-2.023c1.077.451 2.114.992 3.1 1.618 1.06.48 2.08 1.045 3.048 1.69m-1.125 3.218a5.8 5.8 0 0 1-2.697-.899 5.85 5.85 0 0 1-2.229-1.681c.852.348 1.67.772 2.445 1.267.864.364 1.694.803 2.481 1.313m.197 3.487a4.33 4.33 0 0 1-2.355-.656 4.3 4.3 0 0 1-1.933-1.492c.75.287 1.47.649 2.148 1.079a12 12 0 0 1 2.14 1.069"/><g opacity=".3"><path fill="#000" d="M139.195 372.762c4.8-6.292 7.263-14.067 8.261-21.896s.764-15.281.377-23.145a257.7 257.7 0 0 1-8.638 45.041"/></g><path fill="#500061" d="M148.668 318.609c.081.8 0-1.744 0-.899-.224 10.786-6.552 56.528-14.776 65.435-6.292 6.805-65.094 3.91-65.094 3.91l.647-15.325s1.582-.458 12.143-1.797c10.562-1.34 32.125-6.823 32.125-6.823l7.19-47.899"/><path fill="#263238" d="M120.903 315.211s0 .288-.099.899l-.351 2.517c-.323 2.22-.799 5.465-1.411 9.617-1.24 8.332-3.02 20.314-5.204 34.929v.126h-.117c-6.292 1.609-13.195 3.281-20.601 4.845-3.703.773-7.532 1.528-11.514 2.058s-8.09.989-12.116 1.798l.161-.216c-.206 4.89-.422 10.058-.638 15.325l-.225-.242c4.153.188 8.557.332 13.025.44 8.413.198 16.628.243 24.565 0 3.964-.117 7.856-.296 11.685-.602a72.5 72.5 0 0 0 11.019-1.582 20 20 0 0 0 2.562-.818 5.7 5.7 0 0 0 2.166-1.375 18.2 18.2 0 0 0 2.697-4.414 70 70 0 0 0 3.397-9.428c1.798-6.22 3.065-12.135 4.117-17.546 2.076-10.831 3.254-19.684 3.937-25.815.341-3.065.539-5.456.62-7.073 0-.405 0-.764.054-1.07h.045v.746c0 .207 0 .36-.054.476a.6.6 0 0 1 0-.17v.152-1.168h.063v1.079c-.054 1.617-.225 4.008-.53 7.082-.63 6.139-1.798 15.011-3.802 25.86-1.034 5.393-2.284 11.343-4.072 17.59a70 70 0 0 1-3.389 9.492 19 19 0 0 1-2.759 4.494 6.3 6.3 0 0 1-2.319 1.483q-1.278.514-2.616.836a73 73 0 0 1-11.109 1.618c-3.812.315-7.712.504-11.685.621-7.946.224-16.18.179-24.592 0a612 612 0 0 1-13.025-.441h-.233v-.225c.224-5.276.44-10.435.656-15.325v-.171h.162c2.094-.449 4.125-.701 6.166-.997l6.022-.782c3.955-.522 7.784-1.277 11.478-2.041 7.406-1.546 14.3-3.2 20.592-4.791l-.135.153c2.248-14.606 4.09-26.579 5.393-34.911.648-4.143 1.16-7.379 1.511-9.599.17-1.088.305-1.933.404-2.508s.099-.926.099-.926"/></svg>