<svg width="1437" height="280" viewBox="0 0 1437 280" fill="none" xmlns="http://www.w3.org/2000/svg">
<path d="M9.52045 267.98C303.996 297.177 541.875 265.341 723.158 172.473C904.441 79.6056 1142.32 47.7698 1436.8 76.966M8.06131 257.078C302.536 286.274 540.416 254.438 721.699 161.57C902.982 68.7028 1140.86 36.867 1435.34 66.0633M6.60218 246.175C301.077 275.371 538.956 243.535 720.24 150.668C901.523 57.8 1139.4 25.9643 1433.88 55.1605M5.14304 235.272C299.618 264.468 537.497 232.633 718.78 139.765C900.064 46.8972 1137.94 15.0615 1432.42 44.2577M3.6839 224.369C298.159 253.565 536.038 221.73 717.321 128.862C898.604 35.9944 1136.48 4.15867 1430.96 33.3549M2.22476 213.466C296.7 242.663 534.579 210.827 715.862 117.959C897.145 25.0916 1135.02 -6.74412 1429.5 22.4521M0.765625 202.564C295.241 231.76 533.12 199.924 714.403 107.056C895.686 14.1888 1133.57 -17.6469 1428.04 11.5493" stroke="#500061" stroke-opacity="0.3" stroke-width="2"/>
</svg>
