<svg width="1440" height="166" viewBox="0 0 1440 166" fill="none" xmlns="http://www.w3.org/2000/svg">
<path d="M0 52C288 -16 528 -16 720 52C912 120 1152 120 1440 52M0 63C288 -5 528 -5 720 63C912 131 1152 131 1440 63M0 74C288 6 528 6 720 74C912 142 1152 142 1440 74M0 85C288 17 528 17 720 85C912 153 1152 153 1440 85M0 96C288 28 528 28 720 96C912 164 1152 164 1440 96M0 107C288 39 528 39 720 107C912 175 1152 175 1440 107M0 118C288 50 528 50 720 118C912 186 1152 186 1440 118" stroke="#500061" stroke-opacity="0.3" stroke-width="2"/>
</svg>
