<svg width="1440" height="260" viewBox="0 0 1440 260" fill="none" xmlns="http://www.w3.org/2000/svg">
<path d="M10.7398 307.216C305.215 336.412 543.094 304.576 724.377 211.708C905.66 118.841 1143.54 87.005 1438.01 116.201" stroke="#500061" stroke-opacity="0.3" stroke-width="2"/>
<path d="M9.28081 296.313C303.756 325.509 541.635 293.673 722.918 200.806C904.201 107.938 1142.08 76.1022 1436.56 105.298" stroke="#500061" stroke-opacity="0.3" stroke-width="2"/>
<path d="M7.82182 285.41C302.297 314.606 540.176 282.77 721.459 189.903C902.742 97.0351 1140.62 65.1993 1435.1 94.3955" stroke="#500061" stroke-opacity="0.3" stroke-width="2"/>
<path d="M6.36284 274.507C300.838 303.703 538.717 271.868 720 179C901.283 86.1322 1139.16 54.2965 1433.64 83.4927" stroke="#500061" stroke-opacity="0.3" stroke-width="2"/>
<path d="M4.90385 263.604C299.379 292.8 537.258 260.965 718.541 168.097C899.824 75.2294 1137.7 43.3937 1432.18 72.5899" stroke="#500061" stroke-opacity="0.3" stroke-width="2"/>
<path d="M3.44487 252.702C297.92 281.898 535.799 250.062 717.082 157.194C898.365 64.3268 1136.24 32.4911 1430.72 61.6873" stroke="#500061" stroke-opacity="0.3" stroke-width="2"/>
<path d="M1.98491 241.799C296.46 270.995 534.339 239.159 715.622 146.292C896.905 53.424 1134.78 21.5882 1429.26 50.7845" stroke="#500061" stroke-opacity="0.3" stroke-width="2"/>
</svg>
