<svg xmlns="http://www.w3.org/2000/svg" fill="none" viewBox="0 0 210 175"><path fill="#111" d="M209.957 58.37v48.61a8 8 0 0 1-4.76 7.31v38.08c0 12.03-9.75 21.77-21.77 21.77h-25.48c-9.55 0-21.99-6.22-24.81-15.34l-11.92-38.59c-.89-2.85-4.87-2.98-5.94-.2l-14.87 38.47-.65 1.67-.18.45c-2.17 4.9-5.94 9.04-11.02 11.52-2.1 1.03-4.29 1.65-6.48 1.89-.03.02-.07.02-.11.02-.3.03-.61.05-.91.07-.8.06-1.61.06-2.42 0-.3-.02-.61-.04-.91-.07-.03 0-.07-.01-.11-.02-2.19-.24-4.38-.86-6.48-1.89-5.08-2.48-8.85-6.62-11.02-11.52l-.18-.45-.65-1.67L.307 5.89c-1.09-2.84.85-5.85 3.79-5.86l8.53-.03c5.73-.02 11.44 1.1 16.63 3.53.38.17.77.36 1.16.56.45.22.88.46 1.31.69 7.24 4.02 12.83 10.47 16.16 18.05 9.69 22.05 19.39 44.11 29.08 66.16 1.11 2.5 4.66 2.5 5.76 0 9.69-22.05 19.39-44.11 29.08-66.16 3.33-7.58 8.92-14.03 16.16-18.05.43-.23.87-.47 1.31-.69.39-.2.78-.39 1.16-.56 5.19-2.43 14.9-3.55 20.63-3.53l8.53.03h23.83c12.02 0 21.77 9.75 21.77 21.77v32.58h.77c2.21 0 3.99 1.79 3.99 3.99"/><path fill="#fff" d="M194.147 152.67c0 3.17-2.58 5.74-5.74 5.74-1.1 0-2 .9-2 2s.9 2 2 2c5.37 0 9.74-4.37 9.74-9.74v-37.7h-4zm4-131.57c0-5.37-4.37-9.74-9.74-9.74h-55.15c-1.1 0-2 .9-2 2s.9 2 2 2h55.15c3.17 0 5.74 2.58 5.74 5.74v33.28h4zm-42.75 129.85h-2.56c-.55 0-1 .45-1 1s.45 1 1 1h2.56c.55 0 1-.45 1-1s-.45-1-1-1m12 0h-6c-.55 0-1 .45-1 1s.45 1 1 1h6c.55 0 1-.45 1-1s-.45-1-1-1m12 0h-6c-.55 0-1 .45-1 1s.45 1 1 1h6c.55 0 1-.45 1-1s-.45-1-1-1m7.9-6.98c-.55 0-1 .45-1 1v.14c0 1.72-.72 3.34-1.97 4.45-.41.37-.45 1-.08 1.41.2.22.47.34.75.34.24 0 .47-.08.66-.25 1.68-1.49 2.65-3.66 2.65-5.95v-.14c0-.55-.45-1-1-1z"/><path fill="#fff" d="M148.407 21.82c0-.55-.45-1-1-1h-6c-.55 0-1 .45-1 1s.45 1 1 1h6c.55 0 1-.45 1-1m17 1h6c.55 0 1-.45 1-1s-.45-1-1-1h-6c-.55 0-1 .45-1 1s.45 1 1 1m20.89 5.85v2.3c0 .55.45 1 1 1s1-.45 1-1v-2.3c0-1.23-.28-2.53-.84-3.96a.995.995 0 0 0-1.3-.56c-.51.2-.77.78-.56 1.3.47 1.2.7 2.26.7 3.23zm-8.89-5.85h6c.55 0 1-.45 1-1s-.45-1-1-1h-6c-.55 0-1 .45-1 1s.45 1 1 1m-24 0h6c.55 0 1-.45 1-1s-.45-1-1-1h-6c-.55 0-1 .45-1 1s.45 1 1 1m33.89 109.15c-.55 0-1 .45-1 1v6c0 .55.45 1 1 1s1-.45 1-1v-6c0-.55-.45-1-1-1m0-96c-.55 0-1 .45-1 1v6c0 .55.45 1 1 1s1-.45 1-1v-6c0-.55-.45-1-1-1m1 13c0-.55-.45-1-1-1s-1 .45-1 1v5.41h2zm-1 71c-.55 0-1 .45-1 1v6c0 .55.45 1 1 1s1-.45 1-1v-6c0-.55-.45-1-1-1m0-4a1 1 0 0 0 1-.99h-2c0 .55.45.99 1 .99"/><path fill="#fff" stroke="#fff" stroke-linecap="round" stroke-linejoin="round" stroke-width=".75" d="M177.007 105.42c-12.09 0-21.93-9.31-21.93-20.75s9.84-20.75 21.93-20.75h25.01c1.1 0 2-.9 2-2s-.9-2-2-2h-25.01c-14.42 0-26.16 11.1-26.16 24.75s11.73 24.75 26.16 24.75h25.01c1.1 0 2-.9 2-2s-.9-2-2-2z"/><path fill="#fff" stroke="#fff" stroke-miterlimit="10" d="M178.197 92.51a6.81 6.81 0 1 0 0-13.62 6.81 6.81 0 0 0 0 13.62Z"/></svg>