<svg width="718" height="178" viewBox="0 0 718 178" fill="none" xmlns="http://www.w3.org/2000/svg">
<g clip-path="url(#clip0_6_353)">
<path d="M209.96 59.2801V107.89C209.96 111.15 208 113.96 205.2 115.2V153.28C205.2 165.31 195.45 175.05 183.43 175.05H157.95C148.4 175.05 135.96 168.83 133.14 159.71L121.22 121.12C120.33 118.27 116.35 118.14 115.28 120.92L100.41 159.39L99.76 161.06C99.7 161.21 99.64 161.36 99.58 161.51C97.41 166.41 93.64 170.55 88.56 173.03C86.46 174.06 84.27 174.68 82.08 174.92C82.05 174.94 82.01 174.94 81.97 174.94C81.67 174.97 81.36 174.99 81.06 175.01C80.26 175.07 79.45 175.07 78.64 175.01C78.34 174.99 78.03 174.97 77.73 174.94C77.7 174.94 77.66 174.93 77.62 174.92C75.43 174.68 73.24 174.06 71.14 173.03C66.06 170.55 62.29 166.41 60.12 161.51C60.06 161.36 60 161.21 59.94 161.06L59.29 159.39L0.310045 6.80005C-0.779955 3.96005 1.16004 0.950053 4.10004 0.940053L12.63 0.910053C18.36 0.890053 24.07 2.01005 29.26 4.44005C29.64 4.61005 30.03 4.80005 30.42 5.00005C30.87 5.22005 31.3 5.46005 31.73 5.69005C38.97 9.71005 44.56 16.1601 47.89 23.7401C57.58 45.7901 67.28 67.8501 76.97 89.9001C78.08 92.4001 81.63 92.4001 82.73 89.9001C92.42 67.8501 102.12 45.7901 111.81 23.7401C115.14 16.1601 120.73 9.71005 127.97 5.69005C128.4 5.46005 128.84 5.22005 129.28 5.00005C129.67 4.80005 130.06 4.61005 130.44 4.44005C135.63 2.01005 145.34 0.890053 151.07 0.910053L159.6 0.940053H183.43C195.45 0.940053 205.2 10.6901 205.2 22.7101V55.2901H205.97C208.18 55.2901 209.96 57.0801 209.96 59.2801Z" fill="white"/>
<path d="M378.23 0.800051C383.43 0.0700511 415.29 -3.91995 433.29 16.4801C435.65 19.1501 438.06 22.5701 440.09 26.9401C451.6 48.6601 463.11 70.3801 474.62 92.1001C476.14 94.9701 480.2 95.1001 481.9 92.3301L528.35 16.8801C530.06 14.3301 532.61 11.2501 536.29 8.51005C546.61 0.850052 558.29 1.51005 562.05 1.89005L490.81 110.28C488.82 113.31 487.76 116.86 487.78 120.49C487.85 138.81 487.93 157.12 488 175.44C472.58 179.05 457.95 175.83 450.57 166.32C450.41 166.11 450.25 165.9 450.09 165.67C447.49 162.06 446.16 157.69 446.06 153.25L445.28 119.08C445.17 114.35 443.83 109.74 441.39 105.69L378.23 0.800051Z" fill="white"/>
<path d="M529.92 176.61C529.87 176.71 529.92 176.84 530.04 176.84C533.61 176.97 540.66 176.72 548.18 172.8C559.06 167.13 563.59 157.61 564.86 154.64L606.7 69.02C610.05 62.17 619.8 62.15 623.18 68.98L634.15 94.59C635.04 96.67 633.56 99 631.29 99.06L620.29 99.38C615.64 99.52 611.36 101.95 608.87 105.87L593.28 130.39C593.21 130.5 593.29 130.64 593.42 130.63L636.57 128.69C644 128.36 650.85 132.71 653.71 139.58C653.71 139.58 653.71 139.6 653.71 139.61C657.22 148.75 659.26 155.07 661.88 158.74C679.3 182.42 713.41 177.6 717.69 176.88C717.83 176.86 717.86 176.68 717.75 176.6C709.44 170.66 706.89 163.86 700.76 151.68C695.91 142.04 688.44 127.43 680.14 108.27C680.14 108.27 649.4 42.2 630.69 4.42996C627.87 -1.26004 619.79 -1.36004 616.82 4.24996C603.36 32.06 589.9 59.87 576.45 87.68C560.94 117.32 545.43 146.96 529.93 176.6L529.92 176.61Z" fill="white"/>
<path d="M222.52 176.61C222.47 176.71 222.52 176.84 222.64 176.84C226.21 176.97 233.26 176.72 240.78 172.8C251.66 167.13 256.19 157.61 257.46 154.64C271.41 126.1 285.36 97.56 299.3 69.02C302.65 62.17 312.4 62.15 315.78 68.98L326.75 94.59C327.64 96.67 326.16 99 323.89 99.06L312.89 99.38C308.24 99.52 303.96 101.95 301.47 105.87L285.88 130.39C285.81 130.5 285.89 130.64 286.02 130.63L329.17 128.69C336.6 128.36 343.45 132.71 346.31 139.58C346.31 139.58 346.31 139.6 346.31 139.61C349.82 148.75 351.86 155.07 354.48 158.74C371.9 182.42 406.01 177.6 410.29 176.88C410.43 176.86 410.46 176.68 410.35 176.6C402.04 170.66 399.49 163.86 393.36 151.68C388.51 142.04 381.04 127.43 372.74 108.27C372.74 108.27 342 42.2 323.29 4.42996C320.47 -1.26004 312.39 -1.36004 309.42 4.24996C295.96 32.06 282.5 59.87 269.05 87.68C253.54 117.32 238.03 146.96 222.53 176.6L222.52 176.61Z" fill="white"/>
<path d="M194.15 153.58C194.15 156.75 191.57 159.32 188.41 159.32C187.31 159.32 186.41 160.22 186.41 161.32C186.41 162.42 187.31 163.32 188.41 163.32C193.78 163.32 198.15 158.95 198.15 153.58V115.88H194.15V153.58Z" fill="black"/>
<path d="M198.15 22.01C198.15 16.64 193.78 12.27 188.41 12.27H133.26C132.16 12.27 131.26 13.17 131.26 14.27C131.26 15.37 132.16 16.27 133.26 16.27H188.41C191.58 16.27 194.15 18.85 194.15 22.01V55.29H198.15V22.01Z" fill="black"/>
<path d="M155.4 151.86H152.84C152.29 151.86 151.84 152.31 151.84 152.86C151.84 153.41 152.29 153.86 152.84 153.86H155.4C155.95 153.86 156.4 153.41 156.4 152.86C156.4 152.31 155.95 151.86 155.4 151.86Z" fill="black"/>
<path d="M167.4 151.86H161.4C160.85 151.86 160.4 152.31 160.4 152.86C160.4 153.41 160.85 153.86 161.4 153.86H167.4C167.95 153.86 168.4 153.41 168.4 152.86C168.4 152.31 167.95 151.86 167.4 151.86Z" fill="black"/>
<path d="M179.4 151.86H173.4C172.85 151.86 172.4 152.31 172.4 152.86C172.4 153.41 172.85 153.86 173.4 153.86H179.4C179.95 153.86 180.4 153.41 180.4 152.86C180.4 152.31 179.95 151.86 179.4 151.86Z" fill="black"/>
<path d="M187.3 144.88C186.75 144.88 186.3 145.33 186.3 145.88V146.02C186.3 147.74 185.58 149.36 184.33 150.47C183.92 150.84 183.88 151.47 184.25 151.88C184.45 152.1 184.72 152.22 185 152.22C185.24 152.22 185.47 152.14 185.66 151.97C187.34 150.48 188.31 148.31 188.31 146.02V145.88C188.31 145.33 187.86 144.88 187.31 144.88H187.3Z" fill="black"/>
<path d="M148.41 22.73C148.41 22.18 147.96 21.73 147.41 21.73H141.41C140.86 21.73 140.41 22.18 140.41 22.73C140.41 23.28 140.86 23.73 141.41 23.73H147.41C147.96 23.73 148.41 23.28 148.41 22.73Z" fill="black"/>
<path d="M165.41 23.73H171.41C171.96 23.73 172.41 23.28 172.41 22.73C172.41 22.18 171.96 21.73 171.41 21.73H165.41C164.86 21.73 164.41 22.18 164.41 22.73C164.41 23.28 164.86 23.73 165.41 23.73Z" fill="black"/>
<path d="M186.3 29.58V31.88C186.3 32.43 186.75 32.88 187.3 32.88C187.85 32.88 188.3 32.43 188.3 31.88V29.58C188.3 28.35 188.02 27.05 187.46 25.62C187.26 25.11 186.68 24.85 186.16 25.06C185.65 25.26 185.39 25.84 185.6 26.36C186.07 27.56 186.3 28.62 186.3 29.59V29.58Z" fill="black"/>
<path d="M177.41 23.73H183.41C183.96 23.73 184.41 23.28 184.41 22.73C184.41 22.18 183.96 21.73 183.41 21.73H177.41C176.86 21.73 176.41 22.18 176.41 22.73C176.41 23.28 176.86 23.73 177.41 23.73Z" fill="black"/>
<path d="M153.41 23.73H159.41C159.96 23.73 160.41 23.28 160.41 22.73C160.41 22.18 159.96 21.73 159.41 21.73H153.41C152.86 21.73 152.41 22.18 152.41 22.73C152.41 23.28 152.86 23.73 153.41 23.73Z" fill="black"/>
<path d="M187.3 132.88C186.75 132.88 186.3 133.33 186.3 133.88V139.88C186.3 140.43 186.75 140.88 187.3 140.88C187.85 140.88 188.3 140.43 188.3 139.88V133.88C188.3 133.33 187.85 132.88 187.3 132.88Z" fill="black"/>
<path d="M187.3 36.88C186.75 36.88 186.3 37.33 186.3 37.88V43.88C186.3 44.43 186.75 44.88 187.3 44.88C187.85 44.88 188.3 44.43 188.3 43.88V37.88C188.3 37.33 187.85 36.88 187.3 36.88Z" fill="black"/>
<path d="M188.3 49.88C188.3 49.33 187.85 48.88 187.3 48.88C186.75 48.88 186.3 49.33 186.3 49.88V55.29H188.3V49.88Z" fill="black"/>
<path d="M187.3 120.88C186.75 120.88 186.3 121.33 186.3 121.88V127.88C186.3 128.43 186.75 128.88 187.3 128.88C187.85 128.88 188.3 128.43 188.3 127.88V121.88C188.3 121.33 187.85 120.88 187.3 120.88Z" fill="black"/>
<path d="M187.3 116.88C187.85 116.88 188.29 116.44 188.3 115.89H186.3C186.3 116.44 186.75 116.88 187.3 116.88Z" fill="black"/>
<path d="M177.01 106.33C164.92 106.33 155.08 97.0201 155.08 85.5801C155.08 74.1401 164.92 64.8301 177.01 64.8301H202.02C203.12 64.8301 204.02 63.9301 204.02 62.8301C204.02 61.7301 203.12 60.8301 202.02 60.8301H177.01C162.59 60.8301 150.85 71.9301 150.85 85.5801C150.85 99.2301 162.58 110.33 177.01 110.33H202.02C203.12 110.33 204.02 109.43 204.02 108.33C204.02 107.23 203.12 106.33 202.02 106.33H177.01Z" fill="black" stroke="black" stroke-width="0.75" stroke-linecap="round" stroke-linejoin="round"/>
<path d="M178.2 93.42C181.961 93.42 185.01 90.3711 185.01 86.61C185.01 82.849 181.961 79.8 178.2 79.8C174.439 79.8 171.39 82.849 171.39 86.61C171.39 90.3711 174.439 93.42 178.2 93.42Z" fill="black" stroke="black" stroke-miterlimit="10"/>
</g>
<defs>
<clipPath id="clip0_6_353">
<rect width="717.82" height="177.77" fill="white"/>
</clipPath>
</defs>
</svg>
