<svg xmlns="http://www.w3.org/2000/svg" fill="none" viewBox="0 0 718 178" xmlns:xlink="http://www.w3.org/1999/xlink"><g clip-path="url(#clip0_6_353)"><path fill="#fff" d="M209.96 59.28v48.61a8 8 0 0 1-4.76 7.31v38.08c0 12.03-9.75 21.77-21.77 21.77h-25.48c-9.55 0-21.99-6.22-24.81-15.34l-11.92-38.59c-.89-2.85-4.87-2.98-5.94-.2l-14.87 38.47-.65 1.67-.18.45c-2.17 4.9-5.94 9.04-11.02 11.52-2.1 1.03-4.29 1.65-6.48 1.89-.03.02-.07.02-.11.02-.3.03-.61.05-.91.07-.8.06-1.61.06-2.42 0-.3-.02-.61-.04-.91-.07-.03 0-.07-.01-.11-.02-2.19-.24-4.38-.86-6.48-1.89-5.08-2.48-8.85-6.62-11.02-11.52l-.18-.45-.65-1.67L.31 6.8C-.78 3.96 1.16.95 4.1.94l8.53-.03c5.73-.02 11.44 1.1 16.63 3.53.38.17.77.36 1.16.56.45.22.88.46 1.31.69 7.24 4.02 12.83 10.47 16.16 18.05 9.69 22.05 19.39 44.11 29.08 66.16 1.11 2.5 4.66 2.5 5.76 0 9.69-22.05 19.39-44.11 29.08-66.16 3.33-7.58 8.92-14.03 16.16-18.05.43-.23.87-.47 1.31-.69.39-.2.78-.39 1.16-.56 5.19-2.43 14.9-3.55 20.63-3.53l8.53.03h23.83c12.02 0 21.77 9.75 21.77 21.77v32.58h.77c2.21 0 3.99 1.79 3.99 3.99M378.23.8c5.2-.73 37.06-4.72 55.06 15.68 2.36 2.67 4.77 6.09 6.8 10.46l34.53 65.16c1.52 2.87 5.58 3 7.28.23l46.45-75.45c1.71-2.55 4.26-5.63 7.94-8.37 10.32-7.66 22-7 25.76-6.62l-71.24 108.39a18.4 18.4 0 0 0-3.03 10.21c.07 18.32.15 36.63.22 54.95-15.42 3.61-30.05.39-37.43-9.12-.16-.21-.32-.42-.48-.65-2.6-3.61-3.93-7.98-4.03-12.42l-.78-34.17c-.11-4.73-1.45-9.34-3.89-13.39zm151.69 175.81c-.05.1 0 .23.12.23 3.57.13 10.62-.12 18.14-4.04 10.88-5.67 15.41-15.19 16.68-18.16l41.84-85.62c3.35-6.85 13.1-6.87 16.48-.04l10.97 25.61c.89 2.08-.59 4.41-2.86 4.47l-11 .32c-4.65.14-8.93 2.57-11.42 6.49l-15.59 24.52c-.07.11.01.25.14.24l43.15-1.94c7.43-.33 14.28 4.02 17.14 10.89v.03c3.51 9.14 5.55 15.46 8.17 19.13 17.42 23.68 51.53 18.86 55.81 18.14.14-.02.17-.2.06-.28-8.31-5.94-10.86-12.74-16.99-24.92-4.85-9.64-12.32-24.25-20.62-43.41 0 0-30.74-66.07-49.45-103.84-2.82-5.69-10.9-5.79-13.87-.18-13.46 27.81-26.92 55.62-40.37 83.43-15.51 29.64-31.02 59.28-46.52 88.92zm-307.4 0c-.05.1 0 .23.12.23 3.57.13 10.62-.12 18.14-4.04 10.88-5.67 15.41-15.19 16.68-18.16 13.95-28.54 27.9-57.08 41.84-85.62 3.35-6.85 13.1-6.87 16.48-.04l10.97 25.61c.89 2.08-.59 4.41-2.86 4.47l-11 .32c-4.65.14-8.93 2.57-11.42 6.49l-15.59 24.52c-.07.11.01.25.14.24l43.15-1.94c7.43-.33 14.28 4.02 17.14 10.89v.03c3.51 9.14 5.55 15.46 8.17 19.13 17.42 23.68 51.53 18.86 55.81 18.14.14-.02.17-.2.06-.28-8.31-5.94-10.86-12.74-16.99-24.92-4.85-9.64-12.32-24.25-20.62-43.41 0 0-30.74-66.07-49.45-103.84-2.82-5.69-10.9-5.79-13.87-.18-13.46 27.81-26.92 55.62-40.37 83.43-15.51 29.64-31.02 59.28-46.52 88.92z"/><path fill="#000" d="M194.15 153.58c0 3.17-2.58 5.74-5.74 5.74-1.1 0-2 .9-2 2s.9 2 2 2c5.37 0 9.74-4.37 9.74-9.74v-37.7h-4zm4-131.57c0-5.37-4.37-9.74-9.74-9.74h-55.15c-1.1 0-2 .9-2 2s.9 2 2 2h55.15c3.17 0 5.74 2.58 5.74 5.74v33.28h4zM155.4 151.86h-2.56c-.55 0-1 .45-1 1s.45 1 1 1h2.56c.55 0 1-.45 1-1s-.45-1-1-1m12 0h-6c-.55 0-1 .45-1 1s.45 1 1 1h6c.55 0 1-.45 1-1s-.45-1-1-1m12 0h-6c-.55 0-1 .45-1 1s.45 1 1 1h6c.55 0 1-.45 1-1s-.45-1-1-1m7.9-6.98c-.55 0-1 .45-1 1v.14c0 1.72-.72 3.34-1.97 4.45-.41.37-.45 1-.08 1.41.2.22.47.34.75.34.24 0 .47-.08.66-.25 1.68-1.49 2.65-3.66 2.65-5.95v-.14c0-.55-.45-1-1-1z"/><path fill="#000" d="M148.41 22.73c0-.55-.45-1-1-1h-6c-.55 0-1 .45-1 1s.45 1 1 1h6c.55 0 1-.45 1-1m17 1h6c.55 0 1-.45 1-1s-.45-1-1-1h-6c-.55 0-1 .45-1 1s.45 1 1 1m20.89 5.85v2.3c0 .55.45 1 1 1s1-.45 1-1v-2.3c0-1.23-.28-2.53-.84-3.96a.995.995 0 0 0-1.3-.56c-.51.2-.77.78-.56 1.3.47 1.2.7 2.26.7 3.23zm-8.89-5.85h6c.55 0 1-.45 1-1s-.45-1-1-1h-6c-.55 0-1 .45-1 1s.45 1 1 1m-24 0h6c.55 0 1-.45 1-1s-.45-1-1-1h-6c-.55 0-1 .45-1 1s.45 1 1 1m33.89 109.15c-.55 0-1 .45-1 1v6c0 .55.45 1 1 1s1-.45 1-1v-6c0-.55-.45-1-1-1m0-96c-.55 0-1 .45-1 1v6c0 .55.45 1 1 1s1-.45 1-1v-6c0-.55-.45-1-1-1m1 13c0-.55-.45-1-1-1s-1 .45-1 1v5.41h2zm-1 71c-.55 0-1 .45-1 1v6c0 .55.45 1 1 1s1-.45 1-1v-6c0-.55-.45-1-1-1m0-4a1 1 0 0 0 1-.99h-2c0 .55.45.99 1 .99"/><path fill="#000" stroke="#000" stroke-linecap="round" stroke-linejoin="round" stroke-width=".75" d="M177.01 106.33c-12.09 0-21.93-9.31-21.93-20.75s9.84-20.75 21.93-20.75h25.01c1.1 0 2-.9 2-2s-.9-2-2-2h-25.01c-14.42 0-26.16 11.1-26.16 24.75s11.73 24.75 26.16 24.75h25.01c1.1 0 2-.9 2-2s-.9-2-2-2z"/><path fill="#000" stroke="#000" stroke-miterlimit="10" d="M178.2 93.42a6.81 6.81 0 1 0 0-13.62 6.81 6.81 0 0 0 0 13.62Z"/></g><defs><clipPath id="clip0_6_353"><path fill="#fff" d="M0 0h717.82v177.77H0z"/></clipPath></defs></svg>